<svg xmlns="http://www.w3.org/2000/svg" id="_レイヤー_2" data-name=" レイヤー 2" version="1.1" viewBox="0 0 769.40247 1016.35565" width="769px" height="1016px" class="lg:!max-h-[405px] isometric rectangleModalImage"><title>男女問題</title><g id="_レイヤー_2-2" data-name=" レイヤー 2-2"><g><g><g opacity=".05"><path d="M233.43559,1016.35562l71.50391-39.7168,15.56641-38.91602,60.45898-10.27344,47.04102-40.71777,44.66801,6.54793,31.6309-30.69344,35.49801-2.49023,12.26559-28.94043,2.23629-.68359c24.54102-7.4707,49.4434-11.25977,74.0332-11.25977,37.5684,0,72.60738,8.76953,101.33793,25.35156,25.58586,14.77539,39.69727,34.75098,39.72664,56.25.0293,22.81738-15.37109,44.34082-43.35938,60.60547-63.48633,36.89453-145.51758,44.27727-224.08199,48.67188-75.51762,4.11133-214.7559,6.26457-249.2285,6.26457h-19.29689l-.00011.00008Z" fill="#000" stroke-width="0"/></g><g><path d="M764.31511,860.99055c.46143-19.19861-11.5979-38.29529-37.14111-53.0426-43.44124-25.08118-106.08398-33.52966-171.4185-13.63831l-12.54879,29.61487-36.7371,2.5769-32.0837,31.1377-44.8315-6.57227-46.37211,40.1355-59.07589,10.03418-15.18681,37.96082-56.189,31.21147h.0012-.0012l-.116,40.75813c1.499,0,3.25809-.00549,5.1306-.01343.4883-.00237.98391-.00488,1.4966-.00732,1.8726-.00977,3.8611-.02258,6.0413-.03906.40159-.00313.8411-.00671,1.2524-.01038,2.02999-.01648,4.18699-.03601,6.44899-.05859.63601-.0061,1.26101-.01282,1.9141-.01953,2.51711-.02617,5.1453-.05493,7.9077-.0885.8252-.01038,1.68699-.02083,2.5342-.03166,2.3267-.02869,4.7266-.05981,7.19971-.09338.7947-.01099,1.5576-.02083,2.3657-.03166,3.15189-.04387,6.4185-.09163,9.77289-.14282.84961-.01282,1.71391-.02693,2.5757-.03967,2.87109-.04463,5.7996-.09216,8.7952-.1416.85819-.01404,1.68819-.02693,2.55489-.0415,3.38871-.05737,6.86771-.11902,10.39059-.1825,1.29761-.0238,2.59769-.04761,3.91109-.07141,7.65991-.1416,15.57621-.29793,23.66329-.46883,1.05221-.02197,2.10079-.04463,3.158-.06706,4.0332-.08667,8.0933-.17578,12.1899-.26917.7629-.0177,1.5295-.03601,2.29488-.05371,3.5181-.08118,7.0496-.16541,10.5933-.25208,1.1731-.02869,2.34131-.05676,3.51559-.08614,3.95512-.09827,7.9126-.2002,11.8726-.30457,1.106-.0293,2.20829-.05859,3.31421-.0885,3.80981-.10246,7.6099-.20752,11.39889-.31616.50171-.01457,1.0059-.02747,1.50761-.04211,4.1016-.1178,8.17749-.24048,12.229-.3656,1.2891-.03967,2.56592-.08057,3.84769-.12077,3.40698-.10742,6.78959-.21729,10.1392-.32959.58109-.01953,1.18038-.03777,1.76029-.05737.14042-.00488.2734-.00977.4126-.01457,4.59961-.15617,9.11129-.3186,13.56449-.48401.78491-.0293,1.57471-.05798,2.356-.08789,4.3335-.16357,8.57182-.33203,12.72221-.50484.77881-.03227,1.5527-.0647,2.32422-.09773,4.1687-.17639,8.23971-.35637,12.17289-.54199.5859-.02747,1.15108-.05623,1.731-.08423,4.09908-.19653,8.0957-.39673,11.88721-.60303,10.1733-.56953,20.39669-1.19202,30.6226-1.91353.60421-.04272,1.20731-.09216,1.81149-.13611,9.70211-.69641,19.39701-1.49544,29.05762-2.43843.41988-.04089.84229-.0647,1.26221-.1062.63721-.06287,1.26461-.15556,1.89941-.21973,8.10551-.8197,16.1829-1.72852,24.2017-2.79541.58842-.07812,1.1694-.17151,1.75781-.25146,8.09689-1.09917,16.13651-2.33887,24.0942-3.7561.3186-.05676.64701-.09338.96561-.15083.0964-.01709.18799-.04272.28439-.05981,8.44238-1.52527,16.7712-3.28247,24.9976-5.24231.72388-.17273,1.45866-.32532,2.18262-.50171,7.96387-1.94267,15.78743-4.15039,23.48877-6.57784.60913-.19234,1.25-.32532,1.85791-.52063.49561-.1593.97412-.34851,1.46729-.50957,2.62207-.85693,5.20393-1.78413,7.79053-2.70393,1.91406-.68123,3.84277-1.33423,5.73608-2.05078,2.66724-1.01013,5.28442-2.10571,7.90894-3.1897,1.76392-.72746,3.5498-1.41724,5.29297-2.17957,2.87598-1.25847,5.69092-2.62154,8.5083-3.97713,1.4209-.6842,2.87354-1.31531,4.27979-2.02454,4.19922-2.11853,8.33252-4.34196,12.3877-6.698.59807-.34729,1.18896-.69702,1.7749-1.04919,1.16821-.70374,2.1582-1.46667,3.27637-2.18811,1.85913-1.19926,3.73291-2.39197,5.44922-3.6377,1.31706-.95581,2.50732-1.9458,3.74023-2.92664,1.56982-1.24878,3.13957-2.49451,4.57031-3.78052.35156-.31487.77881-.60913,1.12061-.92651,1.67358-1.54854,3.24219-3.12317,4.7168-4.71802.12207-.13184.22217-.26787.34302-.40039,1.27083-1.39282,2.4939-2.79602,3.6145-4.21944.29541-.37407.48576-.76538.76897-1.14143,1.25977-1.66687,2.35603-3.35632,3.4082-5.05676.43213-.69946,1.00342-1.37756,1.40137-2.08191.13672-.23987.21004-.48714.3418-.72746.77759-1.42273,1.38428-2.86247,2.01897-4.30183.39787-.90446.92651-1.79573,1.26831-2.70569.07202-.19409.09888-.39062.16853-.58472.46021-1.27197.75317-2.5531,1.10229-3.83301.2832-1.04248.68848-2.07817.89844-3.12378.03662-.1886.0293-.37903.0647-.56763.2356-1.25237.30403-2.50549.43091-3.75977.10986-1.07117.33813-2.1405.36873-3.21228.01221-.3833.01709-.7666.01953-1.1499l.11467-40.75813c-.00122.31013-.06348.62012-.08301.93018l-.00008.00053ZM257.8429,970.39546c.0732-.00061.15141-.00122.22711-.00122-.0696.00061-.1416.00061-.21.00122h-.01711ZM273.0065,970.28072c.22949-.00237.46021-.00427.6909-.00671-.19779.00183-.39921.00427-.59811.0061-.0317.00061-.0598.00061-.09279.00061ZM282.9088,970.172c.1086-.00122.22461-.00313.33331-.00427-.1074.00122-.21971.00313-.32591.00427h-.0074ZM306.09489,969.85225c.5957-.00923,1.19381-.0177,1.79689-.02747-.166.00237-.3418.00549-.50779.00793-.42971.00671-.85819.01343-1.2891.01953ZM316.16079,969.69173c-.26119.00427-.50779.00793-.7678.01221,1.3196-.02197,2.62569-.04211,3.96851-.06531-.21.00366-.43209.00732-.64211.01099-.8667.01457-1.6992.02808-2.55859.04211ZM329.05869,969.46773c.1709-.00313.3442-.0061.5127-.00923-.15259.00313-.30762.0061-.46139.00847-.01709.00061-.03422.00061-.05131.00061v.00015ZM356.61491,968.9281c.83248-.0177,1.665-.0354,2.5-.0531-.81299.01709-1.6235.03479-2.4316.05188-.02319.00061-.0452.00061-.0684.00122ZM401.90048,967.85152c.6934-.01892,1.38672-.03662,2.0813-.05547-.11959.00313-.238.00671-.3577.00977-.57499.01534-1.1499.03052-1.72359.04578v-.00008ZM415.77499,967.46883c.30399-.00847.61039-.01709.91309-.02617-.05371.00183-.10502.00366-.15869.00488-.2515.00732-.50289.01404-.75439.02136v-.00008ZM473.55339,965.48335l-.04761.00183c.8057-.03357,1.604-.06653,2.40108-.10071-.00488,0-.01099.00061-.01709.00061-.77511.03304-1.5527.06592-2.33639.09827ZM487.98328,964.84676c.33451-.01587.6567-.03227.98999-.04822-.3027.01457-.60421.02991-.91309.04463-.02441.00122-.05131.00237-.0769.00366v-.00008ZM532.30209,962.24231c-.0061.00061-.01099.00061-.01591.00122.60909-.04333,1.2183-.09338,1.82739-.13733-.0024,0-.00488.00061-.00729.00061-.60181.04272-1.20239.09277-1.8042.1355ZM563.1395,959.67036c-.0037.00061-.00729,0-.01099.00061,1.08891-.1062,2.17529-.22583,3.2642-.33569l-.0293.00366c-1.0754.10857-2.1484.22636-3.22392.33142ZM590.53329,956.54651c-.0024,0-.0037.00061-.00488.00061.59448-.07874,1.1816-.17403,1.77731-.25452l-.02201.00366c-.5859.07927-1.16459.17212-1.75049.25017l.00008.00008ZM617.23869,952.39436c.1379-.02502.2771-.04463.41382-.06958,0,0-.00118.00061-.0024.00061-.13672.02441-.2734.04639-.41142.06897ZM643.81577,946.81331c.33081-.08057.66772-.14832.99983-.22949l-.00237.00061c-.32959.08057-.66406.15381-.99731.22888h-.00015ZM668.30193,940.00667c-.00237.00061-.00366.00061-.00488.00122.63599-.20081,1.2793-.38879,1.91528-.59334-.63843.1947-1.27563.39177-1.9104.59196v.00015ZM679.40536,936.27742c-.01221.00427-.02441.00923-.03777.01343,1.93481-.68848,3.88672-1.34949,5.802-2.07458-.00366.00122-.00732.00237-.00977.00366-1.89941.71899-3.83537,1.37512-5.75439,2.0575h-.00008ZM694.37607,930.49182c1.32568-.55542,2.67578-1.06812,3.98933-1.64307l-.00732.00366c-1.31104.57373-2.64893,1.10107-3.98193,1.6394h-.00008ZM706.86638,924.87544l-.05859.02747c1.44173-.69267,2.91382-1.33423,4.3396-2.05322l-.00237.00122c-1.40503.70923-2.85767,1.34033-4.27856,2.02454h-.00008ZM733.91838,909.35481c.62134-.44922,1.17073-.91919,1.77116-1.3739-.5481.43327-1.07422.87341-1.65649,1.297-.0354.02617-.07812.05074-.11467.0769ZM742.34734,902.56831c-.06348.05676-.13786.11047-.20142.16663.59196-.52803,1.12061-1.07117,1.68823-1.60522-.51392.47546-.96191.96619-1.48682,1.4386ZM748.18352,896.9231c-.07446.08118-.1709.15747-.24658.23857.90942-.97527,1.6626-1.9812,2.49763-2.9718-.64331.78308-1.21948,1.57898-1.92261,2.34993-.11467.12627-.2124.25757-.32837.3833h-.00008ZM761.47079,875.80745c.20508-.5658.31982-1.13831.50537-1.70593-.15137.53589-.26978,1.07361-.46257,1.60637-.01221.03357-.03052.06653-.04272.09949l-.00008.00008ZM763.51669,868.42464c.15869-.8252.20752-1.65222.31982-2.47864-.06958.74577-.11719,1.4917-.25627,2.23633-.01457.08118-.04639.16113-.06348.24231h-.00008Z" fill="#1D71A2" stroke-width="0"/><g opacity=".15"><path d="M727.174,807.94795c51.93909,29.98703,48.41621,77.95212-3.64212,108.20511-62.86713,36.53427-143.78239,43.63068-221.85562,48.00301-74.8357,4.07356-214.11039,6.25282-248.94621,6.25298l56.1894-31.21147,15.18681-37.96082,59.07661-10.03441,46.3707-40.13557,44.8328,6.57242,32.08321-31.13762,36.73698-2.5769,12.54898-29.61472c65.3339-19.89151,127.97699-11.44287,171.41838,13.638h.00008Z" fill="#fff" stroke-width="0"/></g></g></g><g><g opacity=".05"><polygon points="82.3941 896.06876 131.3589 890.85391 119.8745 919.55997 86.2027 937.63614 82.3941 896.06876" fill="#000" stroke-width="0"/></g><g><polygon points="87.8225 857.81062 87.7066 898.56876 90.3726 927.70869 115.7962 914.06551 123.5147 894.75772 123.6306 853.99905 87.8225 857.81062" fill="#1D71A2" stroke-width="0"/><g opacity=".05"><polygon points="123.6304 853.99944 123.5149 894.75757 115.7961 914.06604 115.9116 873.30791 123.6304 853.99944" fill="#000" stroke-width="0"/></g><g opacity=".15"><polygon points="123.6304 853.99944 115.9116 873.30791 90.4882 886.95071 87.8226 857.81093 123.6304 853.99944" fill="#fff" stroke-width="0"/></g><g opacity=".05"><polygon points="90.4882 886.95071 90.3727 927.70885 87.7071 898.56906 87.8226 857.81093 90.4882 886.95071" fill="#000" stroke-width="0"/></g></g></g><g><g opacity=".05"><path d="M155.2353,965.49121c-.0195-5.1709.2051-14.28711.6641-25.68848l.1172-2.89062,15.5176-8.08113,24.1016,4.94141,1.6016,17.51953-41.97269,22.51953-.0293-8.32031-.0001.00008Z" fill="#000" stroke-width="0"/></g><g><path d="M190.9934,896.59724l-18.7244-3.83728-11.37211,5.9198c-.4578,11.30188-.68121,20.33691-.6592,25.46448l-.11471,40.75813,31.71881-17.01897.11471-40.75813-.9631-10.52803Z" fill="#1D71A2" stroke-width="0"/><g opacity=".15"><path d="M190.9934,896.59724l.9631,10.52788-31.71789,17.01912c-.02251-5.12741.20041-14.16229.6588-25.46417l11.37079-5.92018,18.7253,3.83728-.0001.00008Z" fill="#fff" stroke-width="0"/></g></g></g><g><g opacity=".05"><path d="M30.9341,960.60573c.2344-5.45898.5078-11.48438.8398-17.82707l.1855-3.59863,10.4199-2.87109,6.582,3.80371,20.3613-.25879,2.3047,25.12703-23.5938-4.83398-17.4512,9.08691.3516-8.62793.0002-.00015Z" fill="#000" stroke-width="0"/></g><g><path d="M64.761,904.02881l-17.1057.22087-5.9692-3.44673-4.9182,1.35681c-.3333,6.32568-.6116,12.33032-.835,17.771l-.116,40.75867,11.3708-5.92041,18.7256,3.83728.116-40.75813-1.2683-13.81958v.00023Z" fill="#1D71A2" stroke-width="0"/><g opacity=".05"><polygon points="66.0286 917.84854 65.9131 958.6066 47.1878 954.76932 47.3034 914.01111 66.0286 917.84854" fill="#000" stroke-width="0"/></g><g opacity=".15"><path d="M64.7608,904.02896l1.2678,13.8195-18.7253-3.83728-11.3708,5.92018c.224-5.44083.5018-11.44577.8353-17.7713l4.9182-1.35651,5.9697,3.44658,17.105-.22118h.0001Z" fill="#fff" stroke-width="0"/></g></g></g><g><g opacity=".05"><path d="M102.5573,833.6803l-10.0098-3.70613-27.4023-.91309.3125-5.13184c1.25-20.37598,3.9648-58.50594,8.125-84.94141,7.4512-46.38176,20.1074-94.78523,84.54099-132.2266,27.041-15.71289,62.3535-24.37012,99.42381-24.37012,35.11721,0,68.10551,7.8809,92.89059,22.1875,25.6543,14.81449,40.88871,33.18359,44.0332,53.12008,2.62699,16.59668-3.02731,33.35938-16.79691,49.8877l-14.80469,34.94629-37.98832,2.65617-32.5391,31.58203-45-6.59668-45.6934,39.55566-57.6855,9.78996-7.5488,18.85246-37.0117,3.94043,3.1543-8.63281.00013.00038Z" fill="#000" stroke-width="0"/></g><g><path d="M390.06458,623.40312c.23682-21.86459-15.3857-41.63639-42.13131-57.0776-50.98751-29.4379-134.29321-28.6298-187.2974,2.1722-62.8662,36.53439-74.8462,83.43018-82.1143,128.68233-3.5767,22.68494-6.2927,55.44128-8.0713,84.4696l-.1147,40.75813,23.0737.77026.1147-40.75813-.1147,40.75813,13.3447,4.94263.0977-34.21448-.116,40.75867,26.0388-2.77222,7.4683-18.65967,59.07591-10.02747,46.36471-40.13924,44.83891,6.57593,32.07642-31.14067,36.7432-2.57393,12.54879-29.61487.02319-8.18848-.01831,6.50627c1.23779-1.41243,2.46342-2.8241,3.56812-4.23027.00488-.00671.00851-.01282.01339-.01953.21358-.271.3857-.54077.5933-.81177,1.1499-1.49597,2.25712-2.9895,3.25809-4.47693.4285-.63782.77999-1.27007,1.1816-1.90666.66769-1.05652,1.36841-2.11487,1.96171-3.1665.02441-.04272.03658-.08423.061-.12703,1.50391-2.67639,2.7087-5.3302,3.7476-7.96997.1099-.27946.29171-.56458.39669-.84351.08419-.224.11108-.4425.19169-.66589.86788-2.40051,1.56738-4.78447,2.06051-7.14844.02689-.12939.08789-.26253.11349-.39177.05859-.29358.04761-.57861.1001-.87158.37479-2.0636.60909-4.11011.70679-6.14014.01461-.29167.09281-.59082.1025-.88203.01099-.39429.01709-.78796.01831-1.18156l.116-40.75809c0,.12081-.01709.24288-.02201.36442l.00011-.00015ZM375.59441,659.62146c-1.40621,1.78963-2.91752,3.58459-4.53861,5.38391v.00061-.00061c1.92379-2.13501,3.64498-4.26147,5.26611-6.38237-.06351.08179-.11471.16357-.17818.24544-.19291.25146-.3516.5011-.54932.75317v-.00015ZM379.4445,654.33391c-.5249.78056-1.13529,1.56563-1.70898,2.34802l-.0037.00549c1.1145-1.54167,2.1521-3.07922,3.10909-4.61182-.0732.1178-.1416.23376-.21481.35156-.40279.6366-.75321,1.26831-1.1816,1.90666v.00008ZM382.05318,650.10295c-.00118.00122-.0024.00313-.0037.00488.48458-.83069.8667-1.65413,1.30619-2.48108-.26119.50423-.4248,1.00159-.70801,1.50703-.1807.32173-.39921.64636-.59448.96916ZM386.98479,639.65373c-.18188.50171-.39181,1.00647-.5896,1.51001-.0684.17273-.17578.34912-.2454.52193h0c.36739-.91003.7214-1.81759,1.0339-2.72282v.00118c-.0806.23129-.11471.45841-.19901.6897h.00011ZM389.04411,632.51083c-.09521.4565-.28809.92289-.39791,1.38062v.00118c.19779-.83561.43461-1.67419.58842-2.50488-.061.37411-.1099.74711-.19039,1.12301l-.00011.00008ZM389.96578,625.10364c-.00851.1862-.05371.37659-.0647.56271v.00309c.01949-.34061.07809-.686.09159-1.026v.0024c-.01099.15259-.01949.30521-.02689.4578Z" fill="#1D71A2" stroke-width="0"/><g opacity=".05"><polygon points="322.71488 697.74326 322.5993 738.50131 290.52231 769.64252 290.63789 728.88446 322.71488 697.74326" fill="#000" stroke-width="0"/></g><g opacity=".05"><polygon points="245.79889 722.30853 245.68331 763.06667 199.3189 803.20583 199.43439 762.44769 245.79889 722.30853" fill="#000" stroke-width="0"/></g><g opacity=".05"><polygon points="93.5242 782.42015 93.4087 823.17821 70.3351 822.40802 70.4507 781.64996 93.5242 782.42015" fill="#000" stroke-width="0"/></g><g opacity=".05"><polygon points="132.8898 791.13445 132.7742 831.8925 106.7359 834.66464 106.8515 793.90651 132.8898 791.13445" fill="#000" stroke-width="0"/></g><g opacity=".15"><path d="M347.93339,566.32583c42.96902,24.80808,57.27989,60.78899,23.1218,98.67977l.95119.54916-12.54829,29.6151-36.7432,2.57332-32.07701,31.1412-44.839-6.576-46.3645,40.13916-59.0764,10.02708-7.4682,18.65959-26.0383,2.77206,2.1119-5.76912-15.4392-5.71732-23.0735-.77026c1.778-29.0287,4.4952-61.78459,8.0711-84.46968,7.2676-45.25192,19.2479-92.1479,82.115-128.68229,53.0035-30.80231,136.30869-31.60999,187.29658-2.17209l.00004.00031Z" fill="#fff" stroke-width="0"/></g><g opacity=".05"><polygon points="372.00642 665.55476 371.89079 706.31282 359.3425 735.92799 359.45808 695.16994 372.00642 665.55476" fill="#000" stroke-width="0"/></g></g></g><g><g opacity=".05"><polygon points="9.5898 883.09421 0 885.74077 1.6016 857.69389 30.3418 858.65581 51.2207 866.38042 46.3086 879.75444 38.3398 880.60405 38.8086 885.86772 14.9414 886.1851 9.5898 883.09421" fill="#000" stroke-width="0"/></g><g><path d="M44.7998,829.12463l-15.4395-5.71716-23.0737-.77026c-.3369,5.55908-.6567,11.03271-.9253,16.21948l-.1172,40.75813,4.9194-1.3562,5.9692,3.44673,17.1045-.22163.116-40.75813-.1013,35.91797,9.3213-.99182v-.00183l2.1118-5.76721.1147-40.75813.0001.00008Z" fill="#1D71A2" stroke-width="0"/><g opacity=".05"><polygon points="44.8001 829.12494 44.6845 869.883 42.5726 875.65211 42.6882 834.89406 44.8001 829.12494" fill="#000" stroke-width="0"/></g><g opacity=".05"><polygon points="16.2483 840.94691 16.1328 881.70505 10.1631 878.25847 10.2786 837.50034 16.2483 840.94691" fill="#000" stroke-width="0"/></g><g opacity=".15"><path d="M44.8001,829.12494l-2.1119,5.76912-9.7695,1.03928.4347,4.7924-17.105.22118-5.9697-3.44658-4.9182,1.35651c.2699-5.18661.5894-10.6604.9269-16.21941l23.0735.77026,15.4392,5.71732v-.00008Z" fill="#fff" stroke-width="0"/></g></g></g><g><g><path d="M581.37642,869.61604c-14.3412-8.27988-49.21959-1.56731-77.90291,14.99298s-40.30991,36.69731-25.9687,44.97726c14.3412,8.27988,49.21959,1.56731,77.90291-14.99298s40.30991-36.69731,25.9687-44.97726Z" fill="#1a1a1a" opacity=".05" stroke-width="0"/><path d="M577.52689,355.11184c6.7395,10.99152,16.0017,83.02399,4.60812,83.67428s-24.4487-29.36729-29.77821-63.99788c-5.46589-35.51651,18.4306-30.6678,25.1701-19.67628v-.00011Z" fill="#fcc" stroke-width="0"/><path d="M553.12241,339.30423c5.41729-.03059,22.94258,4.71489,26.79352,12.78049,3.49079,7.3114,2.01599,7.03911,1.22181,8.01479-.7019.86239-2.97871,13.64578-6.49261,15.11421s-21.52271-35.9095-21.52271-35.9095Z" fill="#1D71A2" stroke-width="0"/><path d="M469.29031,401.59053c-.47119-8.82912-.19821-16.00239,1.66939-22.88528,1.48491-5.47119,4.09809-11.2257,8.63579-16.5556,9.9194-11.65131,29.5232-22.84561,53.54912-26.19289,4.07139-.56721,21.66939.78522,30.06592,8.6446,11.31908,10.5957,12.74681,33.29189,12.74681,54.4833s-18.24451,41.16009-13.29521,74.66019c5.15148,34.869-37.2224,46.5522-55.2319,47.09381-18.00949.54199-11.19701-11.31081-20.75249-11.10619-9.55521.20359-10.62031-19.15749-8.68359-28.29319.3545-1.6724.64499-3.57861.8379-5.77782.33131-3.77731.3735-8.42381-.05322-14.26811-.92018-12.6104-9.27879-55.87299-9.48849-59.8027l-.00004-.00011Z" fill="#1D71A2" stroke-width="0"/><path d="M500.50491,396.80442c4.61849,35.55309,2.32281,68.08891-21.6729,78.85689.33131-3.77731.3735-8.42381-.05322-14.26811-.92018-12.6104-9.27879-55.87299-9.48849-59.8027-.47119-8.82912-.19821-16.00239,1.66939-22.88528,10.49339,2.85938,28.3466,8.87249,29.54521,18.0991v.00011Z" fill="#000" opacity=".05" stroke-width="0"/><path d="M563.6845,445.17451c-.04372,1.54362,1.57688,5.63122,1.61549,7.4847s-1.67858,6.35208-3.28522,8.18291c-.34069.38818-8.72669,9.6175-12.8936,9.53419-1.9112-.03819-15.40249,5.2737-15.3759,4.53899.14351-3.9629,28.76461-27.55352,28.96332-28.52211.29888-1.45721.97591-1.2188.97591-1.2188v.00011Z" fill="#1D71A2" stroke-width="0"/><path d="M570.01289,298.74223s3.44929,6.6363,3.31779,18.0443c-.10189,8.84628-8.02471,15.51231-8.48061,13.50601-.22652,1.8034-14.49249,14.00471-20.66978,12.411-.3614-.09331-.51819-.53741-.32452-.85651,0,0-.10551-2.6334-.56301-3.8858s-4.95152-3.10261-4.95152-3.10261l31.6716-36.1165.00004.00011Z" fill="#3b435a" stroke-width="0"/><g><g><path d="M477.37251,793.95831c9.2524-3.51898,18.92311-1.13228,29.48799-1.436,10.56488-.30319,17.62772-15.541,36.29639-19.38377,5.37521-1.10641,16.79272-2.43118,27.93159-4.52103-8.50658,6.26953-19.93019,13.03078-27.17361,13.23883-12.75051.36621-41.32591,13.41164-57.55878,20.25833-13.9336,5.877-32.929,1.43257-37.97409-1.0527,5.16602,2.02827,21.88702-4.40193,28.99052-7.1035v-.00015Z" fill="#3b435a" stroke-width="0"/><path d="M447.53559,800.57452c-.28542-.20462-.44682-.38673-.439-.52979.0005-.00832.00271-.01663.0032-.02541.11379.20752.25391.39597.43579.55519Z" fill="#3b435a" stroke-width="0"/></g><g opacity=".15"><path d="M477.37251,793.95831c9.2524-3.51898,18.92311-1.13228,29.48799-1.436,10.56488-.30319,17.62772-15.541,36.29639-19.38377,5.37521-1.10641,16.79272-2.43118,27.93159-4.52103-8.50658,6.26953-19.93019,13.03078-27.17361,13.23883-12.75051.36621-41.32591,13.41164-57.55878,20.25833-13.9336,5.877-32.929,1.43257-37.97409-1.0527,5.16602,2.02827,21.88702-4.40193,28.99052-7.1035v-.00015Z" fill="#000" stroke-width="0"/><path d="M447.53559,800.57452c-.28542-.20462-.44682-.38673-.439-.52979.0005-.00832.00271-.01663.0032-.02541.11379.20752.25391.39597.43579.55519Z" fill="#000" stroke-width="0"/></g><path d="M521.92692,737.38933c-12.1011,14.68613,10.70358,122.51663,3.4523,132.34566-2.40349,3.25798,20.18589,4.62608,15.75661.77629-2.8297-2.45941,12.18418-132.74612,13.47672-135.88478s-29.08749-1.60378-32.68559,2.76283h-.00004Z" fill="#ffd6d6" stroke-width="0"/><g><path d="M482.6701,759.0591c-13.34019,12.94281,10.70358,122.51663,3.4523,132.34566-2.40349,3.25798,20.18589,4.62608,15.75661.77629-2.8297-2.45941,11.36822-136.7527,12.6606-139.89143s-27.80861,2.82951-31.86951,6.76941v.00008Z" fill="#ffd6d6" stroke-width="0"/><g><path d="M482.47009,908.98433c-2.3365-1.39259-5.16529,5.71762-4.22562,7.11563s14.72649,8.43086,21.3533,9.9427,20.39299,6.18736,32.3547,4.98848,15.07141-5.64659,15.144-8.6158-42.06638.01503-64.62639-13.43109v.00008Z" fill="#1D71A2" stroke-width="0"/><path d="M482.47009,908.98433c-2.3365-1.39259-5.16529,5.71762-4.22562,7.11563s14.72649,8.43086,21.3533,9.9427,20.39299,6.18736,32.3547,4.98848,15.07141-5.64659,15.144-8.6158-42.06638.01503-64.62639-13.43109v.00008Z" fill="#fff" opacity=".7" stroke-width="0"/><path d="M533.82019,912.7856c.15381.08904.30029.16769.4364.23087,3.37372,1.55769,19.9839,5.45479,11.7989,10.77362-6.2653,4.07143-16.1721,4.58031-24.16721,3.46542,1.24432-9.5578,3.94192-14.00581,11.93192-14.46991Z" fill="#1D71A2" stroke-width="0"/><path d="M493.07529,916.00726c-6.36372-3.2016-11.77158-5.5162-12.07241-6.5448-.73669-2.51709-.21332-7.60559,1.1055-12.04742,3.09559,1.89148,11.0482,7.81242,10.96691,18.59207v.00015Z" fill="#1D71A2" stroke-width="0"/><path d="M533.82019,912.7856c.15381.08904.30029.16769.4364.23087,3.37372,1.55769,19.9839,5.45479,11.7989,10.77362-6.2653,4.07143-16.1721,4.58031-24.16721,3.46542,1.24432-9.5578,3.94192-14.00581,11.93192-14.46991Z" fill="#fff" opacity=".9" stroke-width="0"/><path d="M493.07529,916.00726c-6.36372-3.2016-11.77158-5.5162-12.07241-6.5448-.73669-2.51709-.21332-7.60559,1.1055-12.04742,3.09559,1.89148,11.0482,7.81242,10.96691,18.59207v.00015Z" fill="#fff" opacity=".9" stroke-width="0"/><path d="M482.1085,897.41512c.95291-3.2093,2.31869-6.08299,3.93661-7.39342,0,0,.18311-.27077,14.56402,1.55739,13.95248,1.77399,28.19839,18.29491,33.2111,21.20651-7.99011.4641-10.6876,4.91203-11.93192,14.46991-3.0183-.42091-5.77309-1.06644-7.94369-1.84929-2.69821-.97343-8.778-2.6297-13.15979-5.22949-2.55219-1.5139-5.20279-2.90871-7.70939-4.16939.08141-10.77972-7.87121-16.70059-10.96691-18.59207l-.00004-.00015Z" fill="#e9f4fa" stroke-width="0"/><path d="M487.37492,887.69351c4.604-.29846,11.17298,1.20819,14.04411,2.0993.0145.85663.35648,1.79962.52368,1.93451,2.41291,1.94763,6.36372,3.60107,1.95572,7.17712-4.14581,3.36357-5.89828,4.05701-11.53751,2.49268-3.1834-.88287-9.10831-6.17859-6.17458-10.44586.56721-.82489.94181-1.92993,1.18851-3.25783l.00008.00008Z" fill="#ffd6d6" stroke-width="0"/><path d="M526.83029,908.03592s-19.0601-16.73531-20.3093-16.7659-11.81339,4.8951-11.84399,6.14441,21.41842,15.81238,22.33059,16.17653,9.75739-4.74167,9.82269-5.55496v-.00008Z" fill="#1D71A2" stroke-width="0"/><path d="M526.83029,908.03592s-19.0601-16.73531-20.3093-16.7659-11.81339,4.8951-11.84399,6.14441,21.41842,15.81238,22.33059,16.17653,9.75739-4.74167,9.82269-5.55496v-.00008Z" fill="#fff" opacity=".85" stroke-width="0"/><g><path d="M526.72901,919.80304c.08919,0,.17979-.01198.27-.03738.5315-.1487.8419-.7.6937-1.23138-.0214-.07927-.88879-3.37181.6271-5.43259.80791-1.0981,2.21008-1.68854,4.16801-1.75461.55199-.01877.98431-.48141.96561-1.03317-.01862-.55222-.47741-.97733-1.03321-.96581-2.6062.08812-4.5303.95581-5.71861,2.57843-2.09911,2.86667-.98351,6.97273-.9351,7.146.12371.44167.52528.73067.96249.73067v-.00015Z" fill="#ddd" stroke-width="0"/><path d="M520.16041,915.61656c.13458,0,.27149-.02731.4026-.08499l.8395-.37163c5.3738-2.38449,10.44971-4.63669,16.39332-.67551.45952.30663,1.08028.18211,1.38672-.27733.30628-.45967.182-1.08063-.2776-1.38672-6.85848-4.57153-12.68188-1.9873-18.3136.51147l-.8345.36911c-.50541.2227-.73471.81299-.51208,1.31844.16479.3743.53139.59723.9156.59723l.00004-.00008Z" fill="#ddd" stroke-width="0"/><path d="M517.78111,914.2644c.08919,0,.17979-.01198.27-.03738.5315-.1487.8419-.7.6937-1.23138-.0214-.07927-.88879-3.37181.6271-5.43259.80791-1.0981,2.21008-1.68854,4.16801-1.75461.55199-.01877.98431-.48141.96561-1.03317-.01862-.55222-.47989-.97801-1.03321-.96581-2.6062.08812-4.5303.95581-5.71861,2.57843-2.09911,2.86667-.98351,6.97273-.9351,7.146.12371.44167.52528.73067.96249.73067v-.00015Z" fill="#ddd" stroke-width="0"/><path d="M511.2125,910.07793c.13458,0,.27149-.02731.4026-.08499l.8395-.37163c5.37392-2.38426,10.44971-4.63669,16.39332-.67551.45952.30663,1.0804.18211,1.38672-.27733.30628-.45967.182-1.08063-.2776-1.38672-6.85848-4.5713-12.68188-1.9873-18.3136.51147l-.8345.36911c-.50541.2227-.73471.81299-.51208,1.31844.16479.3743.53139.59723.9156.59723l.00004-.00008Z" fill="#ddd" stroke-width="0"/><path d="M508.98842,909.09824c.08919,0,.17979-.01198.27-.03738.5315-.1487.8419-.7.6937-1.23138-.0214-.07927-.88879-3.37181.6271-5.43259.80791-1.0981,2.21008-1.68854,4.16801-1.75461.55199-.01877.98431-.48141.96561-1.03317-.01862-.55222-.48-.97801-1.03321-.96581-2.6062.08812-4.5303.95581-5.71861,2.57843-2.09911,2.86667-.98351,6.97273-.9351,7.146.12371.44167.52528.73067.96249.73067v-.00015Z" fill="#ddd" stroke-width="0"/><path d="M502.41982,904.91176c.13458,0,.27149-.02731.4026-.08522l.83851-.37109c5.3743-2.38449,10.4504-4.63699,16.39431-.67581.45952.30663,1.0804.18211,1.38672-.27733.30628-.45967.182-1.08063-.2776-1.38672-6.8586-4.5713-12.68261-1.9873-18.31459.5117l-.83351.36911c-.50549.2224-.73471.81268-.51208,1.31813.16491.3743.53139.59723.9156.59723h.00004Z" fill="#ddd" stroke-width="0"/></g></g></g><path d="M447.44209,796.56917c23.33641-51.14403-2.52998-190.20901,21.44508-278.95901h0c2.491-10.79102,6.09959-22.57679,8.1089-23.1749,0,0,.51659-14.55662,1.14578-15.2227.62889-.6665,13.97678,7.3315,30.998,7.2065,29.86961-.21969,51.08459-24.82849,52.35241-24.86698,2.40799-.0737,1.7688,13.02521,4.60571,16.18542,3.06759,3.41801,1.7746,42.60029,1.7746,42.60029-.2058,22.45949,20.51441,215.61134,30.48729,232.40578,8.08369,13.61229-41.94359,17.66502-55.2029,20.39497-18.66871,3.84277-25.73139,19.08058-36.29639,19.38377-10.56488.30373-20.2356-2.08298-29.48799,1.436s-34.8444,13.38043-29.93042,2.61078l-.00008.00008Z" fill="#3b435a" stroke-width="0"/><path d="M556.53969,455.17303c-.04372,1.54362,1.64532,4.7213,1.68388,6.57478s-.09651,5.5072-1.70311,7.33799c-.34069.38818-8.72669,9.6175-12.8936,9.53419-1.9112-.03819-15.40249,5.2737-15.3759,4.53899.14351-3.9629,25.66219-24.12739,25.8609-25.09602.29888-1.45721,2.42779-2.89001,2.42779-2.89001l.00004.00008Z" fill="#1D71A2" stroke-width="0"/><path d="M567.70439,769.22916s-12.23751-145.0153-19.4558-147.07588-2.2654,150.46707-2.2654,150.46707l21.72119-3.39119Z" fill="#000" opacity=".05" stroke-width="0"/><path d="M510.62611,597.52414s16.00189,148.65013,13.15788,152.67799-16.60019-77.46101-16.99879-106.05972c-.3986-28.59859-2.51469-45.87101,3.8409-46.61831v.00004Z" fill="#000" opacity=".05" stroke-width="0"/><path d="M488.66032,791.9794s-1.59229-150.83511,3.78021-158.3749,3.63892-10.52219,1.71089-9.92828c-7.3064,2.25071-25.0069,153.72662-21.88148,172.20058,3.65952-1.55128,10.2795-4.33617,16.39042-3.8974h-.00004Z" fill="#000" opacity=".05" stroke-width="0"/><path d="M547.19452,536.78043c11.23169,4.3679,25.47321,125.16792,19.5113,133.19031s-3.89-57.14508-14.57859-87.20642c-10.68859-30.0613-4.93271-45.98389-4.93271-45.98389Z" fill="#000" opacity=".05" stroke-width="0"/><g><path d="M521.76609,887.60265c-2.3365-1.39259-5.16529,5.71762-4.22562,7.11563s14.72649,8.43086,21.3533,9.9427,20.39299,6.18736,32.3547,4.98848,15.07141-5.64659,15.144-8.6158-42.06638.01503-64.62639-13.43109v.00008Z" fill="#1D71A2" stroke-width="0"/><path d="M521.76609,887.60265c-2.3365-1.39259-5.16529,5.71762-4.22562,7.11563s14.72649,8.43086,21.3533,9.9427,20.39299,6.18736,32.3547,4.98848,15.07141-5.64659,15.144-8.6158-42.06638.01503-64.62639-13.43109v.00008Z" fill="#fff" opacity=".7" stroke-width="0"/><path d="M573.11619,891.40384c.15381.08904.30029.16769.4364.23087,3.37372,1.55769,19.9839,5.45479,11.7989,10.77362-6.2653,4.07143-16.1721,4.58031-24.16721,3.46542,1.24432-9.5578,3.94192-14.00581,11.93192-14.46991Z" fill="#1D71A2" stroke-width="0"/><path d="M532.37141,894.6255c-6.36372-3.2016-11.77158-5.5162-12.07241-6.5448-.73669-2.51709-.21332-7.60559,1.1055-12.04742,3.09559,1.89148,11.0482,7.81242,10.96691,18.59207v.00015Z" fill="#1D71A2" stroke-width="0"/><path d="M573.11619,891.40384c.15381.08904.30029.16769.4364.23087,3.37372,1.55769,19.9839,5.45479,11.7989,10.77362-6.2653,4.07143-16.1721,4.58031-24.16721,3.46542,1.24432-9.5578,3.94192-14.00581,11.93192-14.46991Z" fill="#fff" opacity=".9" stroke-width="0"/><path d="M532.37141,894.6255c-6.36372-3.2016-11.77158-5.5162-12.07241-6.5448-.73669-2.51709-.21332-7.60559,1.1055-12.04742,3.09559,1.89148,11.0482,7.81242,10.96691,18.59207v.00015Z" fill="#fff" opacity=".9" stroke-width="0"/><path d="M521.4045,876.03343c.95291-3.2093,2.31869-6.08299,3.93661-7.39342,0,0,.18311-.27077,14.56402,1.55739,13.95248,1.77399,28.19839,18.29491,33.2111,21.20651-7.99011.4641-10.6876,4.91203-11.93192,14.46991-3.0183-.42091-5.77309-1.06644-7.94369-1.84929-2.69821-.97343-8.778-2.6297-13.15979-5.22949-2.55219-1.5139-5.20279-2.90871-7.70939-4.16939.08141-10.77972-7.87121-16.70059-10.96691-18.59207l-.00004-.00015Z" fill="#e9f4fa" stroke-width="0"/><path d="M526.67099,866.31183c4.604-.29846,11.17302,1.20819,14.04411,2.0993.0145.85663.35648,1.79962.52368,1.93451,2.41291,1.94763,6.36372,3.60107,1.95572,7.17712-4.14581,3.36357-5.89828,4.05701-11.53751,2.49268-3.1834-.88287-9.10831-6.17859-6.17458-10.44586.56721-.82489.94181-1.92993,1.18851-3.25783l.00008.00008Z" fill="#ffd6d6" stroke-width="0"/><path d="M566.1264,886.65424s-19.0601-16.73531-20.3093-16.7659-11.81339,4.8951-11.84399,6.14441,21.41842,15.81238,22.33059,16.17653,9.75739-4.74167,9.82269-5.55496v-.00008Z" fill="#1D71A2" stroke-width="0"/><path d="M566.1264,886.65424s-19.0601-16.73531-20.3093-16.7659-11.81339,4.8951-11.84399,6.14441,21.41842,15.81238,22.33059,16.17653,9.75739-4.74167,9.82269-5.55496v-.00008Z" fill="#fff" opacity=".85" stroke-width="0"/><g><path d="M566.02509,898.42136c.08919,0,.17979-.01198.27-.03738.5315-.1487.8419-.7.6937-1.23138-.0214-.07927-.88879-3.37181.6271-5.43259.80791-1.0981,2.21008-1.68854,4.16801-1.75461.55199-.01877.98431-.48141.96561-1.03317-.01862-.55222-.47741-.97733-1.03321-.96581-2.6062.08812-4.5303.95581-5.71861,2.57843-2.09911,2.86667-.98351,6.97273-.9351,7.146.12371.44167.52528.73067.96249.73067v-.00015Z" fill="#ddd" stroke-width="0"/><path d="M559.45648,894.2348c.13458,0,.27149-.02731.4026-.08499l.8395-.37163c5.3738-2.38449,10.44971-4.63669,16.39332-.67551.45952.30663,1.08028.18211,1.38672-.27733.30628-.45967.182-1.08063-.2776-1.38672-6.85848-4.57153-12.68188-1.9873-18.3136.51147l-.8345.36911c-.50541.2227-.73471.81299-.51208,1.31844.16479.3743.53139.59723.9156.59723l.00004-.00008Z" fill="#ddd" stroke-width="0"/><path d="M557.07722,892.88272c.08919,0,.17979-.01198.27-.03738.5315-.1487.8419-.7.6937-1.23138-.0214-.07927-.88879-3.37181.6271-5.43259.80791-1.0981,2.21008-1.68854,4.16801-1.75461.55199-.01877.98431-.48141.96561-1.03317-.01862-.55222-.47989-.97801-1.03321-.96581-2.6062.08812-4.5303.95581-5.71861,2.57843-2.09911,2.86667-.98351,6.97273-.9351,7.146.12371.44167.52528.73067.96249.73067v-.00015Z" fill="#ddd" stroke-width="0"/><path d="M550.50861,888.69624c.13458,0,.27149-.02731.4026-.08499l.8395-.37163c5.37392-2.38426,10.44971-4.63669,16.39332-.67551.45952.30663,1.0804.18211,1.38672-.27733.30628-.45967.182-1.08063-.2776-1.38672-6.85848-4.5713-12.68188-1.9873-18.3136.51147l-.8345.36911c-.50541.2227-.73471.81299-.51208,1.31844.16479.3743.53139.59723.9156.59723l.00004-.00008Z" fill="#ddd" stroke-width="0"/><path d="M548.28449,887.7164c.08919,0,.17979-.01198.27-.03738.5315-.1487.8419-.7.6937-1.23138-.0214-.07927-.88879-3.37181.6271-5.43259.80791-1.0981,2.21008-1.68854,4.16801-1.75461.55199-.01877.98431-.48141.96561-1.03317-.01862-.55222-.48-.97801-1.03321-.96581-2.6062.08812-4.5303.95581-5.71861,2.57843-2.09911,2.86667-.98351,6.97273-.9351,7.146.12371.44167.52528.73067.96249.73067v-.00015Z" fill="#ddd" stroke-width="0"/><path d="M541.71589,883.52992c.13458,0,.27149-.02731.4026-.08522l.83851-.37109c5.3743-2.38449,10.4504-4.63699,16.39431-.67581.45952.30663,1.0804.18211,1.38672-.27733.30628-.45967.182-1.08063-.2776-1.38672-6.8586-4.5713-12.68261-1.9873-18.31459.5117l-.83351.36911c-.50549.2224-.73471.81268-.51208,1.31813.16491.3743.53139.59723.9156.59723h.00004Z" fill="#ddd" stroke-width="0"/></g></g></g><g><path d="M527.11491,338.19884c7.10239.5949,13.59161,2.00069,15.76679,4.1898s10.06432,26.47461-4.90379,26.79001c-13.47462.284-27.52548-19.44809-26.63429-25.03799s4.66728-6.8721,15.77122-5.94189h0l.00008.00008Z" fill="#ffc5c8" stroke-width="0"/><path d="M540.75771,331.81495c.04238,7.61139,2.27119,16.66039-3.84949,18.0032s-24.49039-3.9373-22.46449-9.04919c1.14311-2.88441,2.45159-16.44279,4.42902-17.61082s21.88492,8.65681,21.88492,8.65681h.00004Z" fill="#ffc5c8" stroke-width="0"/><g><path d="M572.29988,303.55132c-4.3578,19.78088-16.92108,37.50278-36.70181,33.14499s-34.38889-26.72359-30.03109-46.50431,21.91631-33.2555,41.6972-28.8975,29.39362,22.4761,25.03571,42.257h0v-.00019Z" fill="#ffd0d2" stroke-width="0"/><path d="M572.5441,311.27933s12.85679-44.91819-21.69899-54.6768c-34.5557-9.75861-51.97491,15.3204-57.44419,37.1208,0,0-14.24801,17.8635-7.6646,25.34161,0,0,12.81559,23.52249,28.85399,26.95179l-.86071-3.64769s7.80781,3.9542,14.37119,5.59311c.7848.19588,1.42929-.63862,1.01871-1.3356-1.95099-3.31211-5.45399-10.91381-3.5638-20.42389,2.55508-12.85521,7.66609-17.9751,8.46161-21.69571,14.0052-18.79101,30.82371-31.5411,35.6427-2.64549l2.88399,9.41811v-.00019l.00011-.00004Z" fill="#3b435a" stroke-width="0"/><path d="M488.72829,316.13134c-5.3582,5.59912-4.226,15.45,8.37341,17.53401s-3.58501-.59181-7.5927-6.79199c-1.1718-1.8129,1.85299-7.04559,1.85299-7.04559l-2.6339-3.69631h.00011l.00008-.00011Z" fill="#3b435a" stroke-width="0"/><path d="M558.39371,283.60593c3.8921,16.40329-6.3958,21.75751-8.08182,22.6787-.8707.47569-2.34001-.12381-2.34001-.12381,0,0,6.09909-6.8779,3.65509-22.6273-.74108-4.77619,6.76659.0724,6.76659.0724h.00015Z" fill="#3b435a" stroke-width="0"/><path d="M565.4739,283.70343c5.29018,11.3851-2.08931,20.8005-3.32161,21.66981s-2.24941.56379-2.24941.56379c0,0,2.64889-2.04241,2.5135-11.7552s-3.95168-11.43499-3.95168-11.43499l7.0092.95659Z" fill="#3b435a" stroke-width="0"/><path d="M545.9264,267.34163c-9.12922.6385-26.5731,23.76289-29.81472,38.9238-1.16879,5.4664-8.91071,12.9467-9.37908,20.79069-.46837,7.84397,11.59191,17.43851,11.59191,17.43851,0,0-9.35242-12.70981-8.2449-18.18298s8.42991-12.5367,9.2387-17.8371c1.80511-11.8285,26.60801-41.133,26.60801-41.133h.00011l-.00004.0001Z" fill="#434856" stroke-width="0"/><path d="M554.4577,284.14514s-15.26138,20.4707-17.76031,21.52411c-3.77281,1.5905-4.62879,2.60571-3.3902-3.3259s18.59509-19.12701,21.15051-18.19811h0v-.0001Z" fill="#3b435a" stroke-width="0"/><path d="M549.26811,268.05623s8.59348,11.35321.48111,31.3583c-1.27159,3.1358-5.98881,6.5469-7.84409,6.4093l-1.94679-.14429s4.13559-2.10939,6.13461-7.19419c6.40121-16.28099,3.17509-30.42891,3.17509-30.42891h0l.00008-.00021Z" fill="#434856" stroke-width="0"/><path d="M562.8775,332.64705s.07332,12.16221-15.91351,12.3735c-.2417.0032-.37209-.30811-.17872-.45311,1.22719-.91999,3.83121-3.13992,4.3309-5.73479.65861-3.4198,11.7614-6.18549,11.7614-6.18549h0l-.00008-.00011Z" fill="#3b435a" stroke-width="0"/><path d="M553.9798,266.27584s19.0876,14.54809,16.73561,30.65201c-.55988,3.83341-2.57599,7.906-4.34212,8.4911l-1.8531.6139s2.58072-3.5437,2.90359-8.9978c1.04858-17.71-13.44398-30.7592-13.44398-30.7592h0Z" fill="#434856" stroke-width="0"/><path d="M552.94991,268.84343s13.03532,11.74139,8.26069,30.87549c-.85861,3.4408-4.65599,5.43119-5.1321,5.84511-1.0482.9111-2.38651.8334-2.38651.8334,0,0,3.27221-2.6145,4.2355-6.4679,4.23359-16.93439-4.97768-31.0862-4.97768-31.0862l.00011.0001Z" fill="#434856" stroke-width="0"/><path d="M541.6737,263.21452s-30.1136,1.88141-41.89678,33.193c0,0-11.95389,9.2227-11.48151,18.0603s9.15218,19.80219,9.15218,19.80219c0,0-6.98608-14.86679-5.22499-21.5167,1.76109-6.64989,9.78981-14.3474,9.78981-14.3474,6.39111-15.2602,18.40111-26.49189,39.6611-35.1914h0l.00019.00002Z" fill="#434856" stroke-width="0"/><path d="M572.81029,309.14163s3.7719,7.9048,1.96091,11.95539-6.92989,4.65092-6.92989,4.65092c0,0,4.69158-2.89581,5.44418-5.13401s-1.9223-8.4668-1.9223-8.4668l1.44711-3.00541h0v-.0001Z" fill="#3b435a" stroke-width="0"/></g></g></g><path d="M502.86942,437.63923c-1.88549,2.2522-3.79169,12.58709-.89958,16.30539,3.0032,3.86101,9.78241-.06989,10.98171-1.2125,8.15571-7.77012,6.10611-11.4653,3.95081-14.82529s-10.1086-4.95522-14.0329-.2676h-.00004Z" fill="#fcc" stroke-width="0"/><path d="M510.289,469.64214s69.77409-38.8118,64.71138-48.3527c-8.06019-15.19001-47.49168,10.11509-64.081,33.22788-11.25389,15.67928-.6303,15.12482-.6303,15.12482h-.00008Z" fill="#ffd6d6" stroke-width="0"/><path d="M583.32218,426.06834c-6.67191-19.70581-85.61352,14.92851-83.4919,29.10469.18631,1.24249,60.90809-16.25099,76.12701-14.6566,15.33352,1.60648,7.36488-14.44801,7.36488-14.44801v-.00008Z" fill="#fcc" stroke-width="0"/><g><path d="M471.35689,381.09271c-6.6626,11.5966,24.64741,95.3336,39.86439,88.10822,10.3093-4.8951-1.85638-30.1231-14.5491-67.87361-11.98441-35.64419-18.65269-31.83121-25.31528-20.2346Z" fill="#ffd6d6" stroke-width="0"/><path d="M500.4763,401.92504c-2.30492,4.68761-22.86449-16.20609-27.71061-15.37861-3.84869.6572-3.65261,6.97109-3.65261,6.97109,0,0-4.5705-6.01971-1.35689-14.11129,2.91168-7.33139,15.15308-22.10098,19.0646-24.12159s20.68562,32.34299,13.6554,46.64028l.00011.00011Z" fill="#1D71A2" stroke-width="0"/></g><path d="M575.72571,422.14103s7.47021-3.65082,4.19949-13.9056c-1.32149-4.1433-6.423-2.3365-14.0604,3.4502-16.4193,12.44049,9.86092,10.4554,9.86092,10.4554Z" fill="#ffd6d6" stroke-width="0"/></g><g><path d="M281.1356,213.81473l19.50319-29.41669s14.7784-90.339-33.1476-90.3381c-4.78029,0-.34439,109.79271,13.64441,119.75491v-.00011Z" fill="#e7e7ee" stroke-width="0"/><g><path d="M169.4169,705.56331c16.912,9.76418,58.04251,1.8483,91.8675-17.68059s47.53571-43.2756,30.6237-53.0397-58.04249-1.8483-91.8675,17.68059-47.53571,43.2756-30.6237,53.0397Z" fill="#000" opacity=".05" stroke-width="0"/><g><path d="M157.4249,660.7886c.0124.01358.0152.0325.0226.04936l10.68841,1.83998-7.7389,2.13112c11.72359,23.65738,25.40581,6.70128,26.978,7.35397,1.6176.67169,5.20531,13.30688.59179,23.03864-1.0005,2.11037-.92529,2.39082-2.4176,3.6171-.1366.77301-.3573,1.59157-.71939,2.28989-1.0449,2.01431-7.50099,4.81018-13.4441,4.31023s-16.3026-11.26389-16.3026-11.26389l.1871-2.22458c-4.9781-3.89801-9.9703-7.52037-12.31071-7.84798-4.6023-.64407-26.1955-17.86377-25.1861-26.62956,2.3031-20.0016,30.474-6.72791,39.6517,3.33572h-.0002Z" fill="#4a4c56" stroke-width="0"/><path d="M159.4004,664.60063l8.25721-1.94122c.06081-1.07246.1272-2.14432.17361-3.19679.3315-7.5396-1.85749-19.75578,5.09171-19.33563s16.47949-3.0011,15.1906,18.47672c0,0-.8124,13.39653-1.28771,15.30708s-3.9225,5.56892-15.29341,4.61227c-2.71721-.22858-6.0944-2.07741-6.0944-2.07741,0,0-7.5072-3.5331-9.8448-8.91129l3.8072-2.93381v.00008Z" fill="#ffd6d6" stroke-width="0"/></g><g><path d="M247.1837,637.56274c.0135.01251.0178.03109.02661.0473l10.805.9375-7.533,2.77229c13.6655,22.59132,25.8782,4.54788,27.4995,5.0666,1.66821.53383,6.30251,12.82372,2.521,22.90787-.8201,2.18681-.72161,2.45987-2.1059,3.80707-.0713.78171-.2227,1.61598-.5249,2.34222-.87231,2.0948-7.0713,5.42213-13.03539,5.42213s-17.1895-9.85764-17.1895-9.85764v-2.23251c-5.2874-3.46703-10.5657-6.6581-12.9253-6.78833-4.6401-.25597-27.32981-15.60081-27.32981-24.42451s29.8027-9.2588,39.7917,0Z" fill="#4a4c56" stroke-width="0"/><path d="M249.4718,641.19571l8.06551-2.62661c-.0293-1.07391-.05301-2.14748-.09501-3.20011-.3018-7.54082-3.5071-19.5306,3.45289-19.69429s16.16989-4.37199,16.686,17.13821c0,0,.31349,13.41751,0,15.3611s-3.44179,5.87807-14.853,5.87807c-2.7268,0-6.2471-1.55922-6.2471-1.55922,0,0-7.77691-2.89131-10.55719-8.05458l3.5479-3.24272v.00015Z" fill="#ffd6d6" stroke-width="0"/></g><path d="M284.722,273.60343c15.3779,15.3977,13.1912,38.98899,6.87611,61.14819s-68.30481-37.5865-68.30481-37.5865l61.4287-23.56171v.00002Z" fill="#4f5056" stroke-width="0"/><path d="M238.3823,446.18472s6.1714,103.53798,5.53181,179.70688c-.0363,4.3187,16.4555,18.31718,21.10929,18.52722,5.69071.25681,20.73299-4.89559,20.28959-12.91401-2.54339-45.9956,6.2504-150.0655,7.423-189.92279,2.0163-68.53691-54.35369,4.6027-54.35369,4.6027Z" fill="#3c4358" stroke-width="0"/><path d="M293.5054,297.60873c.51439,106.96398,7.37011,196.81841-27.77691,198.89757-45.14511,2.67059-27.86949-130.8173-32.58551-177.5116-6.42-63.5659,60.2239-50.17429,60.3624-21.38599l.00002.00002Z" fill="#3c4358" stroke-width="0"/><path d="M235.5518,447.11524l24.2643-85.12619c3.8434-2.80159,8.19139-9.85531,12.6819-18.10982,0,0-6.9562,21.84639-11.16091,24.17728,0,0,.5545,1.45679.376,2.64648-5.23951,34.9091-8.85309,34.27948-26.16131,76.4122l.00002.00004Z" fill="#1a1a1a" opacity=".1" stroke-width="0"/><path d="M163.32609,485.64754s-.5204,88.83511-7.5429,164.68231c-.3982,4.30038,15.2087,15.51109,19.82849,16.11053,5.6492.73288,21.0704-3.14041,21.30079-11.16768,1.3213-46.04691,20.3171-133.77529,22.7804-173.57368,1.91719-30.9745-56.36681,3.94859-56.36681,3.94859l.00002-.00008Z" fill="#3c4358" stroke-width="0"/><path d="M250.9244,323.40923c.51439,106.964-31.9557,198.90961-66.6333,192.81853-47.554-8.35289-2.8537-144.71001,3.46729-174.36172,13.32041-62.4852,63.0275-47.2452,63.16589-18.4568h.00011Z" fill="#3c4358" stroke-width="0"/></g><g><path d="M188.3544,265.34263c1.4176-14.96281,5.24969-35.24481,10.56351-53.93551,6.65791-23.41909-5.79081-49.06189-3.4643-74.43319.03799-.415.06889-.8303.11499-1.2456,2.86591-25.77661,32.93489-31.8459,32.93489-31.8459l38.98781-9.8227s19.8489.4003,23.7615,14.6536c3.91291,14.2533,6.94111,57.0237,5.22539,74.85651s-1.67561,99.5277,2.50799,128.52089c1.47011,10.18822-59.81901,28.83812-75.69269,27.58942-15.87379-1.2484-37.27329-13.01338-41.57801-19.58359-1.7919-2.7352,5.62799-44.0822,6.6391-54.75389l-.00019-.00002Z" fill="#e7e7ee" stroke-width="0"/><path d="M196.73969,143.22743c14.36251,6.7554,29.92531,19.18309,29.0386,41.2007-1.15721,28.7355-18.69699,67.81771-36.93701,87.63119,1.4176-14.96281,3.6874-39.8844,8.8047-53.95691,7.8783-21.66531-1.45849-49.2178-.9063-74.875v.00002Z" fill="#000" opacity=".1" stroke-width="0"/><g><path d="M205.4381,151.75703c5.1499,12.343-25.87919,98.7337-46.6605,87.33209-16.7114-9.1687,3.71531-24.7751,9.116-62.6228,5.31231-37.2279,32.3945-37.0522,37.5445-24.70929Z" fill="#fdd1d2" stroke-width="0"/><path d="M215.4571,108.78883c.48929-1.3423-29.20351,15.5476-35.0572,26.1016-5.0638,9.1299-23.8078,37.95501-25.4546,65.3028-.7743,12.85841-6.7469,14.28869-6.0641,21.88971,0,0,26.47201,27.8237,55.4317,15.80719,0,0,9.9824-75.0775,15.7708-82.0611,0,0-5.43011-44.8363-4.62669-47.0403l.0001.0001Z" fill="#e7e7ee" stroke-width="0"/><path d="M161.8012,205.49144c.1074-2.9405-1.1631-7.44671-4.9806-8.1077-3.964-.6864-6.472,6.8819-6.688,8.54321-1.4685,11.2974,1.7767,12.5301,4.9216,13.4474s6.5235-7.76279,6.74701-13.88281v-.0001Z" fill="#fdd1d2" stroke-width="0"/></g></g><g><path d="M246.0627,107.64533c-6.84919.0098-16.5929-1.5396-20.6786-2.5632.06439-.4035.1103-.8463.1305-1.3469.2817-6.9943-9.0262-28.1871,1.24741-34.779s28.2992-6.8668,29.8147,5.2039c1.339,10.6648,6.29499,22.171,6.99591,23.4351-2.8133,3.5308-9.04831,10.0379-17.50999,10.0502l.00008-.0001Z" fill="#fcc" stroke-width="0"/><path d="M213.0126,22.47453c-2.23221,2.5519-.76111,14.5492-2.9003,20.3474-6.75859,18.3187-8.7553,43.855,22.95219,48.4874,30.9811,4.5264,34.15461-10.8287,37.40419-30.5621,3.24961-19.7334,12.41831-27.9208-7.00041-41.7577s-41.13279-7.1727-50.4557,3.485h.00002Z" fill="#ffd6d6" stroke-width="0"/><path d="M211.2229,24.20533c1.2937-21.8613,31.4187-26.7032,47.1106-23.1464,8.47099,1.92,22.29481,12.4739,23.5199,21.7474,23.5836,26.8707-9.0509,64.79549-27.91861,65.1613-8.16021.1582-16.92539-2.3595-20.8647-7.7116-.55691-.7567-2.9126-4.8463-2.00171-4.6157,3.02019.7644,8.517-1.8162,9.20111-12.6878,1.0947-17.396-6.8959-9.756-8.90829-6.9032s-3.43229,8.8296-3.43229,8.8296l-2.5045,3.1934-1.5052-10.2089c-4.52299-7.0558-6.66441-12.0954-7.6053-18.6895-1.4356-6.6596-4.70301-8.9639-5.0909-14.9685l-.0001-.00011Z" fill="#3d4356" stroke-width="0"/></g><path d="M262.20921,95.79093c.93981.3695,2.9076.9928,2.55301,2.4111s-8.7351,9.5411-16.05089,10.2576-23.59591-.6128-24.72019-2.115c-1.70931-2.2838,36.83519-11.0974,38.2181-10.5538l-.00002.0001Z" fill="#fcc" stroke-width="0"/></g></g></g></svg>