<svg xmlns="http://www.w3.org/2000/svg" xmlns:xlink="http://www.w3.org/1999/xlink" version="1.1" id="_レイヤー_2" x="0px" y="0px" viewBox="0 0 782.63153 819.25244" enable-background="new 0 0 782.63153 819.25244" width="783px" height="819px" class="lg:!max-h-[405px] isometric rectangleModalImage"><title>事例</title><g id="_レイヤー_2-2"><g><g><path fill="#FFD3D4" d="M17.4105,245.80043c-5.0289,11.8719,10.4964,93.86656,21.8599,92.81429s5.8406-42.06409,5.9578-77.10229&#10;&#9;&#9;&#9;&#9;C45.3484,225.57803,22.4394,233.92853,17.4105,245.80043z"/><path fill="#FFD3D4" d="M53.6023,328.57193c9.3479,10.63931,92.83261-37.51462,89.74341-44.71692&#10;&#9;&#9;&#9;&#9;c-2.767-6.45099-69.02541,17.52069-84.008,28.33301C44.35511,323.00031,53.6023,328.57193,53.6023,328.57193z"/><path fill="#FFD3D4" d="M135.2455,277.17422c-4.16389,2.19662-9.4357,8.09442-7.40219,15.36539&#10;&#9;&#9;&#9;&#9;c2.11159,7.55011,14.5537,5.8334,17.0262,4.86642c16.814-6.57642,16.01628-13.3017,14.85829-19.59399&#10;&#9;&#9;&#9;&#9;c-1.15799-6.29233-15.81599-5.20959-24.4823-0.63773V277.17422z"/></g><g><g><path fill="#1B72A1" d="M407.13611,103.05833l-37.09219-21.4152c-6.4975-3.7513-11.7648-13.8155-11.7648-22.4788v-38.6251&#10;&#9;&#9;&#9;&#9;&#9;c0-8.6634,5.2673-12.6453,11.7648-8.894l37.09219,21.4152c6.4975,3.7513,11.7648,13.8155,11.7648,22.4788v38.6251&#10;&#9;&#9;&#9;&#9;&#9;C418.90091,102.82773,413.63361,106.80964,407.13611,103.05833z"/><path fill="#1B72A1" d="M498.0687,155.55833l-37.09219-21.41521c-6.4975-3.75128-11.7648-13.81549-11.7648-22.47879v-38.6251&#10;&#9;&#9;&#9;&#9;&#9;c0-8.6634,5.2673-12.6453,11.7648-8.894l37.09219,21.4152c6.4975,3.7513,11.7648,13.8155,11.7648,22.4788v38.6251&#10;&#9;&#9;&#9;&#9;&#9;C509.8335,155.32773,504.56619,159.30963,498.0687,155.55833z"/><path fill="#1B72A1" d="M589.0014,208.05833l-37.09222-21.41521c-6.4975-3.75128-11.76477-13.81549-11.76477-22.47879v-38.62509&#10;&#9;&#9;&#9;&#9;&#9;c0-8.66339,5.26727-12.6453,11.76477-8.894l37.09222,21.41521c6.4975,3.75128,11.76477,13.81549,11.76477,22.47879v38.62509&#10;&#9;&#9;&#9;&#9;&#9;c0,8.66342-5.26727,12.64531-11.76477,8.89401V208.05833z"/><path fill="#1B72A1" d="M679.93408,260.55832l-37.09222-21.41519c-6.4975-3.75128-11.76477-13.81549-11.76477-22.47879&#10;&#9;&#9;&#9;&#9;&#9;v-38.62509c0-8.66342,5.26727-12.64531,11.76477-8.89401l37.09222,21.41519c6.4975,3.7513,11.76483,13.81551,11.76483,22.47882&#10;&#9;&#9;&#9;&#9;&#9;v38.62509c0,8.66342-5.26733,12.64529-11.76483,8.89401V260.55832z"/><path fill="#1B72A1" d="M770.8667,313.05832l-37.09222-21.41519c-6.4975-3.75128-11.76483-13.81549-11.76483-22.47879v-38.62509&#10;&#9;&#9;&#9;&#9;&#9;c0-8.66342,5.26733-12.64531,11.76483-8.89401l37.09222,21.41519c6.4975,3.7513,11.76483,13.81549,11.76483,22.47882v38.62509&#10;&#9;&#9;&#9;&#9;&#9;c0,8.66342-5.26733,12.64529-11.76483,8.89401V313.05832z"/></g><g><path fill="#E6E6E6" d="M497.7092,17.85473l-19.91861-11.5c-1.43518-0.8286-2.59808-2.8432-2.59808-4.4999&#10;&#9;&#9;&#9;&#9;&#9;s1.1629-2.3285,2.59808-1.4999l19.91861,11.5c1.43521,0.8286,2.59811,2.8432,2.59811,4.4999&#10;&#9;&#9;&#9;&#9;&#9;S499.14441,18.68333,497.7092,17.85473z"/><path fill="#E6E6E6" d="M663.12,113.35474l-19.91864-11.5c-1.43512-0.8286-2.59808-2.8432-2.59808-4.4999&#10;&#9;&#9;&#9;&#9;&#9;c0-1.65671,1.16284-2.3285,2.59808-1.4999L663.12,107.35493c1.43512,0.82861,2.59808,2.8432,2.59808,4.4999&#10;&#9;&#9;&#9;&#9;&#9;C665.71808,113.51154,664.55518,114.18333,663.12,113.35474z"/><path fill="#E6E6E6" d="M615.48859,97.85443L525.422,45.85444c-7.17432-4.1421-12.99042-14.2156-12.99042-22.4996&#10;&#9;&#9;&#9;&#9;&#9;s5.8161-11.6416,12.99042-7.4996l90.06659,52c7.17432,4.1421,12.99042,14.2156,12.99042,22.4996&#10;&#9;&#9;&#9;&#9;&#9;S622.6629,101.99643,615.48859,97.85443z"/></g></g><g><path fill="#1B72A1" d="M141.33481,320.10272c-6.22121,0-12.27151-3.22849-15.60551-9.0029&#10;&#9;&#9;&#9;&#9;c-4.97019-8.61038-2.02-19.61819,6.58941-24.5889l78.3838-45.25201c8.60889-4.96878,19.61769-2.02048,24.58839,6.5889&#10;&#9;&#9;&#9;&#9;c4.9702,8.61041,2.02,19.61823-6.5894,24.5889l-78.38379,45.25201c-2.8345,1.63568-5.9292,2.41406-8.98289,2.41406&#10;&#9;&#9;&#9;&#9;L141.33481,320.10272z"/><path fill="#DFDFDF" d="M227.6722,262.25403c-3.4561,0-6.8174-1.79388-8.66939-5.00198&#10;&#9;&#9;&#9;&#9;c-2.76172-4.7832-1.12262-10.8994,3.66019-13.66022l49.60208-28.63669c4.78223-2.76271,10.89893-1.1221,13.66022,3.66019&#10;&#9;&#9;&#9;&#9;c2.76172,4.7832,1.12262,10.8994-3.66022,13.66022l-49.60208,28.63669c-1.57471,0.90921-3.29439,1.3418-4.99069,1.3418H227.6722z"/><g><path fill="#FFFFFF" d="M439.54379,129.92943c-33.8121-58.5631-84.41989-95.6015-124.95947-95.59729&#10;&#9;&#9;&#9;&#9;&#9;c-7.4863,0.0008-14.63101,1.2694-21.26282,3.8943c-41.13519,25.162-40.76389,103.5266,1.12921,176.08618&#10;&#9;&#9;&#9;&#9;&#9;c40.0654,69.3938,103.7189,108.55469,146.25101,91.68549c41.10641-25.18069,40.72552-103.52588-1.15793-176.06871V129.92943z"/><path fill="#FFFFFF" d="M439.54379,129.92943c-33.8121-58.5631-84.41989-95.6015-124.95947-95.59729&#10;&#9;&#9;&#9;&#9;&#9;c-7.4863,0.0008-14.63101,1.2694-21.26282,3.8943c-41.13519,25.162-40.76389,103.5266,1.12921,176.08618&#10;&#9;&#9;&#9;&#9;&#9;c40.0654,69.3938,103.7189,108.55469,146.25101,91.68549c41.10641-25.18069,40.72552-103.52588-1.15793-176.06871V129.92943z"/><polygon fill="#FFFFFF" points="314.591,30.84493 314.59109,34.33223 314.59109,30.84493"/></g><path fill="#1B72A1" d="M439.54379,129.92943c-8.79138-15.2267-18.7244-28.9819-29.3143-41.0256l-63.23029-36.506&#10;&#9;&#9;&#9;&#9;c-17.8093-10.2823-32.2467-1.9474-32.2467,18.6165v117.3923c0,20.56401,14.43741,45.5697,32.2467,55.8519l99.6268,57.5197&#10;&#9;&#9;&#9;&#9;C481.6651,272.90594,479.30762,198.80113,439.54379,129.92943z"/><ellipse transform="matrix(0.86601 -0.50002 0.50002 0.86601 -35.35359 208.30246)" fill="none" cx="371.0011" cy="170.11858" rx="88.38711" ry="153.0909"/><path fill="#CFCFCF" d="M302.45059,212.31264c-41.8931-72.55962-42.2644-150.92419-1.12921-176.0862&#10;&#9;&#9;&#9;&#9;c0.91721-0.363,1.84631-0.6941,2.78271-1.0055c-3.7168,0.6437-7.32098,1.6354-10.78268,3.0055&#10;&#9;&#9;&#9;&#9;c-41.13521,25.162-40.7639,103.5266,1.12921,176.0862c39.1843,67.8679,100.92725,106.808,143.41147,92.7075&#10;&#9;&#9;&#9;&#9;c-41.95099,7.2308-98.62357-30.9902-135.4115-94.70749V212.31264z"/><path fill="#DFDFDF" d="M468.20401,113.92943c-17.0524-29.5352-38.694-54.6873-62.5853-72.7374&#10;&#9;&#9;&#9;&#9;c-24.1243-18.2261-48.68518-27.8599-71.02762-27.8599h-0.0079c-12.16159,0.0013-23.30899,2.8774-33.13229,8.5486&#10;&#9;&#9;&#9;&#9;c-12.2135,7.051-26.85919,10.1594-32.85919,32.1594c-2.5556,9.3706-3.41129,19.23389-3.6994,30.0483&#10;&#9;&#9;&#9;&#9;c3.96451-20.4482,13.43671-36.6914,28.42911-45.8621c6.63181-2.6249,13.77661-3.8935,21.26282-3.8943&#10;&#9;&#9;&#9;&#9;c40.53967-0.0042,91.1474,37.0342,124.9595,95.59729c41.88339,72.5428,42.26428,150.88809,1.1579,176.06873&#10;&#9;&#9;&#9;&#9;c-17.42746,6.91208-38.4014,4.41138-59.84549-5.71613c14.43771,10.13593,27.24078,16.75812,42.73547,16.75812&#10;&#9;&#9;&#9;&#9;c12.16019,0,4,9,40.9519-12.6788c12.16382-7.1362,21.61099-17.90118,27.93152-32.24911&#10;&#9;&#9;&#9;&#9;c5.82294-13.21808,8.7753-28.85999,8.7753-46.49109c0-35.11571-11.73611-74.78191-33.04642-111.69171L468.20401,113.92943z"/><g><path fill="#C6C6C6" d="M441.48529,133.34973c0.21512,0.38551,0.42239,0.77171,0.63519,1.1575&#10;&#9;&#9;&#9;&#9;&#9;C441.90768,134.12154,441.70038,133.73524,441.48529,133.34973z"/><path fill="#C6C6C6" d="M443.36603,136.77803c0.25427,0.4716,0.4996,0.944,0.75037,1.4158&#10;&#9;&#9;&#9;&#9;&#9;C443.8656,137.72203,443.6203,137.24962,443.36603,136.77803z"/><path fill="#C6C6C6" d="M403.58823,81.64713c-1.08603-1.1333-2.17929-2.2432-3.27609-3.34061&#10;&#9;&#9;&#9;&#9;&#9;C401.40894,79.40393,402.5022,80.51383,403.58823,81.64713z"/><path fill="#C6C6C6" d="M445.18347,140.20894c0.2688,0.51639,0.52832,1.03329,0.79282,1.5499&#10;&#9;&#9;&#9;&#9;&#9;C445.7117,141.24223,445.45221,140.72523,445.18347,140.20894z"/><path fill="#C6C6C6" d="M433.16501,119.44683c0.97198,1.5187,1.9313,3.0563,2.8804,4.6078&#10;&#9;&#9;&#9;&#9;&#9;C435.09619,122.50313,434.13699,120.96553,433.16501,119.44683z"/><path fill="#C6C6C6" d="M436.67068,125.08483c0.9689,1.59991,1.92972,3.21081,2.87302,4.8446&#10;&#9;&#9;&#9;&#9;&#9;C438.6004,128.29564,437.6395,126.68463,436.67068,125.08483z"/><path fill="#C6C6C6" d="M446.94141,143.64732c0.2659,0.52982,0.52261,1.0598,0.78418,1.58961&#10;&#9;&#9;&#9;&#9;&#9;C447.46399,144.70703,447.2074,144.17714,446.94141,143.64732z"/><path fill="#C6C6C6" d="M451.8439,153.96964c0.25952,0.57901,0.5098,1.1577,0.7641,1.7366&#10;&#9;&#9;&#9;&#9;&#9;C452.3537,155.12733,452.10339,154.54865,451.8439,153.96964z"/><path fill="#C6C6C6" d="M454.8035,160.84293c0.25131,0.6082,0.49319,1.21559,0.7388,1.82341&#10;&#9;&#9;&#9;&#9;&#9;C455.29678,162.05853,455.05478,161.45114,454.8035,160.84293z"/><path fill="#C6C6C6" d="M448.63739,147.08792c0.26569,0.5491,0.52213,1.09831,0.78308,1.64731&#10;&#9;&#9;&#9;&#9;&#9;C449.15948,148.18613,448.90308,147.63683,448.63739,147.08792z"/><path fill="#C6C6C6" d="M450.27112,150.52803c0.26389,0.56639,0.51849,1.13271,0.7774,1.69901&#10;&#9;&#9;&#9;&#9;&#9;C450.78961,151.66063,450.535,151.09442,450.27112,150.52803z"/><path fill="#C6C6C6" d="M453.3548,157.40863c0.25668,0.59619,0.50418,1.19189,0.75531,1.7878&#10;&#9;&#9;&#9;&#9;&#9;C453.85892,158.60052,453.61151,158.00473,453.3548,157.40863z"/><path fill="#C6C6C6" d="M407.98883,86.37813c1.09167,1.2061,2.17786,2.4277,3.25586,3.6702&#10;&#9;&#9;&#9;&#9;&#9;C410.1666,88.80602,409.08057,87.58422,407.98883,86.37813z"/><path fill="#C6C6C6" d="M318.07541,34.43033c-1.11652-0.0571-2.22708-0.0909-3.32938-0.0936&#10;&#9;&#9;&#9;&#9;&#9;C315.84821,34.33933,316.95901,34.37343,318.07541,34.43033z"/><path fill="#C6C6C6" d="M403.92511,82.00014c1.07947,1.1316,2.15158,2.2858,3.21918,3.45239&#10;&#9;&#9;&#9;&#9;&#9;C406.0766,84.28593,405.00458,83.13173,403.92511,82.00014z"/><path fill="#C6C6C6" d="M392.36517,70.75403c0.98193,0.8854,1.96063,1.785,2.93591,2.6992&#10;&#9;&#9;&#9;&#9;&#9;C394.32581,72.53902,393.34711,71.63943,392.36517,70.75403z"/><path fill="#C6C6C6" d="M396.07053,74.17203c1.11819,1.0587,2.2309,2.1389,3.3392,3.23491&#10;&#9;&#9;&#9;&#9;&#9;C398.30133,76.31104,397.1886,75.23064,396.07053,74.17203z"/><path fill="#C6C6C6" d="M422.6163,104.18202c1.04858,1.4059,2.0845,2.83571,3.11371,4.27701&#10;&#9;&#9;&#9;&#9;&#9;C424.70081,107.01773,423.66492,105.58792,422.6163,104.18202z"/><path fill="#C6C6C6" d="M426.4285,109.43964c1.01559,1.43649,2.02258,2.8877,3.01788,4.35819&#10;&#9;&#9;&#9;&#9;&#9;C428.45108,112.32733,427.44418,110.87623,426.4285,109.43964z"/><path fill="#C6C6C6" d="M429.96472,114.57263c0.90988,1.35451,1.81079,2.7231,2.70248,4.1058&#10;&#9;&#9;&#9;&#9;&#9;C431.77551,117.29572,430.87448,115.92712,429.96472,114.57263z"/><path fill="#C6C6C6" d="M415.41449,94.98603c1.06812,1.2998,2.12714,2.62,3.17902,3.9553&#10;&#9;&#9;&#9;&#9;&#9;C417.54163,97.60603,416.48273,96.28583,415.41449,94.98603z"/><path fill="#C6C6C6" d="M411.90079,90.81313c0.96909,1.1263,1.9324,2.26711,2.88953,3.4222&#10;&#9;&#9;&#9;&#9;&#9;C413.83319,93.08013,412.87,91.93943,411.90079,90.81313z"/><path fill="#C6C6C6" d="M419.34589,99.90373c1.06931,1.37129,2.13293,2.75439,3.18402,4.16209&#10;&#9;&#9;&#9;&#9;&#9;C421.47891,102.65823,420.41519,101.27502,419.34589,99.90373z"/><path fill="#C6C6C6" d="M471.23322,238.27322c0.009-0.7843,0.0137-1.5712,0.00992-2.36299&#10;&#9;&#9;&#9;&#9;&#9;C471.24695,236.70193,471.24234,237.48892,471.23322,238.27322z"/><path fill="#C6C6C6" d="M470.41409,220.62762c0.07758,0.76559,0.14679,1.52719,0.2135,2.2876&#10;&#9;&#9;&#9;&#9;&#9;C470.56079,222.15472,470.49167,221.39322,470.41409,220.62762z"/><path fill="#C6C6C6" d="M469.65723,214.30383c0.10309,0.74881,0.19788,1.4939,0.29095,2.23828&#10;&#9;&#9;&#9;&#9;&#9;C469.85507,215.79762,469.76041,215.05261,469.65723,214.30383z"/><path fill="#C6C6C6" d="M470.06628,217.48134c0.09052,0.7563,0.1727,1.5092,0.25269,2.261&#10;&#9;&#9;&#9;&#9;&#9;C470.23889,218.99036,470.1568,218.23785,470.06628,217.48134z"/><path fill="#C6C6C6" d="M468.06482,204.62213c0.13919,0.7296,0.26981,1.45621,0.39987,2.1825&#10;&#9;&#9;&#9;&#9;&#9;C468.33463,206.07834,468.20401,205.35173,468.06482,204.62213z"/><path fill="#C6C6C6" d="M469.18781,211.10294c0.11542,0.7419,0.22253,1.4807,0.32822,2.21901&#10;&#9;&#9;&#9;&#9;&#9;C469.41025,212.58365,469.30325,211.84505,469.18781,211.10294z"/><path fill="#C6C6C6" d="M468.65662,207.87323c0.12729,0.73459,0.24622,1.46588,0.36401,2.19699&#10;&#9;&#9;&#9;&#9;&#9;C468.90271,209.33911,468.78391,208.60782,468.65662,207.87323z"/><path fill="#C6C6C6" d="M470.70123,223.74614c0.06387,0.77271,0.11938,1.5414,0.17206,2.3085&#10;&#9;&#9;&#9;&#9;&#9;C470.82062,225.28745,470.7652,224.51884,470.70123,223.74614z"/><path fill="#C6C6C6" d="M456.1926,164.27734c0.24319,0.61449,0.47729,1.22829,0.71469,1.8423&#10;&#9;&#9;&#9;&#9;&#9;C456.66995,165.50565,456.43588,164.89185,456.1926,164.27734z"/><path fill="#C6C6C6" d="M471.19861,232.91891c0.01962,0.787,0.03091,1.5695,0.03799,2.3497&#10;&#9;&#9;&#9;&#9;&#9;C471.2294,234.48833,471.21823,233.70612,471.19861,232.91891z"/><path fill="#C6C6C6" d="M470.92758,226.83513c0.04959,0.7778,0.09091,1.5513,0.12891,2.323&#10;&#9;&#9;&#9;&#9;&#9;C471.01849,228.38623,470.97729,227.61293,470.92758,226.83513z"/><path fill="#C6C6C6" d="M471.09348,229.89444c0.03491,0.7825,0.06131,1.5607,0.0842,2.3369&#10;&#9;&#9;&#9;&#9;&#9;C471.15479,231.45514,471.12839,230.67705,471.09348,229.89444z"/><path fill="#C6C6C6" d="M388.1911,67.09123c1.12802,0.96169,2.25311,1.9397,3.37372,2.9393&#10;&#9;&#9;&#9;&#9;&#9;C390.44421,69.03093,389.31921,68.05273,388.1911,67.09123z"/><path fill="#C6C6C6" d="M462.21228,181.32614c0.20599,0.66379,0.40332,1.3257,0.6022,1.98798&#10;&#9;&#9;&#9;&#9;&#9;C462.61548,182.65172,462.41827,181.98993,462.21228,181.32614z"/><path fill="#C6C6C6" d="M459.9892,174.53674c0.2197,0.63788,0.43048,1.27438,0.64389,1.91138&#10;&#9;&#9;&#9;&#9;&#9;C460.41977,175.81113,460.20898,175.17473,459.9892,174.53674z"/><path fill="#C6C6C6" d="M461.13177,177.93813c0.2128,0.6501,0.41681,1.2986,0.62292,1.94731&#10;&#9;&#9;&#9;&#9;&#9;C461.54858,179.23672,461.34467,178.58835,461.13177,177.93813z"/><path fill="#C6C6C6" d="M467.41321,201.35463c0.14938,0.71779,0.29019,1.4326,0.43079,2.14729&#10;&#9;&#9;&#9;&#9;&#9;C467.70331,202.78712,467.56259,202.07233,467.41321,201.35463z"/><path fill="#C6C6C6" d="M457.5192,167.70392c0.23477,0.62021,0.46057,1.23941,0.68939,1.85901&#10;&#9;&#9;&#9;&#9;&#9;C457.97977,168.94333,457.75409,168.32413,457.5192,167.70392z"/><path fill="#C6C6C6" d="M458.78552,171.12604c0.22678,0.62759,0.44479,1.254,0.66541,1.88071&#10;&#9;&#9;&#9;&#9;&#9;C459.23019,172.37994,459.01242,171.75354,458.78552,171.12604z"/><path fill="#C6C6C6" d="M463.23181,184.70251c0.19699,0.67142,0.38541,1.34061,0.5751,2.01041&#10;&#9;&#9;&#9;&#9;&#9;C463.61713,186.04312,463.4288,185.37393,463.23181,184.70251z"/><path fill="#C6C6C6" d="M465.92371,194.74432c0.17007,0.70171,0.3316,1.4006,0.4935,2.09972&#10;&#9;&#9;&#9;&#9;&#9;C466.25519,196.14493,466.09378,195.44592,465.92371,194.74432z"/><path fill="#C6C6C6" d="M466.69879,198.05843c0.159,0.7058,0.3096,1.40909,0.4603,2.1122&#10;&#9;&#9;&#9;&#9;&#9;C467.00836,199.46751,466.85788,198.76443,466.69879,198.05843z"/><path fill="#C6C6C6" d="M465.08881,191.41794c0.17859,0.68799,0.34839,1.3739,0.51929,2.05989&#10;&#9;&#9;&#9;&#9;&#9;C465.43732,192.79184,465.2674,192.10603,465.08881,191.41794z"/><path fill="#C6C6C6" d="M464.19092,188.06752c0.18729,0.67711,0.36578,1.3521,0.54559,2.0275&#10;&#9;&#9;&#9;&#9;&#9;C464.55673,189.41962,464.3782,188.74471,464.19092,188.06752z"/><path fill="#C6C6C6" d="M322.42828,34.77953c1.1041,0.1228,2.21582,0.2786,3.33112,0.4517&#10;&#9;&#9;&#9;&#9;&#9;C324.64398,35.05803,323.53247,34.90243,322.42828,34.77953z"/><path fill="#C6C6C6" d="M468.978,260.81131c0.15561-0.77618,0.3038-1.55768,0.44339-2.3461&#10;&#9;&#9;&#9;&#9;&#9;C469.28177,259.25342,469.13358,260.03531,468.978,260.81131z"/><path fill="#C6C6C6" d="M466.37112,270.96252c0.2384-0.7493,0.46841-1.50558,0.6893-2.26947&#10;&#9;&#9;&#9;&#9;&#9;C466.83954,269.45694,466.60953,270.21335,466.37112,270.96252z"/><path fill="#C6C6C6" d="M469.47601,258.14932c0.13568-0.7804,0.26459-1.5658,0.38458-2.35768&#10;&#9;&#9;&#9;&#9;&#9;C469.74042,256.58334,469.61182,257.36902,469.47601,258.14932z"/><path fill="#C6C6C6" d="M467.798,265.98663c0.19611-0.76401,0.38449-1.53442,0.56387-2.31201&#10;&#9;&#9;&#9;&#9;&#9;C468.1825,264.45212,467.9942,265.22263,467.798,265.98663z"/><path fill="#C6C6C6" d="M467.11603,268.49823c0.21677-0.75623,0.42548-1.51901,0.62531-2.28931&#10;&#9;&#9;&#9;&#9;&#9;C467.5415,266.97922,467.33292,267.74213,467.11603,268.49823z"/><path fill="#C6C6C6" d="M468.41861,263.42444c0.17572-0.77081,0.34402-1.54752,0.50333-2.33112&#10;&#9;&#9;&#9;&#9;&#9;C468.76251,261.87674,468.59442,262.65363,468.41861,263.42444z"/><path fill="#C6C6C6" d="M471.04068,244.15692c0.04282-0.7859,0.0806-1.5748,0.10971-2.36909&#10;&#9;&#9;&#9;&#9;&#9;C471.12109,242.58203,471.0835,243.37123,471.04068,244.15692z"/><path fill="#C6C6C6" d="M470.85129,247.04333c0.06052-0.78738,0.11557-1.57809,0.16208-2.3745&#10;&#9;&#9;&#9;&#9;&#9;C470.96677,245.46513,470.91187,246.25613,470.85129,247.04333z"/><path fill="#C6C6C6" d="M470.2872,252.68452c0.0972-0.7856,0.18842-1.57539,0.27081-2.37129&#10;&#9;&#9;&#9;&#9;&#9;C470.47549,251.10913,470.38452,251.89905,470.2872,252.68452z"/><path fill="#C6C6C6" d="M469.91241,255.44032c0.1163-0.7834,0.2261-1.57141,0.32712-2.36571&#10;&#9;&#9;&#9;&#9;&#9;C470.13843,253.86882,470.02884,254.65701,469.91241,255.44032z"/><path fill="#C6C6C6" d="M470.6001,249.88623c0.07867-0.7872,0.15158-1.57849,0.21579-2.37538&#10;&#9;&#9;&#9;&#9;&#9;C470.75159,248.30775,470.67889,249.09894,470.6001,249.88623z"/><path fill="#C6C6C6" d="M464.70151,275.71625c0.28116-0.72882,0.5535-1.46509,0.81662-2.21002&#10;&#9;&#9;&#9;&#9;&#9;C465.255,274.25082,464.98279,274.98764,464.70151,275.71625z"/><path fill="#C6C6C6" d="M458.22818,288.58954c0.41321-0.64261,0.81668-1.29523,1.21011-1.95782&#10;&#9;&#9;&#9;&#9;&#9;C459.04468,287.29431,458.64139,287.94693,458.22818,288.58954z"/><path fill="#C6C6C6" d="M456.9379,290.51651c0.43481-0.62378,0.85962-1.25787,1.27463-1.90259&#10;&#9;&#9;&#9;&#9;&#9;C457.79752,289.25842,457.37271,289.89273,456.9379,290.51651z"/><path fill="#C6C6C6" d="M465.56708,273.36615c0.25983-0.74011,0.51123-1.48752,0.75323-2.24319&#10;&#9;&#9;&#9;&#9;&#9;C466.07819,271.87845,465.827,272.62616,465.56708,273.36615z"/><path fill="#C6C6C6" d="M455.58472,292.38153c0.45682-0.60498,0.90359-1.22049,1.34048-1.8468&#10;&#9;&#9;&#9;&#9;&#9;C456.48831,291.16101,456.0416,291.77661,455.58472,292.38153z"/><path fill="#C6C6C6" d="M454.17252,294.17764c0.479-0.5853,0.948-1.18161,1.40689-1.78909&#10;&#9;&#9;&#9;&#9;&#9;C455.12051,292.99576,454.65152,293.59244,454.17252,294.17764z"/><path fill="#C6C6C6" d="M459.45862,286.59753c0.39139-0.66,0.77301-1.32971,1.1449-2.00931&#10;&#9;&#9;&#9;&#9;&#9;C460.23163,285.26764,459.85001,285.93762,459.45862,286.59753z"/><path fill="#C6C6C6" d="M471.16797,241.23174c0.0256-0.785,0.04663-1.57289,0.05911-2.3658&#10;&#9;&#9;&#9;&#9;&#9;C471.21457,239.65894,471.19379,240.44673,471.16797,241.23174z"/><path fill="#C6C6C6" d="M463.7746,278.01093c0.30301-0.71698,0.59689-1.44238,0.8815-2.17639&#10;&#9;&#9;&#9;&#9;&#9;C464.37161,276.56842,464.07773,277.29395,463.7746,278.01093z"/><path fill="#C6C6C6" d="M460.62839,284.54263c0.36911-0.67551,0.72849-1.3605,1.07831-2.0549&#10;&#9;&#9;&#9;&#9;&#9;C461.35681,283.18201,460.9975,283.86713,460.62839,284.54263z"/><path fill="#C6C6C6" d="M462.78671,280.24774c0.32501-0.70459,0.64072-1.41769,0.94699-2.1398&#10;&#9;&#9;&#9;&#9;&#9;C463.42743,278.82983,463.11172,279.54315,462.78671,280.24774z"/><path fill="#C6C6C6" d="M461.73883,282.42361c0.34677-0.69031,0.6842-1.3895,1.01199-2.09799&#10;&#9;&#9;&#9;&#9;&#9;C462.42303,281.03412,462.0856,281.7334,461.73883,282.42361z"/><path fill="#C6C6C6" d="M375.72849,57.34033c1.13702,0.811,2.272,1.6451,3.40512,2.4955&#10;&#9;&#9;&#9;&#9;&#9;C378.00049,58.98553,376.86551,58.15153,375.72849,57.34033z"/><path fill="#C6C6C6" d="M354.98132,44.84073c1.14139,0.5616,2.284,1.1484,3.42706,1.7527&#10;&#9;&#9;&#9;&#9;&#9;C357.26529,45.98923,356.12277,45.40243,354.98132,44.84073z"/><path fill="#C6C6C6" d="M338.7991,38.30863c1.11691,0.3503,2.23621,0.7166,3.35928,1.1117&#10;&#9;&#9;&#9;&#9;&#9;C341.0354,39.02503,339.9162,38.65913,338.7991,38.30863z"/><path fill="#C6C6C6" d="M351.17419,43.05083c0.98431,0.4441,1.9696,0.9042,2.9559,1.3807&#10;&#9;&#9;&#9;&#9;&#9;C353.14368,43.95513,352.15839,43.49493,351.17419,43.05083z"/><path fill="#C6C6C6" d="M346.8826,41.21183c1.13898,0.4607,2.27988,0.9406,3.42282,1.4456&#10;&#9;&#9;&#9;&#9;&#9;C349.16254,42.15233,348.02161,41.67253,346.8826,41.21183z"/><path fill="#C6C6C6" d="M342.6376,39.59223c1.08478,0.3875,2.1727,0.801,3.26208,1.2297&#10;&#9;&#9;&#9;&#9;&#9;C344.81018,40.39323,343.72238,39.97993,342.6376,39.59223z"/><path fill="#C6C6C6" d="M359.44751,47.15043c1.09329,0.5901,2.18701,1.1945,3.28091,1.8229&#10;&#9;&#9;&#9;&#9;&#9;C361.63452,48.34493,360.54092,47.74053,359.44751,47.15043z"/><path fill="#C6C6C6" d="M383.99399,63.61173c1.0762,0.866,2.14902,1.7533,3.21948,2.6538&#10;&#9;&#9;&#9;&#9;&#9;C386.14288,65.36503,385.07007,64.47752,383.99399,63.61173z"/><path fill="#C6C6C6" d="M363.37842,49.35003c1.06949,0.6218,2.13889,1.2656,3.20789,1.9236&#10;&#9;&#9;&#9;&#9;&#9;C365.51721,50.61563,364.44791,49.97183,363.37842,49.35003z"/><path fill="#C6C6C6" d="M380.15201,60.60793c1.0943,0.8336,2.18701,1.68019,3.27661,2.5499&#10;&#9;&#9;&#9;&#9;&#9;C382.33902,62.28803,381.24631,61.44143,380.15201,60.60793z"/><path fill="#C6C6C6" d="M367.62311,51.91493c1.13989,0.7141,2.27921,1.4456,3.41739,2.2001&#10;&#9;&#9;&#9;&#9;&#9;C369.90231,53.36053,368.763,52.62903,367.62311,51.91493z"/><path fill="#C6C6C6" d="M371.9303,54.71473c0.97821,0.6577,1.95544,1.3302,2.93161,2.0173&#10;&#9;&#9;&#9;&#9;&#9;C373.88574,56.04493,372.9086,55.37253,371.9303,54.71473z"/><path fill="#C6C6C6" d="M303.6813,35.28763c0.806-0.1458,1.61841-0.2716,2.43509-0.3837&#10;&#9;&#9;&#9;&#9;&#9;C305.29959,35.01573,304.48727,35.14223,303.6813,35.28763z"/><path fill="#C6C6C6" d="M440.70172,305.99823c-42.5321,16.86908-106.18573-22.29172-146.25101-91.68549&#10;&#9;&#9;&#9;&#9;&#9;c-41.88458-72.54491-42.26399-150.89182-1.15378-176.07031c-2.34772,0.9309-4.6348,2.0221-6.84619,3.2988&#10;&#9;&#9;&#9;&#9;&#9;c-42.27551,24.4063-42.27551,103.54961,0,176.7715s110.8176,112.79469,153.09308,88.38832&#10;&#9;&#9;&#9;&#9;&#9;c5.62741-3.24881,10.49802-7.47601,14.62732-12.52151c-3.84158,4.69351-8.33142,8.67133-13.46939,11.8187H440.70172z"/><path fill="#C6C6C6" d="M306.7948,34.81963c0.61569-0.0773,1.2338-0.1466,1.8551-0.205&#10;&#9;&#9;&#9;&#9;&#9;C308.02841,34.67293,307.41052,34.74253,306.7948,34.81963z"/><path fill="#C6C6C6" d="M334.44531,37.04753c1.133,0.2976,2.27057,0.6233,3.41129,0.9687&#10;&#9;&#9;&#9;&#9;&#9;C336.716,37.67073,335.57831,37.34523,334.44531,37.04753z"/><path fill="#C6C6C6" d="M296.0661,37.23283c0.677-0.2257,1.35919-0.4371,2.04581-0.636&#10;&#9;&#9;&#9;&#9;&#9;C297.4252,36.79553,296.7431,37.00723,296.0661,37.23283z"/><path fill="#C6C6C6" d="M293.60181,38.12373c0.65161-0.2537,1.3078-0.4946,1.9689-0.7223&#10;&#9;&#9;&#9;&#9;&#9;C294.90948,37.62913,294.2533,37.87003,293.60181,38.12373z"/><path fill="#C6C6C6" d="M298.51849,36.47733c1.67542-0.4711,3.37741-0.8661,5.1058-1.1803&#10;&#9;&#9;&#9;&#9;&#9;C301.8956,35.61073,300.194,36.00653,298.51849,36.47733z"/><path fill="#C6C6C6" d="M309.51291,34.54083c0.57349-0.0458,1.14951-0.0826,1.72769-0.1127&#10;&#9;&#9;&#9;&#9;&#9;C310.66241,34.45793,310.08649,34.49513,309.51291,34.54083z"/><path fill="#C6C6C6" d="M330.70959,36.15543c1.00055,0.2178,2.00461,0.4546,3.01208,0.7107&#10;&#9;&#9;&#9;&#9;&#9;C332.7142,36.61003,331.71021,36.37323,330.70959,36.15543z"/><path fill="#C6C6C6" d="M326.59061,35.36233c1.12271,0.1863,2.24991,0.3947,3.3826,0.6309&#10;&#9;&#9;&#9;&#9;&#9;C328.84039,35.75703,327.71332,35.54873,326.59061,35.36233z"/><path fill="#C6C6C6" d="M312.15692,34.38423c0.59619-0.0223,1.19568-0.0327,1.79639-0.0385&#10;&#9;&#9;&#9;&#9;&#9;C313.35251,34.35143,312.75311,34.36203,312.15692,34.38423z"/><path fill="#C6C6C6" d="M318.84381,34.47553c1.1347,0.0701,2.2739,0.1584,3.42178,0.2836&#10;&#9;&#9;&#9;&#9;&#9;c-1.14801-0.1253-2.28711-0.2133-3.42181-0.2836H318.84381z"/></g><path opacity="0.3" fill="#FFFFFF" d="M439.54379,129.92943&#10;&#9;&#9;&#9;&#9;c-8.79138-15.2267-18.7244-28.9819-29.3143-41.0256l-63.23029-36.506c-17.8093-10.2823-32.2467-1.9474-32.2467,18.6165v117.3923&#10;&#9;&#9;&#9;&#9;c0,20.56401,14.43741,45.5697,32.2467,55.8519l99.6268,57.5197C481.6651,272.90594,479.30762,198.80113,439.54379,129.92943z" enable-background="new"/></g><path fill="#E6E6E6" d="M314.5842,34.33223c40.5397-0.0042,91.14737,37.03419,124.9595,95.59729&#10;&#9;&#9;&#9;c42.27548,73.22191,42.27548,152.36522,0,176.77153c-8.46341,4.88599-17.98633,7.20898-28.13373,7.20898&#10;&#9;&#9;&#9;c-40.53967,0-91.14728-37.03421-124.95947-95.59729c-42.27551-73.22189-42.27551-152.36519,0-176.7715&#10;&#9;&#9;&#9;c8.46341-4.886,17.9863-7.2079,28.13361-7.2089 M314.59109,24.33223h-0.0079c-12.16159,0.0013-23.30899,2.8774-33.13229,8.5486&#10;&#9;&#9;&#9;c-12.2135,7.051-21.61099,17.9012-27.93159,32.2491c-5.82278,13.2181-8.77519,28.86-8.77519,46.4912&#10;&#9;&#9;&#9;c0,35.1156,11.73599,74.78171,33.04639,111.69151c17.05301,29.53609,38.69601,54.6888,62.58929,72.73891&#10;&#9;&#9;&#9;c24.12497,18.2251,48.68692,27.85828,71.0304,27.85828c12.16019,0,23.30798-2.87607,33.13339-8.54849&#10;&#9;&#9;&#9;c12.21338-7.05099,21.61096-17.90118,27.93146-32.24911c5.82294-13.21811,8.7753-28.86,8.7753-46.49109&#10;&#9;&#9;&#9;c0-35.11569-11.73611-74.78189-33.04642-111.6917c-17.05237-29.53519-38.694-54.6873-62.58517-72.7374&#10;&#9;&#9;&#9;c-24.1243-18.2261-48.68518-27.8599-71.02762-27.8599l0,0L314.59109,24.33223z"/><g><g><ellipse transform="matrix(0.39156 -0.92015 0.92015 0.39156 -677.16516 547.35699)" opacity="0.05" fill="#1A1A1A" cx="75.30457" cy="785.72083" rx="25.0369" ry="62.19841" enable-background="new"/><g><path fill="#EDE6EB" d="M29.9601,226.61754c-7.2179,1.3761-18.3176,4.86299-24.7832,12.7942&#10;&#9;&#9;&#9;&#9;&#9;&#9;c-10.514,12.89722-1.8906,57.3577-1.0964,58.3334c0.7019,0.8624,10.6152,8.96619,18.1452,8.96689&#10;&#9;&#9;&#9;&#9;&#9;&#9;c30.4418,0.00259,7.7345-80.0945,7.7345-80.0945H29.9601z"/><path opacity="0.1" d="M25.9365,253.19214c0,0-5.5068,5.90579-8.0596,10.9483&#10;&#9;&#9;&#9;&#9;&#9;&#9;c-6.7295,13.29297-11.9252,32.8046,1.6587,38.69098C33.1195,308.71783,25.9365,253.19214,25.9365,253.19214z" enable-background="new"/><g><path fill="#EDE6EB" d="M104.6433,264.18542c-1.485-5.47119-4.0979-11.22562-8.6359-16.55551&#10;&#9;&#9;&#9;&#9;&#9;&#9;&#9;c-9.9194-11.65131-26.14339-18.73328-50.1692-22.08058c-4.0714-0.56731-17.9359-2.2007-26.3322,5.65871&#10;&#9;&#9;&#9;&#9;&#9;&#9;&#9;c-11.3193,10.5957-5.6955,32.84589-4.418,53.9989c1.3333,22.08051,10.7739,25.7988,4.9664,75.14468&#10;&#9;&#9;&#9;&#9;&#9;&#9;&#9;c-4.1199,35.0058,37.2223,46.55209,55.2319,47.09369c18.0096,0.54199,11.1969-11.31067,20.7526-11.10629&#10;&#9;&#9;&#9;&#9;&#9;&#9;&#9;c9.5551,0.2037,10.6201-19.15741,8.6835-28.29318c-0.35461-1.67239-0.6451-3.57861-0.83801-5.77771&#10;&#9;&#9;&#9;&#9;&#9;&#9;&#9;c-0.1392-1.58649,0.0006-3.34549,0.1453-5.2692c0.2002-2.65671,0.4102-5.63739-0.0922-8.99899&#10;&#9;&#9;&#9;&#9;&#9;&#9;&#9;c-4.057-27.168-5.2103-31.02979,4.9237-57.789c0.3152-0.83209,0.603-1.68759,0.8856-2.5452&#10;&#9;&#9;&#9;&#9;&#9;&#9;&#9;c2.5266-7.66461-3.42379-17.28992-5.1035-23.48019L104.6433,264.18542z"/><path opacity="0.1" d="M76.3791,304.48874c1.3958,15.8009,18.56841,43.43518,27.6506,52.51007&#10;&#9;&#9;&#9;&#9;&#9;&#9;&#9;c0.2002-2.65671,0.4102-5.63739-0.0922-8.99899c-4.057-27.168-5.2103-31.02979,4.9237-57.789&#10;&#9;&#9;&#9;&#9;&#9;&#9;&#9;c0.3152-0.83209,0.603-1.68759,0.8856-2.5452C96.75539,284.24612,74.24449,280.32443,76.3791,304.48874z" enable-background="new"/></g><path fill="#3C4358" d="M16.0861,442.10004c0,0-11.7743-40.8038,1.3035-80.66031&#10;&#9;&#9;&#9;&#9;&#9;&#9;c1.3241-4.03531,0.4362-16.27841,2.8453-16.2738c1.2683,0.00241,23.1493,21.82889,53.0129,21.1908&#10;&#9;&#9;&#9;&#9;&#9;&#9;c17.01779-0.36362,30.1306-8.74149,30.7785-8.0936s1.58221,15.18372,1.58221,15.18372&#10;&#9;&#9;&#9;&#9;&#9;&#9;c5.6292,1.5011,5.5467,71.02261,5.5467,71.02261l-95.069-2.36938L16.0861,442.10004z"/><g><path fill="#FFC9CA" d="M45.0723,213.53603c-1.4199,6.4646-5.079,13.4082-0.1185,15.66299s19.9652,3.70239,20.303-0.57471&#10;&#9;&#9;&#9;&#9;&#9;&#9;&#9;c0.2651-3.3564,1.4684-17.1176-0.0007-18.47049c-1.4691-1.35291-20.1837,3.3822-20.1837,3.3822H45.0723z"/><path fill="#3C4358" d="M92.9391,208.24863c-0.2747,1.8622-2.7689,2.41409-8.2484,1.5117c0,0,11.1197,6.50789,10.6468-1.1058&#10;&#9;&#9;&#9;&#9;&#9;&#9;&#9;C95.33751,208.65453,92.93911,208.24863,92.9391,208.24863z"/><path fill="#FFD3D4" d="M31.2665,178.28053c-2.2652,13.76781,2.9447,37.1192,16.9107,41.6263&#10;&#9;&#9;&#9;&#9;&#9;&#9;&#9;c17.5133,5.6519,39.7406-1.11018,43.2148-19.18188c6.93-36.04771-5.03199-42.84711-22.935-47.10611&#10;&#9;&#9;&#9;&#9;&#9;&#9;&#9;C50.554,149.35985,34.2541,160.12204,31.2665,178.28053z"/><path fill="#3C4358" d="M80.6155,184.87595c0.9776-2.18951,10.01391-3.2225,13.4585-8.68051&#10;&#9;&#9;&#9;&#9;&#9;&#9;&#9;c3.4446-5.45798-3.16241-27.15759-19.84251-31.9726c-31.7945-9.1779-46.7292,9.40221-51.0002,21.0007&#10;&#9;&#9;&#9;&#9;&#9;&#9;&#9;c-4.271,11.59848-4.3304,24.27039,7.5248,37.39441c10.2795,11.3797,16.8261,15.15279,28.6364,13.5423&#10;&#9;&#9;&#9;&#9;&#9;&#9;&#9;c7.002-0.9549,16.3072-13.84729,14.3369-12.8613c-6.6586,3.33228-8.2207-13.9859-5.3834-17.96611&#10;&#9;&#9;&#9;&#9;&#9;&#9;&#9;c1.7169-2.40849,9.71429,3.0974,9.71429,3.0974S79.6163,187.11385,80.6155,184.87595z"/><path fill="#3C4358" d="M19.8099,212.96693c-6.1209-23.27681,12.3001-33.59471,23.6276-28.34761&#10;&#9;&#9;&#9;&#9;&#9;&#9;&#9;s-0.0435,31.9113-7.2702,34.4713c-7.2267,2.56001-14.6028,0.549-16.3574-6.12379L19.8099,212.96693z"/><path fill="#3C4358" d="M92.0837,199.20993c-10.443-21.0004,2.8056-26.2688-1.8834-24.46561&#10;&#9;&#9;&#9;&#9;&#9;&#9;&#9;c-4.689,1.80301-12.0197,7.0381-12.0197,7.0381c-0.228,4.91119,7.70899,14.57701,9.8558,17.323&#10;&#9;&#9;&#9;&#9;&#9;&#9;&#9;c3.3063,4.22899,5.1721,7.31641,4.9026,9.1432l2.3984,0.4059c-0.1257-2.02419-1.0605-5.03401-3.25381-9.4446H92.0837z"/></g><path fill="#EDE6EB" d="M22.1886,329.70584c0.0437,1.54361-2.5512,7.70648-2.5899,9.56003&#10;&#9;&#9;&#9;&#9;&#9;&#9;c-0.0387,1.85352-0.5035,6.35205,1.1031,8.18289c0.3407,0.38818,13.8528,12.1344,18.0197,12.05099&#10;&#9;&#9;&#9;&#9;&#9;&#9;c1.9112-0.03818,40.246,13.5116,42.4374,5.2467c1.0163-3.83301-57.7957-32.85321-57.9944-33.82178&#10;&#9;&#9;&#9;&#9;&#9;&#9;c-0.2989-1.45721-0.9759-1.21881-0.9759-1.21881L22.1886,329.70584z"/><g><g><path fill="#3C4358" d="M30.8924,767.22882c0.3172,2.49481,3.6279,6.59821,3.6279,9.82983&#10;&#9;&#9;&#9;&#9;&#9;&#9;&#9;&#9;c0,3.23175-1.0018,8.13348,0.1433,8.60352c0.6482,0.26605,2.421-0.07782,3.0942-1.02045&#10;&#9;&#9;&#9;&#9;&#9;&#9;&#9;&#9;c0.6732-0.94257-1.7638-10.13019,2.2085-13.42914s-9.074-3.9837-9.074-3.9837L30.8924,767.22882z"/><path fill="#3C4358" d="M32.854,747.62677c0,0-6.7573,10.34973-3.7279,18.4281s10.3109,9.14459,14.3844,6.93994&#10;&#9;&#9;&#9;&#9;&#9;&#9;&#9;&#9;s14.7823,4.15033,26.8635,0.50409c6.68221-2.01672,20.44289-12.07336,15.2665-16.88696&#10;&#9;&#9;&#9;&#9;&#9;&#9;&#9;&#9;c-1.9427-1.80646-15.2224-0.60065-24.4081,3.58716c-4.9503,2.2569-11.7254-3.55463-17.5824-7.2619&#10;&#9;&#9;&#9;&#9;&#9;&#9;&#9;&#9;s-10.796-5.31036-10.796-5.31036L32.854,747.62677z"/><path fill="#FFD6D6" d="M29.8364,704.53351c0,0,7.489,30.99744,1.2763,46.28735&#10;&#9;&#9;&#9;&#9;&#9;&#9;&#9;&#9;c-0.8939,2.20001,4.7144,0.16571,12.4971,5.04205c2.2632,1.41797,4.3552,7.0675,11.1875,7.34241&#10;&#9;&#9;&#9;&#9;&#9;&#9;&#9;&#9;c10.3562,0.4165,18.689,0.83716,12.8757-2.29425c-1.608-0.86615-17.5987-5.36908-19.5848-10.40851&#10;&#9;&#9;&#9;&#9;&#9;&#9;&#9;&#9;c-4.1207-10.45605,8.9437-47.0752,8.9437-47.0752S29.8364,704.53351,29.8364,704.53351z"/></g><path fill="#3C4358" d="M68.0061,559.94684c0,0-4.66,80.72028-4.02171,156.88922&#10;&#9;&#9;&#9;&#9;&#9;&#9;&#9;c0.0362,4.31866-16.4249,9.29529-21.0701,9.50531c-5.6802,0.25677-20.6945-4.89563-20.2519-12.914&#10;&#9;&#9;&#9;&#9;&#9;&#9;&#9;c2.5387-45.99554-3.5958-96.65369-4.6268-160.05109c-0.5046-31.02972,49.9704,6.57068,49.9704,6.57068L68.0061,559.94684z"/><path fill="#3C4358" d="M15.9214,405.94202c0.0309,131.04504,2.8919,157.84985,3.8907,190.26099&#10;&#9;&#9;&#9;&#9;&#9;&#9;&#9;c0.2076,6.73602,19.2396,15.43945,24.9472,13.43835c35.4963-12.44501,24.8414-128.17422,30.3327-174.69565&#10;&#9;&#9;&#9;&#9;&#9;&#9;&#9;c5.4063-45.8017-59.1774-57.7803-59.1706-29.00372L15.9214,405.94202z"/></g><path opacity="0.1" fill="#1A1A1A" d="M57.5623,663.31647l0.9669-236.37384&#10;&#9;&#9;&#9;&#9;&#9;&#9;c-2.912-0.00272-5.3353,7.44611-6.9946,12.99139c-5.2566-4.27588-13.0466-30.4856-13.0466-30.4856&#10;&#9;&#9;&#9;&#9;&#9;&#9;c-0.3424,9.59122,5.3341,31.1517,8.0367,34.94641c-7.1185,42.7373-0.9925,166.92908,11.0375,218.92163H57.5623z" enable-background="new"/><g><g><path fill="#3C4358" d="M67.2857,789.45795c0.31721,2.49481,3.62791,6.59821,3.62791,9.8299s-1.00181,8.13342,0.1433,8.60352&#10;&#9;&#9;&#9;&#9;&#9;&#9;&#9;&#9;c0.6482,0.26599,2.421-0.07782,3.0942-1.02045s-1.7638-10.13025,2.2085-13.4292&#10;&#9;&#9;&#9;&#9;&#9;&#9;&#9;&#9;c3.97229-3.29895-9.07401-3.9837-9.07401-3.9837L67.2857,789.45795z"/><path fill="#3C4358" d="M69.2474,769.85583c0,0-6.7573,10.34973-3.7279,18.4281&#10;&#9;&#9;&#9;&#9;&#9;&#9;&#9;&#9;c3.0294,8.07837,10.3109,9.14459,14.3844,6.93994c4.07349-2.20465,14.7823,4.15033,26.86349,0.50409&#10;&#9;&#9;&#9;&#9;&#9;&#9;&#9;&#9;c6.6822-2.01666,20.4429-12.07336,15.26651-16.8869c-1.9427-1.80652-15.2224-0.60071-24.4081,3.5871&#10;&#9;&#9;&#9;&#9;&#9;&#9;&#9;&#9;c-4.95031,2.2569-11.7254-3.55463-17.5824-7.2619s-10.796-5.31036-10.796-5.31036L69.2474,769.85583z"/><path fill="#FFD6D6" d="M66.2298,726.76263c0,0,7.48901,30.9975,1.27631,46.28741&#10;&#9;&#9;&#9;&#9;&#9;&#9;&#9;&#9;c-0.8939,2.20001,4.7144,0.16571,12.4971,5.04199c2.2632,1.41803,4.3552,7.0675,11.1875,7.34241&#10;&#9;&#9;&#9;&#9;&#9;&#9;&#9;&#9;c10.35619,0.41656,18.689,0.83716,12.87569-2.29425c-1.60799-0.86615-17.59869-5.36902-19.5848-10.40845&#10;&#9;&#9;&#9;&#9;&#9;&#9;&#9;&#9;c-4.1207-10.45612,8.9437-47.0752,8.9437-47.0752L66.2298,726.76263z"/></g><g><path fill="#3C4358" d="M107.3876,585.44165c0,0-4.27351,80.67273-3.6352,156.84167&#10;&#9;&#9;&#9;&#9;&#9;&#9;&#9;&#9;c0.0362,4.31873-16.4249,9.29529-21.0701,9.50537c-5.6802,0.25677-20.6945-4.89563-20.2519-12.914&#10;&#9;&#9;&#9;&#9;&#9;&#9;&#9;&#9;c2.5387-45.99567-17.1935-131.33142,1.4463-148.6842c22.7144-21.146,43.5108-4.74878,43.5108-4.74878L107.3876,585.44165z"/><path fill="#3C4358" d="M51.1768,415.70593c1.3362,89.25,2.1885,165.0058,5.0447,197.60602&#10;&#9;&#9;&#9;&#9;&#9;&#9;&#9;&#9;c0.6813,7.77618,50.82609-20.89771,51.16619-27.87042c1.4346-29.41315,3.7555-87.1582,3.7555-134.53137&#10;&#9;&#9;&#9;&#9;&#9;&#9;&#9;&#9;C111.1432,374.87317,50.746,386.93256,51.1768,415.70593z"/></g></g><g><g><path fill="#FFD3D4" d="M104.2147,274.52643c11.31429,7.1315,48.8119,85.966,38.97939,91.75961&#10;&#9;&#9;&#9;&#9;&#9;&#9;&#9;&#9;s-30.4014-32.31769-51.88519-62.0318c-22.0333-30.47412,1.5915-36.85941,12.9058-29.72791V274.52643z"/><path fill="#FFD3D4" d="M139.5441,366.43024c9.1528,6.71149,35.7088-39.8858,35.96249-64.35858&#10;&#9;&#9;&#9;&#9;&#9;&#9;&#9;&#9;c0.01431-1.38181-3.04211-2.53162-3.3658-3.78622c-1.48759-5.76498-25.3101,35.97311-34.4391,52.16919&#10;&#9;&#9;&#9;&#9;&#9;&#9;&#9;&#9;c-8.07109,14.31912,1.84241,15.97549,1.84241,15.97549V366.43024z"/></g><path fill="#EDE6EB" d="M74.47,296.36725c0.7935,5.16299,12.0847,12.97849,19.9177,19.40598&#10;&#9;&#9;&#9;&#9;&#9;&#9;&#9;c10.1834,8.35623,31.8256-11.95868,31.8256-11.95868s-8.1846-13.33679-8.82439-22.01959&#10;&#9;&#9;&#9;&#9;&#9;&#9;&#9;c-0.5797-7.86713-14.78831-26.00221-17.9141-29.10251c-3.12579-3.1003-27.42509,27.9274-25.0049,43.6748H74.47z"/></g><path fill="#FFCCCC" d="M40.4748,225.17932c-0.7007,0.17041-1.8967,0.8278-1.6052,1.8493&#10;&#9;&#9;&#9;&#9;&#9;&#9;c0.2915,1.0215,5.6637,6.13141,12.6386,6.6787c4.8964,0.38429,19.5688,3.1474,20.5927-1.26529&#10;&#9;&#9;&#9;&#9;&#9;&#9;c0.6708-2.8907-27.1237-8.35751-31.6261-7.2628L40.4748,225.17932z"/></g></g><path fill="#FFD3D4" d="M175.04471,284.85892c-3.55591,1.7543-8.1752,6.6189-6.7524,12.83911&#10;&#9;&#9;&#9;&#9;c1.4774,6.45901,9.29939,8.96381,16.226,6.71512c8.2366-2.6741,4.76721-9.66772,2.59891-8.16232&#10;&#9;&#9;&#9;&#9;c-2.66479,1.85013-6.65109-2.15659-7.6622-4.24957c-3.47009-7.18362,2.99069-10.79352-4.4104-7.14221L175.04471,284.85892z"/><path fill="#FFD3D4" d="M172.1409,288.60175c0.3405-5.63803,4.8548-11.8197,7.6626-10.22632&#10;&#9;&#9;&#9;&#9;c2.80782,1.59338-1.88409,9.26941-2.03648,11.17542C177.61461,291.45682,172.1409,288.60175,172.1409,288.60175z"/><path fill="#FFD3D4" d="M142.6432,274.42273c5.4803-1.36719,13.87961,0.24921,13.2023,3.40579&#10;&#9;&#9;&#9;&#9;c-0.67729,3.15662-15.1797,1.55661-17.04359,1.98322C136.938,280.23834,142.6432,274.42273,142.6432,274.42273z"/></g></g></g></svg>