<svg xmlns="http://www.w3.org/2000/svg" xmlns:xlink="http://www.w3.org/1999/xlink" version="1.1" id="_レイヤー_2" x="0px" y="0px" viewBox="0 0 651.4032 1181.54797" enable-background="new 0 0 651.4032 1181.54797" width="651px" height="1182px" class="lg:!max-h-[405px] isometric rectangleModalImage"><title>考える男性1(上半身)</title><g id="_男性_上半身_"><g><g><path fill="#FFD3D4" d="M95.1638,493.95828c-34.944,40.50742-109.7557,372.66318-45.3328,390.95615&#10;&#9;&#9;&#9;&#9;c43.91369,12.46936,78.5153-159.16736,125.9612-297.94971c48.65948-142.33209-45.6844-133.51379-80.62841-93.00641&#10;&#9;&#9;&#9;&#9;L95.1638,493.95828z"/><path fill="#1d71a2" d="M149.66341,846.87531c0,0-201.56821-118.03253-136.85611-192.70026&#10;&#9;&#9;&#9;&#9;c55.4823-64.01813,34.85429-283.60553,201.66551-295.79559C233.5433,356.98584,205.61861,807.02649,149.66341,846.87531z"/><path opacity="0.1" d="M106.6713,799.39917c-31.0714,4.4577-22.2797-267.62579,11.6043-259.01117&#10;&#9;&#9;&#9;&#9;S118.2081,797.74408,106.6713,799.39917z" enable-background="new"/></g><g><polygon fill="#CDCDD5" points="186.6642,430.98492 186.6642,430.98492 188.89879,418.46808"/><path fill="#1d71a2" d="M218.4281,1092.72778c124.04297,71.61719,239.96289,98.43359,338.60162,85.8125&#10;&#9;&#9;&#9;&#9;c-4.63568-28.08972-20.50494-91.67969-31.17194-137.22839c-16.38568-69.9707-35.45117-148.45514-36.91986-175.61725&#10;&#9;&#9;&#9;&#9;c-9.2402-170.83008,5.96881-189.89838,6.36328-258.76947c0.09769-17.11328-1.5625-53.07233-3.89648-79.42969&#10;&#9;&#9;&#9;&#9;c-4.07422-45.99612-49.8154-119.88092-92.90039-138.20312c-43.08398-18.32227-49.7305-32.75198-169.0303-35.24408&#10;&#9;&#9;&#9;&#9;c-95.31351,18.51761-127.0527,135.01172-124.8857,192.43744c2.167,57.42584,6.501,171.52734-13.1885,368.39844&#10;&#9;&#9;&#9;&#9;c-3.1133,31.12299-0.0029,61.81641,1.1514,90.96484c40.73439,32.75781,82.7959,62.00598,125.877,86.87891L218.4281,1092.72778z"/><path opacity="0.1" d="M398.66821,831.03857&#10;&#9;&#9;&#9;&#9;c4.1875-145.12683,55.64041-201.91559,96.63263-224.11401c-0.39429,68.87103-15.60361,87.94092-6.36331,258.76965&#10;&#9;&#9;&#9;&#9;c1.4696,27.16333,20.53452,105.64697,36.92038,175.61792c-61.23599-19.43256-131.1843-71.8197-127.18958-210.27356H398.66821z" enable-background="new"/><path fill="#FFC9CA" d="M220.38959,371.50317c8.42871-9.5452,18.1366-9.84329,18.1366-9.84329s6.14191-38.9939,6.3074-42.02069&#10;&#9;&#9;&#9;&#9;l108.95108-9.73199c0,0-3.63232,63.01718,4.53,68.57309c15.5217,10.56488,42.681,5.79733,34.681,29.7973&#10;&#9;&#9;&#9;&#9;c-7.99997,24-104.17737,61.68048-148.1774,45.68051c-44.00002-16-32.85721-72.90939-24.4287-82.4548L220.38959,371.50317z"/><g><path fill="#FFD3D4" d="M223.81689,56.7887c-39.54741,23.7529-48.4696,115.94759-48.4696,115.94759&#10;&#9;&#9;&#9;&#9;&#9;s-47.8441,95.33191,29.63199,160.55042c61.59149,51.84698,152.01389,0.5246,152.01389,0.5246&#10;&#9;&#9;&#9;&#9;&#9;S528.40009,178.1604,423.34518,86.15709S263.3642,33.03579,223.81689,56.7887z"/><path fill="#3C4358" d="M330.58948,1.1561c99.5195,9.6486,139.75339,71.2075,134.28589,97.232&#10;&#9;&#9;&#9;&#9;&#9;c20.61261,19.8029,32.28729,56.4316,15.69489,100.31741c-31.95651,84.52267-123.577,135.1058-123.577,135.1058&#10;&#9;&#9;&#9;&#9;&#9;s-5.9332-29.77289,6.0672-22.6431c15.1781,9.01779,72.23511-59.8374,62.8096-86.6321&#10;&#9;&#9;&#9;&#9;&#9;c-9.42538-26.79411-56.54819,34.66298-56.54819,34.66298l-20.28259,13.72473l12.7731-47.66971&#10;&#9;&#9;&#9;&#9;&#9;c0,0-9.34012-8.7162-17.19159-45.48019c-7.00021-32.77791-60.86002-84.46291-80.24561-86.6443&#10;&#9;&#9;&#9;&#9;&#9;c-20.59239-2.3172-72.3353,6.86281-73.62698,11.6835l-5.81261,18.1947c0,0-7.56171-11.8408-2.33441-34.546&#10;&#9;&#9;&#9;&#9;&#9;c5.31349-23.0799,30.78542-98.6689,147.98842-87.3056L330.58948,1.1561z"/></g></g><path fill="#FFD3D4" d="M6.0261,808.77985c-41.4163-39.03223,162.90118-410.72781,205.0455-388.2887&#10;&#9;&#9;&#9;c58.72029,31.2648-81.4315,312.38879-127.33301,374.4585C37.8372,857.01929,6.02611,808.77985,6.0261,808.77985z"/><path fill="#FFD3D4" d="M254.9565,436.02811c-8.72179,17.7312-26.72639,22.46509-57.47459,14.79691&#10;&#9;&#9;&#9;c-31.9287-7.96262-32.31841-42.28439-28.5546-52.7731c25.5954-71.32739,53.90739-68.7793,80.4455-64.6683&#10;&#9;&#9;&#9;c26.53821,4.11096,23.73639,65.7402,5.58359,102.6445H254.9565z"/><g><g><path fill="#FFD3D4" d="M554.95789,606.68298c26.65063,46.38623,8.2121,404.6731-58.508,410.44928&#10;&#9;&#9;&#9;&#9;&#9;c-45.47958,3.93738-35.59729-190.71594-55.93411-335.96771c-20.8569-148.96698,87.79147-120.8678,114.44211-74.48151V606.68298z"/><path fill="#FFD3D4" d="M509.54831,1010.31854c-34.44083,45.30609-418.94904-114.6062-405.27292-157.48749&#10;&#9;&#9;&#9;&#9;&#9;c8.53139-26.75006,308.22455,54.34357,374.79388,93.43451c66.5694,39.09088,30.47903,64.05304,30.47903,64.05304V1010.31854z"/><path fill="#FFD3D4" d="M97.43201,800.99097c15.794,6.66846,37.19279,28.05927,33.23419,59.46533&#10;&#9;&#9;&#9;&#9;&#9;c-4.1106,32.61194-49.1236,32.8222-58.3502,30.26361c-62.7448-17.39905-62.9347-45.80908-61.6489-72.633&#10;&#9;&#9;&#9;&#9;&#9;c1.2858-26.82385,53.8927-30.97522,86.76491-17.09601V800.99097z"/></g><path fill="#1d71a2" d="M416.81461,400.34308c-1.95718-5.36899,116.81418,62.19031,140.22873,104.40631&#10;&#9;&#9;&#9;&#9;c20.25507,36.51959,65.52765,162.1731,72.11469,271.56421c3.09711,51.43359,24.73871,71.57837,22.00739,101.9823&#10;&#9;&#9;&#9;&#9;c0,0-105.88812,111.29468-221.72681,63.22888c0,0-7.97693-325.08655-31.1308-353.02075c0,0,21.7204-179.34521,18.50671-188.16107&#10;&#9;&#9;&#9;&#9;L416.81461,400.34308z"/></g></g></g></svg>