<svg xmlns="http://www.w3.org/2000/svg" xmlns:xlink="http://www.w3.org/1999/xlink" version="1.1" id="_レイヤー_2" x="0px" y="0px" viewBox="0 0 564.62592 762.93042" enable-background="new 0 0 564.62592 762.93042" width="565px" height="763px" class="lg:!max-h-[405px] isometric rectangleModalImage"><title>小銭入れ</title><g id="_レイヤー_2-2"><g><ellipse transform="matrix(0.44924 -0.89341 0.89341 0.44924 -394.21399 584.25806)" opacity="0.05" cx="276.7659" cy="611.86328" rx="85.8588" ry="289.59232" enable-background="new"/><path fill="#1D71A2" d="M355.03818,144.28833c-91.29349-39.43869-155.9288-81.0547-210.42889-67.7634&#10;&#9;&#9;&#9;c-21.8174-2.8882-39.189-1.7056-49.53371,4.267c-11.2641,6.5032-12.6923,17.81551-5.88979,32.0154&#10;&#9;&#9;&#9;C-4.4186,211.18633-8.5211,409.58755,6.7602,471.29401c0.0138,0.05591,0.0322,0.11481,0.0463,0.1709&#10;&#9;&#9;&#9;c2.332,10.43961,8.6464,22.42242,18.513,35.44641c11.6268,15.3476,28.1903,32.14227,49.0427,49.57898&#10;&#9;&#9;&#9;c87.96179,81.64508,245.209,181.46277,377.0423,168.98029c21.3064-2.01733,41.94904-6.96698,61.52698-15.40222&#10;&#9;&#9;&#9;c144.0296-62.05518-47.07568-517.90698-157.89316-565.78009L355.03818,144.28833z"/><g><g><path fill="#D3CDC5" d="M437.30911,165.48123c-74.79993-89.9673-178.48453-149.8232-253.27121-146.2253&#10;&#9;&#9;&#9;&#9;&#9;c-18.32462,0.7638-53.0722,14.6245-66.57711,26.3071c8.3842-2.9,34.10981-12.6797,43.1578-13.0568&#10;&#9;&#9;&#9;&#9;&#9;c74.787-3.5979,178.47131,56.2581,253.27118,146.22531c14.20221,16.98788,28.1868,36.69638,40.05322,57.40428l-10.14352,6.2552&#10;&#9;&#9;&#9;&#9;&#9;l42.40552,103.99063l23.41931-13.25034c4.98868-52.43018-32.8931-120.49579-72.31522-167.65019L437.30911,165.48123z"/><path fill="#D3C2A8" d="M88.30321,116.65283c-4.97321-58.19699,32.8893-82.5032,72.3154-84.1465&#10;&#9;&#9;&#9;&#9;&#9;c74.7869-3.5979,178.47139,56.258,253.27132,146.22531c39.422,47.15439,77.30399,115.21999,72.31522,167.65022&#10;&#9;&#9;&#9;&#9;&#9;c0-0.00031-20.86633-12.04739-20.86633-12.04739c-1.38489-10.8591-4.2356-21.8653-8.33679-32.83649&#10;&#9;&#9;&#9;&#9;&#9;c-15.64819-40.3288-44.41589-76.0808-73.54462-105.32089c-39.5687-39.2874-82.54608-68.7988-124.3399-88.7407&#10;&#9;&#9;&#9;&#9;&#9;c-44.72369-20.8991-92.64688-33.2098-125.78758-16.2334c-12.5163,6.8373-27.8566-7.2046-30.5279,11.4265&#10;&#9;&#9;&#9;&#9;&#9;c-0.0001-0.0001-14.4986,14.0233-14.4986,14.0233l0,0L88.30321,116.65283z"/></g><g><path fill="#D3C7B7" d="M413.8898,178.10654C339.0899,88.13913,235.40529,28.28333,160.61859,31.88113&#10;&#9;&#9;&#9;&#9;&#9;c-18.3246,0.7638-53.0722,14.6245-66.5771,26.3071c8.3842-2.9,34.1098-12.6797,43.15779-13.0568&#10;&#9;&#9;&#9;&#9;&#9;c74.78702-3.5979,178.47131,56.25811,253.27124,146.2253c14.20218,16.9879,28.18677,36.69641,40.05319,57.4043l-10.14349,6.2552&#10;&#9;&#9;&#9;&#9;&#9;l42.40549,103.99062l23.41931-13.25031c4.98871-52.43021-32.8931-120.4958-72.31522-167.65021V178.10654z"/><path fill="#D3C2A8" d="M64.8839,129.27803c-4.9732-58.197,32.88931-82.5032,72.31541-84.1465&#10;&#9;&#9;&#9;&#9;&#9;c74.7869-3.5979,178.47141,56.258,253.27127,146.22531c39.422,47.15439,77.30402,115.22,72.31522,167.65024&#10;&#9;&#9;&#9;&#9;&#9;c0-0.00031-20.8663-12.04739-20.8663-12.04739c-1.38489-10.8591-4.23563-21.86533-8.33679-32.83652&#10;&#9;&#9;&#9;&#9;&#9;c-15.64819-40.32877-44.41589-76.08078-73.54462-105.32088c-39.56873-39.2874-82.54611-68.7988-124.33992-88.7407&#10;&#9;&#9;&#9;&#9;&#9;c-44.72371-20.8991-92.6469-33.2098-125.7876-16.2334c-12.5163,6.8373-21.4888,18.8661-24.1601,37.49709&#10;&#9;&#9;&#9;&#9;&#9;c-0.0001-0.00009-20.8664-12.04729-20.8664-12.04729l0,0L64.8839,129.27803z"/></g><circle fill="#C6AD91" cx="251.83679" cy="29.12683" r="29.1268"/><ellipse transform="matrix(0.16659 -0.98603 0.98603 0.16659 198.66902 331.50742)" fill="#C6B5A2" cx="295.4411" cy="48.22903" rx="29.1268" ry="29.12681"/></g><path opacity="0.2" fill="#FFFFFF" d="M331.4082,218.65262&#10;&#9;&#9;&#9;c-16.6189-15.97139-44.60681-41.32761-63.24371-50.0563c-46.34358-21.7061-88.36407-44.88849-117.31868-44.88849&#10;&#9;&#9;&#9;c-12.7623,0-32.6736,5.2408-43.0611,13.2769c-53.6203,41.4832-72.45181,129.96678-82.9072,187.14198&#10;&#9;&#9;&#9;c-10.2855,56.24628-7.8706,130.62808-3.5124,174.5293c1.2422,2.75983,2.5772,5.50998,3.9545,8.25537&#10;&#9;&#9;&#9;c11.6268,15.3476,28.1903,32.14233,49.0427,49.57904C162.3241,638.1355,319.57132,737.95306,451.4046,725.4707&#10;&#9;&#9;&#9;c0.0325-67.36768-14.62347-223.35013-34.35968-325.20853c-18.44003-95.17181-45.1257-142.6767-85.63654-181.60959&#10;&#9;&#9;&#9;L331.4082,218.65262z" enable-background="new"/></g></g></svg>