<svg xmlns="http://www.w3.org/2000/svg" version="1.1" viewBox="0 0 848.06183 1262.97827" width="848px" height="1263px" class="lg:!max-h-[405px] isometric rectangleModalImage"><title>債務整理</title><g><g id="_レイヤー_2"><g id="_x33_"><g><g><path d="M437.68349,1094.49097c-6.78188,0-13.1728-1.53328-17.99511-4.31763-4.99062-2.88132-7.73899-6.77048-7.73899-10.95139s2.74818-8.06976,7.73842-10.95093c4.82208-2.78412,11.2125-4.31732,17.99431-4.31732s13.17291,1.53328,17.9953,4.31763c4.99062,2.88132,7.73899,6.77063,7.73899,10.95154s-2.7483,8.06969-7.73849,10.95078c-4.82208,2.78412-11.21262,4.31732-17.99438,4.31732h-.00004Z" opacity=".05"/><g><path d="M405.15888,534.80709h0l3.0949,5.60081c.87261,1.59771,2.11979,2.98752,3.69999,4.13582,1.43341,1.04149,3.14678,1.8784,5.12321,2.47841,1.30112.39501,2.71118.69061,4.23409.86941.96989.11391,1.98078.18509,3.03719.20489.26939.00511.54741-.01839.81879-.01961,1.4283-.0066,2.88109-.10052,4.35261-.2747,1.3689-.1622,2.7467-.36999,4.13551-.6675,1.735-.37189,3.47721-.86739,5.21339-1.43421,1.6692-.54501,3.3276-1.17001,4.96769-1.8787,1.80561-.77999,3.59001-1.637,5.32291-2.59449s3.40801-2.01229,5.02918-3.12599c1.4727-1.01158,2.8846-2.08309,4.23409-3.20641,1.40381-1.16829,2.75028-2.37968,3.98849-3.65082.99091-1.01749,1.89999-2.0734,2.76581-3.1464.93052-1.15292,1.78329-2.33311,2.54879-3.53889.14542-.22881.313-.45151.45189-.68211.5455-.90519,1.02329-1.7992,1.4431-2.68139.65899-1.38432,1.15921-2.73548,1.5173-4.04701.54379-1.99162.74749-3.88699.62908-5.65449-.12951-1.9334-.6345-3.71609-1.5094-5.29572l-3.16212-5.72239c-2.52548-4.59019-8.08552-7.50542-16.07849-7.65549-15.96432-.2998-35.58731,10.54379-43.82931,24.2197-4.15089,6.88759-4.62189,13.17909-2.02911,17.76722l.00042.00004ZM414.90952,541.55861c-.01011-.00252-.01999-.0053-.0301-.00778.01011.00252.01999.0053.0301.00778ZM415.9774,541.79958c-.0256-.00519-.05119-.0103-.07671-.0156.02548.00519.05112.01041.07671.0156ZM468.53001,508.50052v.00069-.00069ZM466.44402,515.44621v.00019-.00011h0v-.00008ZM445.98129,535.476h-.00019.00019ZM435.69901,539.96429h-.00031.00031ZM421.99871,542.34291h.00031-.00031ZM408.7878,538.81409h0Z" fill="#ffc444"/><path d="M464.5573,518.82481l3.16841,5.73391c-.76561,1.2059-1.61831,2.38602-2.54879,3.53889l-3.16849-5.73399c.93071-1.1525,1.78299-2.33372,2.5489-3.53889l-.00004.00008Z" opacity=".1"/><path d="M451.01639,532.36061l3.17219,5.7407c-1.62121,1.11382-3.2962,2.16839-5.02918,3.12599l-3.17799-5.7513c1.73229-.9573,3.4145-2.0023,5.0351-3.11539h-.00011Z" opacity=".1"/><path d="M459.23351,525.49351l3.17768,5.75062c-1.23821,1.2711-2.58469,2.48249-3.98849,3.65082l-3.16971-5.7362c1.40579-1.1697,2.74078-2.39239,3.98048-3.6652l.00004-.00004Z" opacity=".1"/><path d="M467.96558,511.40671l3.17261,5.7415c-.3582,1.31161-.85838,2.6627-1.5173,4.04701l-3.1768-5.74902c.6575-1.38111,1.16329-2.73079,1.52149-4.0395Z" opacity=".1"/><path d="M440.66429,538.08121l3.17219,5.74059c-1.64009.70869-3.29861,1.33369-4.96769,1.8787l-3.16971-5.7362c1.66752-.54459,3.3268-1.17512,4.96529-1.88309h-.00008Z" opacity=".1"/><path d="M413.90461,541.28101l3.17242,5.74108c-1.97632-.60001-3.6898-1.43688-5.12321-2.47841l-3.16601-5.7296c1.4325,1.03649,3.14461,1.86981,5.11681,2.46681v.00011Z" opacity=".1"/><path d="M421.17039,542.3452c.2742.00511.55199-.00099.8284-.00229l3.16849,5.73399c-.27149.00118-.54939.0246-.81879.01961-1.0564-.0198-2.0673-.09102-3.03719-.20489l-3.17692-5.74921c.96909.11372,1.98078.18311,3.03612.2029l-.00011-.00011Z" opacity=".1"/><path d="M430.4776,541.38401l3.17772,5.75069c-1.38882.29751-2.76661.50529-4.13551.6675l-3.1686-5.73421c1.36471-.16209,2.74212-.38731,4.1264-.68401v.00004Z" opacity=".1"/><path d="M421.17039,542.3452c15.96432.2998,35.58731-10.54379,43.82931-24.2197,8.242-13.67599,1.98189-25.00561-13.98239-25.3054s-35.58731,10.54379-43.82931,24.2197-1.98189,25.00561,13.98239,25.3054Z" fill="#fff" opacity=".2"/><path d="M421.22269,539.5623c-6.6848-.1255-11.5448-2.32738-13.6845-6.19961-2.13989-3.8726-1.41762-9.1592,2.03381-14.88602,3.73791-6.20251,10.12402-12.0097,17.98161-16.35159s16.17149-6.65791,23.41148-6.5221c6.68468.12562,11.54461,2.3275,13.68439,6.1998,2.13989,3.8726,1.41762,9.1592-2.03381,14.88602-3.73821,6.2027-10.12421,12.0097-17.98149,16.35151s-16.17142,6.65791-23.4116,6.52191l.00011.00008ZM410.52551,519.05128c-3.23738,5.37189-3.95222,10.2631-2.01279,13.77281,1.9392,3.50941,6.46049,5.50701,12.7309,5.625,7.04781.13229,15.1635-2.1347,22.8521-6.38329s13.9275-9.91379,17.56641-15.95169c3.23738-5.37189,3.95222-10.2631,2.01279-13.77281-1.93932-3.50948-6.46049-5.50732-12.73079-5.62511-7.04762-.13229-15.16331,2.13482-22.8521,6.3834-7.68921,4.24889-13.9278,9.9139-17.56649,15.95169h-.00004Z" opacity=".05"/></g></g><g><path d="M351.0194,1122.83081c23.92941-13.81561,82.12639-2.6152,129.98661,25.01694,47.86018,27.63206,67.25998,61.23222,43.33061,75.04776-23.92941,13.81561-82.12639,2.6152-129.98661-25.01694-47.86018-27.63206-67.26002-61.23222-43.33061-75.04776Z" fill="#1a1a1a" opacity=".05"/><path d="M418.29399,736.20979c3.81111,3.14323,7.97298,10.32516,4.33632,17.36366-3.7764,7.30873-16.46019-4.08417-18.79501-5.6041-15.87761-10.33546-13.36239-10.09499-10.83359-16.31416s17.36012-1.98738,25.29228,4.55452v.00008Z" fill="#ffd6d6"/><g><path d="M266.45691,821.46278c12.4465,6.08238,66.72562-43.3017,69.07669-53.4256.4578-1.97128-1.94931-8.61549-6.67259-7.50717-22.7669,5.34233-59.4409,30.24422-66.15219,42.87521-8.1036,15.25146,3.74809,18.05748,3.74809,18.05748v.00008Z" fill="#ffd6d6"/><path d="M344.90891,825.57602c-11.25301-7.22771-82.71061-28.45154-84.9774-11.86317-1.5451,11.30737,28.76881,28.2122,64.78609,35.08507,36.93851,7.04872,31.4444-15.99411,20.19138-23.22189h-.00008Z" fill="#ffd6d6"/><path d="M369.0102,827.62268c-17.30492-2.80273-54.0131-22.40387-71.27831-20.09666s-10.43341,36.02562-12.74071,43.57933-2.4596,21.14059,1.749,24.47319,71.47579,17.21558,75.448,16.67839,6.8219-64.63417,6.8219-64.63417l.00011-.00008Z" fill="#999999"/></g><path d="M432.9221,1102.2155c-3.86841-4.90356-10.49061-10.42084-17.4321-10.53268-11.59939-.18661-17.1027,4.60533-18.10661,11.92596-1.21029,8.82568-.2425,16.50032-7.89761,35.96161-1.91479,4.86801-19.74022,12.36511-2.3048,17.9287,7.97409,2.54448,22.31071.14648,29.2992-13.71849,5.97019-11.84471,7.50561-16.48888,10.05569-18.44917.45631-.21942,3.19569,1.5741,4.0601,1.1364,1.89751-.9594,7.75501-15.68581,7.01832-18.19397-1.12492-3.83034-2.31911-5.45837-4.69212-6.0582l-.00008-.00015Z" fill="#4a4c57"/><path d="M382.89558,1079.34334c12.92301,4.36394,24.39232,14.29153,32.8223,16.68709,10.75859,3.05733-3.0558,26.493-6.58821,28.30917-.82909.42633-.56309-4.39194-1.39622-6.26068-.94509-2.12013-9.67831-5.39307-10.5341-2.7076-.48901,1.53473-.99281.12337.34389-3.12469.54039-1.3131-31.72371-10.56122-34.80629-12.29248s14.57512-22.49626,20.15862-20.61081Z" fill="#ffd6d6"/><path d="M505.9716,1005.92331s18.13091,12.26517,7.18361,57.61818c-10.9473,45.35286-83.11928-12.61276-83.11928-12.61276l7.42439-48.09448,45.40051,3.08907h23.11089-.00011Z" fill="#3b435a"/><path d="M315.9988,1026.539c18.95359,10.19142,39.84032,30.1387,73.49812,52.58598,3.5931,2.39632.1535,18.8987-1.91872,23.07098-2.53391,5.10193-13.53592,14.09653-21.1306,11.48643-45.95848-15.79437-93.41499-37.55943-105.7967-71.5789-11.5686-31.78551,36.39441-25.75592,55.3479-15.5645Z" fill="#3b435a"/><path d="M420.5912,996.17752c-71.70341,10.73547-166.24741-.1149-162.5156,37.60323,4.6876,47.37846,145.30621,35.64552,176.53248,25.86594,42.50889-13.31322,5.3915-66.37497-14.01691-63.46916h.00004Z" fill="#3b435a"/><path d="M502.80781,1143.53523c-3.86841-4.90356-6.67-9.69223-13.61149-9.80408-11.59939-.18661-17.1027,4.60533-18.10661,11.92596-1.21029,8.82568.20901,13.29437-7.4461,32.75566-1.91479,4.86801-17.96688,17.79579-.5315,23.35938,7.97409,2.54448,22.31071.14648,29.2992-13.71849,5.97019-11.84471,5.22598-17.19353,7.77611-19.15367.45631-.21942.52299-.97137,1.38741-1.40907,1.89751-.9594,4.15192-15.83672,3.4153-18.34503-1.12492-3.83034-.5891-3.66028-2.1822-5.6105l-.00011-.00015Z" fill="#4a4c57"/><path d="M491.65779,1110.11597c2.9372,16.55724,2.69539,27.96272,2.69539,27.96272,6.27232,8.00751-.6966,26.96907-4.22909,28.78517-.82909.42633-.56309-4.39194-1.39622-6.26068-.94509-2.12013-15.6284-6.00708-16.48418-3.32161-.48901,1.53473.1881-5.06989,1.52481-8.31802.54039-1.3131-1.35601-17.80922-2.27089-21.22421-3.4893-13.02437,19.13071-23.42598,20.1601-17.62337h.00008Z" fill="#ffd6d6"/><g><polygon points="365.7761 844.40239 365.7761 844.40239 366.3348 841.27319 365.7761 844.40239" fill="#ccccd5"/><path d="M345.25719,873.27759c-.54169-14.35631,7.39288-43.48007,31.22131-48.10959,29.82498.62317,31.48651,4.23073,42.25769,8.81119s32.2155,16.19881,42.03102,22.27509c5.30708,3.28529,21.47171,17.47002,21.44711,21.74828-.09861,17.21779,12.67479,9.99023,14.98489,52.6973.36739,6.79077,5.13359,26.41167,9.23012,43.9045,3.11729,13.31139,10.13222,41.09077,10.23949,45.34393-6.5897,3.7339-16.9574-13.47572-29.07051-12.71873-9.05258.5658-16.33171,1.16379-26.19442,1.51413-14.9313.5304-21.22681,11.88858-39.59869,6.96381-14.869-3.98582-27.42031-12.53799-28.02509-16.24481-1.064-6.52153,3.63941-15.46532,4.28322-24.8584.67089-9.78928-14.92481-25.59013-21.0149-45.84457-14.24271-47.36809-31.2495-41.12602-31.79119-55.48233l-.00004.00023Z" fill="#999999"/><path d="M458.05618,934.03107c1.04691-36.28174,13.9101-50.4789,24.1581-56.02852-.09861,17.21779,12.67479,9.99023,14.98489,52.6973.36739,6.79077,5.13359,26.41167,9.23012,43.9045-15.30899-4.85809-49.3718-5.95993-48.37311-40.57327Z" opacity=".1"/><path d="M374.20738,829.53201c2.1072-2.38632,4.53411-2.46078,4.53411-2.46078,0,0,1.53549-9.74854,1.57688-10.50522l27.23782-2.43301s-.90809,15.75432,1.13251,17.14333c3.88039,2.64122,10.6702,1.44928,8.6702,7.44926s-26.04431,15.42007-37.0443,11.42014-8.2143-18.22739-6.10722-20.61371Z" fill="#fcc"/><g><path d="M404.69452,746.82022c9.90341,5.91057,12.19818,28.95302,12.19818,28.95302,0,0,12.0274,23.79951-7.2961,40.15808-15.36171,13.00461-38.00301.23712-38.00301.23712,0,0-42.96009-38.79311-16.7606-61.86707s39.95811-13.3918,49.86141-7.48123l.00011.00008Z" fill="#ffd6d6"/><path d="M377.96268,732.98653c-24.87309,2.48154-34.88861,17.89917-33.50361,24.40147-5.13931,4.96513-8.03242,14.1304-3.8538,25.09018,8.04798,21.10832,30.98831,33.69019,30.98831,33.69019,0,0-2.3048-13.18413-5.29999-11.3932-3.78819,2.26501-18.1004-14.90891-15.76271-21.61423,2.33768-6.70509,14.16119,8.62633,14.16119,8.62633l5.08018,3.41698-3.22651-11.90849s2.32891-2.18552,4.2662-11.38199c1.72722-8.19931,15.1561-21.15807,20.00092-21.71692,5.14648-.59372,21.85589,7.40196,22.1822,8.60619l1.4658,4.5446s1.88221-2.96547.5595-8.63808c-1.34449-5.76622-7.76508-24.64569-37.0578-21.72318l.00011.00015Z" fill="#3b435a"/></g></g><path d="M466.6135,1136.54869c8.35758,13.62068,28.3289,2.03568,30.755,0s32.07989-67.26883-15.1004-90.67284c-27.09309-13.43964-60.09762,1.3308-59.5491,10.0985s37.29439,69.81789,43.8945,80.57426v.00008Z" fill="#3b435a"/><g><path d="M418.73619,833.97919c-.802-1.18233,64.0358-29.77074,72.2879-20.96413,7.13852,7.61833,14.29871-10.47546,22.56901,15.64377,3.88851,12.28081,1.88309,21.14929,3.07571,28.68713,0,0-17.20631,51.55838-49.05029,37.22137,0,0-25.43629-4.10744-32.75391-9.46739,0,0-14.8114-49.17961-16.12831-51.12091l-.00011.00015Z" fill="#999999"/><g><path d="M509.64699,831.9912c-17.55272,10.07751-99.38362-73.42461-92.60048-82.40257,4.23141-5.60059,84.2437,46.44791,97.08458,60.85579,13.63319,15.29678-4.4841,21.54694-4.4841,21.54694v-.00015Z" fill="#ffd6d6"/><path d="M471.74671,818.00087c9.27269-9.63791,38.65841-10.20699,44.05491-3.79623,1.34171,1.59393,10.3812,12.35092-23.13759,27.21588-22.31758,9.89754-30.1899-13.78189-20.91728-23.41972l-.00004.00008Z" fill="#ffd6d6"/></g></g><path d="M333.55782,771.69243c11.9043-16.33537,32.77691-19.53972,26.10378-28.08479-11.46599-14.68262-32.5211,10.27412-33.99689,21.64276s7.89299,6.44203,7.89299,6.44203h.00011Z" fill="#ffd6d6"/></g><g><path d="M34.5314,1243.10089c-6.8622,0-13.3288-1.55151-18.2082-4.36867-5.0497-2.91542-7.8306-6.85066-7.8306-11.08109s2.7808-8.16544,7.83-11.08063c4.8792-2.817,11.3453-4.36836,18.2074-4.36836s13.3289,1.55151,18.2084,4.36867c5.0497,2.91542,7.8306,6.85081,7.8306,11.08109s-2.7809,8.16528-7.8301,11.08047c-4.8792,2.817-11.3454,4.36836-18.2075,4.36836v.00015Z" opacity=".05"/><g><path d="M1.6217,574.87141h0l3.1316,5.66719c.8829,1.61659,2.1449,3.02292,3.7439,4.1848,1.4503,1.05381,3.1841,1.90071,5.1838,2.50778,1.3165.3997,2.7433.69881,4.2842.87971.9814.11532,2.0043.1873,3.0732.20729.2726.00519.5539-.01862.8285-.0198,1.4452-.00671,2.9153-.1017,4.4042-.2779,1.3851-.16411,2.7792-.37441,4.1845-.67539,1.7556-.37628,3.5184-.87769,5.2751-1.45111,1.6889-.55141,3.367-1.18382,5.0265-1.9009,1.827-.78918,3.6325-1.6563,5.3859-2.62531s3.4484-2.03609,5.0888-3.16299c1.4902-1.0236,2.9187-2.10781,4.2842-3.2444,1.4204-1.1821,2.7828-2.40791,4.0357-3.694,1.0026-1.02959,1.9225-2.09789,2.7985-3.18359.9416-1.16661,1.8044-2.36069,2.579-3.58089.1471-.23151.3167-.45689.4573-.69019.552-.91591,1.0354-1.82049,1.4602-2.7132.6668-1.40072,1.1729-2.76791,1.5353-4.095.5502-2.01519.7564-3.93311.6366-5.7214-.131-1.95629-.6421-3.76011-1.5273-5.35839l-3.1995-5.79021c-2.5554-4.64451-8.1813-7.5943-16.2689-7.7462-16.1533-.30331-36.0087,10.6686-44.3484,24.50649-4.2,6.96911-4.6766,13.33519-2.0531,17.9776l.0002.00004ZM11.4878,581.70292c-.0102-.00259-.0203-.0053-.0305-.0079.0102.00259.0202.00542.0305.0079ZM12.5684,581.94672c-.0259-.00519-.0518-.01041-.0776-.01572.0258.0053.0517.01049.0776.01572ZM65.7432,548.25329v.00069-.00069ZM63.6326,555.2813v.00019-.00011h0v-.00008ZM42.9276,575.54829h-.0002.0002ZM32.5235,580.08968h-.0003.0003ZM18.661,582.49641h.0003-.0003ZM5.2936,578.9259h0Z" fill="#ffc444"/><path d="M61.7235,558.69991l3.206,5.80181c-.7746,1.22009-1.6375,2.41428-2.579,3.58089l-3.206-5.80189c.9417-1.16611,1.8041-2.3613,2.5791-3.58082h-.0001Z" opacity=".1"/><path d="M48.0223,572.39601l3.2097,5.8086c-1.6404,1.1269-3.3352,2.1941-5.0888,3.16299l-3.2157-5.8194c1.7528-.96859,3.4549-2.02599,5.0947-3.15231l.0001.00011Z" opacity=".1"/><path d="M56.3366,565.4475l3.2153,5.81871c-1.2529,1.28609-2.6153,2.5119-4.0357,3.694l-3.2072-5.8041c1.4224-1.18351,2.7732-2.42069,4.02761-3.70861Z" opacity=".1"/><path d="M65.1721,551.194l3.2102,5.80952c-.3624,1.3271-.8685,2.69428-1.5353,4.095l-3.2144-5.81711c.6653-1.3974,1.1771-2.7631,1.5396-4.0873l-.0001-.00011Z" opacity=".1"/><path d="M37.5476,578.18432l3.2097,5.8086c-1.6595.71709-3.3376,1.34949-5.0265,1.9009l-3.2073-5.80421c1.6873-.55111,3.3662-1.189,5.0241-1.9054v.00011Z" opacity=".1"/><path d="M10.471,581.422l3.21,5.8091c-1.9998-.60711-3.7335-1.4539-5.1838-2.50778l-3.2035-5.79739c1.4494,1.04881,3.1818,1.8919,5.1774,2.49599l-.0001.00008Z" opacity=".1"/><path d="M17.8228,582.49882c.2775.00519.5586-.00099.8382-.0024l3.206,5.80189c-.2747.00118-.5559.02491-.8285.0198-1.0689-.01999-2.0918-.09209-3.0732-.20729l-3.2145-5.8173c.9806.11509,2.0042.18532,3.0721.20531h-.0001Z" opacity=".1"/><path d="M27.2403,581.52618l3.2153,5.81879c-1.4053.30102-2.7994.51128-4.1845.67539l-3.2061-5.80212c1.3809-.16399,2.7746-.39188,4.1753-.6921v.00004Z" opacity=".1"/><path d="M17.8228,582.49882c16.1533.30331,36.0087-10.6686,44.3483-24.50649s2.0053-25.3017-14.148-25.60501-36.0087,10.6686-44.3483,24.50649c-8.3396,13.83789-2.0053,25.3017,14.148,25.60501Z" fill="#fff" opacity=".2"/><path d="M17.8757,579.68288c-6.764-.12699-11.6815-2.355-13.8465-6.273-2.1652-3.91842-1.4344-9.26762,2.0578-15.06222,3.7822-6.27602,10.2439-12.15191,18.1945-16.54522s16.363-6.73679,23.6887-6.59931c6.7639.12711,11.6813,2.355,13.8465,6.27319,2.1652,3.91842,1.4344,9.26762-2.0578,15.06222-3.7824,6.27609-10.244,12.15191-18.1944,16.5451s-16.3629,6.73672-23.6888,6.5992v.00004ZM7.0519,558.9291c-3.2758,5.43549-3.999,10.3846-2.0367,13.93589,1.9622,3.55091,6.537,5.5722,12.8817,5.6916,7.1312.1339,15.3431-2.16,23.1227-6.45889s14.0925-10.0312,17.7744-16.14059c3.2758-5.43549,3.999-10.3846,2.0367-13.93589-1.9623-3.5511-6.537-5.57259-12.8816-5.6918-7.131-.13378-15.3429,2.16-23.1227,6.45901-7.7803,4.2992-14.0927,10.03132-17.7745,16.14059v.00008Z" opacity=".05"/></g></g><g><g><path d="M598.65108,794.26888c4.1975-1.14967,8.3308-4.3721,11.8465-9.7036,9.4067-14.26529,10.83038-38.21541,3.17989-53.49411-3.44021-6.87042-8.13061-10.80727-13.1052-11.77383.0008.00023.00179.00023.00271.00038-8.30959-2.85187-18.16109.42549-24.19559,9.57672-9.40681,14.26521-10.83038,38.21541-3.17989,53.49411,5.4364,10.85701,16.26381,15.33218,25.45158,11.90033ZM582.3502,787.23473c.09541.1297.18929.26352.2858.39001-.09659-.1265-.19051-.26016-.2858-.39001ZM581.36372,785.80101c.1054.1638.21149.32547.31849.48477-.107-.1593-.2132-.32097-.31849-.48477ZM580.46009,784.31107c.09048.15968.18391.31212.27599.46829-.09209-.15617-.18539-.30853-.27599-.46829ZM583.6573,788.8813c-.01209-.01389-.02468-.02617-.03689-.04013.01209.01389.02468.02617.03689.04013ZM599.44431,719.13017c-.01068-.00107-.0214-.00214-.0322-.0032.01068.00099.02151.00214.0322.0032ZM598.29498,719.06372c-.01148,0-.023-.00038-.0346-.00053.0116.00008.02312.00053.0346.00053ZM597.40509,794.54536c-.06939.01213-.13859.0193-.20802.03036.06939-.01091.13859-.01839.20802-.03036ZM594.90372,794.73579c-.09708-.00191-.1944-.00122-.29148-.00526.09701.0042.1944.00351.29148.00526ZM596.17649,794.69872c-.10689.00862-.21358.0148-.32051.02068.10689-.00587.21358-.01213.32051-.02068ZM591.9141,794.32121c.0845.02197.1685.04829.25318.06851-.08469-.02022-.16869-.04646-.25318-.06851ZM590.63351,793.91777c.1136.04219.22739.08347.3413.1223-.11398-.03868-.2277-.08011-.3413-.1223ZM584.95861,790.24017c-.1049-.10109-.21061-.1989-.31429-.30319.1038.10429.20962.20233.31429.30319ZM586.06628,791.23337c-.11711-.09689-.2335-.19623-.34962-.29709.11608.10094.23251.2002.34962.29709ZM587.16621,792.07916c-.0975-.06866-.19348-.14412-.29041-.2153.09689.07133.19291.14664.29041.2153ZM588.31619,792.82372c-.00549-.0032-.01091-.00572-.0164-.009.00549.00343.01099.0058.0164.009ZM589.7562,793.55759c-.10349-.04646-.20748-.09003-.31071-.13931.10319.04929.2071.09293.31071.13931Z" fill="#ffc444"/><path d="M579.61269,782.73033c7.65049,15.2787,21.47808,16.10023,30.8849,1.83487s10.8305-38.21541,3.17989-53.49411c-7.65049-15.2787-21.47808-16.10023-30.8849-1.83487-9.4067,14.26529-10.8305,38.21541-3.17989,53.49411Z" fill="#fff" opacity=".2"/><path d="M582.2538,781.40823c-7.21729-14.41353-5.87009-37.089,3.00339-50.54672,2.35088-3.5656,5.0893-6.19926,7.9187-7.61612,6.6486-3.32916,13.32569.09171,17.86079,9.14848,7.21668,14.41231,5.86891,37.08656-3.00461,50.54581-2.35088,3.5656-5.0893,6.19926-7.9187,7.61612-6.64799,3.32893-13.32451-.09079-17.8595-9.14757h-.00008ZM586.19732,731.48132c-8.6771,13.15819-9.99451,35.33028-2.9377,49.42329,4.21959,8.42682,10.3315,11.65764,16.34949,8.64418,2.6532-1.32851,5.2412-3.82858,7.48291-7.22893,8.6771-13.15971,9.99569-35.32936,2.93888-49.42238-4.21959-8.42682-10.33211-11.65878-16.35078-8.6451-2.6532,1.32851-5.24059,3.82828-7.48291,7.22893h.00011Z" opacity=".05"/><g><path d="M597.3571,719.09401c1.03222-.06264,2.06089-.00328,3.07831.18311l-3.07831-.18311Z" opacity=".1"/><path d="M585.51731,720.53398l5.82218.34599c-1.78619.97137-3.53062,2.34444-5.19299,4.10019l-6.2579-.37193c1.735-1.70372,3.63541-3.05969,5.62881-4.07433l-.00011.00008Z" opacity=".1"/><path d="M576.37932,728.87444c.0145-.0219.03059-.0412.0452-.0631l6.39912.38033c-.01019.01534-.0209.02907-.03109.04448-1.04012,1.57761-1.96602,3.28972-2.80941,5.07919l-6.40381-.38063c.8411-1.78238,1.76361-3.48839,2.79991-5.06027h.00008Z" opacity=".1"/><path d="M600.57499,719.29779c-.04639-.009-.09331-.01244-.13962-.02068l.08678.00511c.01751.00603.0354.00954.0528.01556h.00004Z" opacity=".1"/><path d="M600.52219,719.28223l-.08678-.00511c-1.01742-.18639-2.04609-.24567-3.07831-.18311l-6.65241-.39528c3.2983-.67451,6.6671-.48714,9.8175.5835Z" opacity=".1"/><path d="M577.7309,788.81203l6.2064.36888c1.824,2.01477,3.81069,3.48572,5.88749,4.40491l-6.21521-.36949c-2.10949-1.08063-4.0974-2.5531-5.8786-4.40437l-.00008.00008Z" opacity=".1"/><path d="M570.681,741.69647l6.4082.38094c-.8025,2.80922-1.3974,5.73441-1.79611,8.71101l-6.41041-.38101c.39959-2.97668.99499-5.90187,1.7984-8.71101l-.00008.00008Z" opacity=".1"/><path d="M573.1995,782.3687c-.97099-1.93909-1.79272-4.0197-2.47349-6.20041l6.4188.38162c.6797,2.17361,1.4999,4.24728,2.46792,6.18057.13988.27939.28881.53772.43289.8075l-6.41159-.38109c-.14332-.26459-.298-.51552-.43449-.78812l-.00004-.00008Z" opacity=".1"/><path d="M568.2848,759.18968l6.41369.38116c.00301,2.99568.22911,5.96443.6488,8.85628l-6.41602-.38116c-.4187-2.892-.64442-5.86067-.64651-8.85628h.00004Z" opacity=".1"/></g></g><path d="M609.22588,1244.15199c-4.25072-2.45422-14.58858-.46463-23.09029,4.44389s-11.94778,10.877-7.69711,13.33122,14.58858.46463,23.09029-4.44389,11.94778-10.877,7.69711-13.33122Z" opacity=".05"/></g><g><path d="M191.4625,1183.64464c-6.8622,0-13.3288-1.55151-18.2082-4.36867-5.04971-2.91542-7.8306-6.85066-7.8306-11.08109s2.7808-8.16544,7.83001-11.08063c4.87921-2.817,11.34529-4.36836,18.2074-4.36836s13.3289,1.55151,18.20841,4.36867c5.04971,2.91542,7.8306,6.85081,7.8306,11.08109s-2.7809,8.16528-7.8301,11.08047c-4.87921,2.817-11.34541,4.36836-18.20749,4.36836l-.00002.00015Z" opacity=".05"/><g><path d="M163.51891,647.98172h0l4.50939,4.6463c1.2764,1.32812,2.8632,2.35382,4.71109,3.05519,1.6761.63606,3.5714.99808,5.6604,1.05904,1.37529.04013,2.83051-.04578,4.36489-.2758.97731-.14641,1.9832-.34538,3.01991-.60669.2644-.0666.52959-.16342.7943-.23659,1.39271-.38582,2.78629-.86342,4.17669-1.42433,1.29351-.522,2.5835-1.09077,3.8604-1.75018,1.59519-.8239,3.1646-1.77048,4.70921-2.78503,1.48491-.97549,2.93819-2.02621,4.3512-3.15376,1.55569-1.24123,3.0703-2.5518,4.5079-3.94707s2.79301-2.86991,4.08001-4.38801c1.1692-1.37878,2.26299-2.8001,3.2822-4.25529,1.0603-1.5136,2.05311-3.05401,2.9244-4.62391.69719-1.25671,1.3044-2.52899,1.8647-3.80661.6023-1.37291,1.12141-2.75162,1.5486-4.13231.0812-.26199.1856-.52399.26011-.78602.29221-1.02871.5212-2.02839.69679-3.0014.27571-1.5266.4051-2.97871.40649-4.3544.00191-2.089-.3026-3.99368-.8877-5.6879-.63999-1.85329-1.6066-3.4597-2.8804-4.76952l-4.6073-4.7472c-3.685-3.81081-9.88791-5.18028-17.7318-3.2037-15.66641,3.94779-31.94519,19.7472-36.35971,35.28912-2.2232,7.8273-1.0119,14.09512,2.7383,17.88601l-.00008.00008ZM174.83231,651.98357c-.0106.00023-.0209.00023-.03151.00031.01051-.00023.0209-.00008.03151-.00031ZM175.93901,651.93527c-.0263.00168-.0527.00351-.079.00519.0263-.0016.0527-.00343.079-.00519ZM218.40389,605.4644s0,.0005.0001.00069c0-.00019,0-.0005-.0001-.00069ZM218.2122,612.79999v.00019-.00019h0ZM203.55379,637.79148h-.0001.0001ZM194.70671,644.90494l-.00019.00008.00019-.00008h0ZM181.9622,650.86632h.00031-.00031ZM168.12639,650.9301h0Z" fill="#ffc444"/><path d="M217.26761,616.59988l4.6166,4.7567c-.42721,1.38069-.94629,2.7594-1.5486,4.13231l-4.6166-4.75681c.60261-1.37241,1.12089-2.75211,1.5486-4.13219Z" opacity=".1"/><path d="M207.64231,633.4124l4.622,4.76231c-1.287,1.51798-2.64231,2.99267-4.07999,4.38801l-4.6306-4.77112c1.437-1.39481,2.8019-2.8619,4.0885-4.3792h.0001Z" opacity=".1"/><path d="M213.841,624.52499l4.62999,4.77058c-.8713,1.5699-1.8642,3.11031-2.9244,4.62391l-4.6184-4.75861c1.0619-1.51539,2.0405-3.06381,2.91281-4.63589Z" opacity=".1"/><path d="M218.6248,608.45188l4.62271,4.76299c-.0013,1.37569-.13081,2.8278-.40649,4.3544l-4.62879-4.76929c.2751-1.52302.4105-2.9752.4126-4.34811h-.00002Z" opacity=".1"/><path d="M199.05451,641.74751l4.622,4.76227c-1.4131,1.12762-2.86631,2.17827-4.3512,3.15376l-4.61849-4.75868c1.4834-.97473,2.936-2.03102,4.34771-3.15742l-.00002.00008Z" opacity=".1"/><path d="M173.77741,651.97952l4.6224,4.76273c-2.089-.06081-3.9842-.42282-5.6604-1.05904l-4.61309-4.75311c1.67391.63148,3.56689.9903,5.651,1.04942h.0001Z" opacity=".1"/><path d="M181.1541,651.08871c.26911-.06783.53869-.14763.80811-.22232l4.6167,4.75677c-.2647.07317-.5299.16998-.7943.23659-1.0367.26131-2.0426.46028-3.01991.60669l-4.62891-4.76936c.97639-.14641,1.98259-.34737,3.01821-.60837h.0001Z" opacity=".1"/><path d="M189.9859,647.67792l4.63011,4.77058c-1.27701.65941-2.56701,1.22818-3.8604,1.75018l-4.61679-4.757c1.28941-.52078,2.57441-1.10649,3.8472-1.76392l-.00011.00015Z" opacity=".1"/><path d="M181.1541,651.08871c15.66641-3.94783,31.94519-19.7472,36.35971-35.28912s-4.70699-24.94068-20.3735-20.993-31.94519,19.7472-36.35971,35.28912c-4.41452,15.54195,4.70699,24.94068,20.3735,20.993Z" fill="#fff" opacity=".2"/><path d="M180.46591,648.35762c-6.5601,1.65314-11.88999.79422-15.00759-2.41814-3.1179-3.21259-3.81701-8.56602-1.9684-15.0742,2.00199-7.04868,6.6946-14.41479,13.2131-20.74131s14.02071-10.79601,21.12551-12.5864c6.56-1.65298,11.8899-.79411,15.00759,2.41829,3.1179,3.21259,3.81701,8.56602,1.9684,15.0742-2.0022,7.04891-6.6947,14.4149-13.21301,20.7412s-14.0206,10.7959-21.1256,12.58629v.00008ZM164.57359,631.1731c-1.73401,6.10481-1.1327,11.07018,1.6931,13.98178,2.82551,2.9113,7.7705,3.66081,13.92401,2.11029,6.9162-1.74294,14.2379-6.11198,20.61621-12.3024s10.96491-13.37891,12.91389-20.24052c1.73401-6.10481,1.1327-11.07021-1.6931-13.98182-2.8256-2.91142-7.7706-3.66112-13.92401-2.11048-6.9161,1.7429-14.23769,6.11198-20.61609,12.30251-6.3788,6.19091-10.9651,13.3791-12.91401,20.24059v.00004Z" opacity=".05"/></g></g><g><path d="M813.93929,1247.82288c6.78192,0,13.17284-1.53328,17.99507-4.31763,4.99062-2.88132,7.73903-6.77048,7.73903-10.95139s-2.74818-8.06976-7.73842-10.95093c-4.82208-2.78412-11.21246-4.31732-17.99431-4.31732s-13.17291,1.53328-17.9953,4.31763c-4.99062,2.88132-7.73903,6.77063-7.73903,10.95154s2.74834,8.06969,7.73849,10.95078c4.82208,2.78412,11.21262,4.31732,17.99438,4.31732h.00008Z" opacity=".05"/><g><path d="M844.43001,679.8896c-8.24203-13.67599-27.86507-24.5195-43.82927-24.21967-7.99301.15007-13.55301,3.06541-16.07849,7.65549l-3.16208,5.72243c-.87486,1.57959-1.37993,3.36227-1.5094,5.29572-.11841,1.76743.0853,3.6628.62912,5.65453.3582,1.31157.85838,2.66273,1.51733,4.04701.41977.88226.8976,1.7762,1.4431,2.68143.13893.23048.30647.45326.45189.68207.76561,1.2059,1.61827,2.38602,2.54883,3.53889.86578,1.073,1.7749,2.12891,2.76581,3.14636,1.23817,1.27113,2.58469,2.48253,3.98849,3.65082,1.34949,1.12328,2.76131,2.1949,4.23409,3.20641,1.62117,1.11382,3.2962,2.16843,5.02922,3.12599s3.5173,1.8145,5.32288,2.59453c1.64009.70869,3.29857,1.33369,4.96773,1.87866,1.73607.56671,3.47839,1.06232,5.21339,1.43417,1.38878.29747,2.76657.50529,4.13551.6675,1.47148.17418,2.92427.2681,4.35257.27473.27153.00122.54939.02457.81879.01961,1.05637-.01984,2.06734-.09102,3.03719-.20493,1.5229-.17883,2.93297-.4744,4.23409-.86937,1.97632-.59998,3.6898-1.43692,5.12321-2.47841,1.58028-1.14822,2.82738-2.53807,3.70003-4.13582l3.09486-5.60081h0c2.59277-4.58809,2.12181-10.87959-2.02911-17.76718l.00023-.00015ZM836.73851,704.40048c-.01007.00259-.01999.00526-.03014.00778.01007-.00252.01999-.00526.03014-.00778ZM835.71716,704.63379c-.02548.00519-.05112.01038-.07668.01556.02563-.00519.05119-.0103.07668-.01556ZM783.088,671.35101v-.00069.00069ZM785.17387,678.2959v.00023-.00023h0ZM805.6366,698.32581h.00023-.00023ZM815.91888,702.81403h.00031-.00031ZM829.61891,705.19257h.00031-.00031ZM842.83012,701.66389h0Z" fill="#ffc444"/><path d="M787.06062,681.67458l-3.16841,5.73387c.76561,1.2059,1.61827,2.38602,2.54883,3.53889l3.16849-5.73402c-.93071-1.1525-1.78299-2.33368-2.5489-3.53889v.00015Z" opacity=".1"/><path d="M800.6015,695.21042l-3.17223,5.74066c1.62117,1.11382,3.2962,2.16843,5.02922,3.12599l3.17802-5.75127c-1.73233-.95734-3.41454-2.00233-5.0351-3.11539h.00008Z" opacity=".1"/><path d="M792.38449,688.3432l-3.17772,5.75058c1.23817,1.27113,2.58469,2.48253,3.98849,3.65082l3.16971-5.73624c-1.40579-1.16966-2.74078-2.39243-3.98048-3.66524v.00008Z" opacity=".1"/><path d="M783.65242,674.25652l-3.17261,5.7415c.3582,1.31157.85838,2.66273,1.51733,4.04701l3.1768-5.74898c-.6575-1.38107-1.16333-2.73079-1.52153-4.03954Z" opacity=".1"/><path d="M810.9536,700.93102l-3.17223,5.74059c1.64009.70869,3.29857,1.33369,4.96773,1.87866l3.16971-5.73624c-1.66748-.54459-3.3268-1.17508-4.96529-1.88309l.00008.00008Z" opacity=".1"/><path d="M837.71339,704.13071l-3.17238,5.74112c1.97632-.59998,3.6898-1.43692,5.12321-2.47841l3.16597-5.7296c-1.4325,1.03653-3.14461,1.86981-5.11681,2.46681v.00008Z" opacity=".1"/><path d="M830.44762,705.19501c-.2742.00511-.55199-.00099-.8284-.00229l-3.16849,5.73402c.27153.00122.54939.02457.81879.01961,1.05637-.01984,2.06734-.09102,3.03719-.20493l3.17688-5.74921c-.96909.11368-1.98082.18311-3.03612.20287l.00015-.00008Z" opacity=".1"/><path d="M821.14029,704.23378l-3.17772,5.75073c1.38878.29747,2.76657.50529,4.13551.6675l3.16856-5.73418c-1.36467-.16212-2.74208-.38727-4.12643-.68398l.00008-.00008Z" opacity=".1"/><path d="M830.44762,705.19501c-15.96428.29984-35.58731-10.54382-43.82927-24.21967s-1.98189-25.00557,13.98239-25.3054,35.58731,10.54382,43.82927,24.21967,1.98189,25.00557-13.98239,25.3054Z" fill="#fff" opacity=".2"/><path d="M806.98372,695.89012c-7.85728-4.34181-14.24332-10.14893-17.98149-16.35147-3.45139-5.72678-4.17374-11.01341-2.03377-14.88602,2.13982-3.8723,6.99966-6.07422,13.68439-6.1998,7.23991-.13588,15.55428,2.18033,23.41148,6.52206s14.2437,10.14908,17.98157,16.35162c3.45139,5.72678,4.17374,11.01341,2.03377,14.88602-2.13966,3.87222-6.99959,6.07407-13.68446,6.19957-7.24007.13588-15.5545-2.18033-23.41164-6.52191l.00015-.00008ZM823.52592,665.9494c-7.68883-4.24873-15.80452-6.51573-22.8521-6.38336-6.27029.1178-10.79163,2.11563-12.73079,5.62508-1.93939,3.50967-1.22459,8.40088,2.01279,13.77281,3.63892,6.03783,9.8774,11.70288,17.56638,15.95169s15.80437,6.51558,22.8521,6.38329c6.27037-.11787,10.7917-2.11563,12.73087-5.625,1.93939-3.50967,1.22459-8.40088-2.01279-13.77281-3.63869-6.03783-9.87732-11.7028-17.56653-15.95169h.00008Z" opacity=".05"/></g></g><g><g><path d="M665.5442,317.44471c8.44391-14.6244,8.44437-38.3362.00092-52.96141-5.41649-9.38221-14.94324-13.1934-23.30849-10.86731.00076-.0001.00183-.0001.00267-.00019-4.96449.6616-9.82269,4.2704-13.61969,10.84669-8.44391,14.6244-8.44429,38.33601-.00092,52.96141,3.15571,5.46612,7.04441,8.8876,11.11801,10.2681,8.86292,3.92479,19.80728.14481,25.8075-10.24719v-.0001ZM655.92613,322.07661c.10269-.11921.20317-.2457.30487-.368-.1017.12249-.20218.24891-.30487.368ZM656.94557,320.81169c.1149-.15091.22911-.30418.34271-.45959-.11353.15541-.22774.30869-.34271.45959ZM657.9673,319.38101c.1001-.1487.20111-.2935.29984-.4458-.0988.1524-.19974.29711-.29984.4458ZM654.88358,323.21899c-.01282.01301-.02586.02441-.03868.03738.01282-.01301.02602-.02441.03868-.03738ZM643.39394,253.5157c-.01068.0005-.02129.0008-.03197.0013.01068-.0005.02129-.00099.03197-.0013ZM644.53392,253.52039c-.01137-.0005-.02281-.0008-.03418-.00151.01137.00071.02274.00099.03418.00151ZM641.15311,328.0801c-.06767-.01499-.13557-.02621-.2034-.04219.06767.01598.13557.02731.2034.04219ZM643.69423,328.38428c-.09613-.0016-.19203-.00801-.28793-.0119.0959.00389.19188.0103.28793.0119ZM642.4678,328.3004c-.10521-.01209-.21004-.02449-.31502-.03922.10498.0148.20988.0272.31502.03922ZM646.12617,328.19141c.08469-.01492.16922-.0359.25391-.05268-.08469.01671-.16907.03769-.25391.05268ZM647.32307,327.91649c.11467-.03151.22942-.06561.34393-.10059-.11459.0349-.22911.06908-.34393.10059ZM653.8092,324.24c-.10849.09682-.21851.18711-.32791.28069.10933-.09338.21942-.18391.32791-.28069ZM652.69257,325.163c-.12039.0927-.24109.18391-.36232.2726.12123-.08869.24193-.1799.36232-.2726ZM651.49467,326.01002c-.09979.06458-.1989.1334-.29907.19539.10017-.0621.19928-.13081.29907-.19539ZM650.0341,326.86451c-.00572.00301-.01122.00511-.01671.00801.00557-.0029.01106-.005.01671-.00801ZM648.86841,327.39281c-.10468.04261-.20988.0795-.31471.11921.1049-.03971.21004-.0766.31471-.11921Z" fill="#ffc444"/><path d="M659.19601,317.42531c-8.44391,14.6244-22.13379,14.62379-30.57732-.0016-8.44341-14.6253-8.44299-38.33691.00092-52.96141s22.13379-14.62379,30.57732.0016,8.44299,38.33691-.00092,52.96141Z" fill="#fff" opacity=".2"/><path d="M638.51189,323.94299c-2.70828-1.56368-5.25532-4.3227-7.36549-7.97819-7.96459-13.79881-7.96421-36.24731.00092-50.0425,5.0053-8.66899,11.79337-11.6522,18.15727-7.9777,2.70828,1.5637,5.25528,4.3227,7.36549,7.97819,7.96471,13.7973,7.96356,36.24701-.00221,50.0433-5.00526,8.66899-11.79268,11.65098-18.15601,7.97689h.00004ZM648.74809,258.9085c-5.76088-3.3263-11.9809-.49629-16.63811,7.56969-7.78858,13.48949-7.78831,35.4385.00019,48.9303,2.0121,3.4861,4.4186,6.10441,6.9582,7.57071,5.76027,3.32588,11.9796.49709,16.63681-7.56889,7.78862-13.48949,7.78961-35.4409.00107-48.9311-2.01271-3.4864-4.41856-6.10439-6.95824-7.57071h.00008Z" opacity=".05"/><g><path d="M645.4232,253.6038c-1.01471-.1223-2.033-.12409-3.04771,0h3.04771Z" opacity=".1"/><path d="M662.33337,260.06861l-6.1956-.00019c1.06552,1.2686,2.08252,2.7121,3.03108,4.34971l6.33537.00019c-.9417-1.62069-2.0105-3.0665-3.17093-4.34971h.00008Z" opacity=".1"/><path d="M652.00928,253.60399l-6.58607-.00019c1.97937.23849,3.94371.93769,5.83191,2.115l5.76424.00019c-1.60721-.94231-3.28911-1.6551-5.00999-2.11491l-.00008-.0001Z" opacity=".1"/><path d="M668.01064,269.6398h-6.34003c.99052,2.47181,1.79253,5.0963,2.39983,7.8273h6.34438c-.60852-2.73121-1.41228-5.35549-2.4041-7.8273h-.00008Z" opacity=".1"/><path d="M642.23663,253.6161c.04631-.0062.09277-.00681.13893-.0123h-.08591c-.01762.0049-.03548.00731-.05302.0123Z" opacity=".1"/><path d="M665.06927,318.19691h-6.34781c-1.2899,2.1051-2.6899,3.88672-4.17038,5.33859l6.14456.00019c1.61926-1.49441,3.09418-3.2777,4.37363-5.3388v.00002Z" opacity=".1"/><path d="M648.48442,327.53578c-2.88658,1.0775-5.87479,1.13441-8.7701.14759,4.73728,2.1056,10.06672,1.98669,14.92352-.14751h-6.15334l-.00008-.00008Z" opacity=".1"/><path d="M670.59517,303.56501l-6.35208-.00031c-.56664,2.745-1.30188,5.4081-2.24983,7.908h6.35483c.94681-2.5001,1.68159-5.16291,2.24709-7.9077Z" opacity=".1"/><path d="M671.67793,286.1665l-6.34659-.00019c.21339,2.88799.24643,5.805.07141,8.6993h6.34979c.1741-2.8941.13962-5.8112-.07462-8.69909v-.00002Z" opacity=".1"/></g></g><path d="M661.59348,1132.52243c-4.20097,2.42538-14.41788.45914-22.82009-4.39194s-11.80801-10.74966-7.607-13.1752,14.41788-.45914,22.82013,4.39194,11.80801,10.74966,7.60696,13.1752Z" opacity=".05"/></g><g><g><path d="M703.0027,538.2552c4.14833-1.13621,8.23334-4.32098,11.70792-9.59011,9.29657-14.0984,10.70374-37.76821,3.1427-52.86812-3.39996-6.79001-8.03543-10.68081-12.95189-11.63601.00076.00019.00183.00019.00267.00038-8.21243-2.81849-17.94861.42049-23.91243,9.46468-9.29672,14.09828-10.70374,37.76821-3.1427,52.86812,5.37277,10.7299,16.07338,15.15282,25.15373,11.76102v.00004ZM686.89262,531.30341c.09422.1281.187.26039.28252.38551-.09537-.12508-.18822-.25711-.28252-.38551ZM685.91766,529.88651c.10406.1619.20897.32169.31479.4792-.10582-.15751-.21072-.31731-.31479-.4792ZM685.02472,528.414c.08949.15781.18181.30842.27283.4628-.09109-.15442-.18318-.30479-.27283-.4628ZM688.18443,532.93072c-.01198-.01369-.02441-.0259-.03639-.0396.0119.01381.02441.0259.03639.0396ZM703.7867,463.9959c-.0106-.00111-.02121-.0021-.03189-.0032.0106.00092.02121.0021.03189.0032ZM702.65083,463.93021c-.01137,0-.02281-.00038-.03418-.0005.01152.00011.02281.0005.03418.0005ZM701.77132,538.52859c-.06859.01202-.13702.01911-.20554.0301.06859-.0108.13702-.01808.20554-.0301ZM699.29916,538.7167c-.09598-.00179-.19211-.00111-.28809-.0053.0959.0042.19211.0034.28809.0053ZM700.5571,538.68c-.10567.00851-.21111.01461-.31677.02048.10559-.0058.21111-.01202.31677-.02048ZM696.3446,538.30688c.08347.02178.16663.04768.25032.0676-.08369-.01991-.1667-.04589-.25032-.0676ZM695.07889,537.90821c.11223.04169.22469.08251.3373.12081-.11269-.0383-.22499-.07919-.3373-.12081ZM689.47052,534.27368c-.10361-.09991-.20813-.19661-.31067-.29961.10262.10311.20714.19989.31067.29961ZM690.56519,535.25532c-.11581-.09571-.23079-.1939-.34554-.29362.11467.09972.2298.19779.34554.29362ZM691.6523,536.09119c-.09644-.0679-.19119-.1424-.28702-.21278.09583.07038.19073.14488.28702.21278ZM692.78877,536.82701c-.00542-.0032-.01083-.00561-.01617-.00889.00549.00332.01091.0058.01617.00889ZM694.21188,537.5523c-.10231-.04589-.20508-.089-.30708-.13771.10201.04871.2047.09178.30708.13771Z" fill="#ffc444"/><path d="M684.18709,526.85169c7.56104,15.09991,21.22681,15.91179,30.52338,1.81339s10.70374-37.76821,3.1427-52.868c-7.56104-15.09991-21.22681-15.91179-30.52338-1.81339s-10.70374,37.76821-3.1427,52.868Z" fill="#fff" opacity=".2"/><path d="M686.79741,525.54508c-7.1328-14.2448-5.80139-36.65501,2.96822-49.95522,2.32338-3.52379,5.02983-6.12679,7.82608-7.52701,6.57082-3.29021,13.16978.0906,17.65167,9.0414,7.13219,14.24358,5.80017,36.6526-2.96944,49.9543-2.32338,3.52379-5.02983,6.12679-7.82608,7.52701-6.57021,3.28991-13.16856-.08968-17.65053-9.04049h.00008ZM690.69473,476.20239c-8.57552,13.00419-9.87747,34.91692-2.90329,48.84491,4.17023,8.32821,10.21057,11.52119,16.15822,8.54309,2.62207-1.31302,5.1799-3.7838,7.39532-7.14432,8.57552-13.00571,9.87869-34.916,2.90451-48.84399-4.17023-8.32821-10.21118-11.52241-16.15936-8.54401-2.62207,1.31302-5.17921,3.78349-7.39532,7.14432h-.00008Z" opacity=".05"/><g><path d="M701.72394,463.96019c1.02013-.06191,2.03682-.0032,3.0423.18089l-3.0423-.18089Z" opacity=".1"/><path d="M690.02258,465.38319l5.75409.34199c-1.76529.96001-3.4893,2.31701-5.13229,4.0522l-6.18469-.36751c1.71471-1.68381,3.59283-3.0238,5.5629-4.0266v-.00008Z" opacity=".1"/><path d="M680.99159,473.6261c.01427-.02159.03029-.04082.04471-.06241l6.32423.37579c-.01007.01511-.02068.0288-.03067.04398-1.02798,1.5591-1.94298,3.25119-2.77649,5.0198l-6.32889-.37621c.8313-1.76151,1.74294-3.44761,2.76718-5.00099l-.00008.00004Z" opacity=".1"/><path d="M704.9041,464.16161c-.04578-.00889-.09216-.01228-.13802-.02048l.08568.00511c.01732.00591.03502.00938.05219.01541l.00015-.00004Z" opacity=".1"/><path d="M704.85191,464.14619l-.08568-.00511c-1.00548-.18421-2.02217-.24281-3.0423-.18089l-6.57448-.3907c3.25974-.66662,6.58913-.48141,9.70261.57671h-.00015Z" opacity=".1"/><path d="M682.32742,532.86221l6.1338.36461c1.8026,1.9912,3.7661,3.4449,5.81863,4.35341l-6.1425-.3651c-2.08481-1.068-4.04938-2.52319-5.80978-4.3528l-.00015-.00011Z" opacity=".1"/><path d="M675.36003,486.2981l6.33324.37651c-.79308,2.77641-1.38107,5.6673-1.77513,8.60909l-6.33537-.37651c.39497-2.94189.98343-5.83279,1.77727-8.60901v-.00008Z" opacity=".1"/><path d="M677.84897,526.49429c-.95963-1.91639-1.7717-3.9727-2.44453-6.12789l6.34361.37708c.67169,2.14821,1.48232,4.19762,2.43912,6.10821.13832.27611.28549.53139.42778.79811l-6.33659-.3767c-.1416-.2615-.29449-.50949-.42938-.77888v.00008Z" opacity=".1"/><path d="M672.99179,503.5865l6.33858.37682c.0029,2.9607.22636,5.89458.64117,8.75259l-6.34087-.37682c-.41382-2.85809-.6369-5.79208-.63889-8.75259Z" opacity=".1"/></g></g><path d="M713.45383,1181.828c-4.20097-2.42538-14.41788-.45914-22.82013,4.39194s-11.80801,10.74966-7.60696,13.1752,14.41788.45914,22.82013-4.39194,11.80801-10.74966,7.60696-13.1752Z" opacity=".05"/></g><g><g><path d="M399.2197,374.72481c.29861.17239.60188.38132.90591.6271l24.32281,19.66438c2.47581,2.0026,4.0765,5.7045,3.57029,8.2708l-13.91739,70.58601c-.44418,2.2451-2.3605,2.87109-4.5005,1.63559-.29861-.17239-.60188-.38132-.9066-.62752l-24.3222-19.65672c-2.48199-2.00611-4.0765-5.7045-3.57029-8.2708l13.91739-70.58609c.44418-2.25159,2.3605-2.87819,4.5005-1.64291l.00008.00015Z" fill="#eff6fa"/><polygon points="334.76021 481.85619 340.71281 486.6671 340.434 488.1007 334.47441 483.28579 334.76021 481.85619" fill="#4f5056"/><polygon points="334.35741 483.90911 340.31078 488.7204 339.77852 491.41129 333.82591 486.60042 334.35741 483.90911" fill="#4f5056"/><polygon points="335.19459 479.65988 341.14792 484.47128 340.8683 485.9045 334.90952 481.09001 335.19459 479.65988" fill="#4f5056"/><polygon points="336.4344 473.358 342.3933 478.17249 341.86169 480.8638 335.90221 476.04889 336.4344 473.358" fill="#4f5056"/><path d="M366.16241,360.26459c.43709.25242.87971.55729,1.32488.91709,3.62362,2.9298,5.9621,8.3363,5.22209,12.08302-.64911,3.28709-3.44749,4.20219-6.5712,2.39868-.43709-.25242-.87971-.55729-1.3242-.91671-3.62431-2.93018-5.96279-8.33672-5.22282-12.0834.64362-3.29029,3.44608-4.20288,6.5712-2.39868h.00004Z" fill="#c1272d"/><g><polygon points="329.77711 507.10918 335.73662 511.9241 335.52261 513.00571 329.5631 508.19069 329.77711 507.10918" fill="#4f5056"/><polygon points="332.25529 494.54109 338.2148 499.3634 337.92969 500.79342 331.97639 495.97469 332.25529 494.54109" fill="#4f5056"/><polygon points="333.2029 489.75319 339.1555 494.56409 338.9484 495.64968 332.98882 490.83481 333.2029 489.75319" fill="#4f5056"/><path d="M378.06091,514.48059c.11429.06599.2314.14648.3484.24078.95749.7732,1.57379,2.20928,1.37878,3.19901l-1.46011,7.3946c-.1704.8699-.91221,1.115-1.7387.63782-.11429-.06599-.23071-.1461-.34698-.23998-.96371-.77679-1.57928-2.21249-1.385-3.20259l1.46011-7.3946c.1704-.8699.91221-1.115,1.74351-.63499v-.00004Z" fill="#4f5056"/><path d="M384.3058,515.56561c.11501.06641.2314.14641.3484.24078.96371.7769,1.58001,2.21291,1.385,3.20259l-2.8091,14.23618c-.17109.86849-.91148,1.1084-1.74068.62962-.11639-.06721-.23338-.14778-.35179-.24311-.9568-.77278-1.57928-2.21249-1.385-3.20259l2.80972-14.2284c.1704-.8699.91221-1.115,1.74351-.63499l-.00004-.00008Z" fill="#4f5056"/><polygon points="390.06119 517.02492 391.45828 518.15491 391.23508 519.28879 387.0961 540.2758 386.87149 541.41739 385.47371 540.28702 385.56938 539.80122 389.96681 517.5037 390.06119 517.02492" fill="#4f5056"/><path d="M354.16111,322.32319l88.3569,71.41941-37.48348,190.01701-88.3567-71.4196,37.48329-190.01678v-.00004ZM414.1011,473.8731l13.91739-70.5862c.50629-2.56611-1.09459-6.26801-3.57021-8.27068l-24.32289-19.66431c-.30392-.2459-.60719-.4546-.90591-.62698-2.14001-1.2355-4.05609-.6086-4.50039,1.6428l-13.91739,70.5862c-.50629,2.56611,1.08829,6.26469,3.57021,8.27068l24.32232,19.65679c.30449.24601.6078.4549.9066.6274,2.14001,1.2355,4.05609.6094,4.50039-1.63559M364.56982,420.1741c1.6795.96958,3.18581.47771,3.53378-1.2891l10.18661-51.62781c.3957-2.01279-.8625-4.92908-2.80182-6.49689l-13.661-11.0397c-.2367-.1915-.47279-.35419-.7056-.48859-1.67519-.96722-3.1823-.47482-3.5302,1.29829l-10.18661,51.62781c-.39558,2.00562.8625,4.91451,2.80251,6.4827l13.6541,11.04309c.23739.19192.47409.35488.70831.49011M396.63952,535.82859c1.4529-7.35458-3.15289-18.0088-10.26722-23.76228-.86819-.7016-1.73382-1.29768-2.58808-1.79089-6.13941-3.54431-11.66439-1.75549-12.93468,4.70379-1.45309,7.3473,3.15289,18.00911,10.26718,23.75519.8709.70438,1.73809,1.30192,2.59499,1.79668,6.13579,3.54252,11.65821,1.74809,12.9277-4.70242M336.84601,506.31111l.5254-2.7021-5.95268-4.81098-.5323,2.6984,5.95959,4.8148M341.86161,480.86391l.53162-2.69138-5.95901-4.81441-.53219,2.6907,5.95959,4.81499M339.77852,491.41129l.53219-2.691-5.95341-4.81121-.53162,2.69112,5.95268,4.81098M337.49439,502.99671l.28591-1.42979-5.95959-4.8222-.27882,1.441,5.95249,4.81091M336.39118,508.59119l.28591-1.42948-5.95959-4.82239-.2787,1.4336,5.95249,4.81831M337.92961,500.79342l.285-1.43002-5.9594-4.82208-.27901,1.43349,5.95341,4.81861M341.41392,483.14789l.2787-1.4336-5.95341-4.8114-.285,1.43028,5.95959,4.8148M340.8683,485.90469l.27939-1.43318-5.95322-4.81129-.28519,1.4299,5.95901,4.81461M342.95139,475.34981l.2787-1.4336-5.95249-4.81091-.28591,1.42948,5.95959,4.81499M340.43381,488.1007l.27901-1.43349-5.95268-4.81098-.28561,1.4299,5.9594,4.81461M342.51652,477.54581l.27939-1.43349-5.95341-4.81121-.285,1.43002,5.95901,4.81461M339.33048,493.69518l.27962-1.43311-5.95341-4.81121-.285,1.43002,5.95871,4.8143M335.5225,513.00579l.214-1.08158-5.95959-4.81499-.214,1.08158,5.95959,4.81499M336.0091,510.53829l.214-1.07422-5.95959-4.82239-.214,1.08158,5.95959,4.81499M338.46119,498.1094l.214-1.08158-5.95901-4.81441-.214,1.08158,5.95901,4.81441M338.94821,495.6498l.2071-1.08559-5.95249-4.81091-.214,1.08158,5.9594,4.81491" fill="#d3c7b7"/><polygon points="330.2636 504.64169 336.22311 509.464 336.0091 510.53822 330.04951 505.7233 330.2636 504.64169" fill="#4f5056"/><polygon points="330.7177 502.33929 336.67721 507.16148 336.39141 508.59119 330.4388 503.77289 330.7177 502.33929" fill="#4f5056"/><polygon points="331.4188 498.79799 337.37148 503.60889 336.84608 506.31111 330.88661 501.4962 331.4188 498.79799" fill="#4f5056"/><polygon points="331.82091 496.74469 337.78042 501.567 337.49458 502.9966 331.54202 498.18569 331.82091 496.74469" fill="#4f5056"/><polygon points="332.71641 492.21329 338.67531 497.02782 338.46119 498.1094 332.5024 493.29491 332.71641 492.21329" fill="#4f5056"/><polygon points="333.657 487.45079 339.61029 492.26212 339.33071 493.6953 333.37189 488.88081 333.657 487.45079" fill="#4f5056"/><polygon points="335.73952 476.90289 341.69281 481.71421 341.41392 483.14781 335.45441 478.3329 335.73952 476.90289" fill="#4f5056"/><polygon points="336.84269 471.301 342.79598 476.11229 342.51652 477.54559 336.55762 472.73102 336.84269 471.301" fill="#4f5056"/><polygon points="337.27779 469.10519 343.2304 473.91609 342.95151 475.34969 336.992 470.53478 337.27779 469.10519" fill="#4f5056"/><path d="M386.37241,512.06631c7.1143,5.75352,11.72009,16.40781,10.26722,23.76228-1.26949,6.4505-6.79192,8.2449-12.9277,4.70242-.85701-.4948-1.72421-1.0923-2.59499-1.79668-7.11441-5.74612-11.72031-16.40789-10.26718-23.75519,1.27022-6.45931,6.79531-8.2481,12.93468-4.70379.8543.4932,1.71989,1.08929,2.58808,1.79089l-.00011.00008ZM395.2486,534.70219c.89691-4.53209-.7906-10.47829-4.01371-15.41351l.22331-1.13361-1.39721-1.12999-.0943.47871c-1.15669-1.49811-2.45941-2.8603-3.87299-4.00379-.77412-.62531-1.54629-1.15711-2.3069-1.5963-5.48-3.16391-10.4126-1.56368-11.54621,4.20189-1.29749,6.55529,2.81342,16.07151,9.15501,21.19518.7748.62561,1.54758,1.15768,2.30911,1.59729.6311.3643,1.25401.6646,1.8647.9034l-.09571.4858,1.39759,1.13022.22461-1.14159c4.016.91751,7.26002-1.0397,8.15269-5.57369" fill="#4f5056"/><path d="M386.0936,513.49991c1.41369,1.14361,2.71629,2.50568,3.87299,4.00379l-4.39732,22.29759c-.61069-.2388-1.23371-.53909-1.8647-.9034-.76149-.43961-1.53431-.97172-2.30911-1.59729-6.34159-5.12371-10.4525-14.63982-9.15501-21.19518,1.13361-5.7655,6.06621-7.3658,11.54621-4.20189.76061.43911,1.53278.97099,2.3069,1.5963l.00004.00008ZM386.03901,519.00909c.19501-.9898-.42122-2.42569-1.38489-3.20271-.117-.09418-.23338-.17422-.34851-.24059-.83118-.47989-1.57299-.23491-1.74351.6348l-2.80972,14.22871c-.19428.98999.42831,2.42962,1.38512,3.20251.11829.09521.2354.1759.35179.24311.8292.47871,1.5696.2388,1.74061-.62962l2.8091-14.23618M376.58901,525.9531c.82649.47722,1.5683.2319,1.7387-.63789l1.46019-7.39471c.19501-.98961-.42122-2.42569-1.37859-3.19881-.117-.09449-.23411-.17479-.34851-.2409-.83141-.48-1.57318-.23499-1.74351.63511l-1.46019,7.39441c-.19428.99018.42141,2.4258,1.38512,3.20278.11631.0938.2327.1741.34691.23998" fill="#d3c7b7"/><path d="M391.23489,519.28871c3.22311,4.93519,4.91058,10.8815,4.01371,15.41351-.8926,4.534-4.1367,6.4912-8.15269,5.57369l4.13898-20.98721Z" fill="#d3c7b7"/><path d="M359.56692,393.75252c.43369.25028.87349.55302,1.31519.90919,3.62358,2.9298,5.96199,8.34358,5.22209,12.0903-.64838,3.28751-3.44681,4.20261-6.5712,2.39868-.43652-.252-.87971-.55729-1.3242-.91671-3.62431-2.93018-5.96199-8.3437-5.22282-12.0834.6498-3.29029,3.45299-4.20391,6.58089-2.39811l.00004.00004Z" fill="#c1272d"/><path d="M375.4884,360.76038c1.93932,1.56769,3.1974,4.4841,2.80182,6.49689l-10.18661,51.62781c-.3479,1.7667-1.85429,2.25868-3.53378,1.2891-.23418-.13519-.47089-.29831-.70831-.49011l-13.6541-11.04309c-1.94-1.56811-3.19809-4.47708-2.80251-6.4827l10.18661-51.62781c.3479-1.77311,1.85501-2.26551,3.5302-1.29829.23281.13439.4689.29709.7056.48859l13.661,11.0397.00008-.00008ZM377.07161,366.27441c.25902-1.32-.55988-3.2185-1.83651-4.24938l-13.6541-11.03569c-.15572-.126-.31078-.233-.46459-.32181-1.09612-.63278-2.08439-.3157-2.31251.84209l-10.17971,51.63181c-.2599,1.31229.55988,3.21129,1.82961,4.23828l13.66032,11.03931c.15572.126.31151.23338.46459.32181,1.09669.6332,2.08511.31689,2.31239-.83488l10.1804-51.63139" fill="#c1272d"/><path d="M362.8598,377.00829c.43709.2523.87971.55729,1.32488.91709,3.62362,2.9298,5.9621,8.33618,5.22209,12.08302-.64911,3.28709-3.44749,4.20219-6.5712,2.39868-.43652-.252-.87971-.55729-1.3242-.91671-3.62431-2.93018-5.96279-8.3366-5.22282-12.0834.64911-3.28709,3.44749-4.20212,6.5712-2.39868h.00004Z" fill="#c1272d"/></g><path d="M375.2351,362.02499c1.27659,1.03088,2.09549,2.92938,1.83651,4.24938l-10.1804,51.63139c-.22732,1.15181-1.21571,1.46809-2.31239.83488-.15308-.08839-.30891-.19581-.46459-.32181l-13.66032-11.03931c-1.26968-1.02692-2.0895-2.92599-1.82961-4.23828l10.17971-51.63181c.228-1.1578,1.21639-1.47491,2.31251-.84209.15381.08881.30891.19581.46459.32181l13.6541,11.03569-.00011.00015ZM366.10409,406.7522c.7399-3.7468-1.59851-9.16061-5.22221-12.09049-.44182-.35599-.8815-.6588-1.31512-.90889-3.1279-1.80592-5.93128-.89241-6.58089,2.39811-.73921,3.7397,1.59851,9.15321,5.2227,12.08309.44472.3595.88772.66471,1.3242.91671,3.1245,1.80401,5.92281.88879,6.57139-2.39849M372.7092,373.26481c.7399-3.7468-1.59851-9.15321-5.22221-12.08309-.4451-.35969-.88749-.6646-1.32469-.91702-3.12519-1.80408-5.9277-.89169-6.57139,2.3988-.7399,3.74649,1.59851,9.15321,5.22289,12.08321.44449.35961.88711.66429,1.3242.91671,3.1237,1.8034,5.92209.88848,6.57108-2.39868M369.40659,390.00832c.7399-3.7468-1.59851-9.15291-5.22202-12.08271-.44529-.36011-.88772-.66502-1.32488-.91709-3.12389-1.80359-5.92209-.88848-6.57139,2.39849-.7399,3.7468,1.59851,9.15321,5.22289,12.08351.44449.35931.88772.66471,1.3242.91671,3.1237,1.8034,5.92209.88848,6.57108-2.39891" fill="#d3c7b7"/></g><path d="M354.16111,322.32319s40.2195,29.07879,48.62728,35.3846,39.72961,36.03481,39.72961,36.03481l-88.3569-71.41941Z" fill="#d3c2a8"/></g><g><g><path d="M491.9173,165.62441c.6234-1.14149,1.4579-1.96899,2.44251-2.49359l19.85222,22.32559c-.1202,1.49691-.4813,2.8565-1.105,3.9978-2.02202,3.69909-6.2574,4.10379-10.65311,1.56599-1.6843-.9724-3.39142-2.376-5.00729-4.19239-5.8456-6.5715-8.32561-16.08669-5.52929-21.2034h-.00004ZM495.80978,169.0621c-.66219-.38231-1.3007-.32-1.60679.2408-.42488.77629-.0452,2.2077.83439,3.20061l12.67368,14.25409c.24189.27161.49889.4822.75161.62811.6646.3837,1.306.3244,1.6127-.233.42488-.77629.0452-2.21519-.83469-3.2007l-12.67281-14.2536c-.2449-.27639-.50308-.48901-.75809-.63629M504.57951,188.2272c.424-.77681.0444-2.21569-.8353-3.20141l-6.58531-7.41011c-.24399-.27309-.5022-.4854-.75729-.63271-.66429-.38321-1.30569-.32631-1.6077.2372-.42431.7766-.05058,2.2121.82909,3.1978l6.59119,7.4135c.24429.2733.5019.48531.75668.6324.66311.3828,1.3015.32391,1.60858-.2367" fill="#d3c7b7"/><path d="M496.40179,176.98311c.2549.14721.51319.35919.75729.63271l6.58508,7.40999c.8799.9856,1.2595,2.4247.83542,3.2012-.30689.56089-.94551.6196-1.60851.2368-.2549-.14721-.5125-.35879-.75668-.63231l-6.5913-7.4136c-.8799-.9857-1.25332-2.42109-.8292-3.19771.30209-.5637.94341-.62071,1.60782-.2372l.00008.00011Z" fill="#4f5056"/><polygon points="494.5443 161.5267 495.55351 162.66121 514.2448 183.6788 515.25612 184.816 514.63879 185.9367 514.212 185.45641 494.36001 163.13061 493.93391 162.65141 494.5443 161.5267" fill="#4f5056"/><path d="M495.81009,169.062c.2549.14721.51319.36011.75802.63629l12.67281,14.2536c.8799.9857,1.2595,2.4247.83469,3.20089-.30689.5571-.94818.6167-1.61259.2331-.25291-.14601-.50968-.35669-.7518-.6283l-12.67349-14.254c-.87978-.993-1.2595-2.4247-.83469-3.20089.30621-.5607.94479-.62309,1.60709-.2408l-.00004.00011Z" fill="#4f5056"/><path d="M508.19481,167.13751c6.54709,7.3583,9.31751,18.0114,6.1871,23.7508-2.2678,4.1474-7.00989,4.6076-11.93771,1.7625-1.88709-1.0895-3.80138-2.66399-5.61501-4.70221-6.54701-7.3662-9.3243-18.0228-6.18679-23.75839,2.26269-4.14761,7.00359-4.6078,11.93001-1.7639,1.8898,1.0911,3.8073,2.6688,5.62241,4.7113v-.00011ZM514.21188,185.45641l.4266.4804.61741-1.1207-1.01131-1.1372c-.19119-4.93111-2.6226-10.88039-6.66069-15.41731-1.6209-1.82199-3.33279-3.2305-5.0198-4.20441-2.52048-1.45519-4.98508-1.9417-7.01069-1.3958l-1.00922-1.1347-.6105,1.12459.4261.47939c-.9845.5246-1.81911,1.3521-2.44251,2.49359-2.7964,5.11669-.31631,14.6319,5.52929,21.2034,1.61591,1.81641,3.32298,3.22001,5.00729,4.19241,4.39571,2.5379,8.6311,2.1331,10.65311-1.56601.6237-1.1413.9848-2.5009,1.105-3.9978" fill="#4f5056"/><path d="M507.58389,168.2616c4.0382,4.5369,6.4695,10.4862,6.66069,15.41731l-18.69122-21.01759c2.0256-.5459,4.4902-.05939,7.01069,1.3958,1.68701.97401,3.3989,2.38239,5.0198,4.20441l.00004.00008Z" fill="#d3c7b7"/><path d="M403.88439,113.5499c.96371.5563,1.94118,1.3613,2.86949,2.4055,3.33401,3.7474,4.74468,9.1619,3.14388,12.081-1.15231,2.1125-3.56232,2.3472-6.06869.9001-.96088-.5548-1.9363-1.3572-2.86121-2.3963-3.33401-3.7547-4.74468-9.1619-3.14388-12.0809,1.1517-2.1161,3.55541-2.3556,6.06041-.9094Z" fill="#c1272d"/><path d="M386.96671,25.494c.66021.3812,1.33041.9325,1.96602,1.6467l62.83691,70.6623c2.28191,2.5667,3.24989,6.2707,2.15679,8.2704l-10.71621,19.6208c-.7896,1.4456-2.43809,1.6083-4.15272.6184-.65811-.38-1.32549-.9291-1.9577-1.6405l-62.84309-70.6733c-2.28191-2.5667-3.24989-6.2707-2.15679-8.2704l10.71621-19.6208c.78892-1.4442,2.43462-1.6044,4.15058-.6137v.0001Z" fill="#eff6fa"/><g><path d="M374.07391,80.0284c.96298.5559,1.93909,1.3592,2.8653,2.3999,3.33401,3.7473,4.74468,9.1619,3.1501,12.0845-1.1565,2.1101-3.5643,2.3461-6.06941.8998-.96088-.5548-1.93562-1.3568-2.86049-2.3959-3.3403-3.7582-4.74468-9.1619-3.1501-12.0845,1.1517-2.1166,3.55949-2.3499,6.06461-.90381Z" fill="#c1272d"/><path d="M416.50219,121.9805c1.78459,2.0077,2.54379,4.9224,1.68869,6.4863l-6.017,11.0247c-.61729,1.1295-1.9125,1.2506-3.25649.4746-.51682-.2984-1.0416-.7299-1.53751-1.2878l-45.96821-51.6862c-1.7915-2.019-2.55699-4.9301-1.69552-6.4977l6.01688-11.0173c.61798-1.1309,1.91528-1.2549,3.26408-.4762.51609.2979,1.04019.7286,1.5361,1.2856l45.96889,51.694h.00008ZM417.06268,127.2055c.56568-1.0255.0721-2.9344-1.10031-4.2507l-45.96272-51.683c-.32719-.3685-.67261-.6529-1.01212-.8489-.88329-.51-1.72871-.424-2.13261.3193l-6.01688,11.0174c-.55939,1.0218-.06592,2.9307,1.10722,4.2473l45.96821,51.6936c.3223.3627.66299.6429.99892.8369.88051.5084,1.72871.4252,2.13329-.3145l6.01688-11.0173" fill="#c1272d"/><path d="M388.97739,96.7866c.96298.5559,1.93981,1.3605,2.86598,2.4035,3.3403,3.7509,4.74468,9.1619,3.1501,12.0845-1.15231,2.1126-3.56232,2.3473-6.06869.9002-.96088-.5548-1.9363-1.3572-2.86121-2.3963-3.33401-3.7546-4.74468-9.1619-3.1501-12.0845,1.15582-2.1137,3.56091-2.3523,6.06388-.9074h.00004Z" fill="#c1272d"/></g><path d="M415.9623,122.955c1.17229,1.316,1.66599,3.2251,1.10031,4.2506l-6.01711,11.0172c-.40451.7398-1.25271.8229-2.13322.3146-.33611-.1941-.6765-.474-.99911-.8369l-45.96809-51.6935c-1.17321-1.3168-1.6666-3.2254-1.10722-4.2473l6.01681-11.0174c.4039-.7432,1.2495-.8292,2.13261-.3194.3397.1961.68508.4807,1.01212.8489l45.96272,51.6833.00019-.0001ZM409.8975,128.0364c1.60099-2.9189.1902-8.3337-3.14381-12.0809-.92831-1.0442-1.90578-1.8491-2.86942-2.4055-2.505-1.4463-4.90871-1.2065-6.06041.9096-1.60069,2.9191-.1902,8.3262,3.14381,12.0806.92468,1.0394,1.9001,1.8414,2.8611,2.3962,2.50648,1.4471,4.91638,1.2127,6.06869-.9M394.99329,111.2747c1.59451-2.9227.1902-8.3337-3.1501-12.0845-.92621-1.043-1.90311-1.8476-2.8661-2.4036-2.50301-1.4451-4.9081-1.2065-6.064.9072-1.59451,2.9227-.1836,8.3303,3.15041,12.0847.92468,1.0394,1.9001,1.8414,2.8611,2.3962,2.50648,1.4471,4.91638,1.2127,6.06869-.9M380.08919,94.5131c1.59451-2.9227.18398-8.3373-3.1501-12.0845-.92621-1.0409-1.9025-1.8442-2.86549-2.4002-2.505-1.4459-4.9128-1.2127-6.06449.9037-1.59451,2.9227-.1902,8.3265,3.1501,12.0845.92499,1.0392,1.89949,1.8411,2.86049,2.3959,2.505,1.4463,4.9131,1.2104,6.0696-.8995" fill="#d3c7b7"/><polygon points="485.20321 214.98751 486.478 216.4216 483.84899 221.22351 482.5742 219.78939 485.20321 214.98751" fill="#4f5056"/><polygon points="482.04762 211.43881 484.44439 214.13059 481.82159 218.94341 479.41872 216.2406 482.04762 211.43881" fill="#4f5056"/><polygon points="472.65148 200.87 475.05451 203.57269 472.4255 208.3746 470.02869 205.6827 472.65148 200.87" fill="#4f5056"/><polygon points="475.807 204.4187 477.08191 205.85279 474.45911 210.6583 473.18432 209.23149 475.807 204.4187" fill="#4f5056"/><polygon points="478.26752 207.18399 479.54231 208.61811 476.9133 213.41999 475.6385 211.98589 478.26752 207.18399" fill="#4f5056"/><polygon points="480.21809 209.38311 481.49288 210.8172 478.87009 215.6226 477.59529 214.1885 480.21809 209.38311" fill="#4f5056"/><polygon points="468.8644 196.61119 470.13988 198.04581 467.51709 202.85851 466.24161 201.42401 468.8644 196.61119" fill="#4f5056"/><polygon points="470.82191 198.8143 472.09671 200.24839 469.47399 205.05381 468.1992 203.61971 470.82191 198.8143" fill="#4f5056"/><polygon points="489.44271 219.75731 490.40489 220.8346 487.7821 225.63999 486.81992 224.5627 489.44271 219.75731" fill="#4f5056"/><polygon points="487.2493 217.2858 488.21209 218.3708 485.58941 223.17619 484.6265 222.0986 487.2493 217.2858" fill="#4f5056"/><polygon points="500.5093 232.20181 501.47148 233.279 498.84869 238.09179 497.88658 237.0072 500.5093 232.20181" fill="#4f5056"/><polygon points="498.4626 229.8958 499.73808 231.3303 497.10838 236.13171 495.83359 234.69761 498.4626 229.8958" fill="#4f5056"/><polygon points="495.30701 226.34701 497.70439 229.04659 495.08099 233.8516 492.67799 231.1488 495.30701 226.34701" fill="#4f5056"/><polygon points="491.52061 222.0886 492.79541 223.5228 490.1664 228.3246 488.8916 226.89051 491.52061 222.0886" fill="#4f5056"/><polygon points="493.4774 224.29131 494.75288 225.7258 492.12952 230.53089 490.85468 229.0967 493.4774 224.29131" fill="#4f5056"/><polygon points="502.70199 234.66551 503.66489 235.7505 501.04149 240.55559 500.07931 239.471 502.70199 234.66551" fill="#4f5056"/><path d="M377.3962,0l169.18072,190.2527-38.93768,71.27831-169.18015-190.25231L377.3962,0ZM453.92632,106.0733c1.0931-1.9995.12501-5.7034-2.15672-8.2703l-62.83699-70.6624c-.63568-.7139-1.30569-1.2651-1.96609-1.6464-1.71612-.9908-3.36159-.8307-4.15058.6136l-10.71621,19.6206c-1.0931,1.9995-.12501,5.7038,2.15698,8.2705l62.84298,70.6733c.6321.7112,1.29951,1.2602,1.95782,1.6403,1.71459.9899,3.36311.8275,4.15272-.6182l10.71621-19.621M418.1908,128.4669c.8551-1.5641.09602-4.4786-1.68861-6.4863l-45.96901-51.694c-.49599-.5571-1.02009-.9878-1.53622-1.2858-1.34869-.7784-2.64622-.6545-3.2642.4764l-6.01681,11.0174c-.86159,1.5675-.09602,4.4786,1.6954,6.4974l45.9684,51.6865c.49568.5576,1.0207.9892,1.5374,1.2875,1.34399.7759,2.63931.655,3.25649-.4747l6.01711-11.0244M502.44411,192.6507c4.92779,2.8451,9.66991,2.38501,11.93771-1.7625,3.13042-5.7394.35999-16.3924-6.1871-23.7508-1.81511-2.0425-3.7326-3.6202-5.62241-4.7113-4.92641-2.8439-9.66728-2.3838-11.93001,1.7639-3.13751,5.73561-.3603,16.39231,6.18679,23.75839,1.81358,2.03819,3.72791,3.61271,5.61501,4.70221M492.67792,231.1488l2.40299,2.7029,2.62329-4.8052-2.39738-2.6993-2.6289,4.8016M479.41841,216.2406l2.40299,2.7029,2.62272-4.813-2.39681-2.6918-2.6289,4.8019M470.02861,205.68291l2.39681,2.6918,2.6289-4.8019-2.40299-2.7029-2.62272,4.813M495.8334,234.69761l1.27491,1.43431,2.62951-4.8016-1.27548-1.43459-2.6289,4.8019M488.89149,226.89051l1.27491,1.43431,2.6289-4.8019-1.27491-1.43431-2.6289,4.8019M475.6382,211.98601l1.27491,1.434,2.6289-4.8019-1.2746-1.43379-2.6292,4.80169M482.5742,219.7896l1.2746,1.43379,2.6289-4.8019-1.2746-1.43379-2.6289,4.8019M466.24161,201.42429l1.27548,1.43431,2.62272-4.8127-1.27548-1.43459-2.62272,4.813M490.85449,229.0967l1.27491,1.43431,2.62329-4.8052-1.27548-1.43459-2.62272,4.80551M473.18409,209.2318l1.27491,1.42679,2.62272-4.80551-1.27491-1.43431-2.62272,4.813M468.19901,203.6198l1.27491,1.43431,2.62272-4.80551-1.27491-1.43431-2.62272,4.80551M477.59529,214.18871l1.2746,1.43379,2.62272-4.8052-1.2746-1.4341-2.62272,4.80551M501.0413,240.5558l2.6236-4.80499-.96298-1.085-2.62272,4.8052.9621,1.0849M484.6265,222.0986l.96272,1.07771,2.62272-4.80551-.96272-1.0849-2.62272,4.8127M497.88631,237.00729l.96241,1.08471,2.62272-4.813-.96241-1.07719-2.62272,4.80551M486.81992,224.56289l.9621,1.0774,2.62272-4.80551-.9621-1.0774-2.62272,4.80551" fill="#d3c7b7"/></g><path d="M546.577,190.2527s-24.3504,49.75981-28.15269,56.4138-10.78529,14.8646-10.78529,14.8646c11.08891-23.49239,24.20288-47.271,38.93799-71.2784Z" fill="#d3c2a8"/></g><g><g><g><path d="M594.1555,612.22389c.26669.154.53551.3273.8062.52109,3.66959,2.62569,6.27682,7.9668,5.8242,11.93089-.41908,3.67142-3.3168,4.8719-6.65741,2.94319-.26669-.154-.53551-.3273-.8062-.52109-3.66959-2.62569-6.27682-7.9668-5.8242-11.93089.41908-3.6713,3.3168-4.8716,6.65741-2.94319Z" fill="#c1272d"/><path d="M620.72659,626.69472c1.96529,1.40652,3.3707,4.28291,3.12809,6.40621l-1.70509,14.94701c-.2248,1.96663-1.78452,2.60757-3.58009,1.57097-.14351-.08293-.2882-.17601-.43381-.28023l-50.57178-36.18599c-1.97849-1.41411-3.3839-4.2905-3.1411-6.41369l1.71108-14.93629c.22499-1.97311,1.78452-2.61478,3.58101-1.5778.14271.0824.2874.17578.43282.27981l50.5788,36.19011.00008-.00011ZM622.6165,632.21691c.15739-1.39351-.75809-3.27431-2.04071-4.19109l-50.5788-36.19011c-.09762-.07019-.19451-.1329-.29091-.18848-1.17569-.67879-2.188-.24891-2.33379,1.03951l-1.71131,14.93599c-.1572,1.39359.75829,3.27438,2.05391,4.1988l50.57819,36.19713c.09338.0666.1862.1265.2784.17967,1.17081.67596,2.19398.25108,2.34001-1.03432l1.7049-14.94709" fill="#c1272d"/><path d="M620.57579,628.02582c1.28262.91679,2.1981,2.7977,2.04071,4.19109l-1.7049,14.94709c-.14599,1.2854-1.1692,1.71028-2.34001,1.03432-.0922-.05333-.18509-.11307-.2784-.17967l-50.57819-36.19709c-1.29559-.92442-2.21111-2.80521-2.05391-4.1988l1.71131-14.93599c.1458-1.28841,1.15822-1.71822,2.33379-1.03951.09628.05562.19321.11829.29091.18848l50.5788,36.19011-.00011-.00004ZM584.3837,612.94289c.45261-3.964-2.1545-9.31252-5.8242-11.93821-.27061-.19379-.53951-.36739-.8062-.52132-3.34061-1.92822-6.23821-.7275-6.65749,2.95071-.45238,3.96408,2.15469,9.30531,5.8242,11.93081.27081.1939.53951.36709.80631.5212,3.34061,1.92871,6.23821.72811,6.6573-2.94319M617.18788,636.4164c.45261-3.964-2.1545-9.31252-5.8242-11.93821-.27-.19321-.53871-.36671-.80399-.51991-3.34202-1.92951-6.24062-.723-6.65958,2.94922-.45261,3.964,2.15469,9.30531,5.8242,11.93081.27081.1939.54031.36758.80631.5212,3.34042,1.92863,6.23821.72807,6.6573-2.94319M600.7859,624.67609c.45261-3.964-2.15469-9.30531-5.8242-11.93081-.27081-.1939-.53951-.36709-.80631-.5212-3.34042-1.92841-6.23821-.72811-6.6573,2.94319-.45261,3.964,2.1545,9.30519,5.8242,11.93081.27081.1939.53951.36709.8062.52109,3.34061,1.92871,6.2384.72819,6.65749-2.94312" fill="#d3c7b7"/><path d="M610.55969,623.95828c.26531.1532.5341.3265.80421.51979,3.66959,2.62569,6.2767,7.97421,5.8242,11.93821-.41908,3.67138-3.3168,4.87186-6.65741,2.94319-.266-.15362-.53551-.32742-.8062-.52109-3.66959-2.62569-6.27682-7.9668-5.8242-11.93089.41908-3.6721,3.3176-4.87862,6.65951-2.94922h-.00011Z" fill="#c1272d"/><polygon points="702.92664 699.82826 703.98613 700.58693 703.2383 707.09953 702.18567 706.34483 702.92664 699.82826" fill="#4f5056"/><polygon points="715.26291 708.65547 716.66107 709.65378 715.91949 716.17729 714.51576 715.16838 715.26291 708.65547" fill="#4f5056"/><path d="M696.92291,642.76993c.07004.04044.13992.08553.21133.13641l13.94508,9.9765c.96329.6958,1.6629,2.1138,1.53847,3.15887-.10963.97878-.8815,1.2912-1.76682.78003-.06927-.03998-.13992-.08553-.21133-.13641l-13.93806-9.97253c-.97023-.69252-1.66359-2.11418-1.54541-3.16292.10963-.97878.88219-1.29066,1.76682-.78003l-.00008.00008Z" fill="#4f5056"/><path d="M556.14159,509.5874l186.14861,133.20717-11.03737,96.66786-186.15459-133.20358,11.04351-96.6716-.00015.00015ZM645.88089,591.99009c.30823-2.7174-1.47873-6.37249-3.98697-8.16601l-69.15051-49.48441c-.18421-.13161-.3669-.2494-.54771-.35381-2.2855-1.3195-4.26842-.49519-4.5599,2.01241l-3.03638,26.61201c-.30819,2.7174,1.47171,6.36848,3.98621,8.16559l69.14421,49.48078c.18501.13229.3685.25051.55012.3553,2.28958,1.32191,4.27231.49721,4.55841-2.01351l3.0426-26.60839M623.85479,633.10081c.24261-2.1233-1.1628-4.99969-3.12809-6.40621l-50.5788-36.19011c-.14542-.1041-.28999-.19741-.43282-.27981-1.79649-1.03699-3.35602-.39539-3.58101,1.5778l-1.71108,14.93629c-.24269,2.12318,1.16261,4.99962,3.1411,6.41369l50.57178,36.18599c.14561.10422.29018.1973.43381.28023,1.79562,1.03668,3.35529.39558,3.58009-1.57097l1.70509-14.94701M690.92751,639.52148c-.88531,7.77786,4.24561,18.3017,11.45737,23.45757.53108.3804,1.05881.72113,1.58119,1.02272,6.55296,3.78342,12.26372,1.41968,13.08342-5.79071.89149-7.77428-4.24538-18.30158-11.44478-23.45032-.53192-.38078-1.06041-.72201-1.5834-1.0239-6.56273-3.7888-12.26784-1.42208-13.09387,5.78468M688.76343,696.7437l.7415-6.51627-2.64259-1.89323-.74074,6.51672,2.64183,1.8927M713.68607,714.57916l.74074-6.52382-2.63557-1.88179-.74768,6.51268,2.64259,1.89293M699.0963,704.13498l.74089-6.51657-2.6358-1.88919-.74692,6.52054,2.64183,1.8853M694.44397,700.80971l1.40388,1.00159.74768-6.51268-1.4045-1.00929-.74707,6.52039M708.28041,710.70877l.74707-6.51299-1.40388-1.00899-.74768,6.52,1.4045,1.00197M693.69682,700.2755l.74791-6.51993-1.4045-1.00197-.74707,6.51299,1.40373,1.00891M684.10477,693.40752l1.40388,1.00899.7415-6.52359-1.39832-.99838-.74707,6.51299M715.91949,716.17737l.7415-6.52359-1.39832-.99823-.74707,6.51283,1.40388,1.00899M690.99747,698.34229l.74074-6.51672-1.40373-1.00891-.7415,6.52359,1.4045,1.00197M683.35762,692.87331l.7415-6.51627-1.39809-1.00563-.74707,6.52039,1.40373,1.00151M709.03999,711.25023l1.39748,1.00533.74707-6.52039-1.40373-1.00151-.74089,6.51657M701.33049,705.73357l.74074-6.51672-1.39748-.99792-.74768,6.51268,1.4045,1.00197M717.83417,717.54738l.74173-6.52351-1.05972-.75867-.7415,6.52344,1.05949.75882M705.6572,708.83423l.74074-6.52412-1.05873-.75813-.74173,6.52328,1.05972.7589M703.2383,707.09969l.74768-6.51268-1.05949-.75882-.74089,6.51657,1.0527.75493M720.24689,719.27101l.74089-6.51642-1.05949-.75882-.74089,6.51657,1.05949.75859" fill="#d3c7b7"/><path d="M577.75349,600.48351c.26669.154.53551.3273.8062.52109,3.66959,2.62569,6.2767,7.97421,5.8242,11.93821-.41908,3.6713-3.3168,4.8719-6.65741,2.94319-.26669-.154-.53551-.32742-.8062-.52109-3.66959-2.62569-6.27682-7.96692-5.8242-11.93089.41908-3.67809,3.31692-4.87888,6.65741-2.95052Z" fill="#c1272d"/><polygon points="682.70119 685.35133 684.09927 686.35696 683.35777 692.87308 681.95412 691.87157 682.70119 685.35133" fill="#4f5056"/><polygon points="684.85207 686.89453 686.25031 687.89268 685.50873 694.41628 684.105 693.40736 684.85207 686.89453" fill="#4f5056"/><polygon points="686.86241 688.33443 689.505 690.22751 688.7635 696.7437 686.1216 694.851 686.86241 688.33443" fill="#4f5056"/><polygon points="690.3347 690.81673 691.73843 691.82564 690.99747 698.34213 689.59312 697.34016 690.3347 690.81673" fill="#4f5056"/><polygon points="695.19119 694.2894 696.59561 695.29861 695.84793 701.81122 694.44412 700.80971 695.19119 694.2894" fill="#4f5056"/><polygon points="697.20161 695.72929 699.83727 697.61841 699.09637 704.13498 696.45447 702.2496 697.20161 695.72929" fill="#4f5056"/><polygon points="700.67383 698.21899 702.0713 699.21692 701.33049 705.73341 699.92599 704.73152 700.67383 698.21899" fill="#4f5056"/><polygon points="705.33928 701.5519 706.39809 702.31018 705.6572 708.83408 704.5977 708.07541 705.33928 701.5519" fill="#4f5056"/><polygon points="707.62383 703.18687 709.02748 704.19571 708.28049 710.70869 706.87607 709.7068 707.62383 703.18687" fill="#4f5056"/><polygon points="717.51633 710.2652 718.5759 711.02379 717.83432 717.5473 716.77483 716.78871 717.51633 710.2652" fill="#4f5056"/><polygon points="719.92828 711.9957 720.98793 712.75436 720.24696 719.27101 719.18747 718.51227 719.92828 711.9957" fill="#4f5056"/><path d="M699.56352,651.25938c.07271.04204.14549.08919.21957.14259l7.2506,5.18547c.96947.69199,1.6629,2.1064,1.53847,3.15887-.10963.9726-.8828,1.29021-1.76338.78194-.06859-.0396-.13847-.08461-.20851-.13458l-7.24991-5.19249c-.97023-.69237-1.66359-2.10678-1.54541-3.16292.1152-.96542.87799-1.28723,1.7585-.77888h.00008Z" fill="#4f5056"/><path d="M702.55577,661.46111c-6.42723-4.59991-11.01784-13.99612-10.22453-20.93803.17708-1.54911.6076-2.84698,1.24069-3.87798l21.84029,15.63137c.31921,1.71272.41023,3.38387.23308,4.93271-.7296,6.43127-5.8358,8.53569-11.69182,5.1548-.46143-.26642-.92903-.56778-1.39778-.90286h.00008ZM695.15602,643.55003c-.1181,1.04874.57518,2.4704,1.54541,3.16292l13.93799,9.97253c.07141.05089.14214.09644.21141.13641.88539.51117,1.6571.19882,1.76666-.78003.12451-1.045-.57518-2.4633-1.53839-3.15887l-13.94501-9.9765c-.07141-.05089-.1413-.0959-.21118-.13634-.88478-.51079-1.65733-.1989-1.76689.77988M708.57201,659.74648c.12444-1.0527-.569-2.46712-1.53839-3.15887l-7.25067-5.1857c-.07401-.05318-.14679-.1004-.21957-.14236-.88051-.50842-1.6433-.18661-1.7585.77888-.1181,1.05614.57518,2.4704,1.54541,3.16292l7.24991,5.19241c.07011.05013.14.09506.20851.13474.88051.50842,1.65382.19058,1.76338-.78194" fill="#d3c7b7"/><path d="M705.43457,636.27911c4.43901,3.17768,8.00011,8.64811,9.51279,14.01608l-20.56259-14.7163c2.16171-2.28168,5.73044-2.46849,9.63913-.21179.46631.2692.93712.57301,1.41083.91202h-.00015Z" fill="#d3c7b7"/></g><path d="M572.1957,533.9856c.18082.10441.36369.22228.5479.354l69.15047,49.48441c2.50832,1.79352,4.29512,5.44861,3.98697,8.16601l-3.0426,26.60839c-.2861,2.51068-2.26883,3.3353-4.55849,2.0134-.1815-.10479-.3651-.22308-.55-.35519l-69.14421-49.48078c-2.5145-1.7971-4.29451-5.44819-3.98628-8.16551l3.03638-26.61209c.2916-2.50751,2.2744-3.3321,4.5599-2.01248l-.00004-.00015Z" fill="#eff6fa"/><polygon points="693.27538 634.785 694.38477 635.57899 714.94751 650.29518 716.0659 651.09558 715.88882 652.61726 715.41229 652.27631 693.57201 636.6449 693.10463 636.31039 693.27538 634.785" fill="#4f5056"/><path d="M705.60478,634.7607c7.1994,5.14881,12.33627,15.676,11.44478,23.45028-.8197,7.21046-6.53038,9.57413-13.08342,5.79071-.52238-.30159-1.05011-.64232-1.58119-1.02272-7.21191-5.15587-12.34268-15.6797-11.45737-23.4576.82611-7.2068,6.53122-9.57352,13.09387-5.78468.52299.3019,1.05148.64308,1.5834,1.0239l-.00008.00011ZM715.88867,652.61742l.177-1.52184-1.11832-.80032c-1.51268-5.36797-5.07378-10.83839-9.51279-14.01611-.47371-.33901-.94452-.64281-1.41083-.91202-3.90862-2.25658-7.47742-2.06982-9.63913.21179l-1.10939-.7938-.17082,1.52538.46738.33451c-.63316,1.031-1.06361,2.32891-1.24069,3.87798-.7933,6.94191,3.7973,16.33812,10.22453,20.93803.46883.33501.93628.63652,1.39778.90286,5.85609,3.38097,10.96222,1.27647,11.69182-5.1548.17708-1.54877.08621-3.21999-.23308-4.93271l.47638.34103" fill="#4f5056"/><polygon points="693.04031 692.7536 694.44473 693.75549 693.6969 700.27542 692.29317 699.26659 693.04031 692.7536" fill="#4f5056"/><polygon points="711.79138 706.17348 714.42711 708.05527 713.68622 714.57916 711.04362 712.68608 711.79138 706.17348" fill="#4f5056"/><polygon points="709.78104 704.73358 711.18469 705.73509 710.43762 712.2554 709.04022 711.25023 709.78104 704.73358" fill="#4f5056"/></g><path d="M742.29019,642.79457s-1.83289,24.58458-2.47566,35.50133-8.56171,61.16661-8.56171,61.16661c0,0,2.77603-39.32983,4.22241-54.11118s6.81503-42.55684,6.81503-42.55684l-.00008.00008Z" fill="#d3c2a8"/></g><g><g><polygon points="194.4021 291.00941 196.0881 292.4095 191.3821 299.53569 189.69681 298.13511 194.4021 291.00941" fill="#4f5056"/><g><polygon points="208.9024 303.0958 209.57569 303.6623 204.86971 310.7885 204.1964 310.2219 208.9024 303.0958" fill="#4f5056"/><polygon points="207.3638 301.80889 208.03711 302.37551 203.33111 309.50159 202.65779 308.94239 207.3638 301.80889" fill="#4f5056"/><polygon points="205.92819 300.60961 206.81919 301.3591 202.11321 308.4852 201.2159 307.7393 205.92819 300.60961" fill="#4f5056"/><polygon points="203.7101 298.7672 205.3961 300.16729 200.6901 307.3008 199.004 305.89331 203.7101 298.7672" fill="#4f5056"/><polygon points="202.42821 297.69951 203.32541 298.44549 198.6194 305.5715 197.72209 304.82571 202.42821 297.69951" fill="#4f5056"/><polygon points="201.05579 296.54461 201.94679 297.29401 197.2415 304.4198 196.3442 303.6812 201.05579 296.54461" fill="#4f5056"/><polygon points="199.5945 295.338 200.27399 295.89359 195.56801 303.0271 194.88911 302.4637 199.5945 295.338" fill="#4f5056"/><polygon points="198.0559 294.05121 198.73541 294.6142 194.02309 301.74379 193.35051 301.17689 198.0559 294.05121" fill="#4f5056"/><polygon points="196.6202 292.85179 197.51129 293.6014 192.80519 300.7275 191.9142 299.97801 196.6202 292.85179" fill="#4f5056"/><path d="M222.3921,243.13601c.5175-.29881,1.03161-.3384,1.38149-.0433l4.622,3.85691c.6218.5081.5105,1.86569-.2475,3.0088-.331.4998-.72821.8794-1.1224,1.10689-.51611.298-1.026.33529-1.37449.0407l-4.622-3.85691c-.6218-.5154-.5105-1.86569.24679-3.01571.32749-.4936.72269-.87009,1.1162-1.09739h-.0001Z" fill="#4f5056"/><polygon points="193.12639 289.9382 194.01751 290.68029 189.3121 297.8134 188.4211 297.0639 193.12639 289.9382" fill="#4f5056"/><path d="M224.66499,234.68241c.5147-.2972,1.0253-.3348,1.37381-.0403l8.89761,7.41421c.6156.51901.50421,1.8693-.2537,3.0197-.32681.4965-.7213.87311-1.1141,1.09989-.51611.298-1.02949.33649-1.38281.0478l-8.8913-7.4251c-.6156-.5117-.5105-1.86569.25379-3.01241.3282-.4982.72399-.8769,1.11679-1.10371l-.0001-.00008Z" fill="#4f5056"/><polygon points="191.7548 288.79009 192.6458 289.5396 187.9398 296.66571 187.0487 295.91619 191.7548 288.79009" fill="#4f5056"/><path d="M222.3451,233.2107c1.11931-1.6935,2.3579-3.1776,3.65271-4.42459l13.92941,11.6172c-.6864,1.75289-1.5925,3.5154-2.7104,5.20861-2.1661,3.28341-4.7806,5.7806-7.3818,7.28241-3.41909,1.97399-6.81511,2.2286-9.14101.2877-4.10219-3.41471-3.3601-12.37459,1.65119-19.97129l-.0001-.00004ZM234.93629,242.0565l-8.89771-7.41421c-.3484-.29449-.85899-.25681-1.3736.0403-.39301.2269-.7889.60551-1.11691,1.10371-.7642,1.1467-.86929,2.50059-.25391,3.01241l8.89139,7.42519c.35339.28851.8667.25,1.383-.0481.3927-.22671.7872-.60341,1.11389-1.0997.75809-1.15061.86929-2.50059.25391-3.01979M228.14779,249.95871c.75809-1.1429.86929-2.50059.2475-3.0088l-4.62191-3.857c-.34969-.2953-.86399-.25539-1.3813.0432-.3937.2273-.7889.6039-1.1162,1.0976-.75741,1.14981-.8687,2.50019-.24679,3.01571l4.62191,3.857c.3484.29449.85831.25721,1.37461-.04089.39431-.2277.7913-.6068,1.1223-1.1068" fill="#d3c7b7"/><polygon points="190.0305 287.35331 190.9215 288.1028 186.2155 295.2289 185.3245 294.47941 190.0305 287.35331" fill="#4f5056"/><polygon points="187.8124 285.51081 189.49841 286.91099 184.7924 294.037 183.10699 292.63651 187.8124 285.51081" fill="#4f5056"/><polygon points="186.53049 284.4359 187.42149 285.18539 182.7154 292.3115 181.8244 291.562 186.53049 284.4359" fill="#4f5056"/><polygon points="185.15881 283.28779 186.0498 284.0373 181.3438 291.16341 180.4528 290.41389 185.15881 283.28779" fill="#4f5056"/><path d="M154.2234,235.0489c1.2562,1.0457,1.0273,3.78651-.5073,6.1129l-10.7933,16.343c-.6606,1.00389-1.4605,1.7684-2.2566,2.22799-1.0461.604-2.086.6822-2.7955.08619l-32.2565-26.90781c-1.2631-1.0491-1.0343-3.7899.5003-6.1162l10.787-16.3394c.6626-1.00439,1.4633-1.76941,2.26-2.2294,1.0489-.6057,2.0909-.68319,2.8052-.08511l32.2565,26.90781.0002.00002ZM152.9273,240.5002c1.006-1.52149,1.155-3.3123.3342-3.9995l-32.2565-26.9005c-.4653-.39419-1.1459-.34491-1.8318.0511-.5224.30161-1.0476.8045-1.4829,1.46589l-10.7871,16.3394c-1.006,1.52149-1.1543,3.3119-.3342,4.00681l32.2565,26.9005c.466.39021,1.1473.33871,1.8325-.0568.521-.30081,1.0441-.8007,1.476-1.45651l10.7933-16.35031" fill="#c1272d"/><path d="M140.3533,235.01221c1.9488-1.1253,3.8823-1.26909,5.2101-.1589,2.3399,1.95589,1.913,7.05231-.9461,11.38531-1.2389,1.8751-2.7316,3.302-4.2141,4.15791-1.9467,1.12391-3.8782,1.26671-5.2067.1569-2.3461-1.945-1.9192-7.0487.9399-11.38161,1.2396-1.87559,2.733-3.30259,4.2169-4.15951v-.0001Z" fill="#c1272d"/><path d="M129.8928,226.28851c1.9474-1.1245,3.8809-1.26829,5.2095-.1585,2.3392,1.94901,1.9192,7.0487-.9468,11.38571-1.2389,1.8751-2.7309,3.3016-4.2141,4.15791-1.9467,1.12391-3.8782,1.26671-5.206.1565-2.3398-1.9486-1.9192-7.0487.9461-11.38531,1.2361-1.87349,2.7281-3.29981,4.2114-4.1563h-.0001Z" fill="#c1272d"/><path d="M154.8841,147.7085c1.3336-.77,2.6573-.8675,3.5678-.108l44.0963,36.78249c1.60259,1.3381,1.3113,4.8278-.64341,7.79341l-19.21801,29.1066c-.8478,1.2834-1.8679,2.2587-2.8828,2.8447-1.3336.77-2.658.8679-3.56779.10799l-44.0963-36.78249c-1.6026-1.3381-1.312-4.82731.6496-7.79699l19.2118-29.103c.8471-1.283,1.8679-2.2587,2.8828-2.8447Z" fill="#eff6fa"/><path d="M155.5865,125.0272l118.72479,99.02851-69.81659,105.73929-118.7181-99.0324,69.8099-105.7355v.0001ZM176.236,224.23611c.9099.7597,2.23419.6616,3.568-.10839,1.01471-.5859,2.0348-1.56099,2.88269-2.8446l19.21789-29.10629c1.95471-2.9657,2.246-6.4555.64341-7.79341l-44.0962-36.7827c-.9105-.7593-2.2342-.662-3.5677.1079-1.0151.5861-2.0358,1.5616-2.883,2.8448l-19.2118,29.10319c-1.9615,2.96961-2.252,6.45861-.6494,7.7969l44.0962,36.7827M153.7161,241.16199c1.5343-2.3263,1.7634-5.06691.5072-6.11271l-32.2567-26.9079c-.7143-.5982-1.7564-.5204-2.805.08511-.7967.46-1.5973,1.2249-2.26,2.2291l-10.7871,16.33949c-1.5346,2.32651-1.7634,5.06729-.5004,6.1165l32.2567,26.9075c.7092.5961,1.7493.5179,2.7953-.086.7961-.45959,1.5963-1.22431,2.2566-2.22799l10.7935-16.3431M238.11411,246.3579c5.616-8.50401,6.45149-18.547,1.86131-22.3782-2.6082-2.1769-6.4122-1.89039-10.24179.32089-2.91821,1.6852-5.85079,4.4875-8.27961,8.16799-5.6167,8.50439-6.4576,18.55009-1.86131,22.3851,2.6082,2.16921,6.41291,1.8808,10.24309-.3306,2.91719-1.6843,5.84949-4.48521,8.2782-8.1653M199.00379,305.89359l1.68619,1.40711,4.70579-7.13301-1.68579-1.40039-4.7061,7.12629M183.10699,292.6366l1.6852,1.40079,4.7061-7.12629-1.68619-1.3998-4.7051,7.1253M189.69669,298.13551l1.6852,1.40039,4.7061-7.12629-1.68619-1.3998-4.7051,7.1257M201.2158,307.73951l.8971.74631,4.7061-7.12629-.891-.7498-4.7122,7.12971M197.722,304.82599l.89741.7457,4.70579-7.1261-.8971-.74591-4.7061,7.12629M196.34399,303.6816l.89741.73839,4.7051-7.1257-.891-.7494-4.71149,7.13671M180.45259,290.4141l.891.7498,4.7061-7.12629-.891-.7498-4.7061,7.12629M191.91401,299.97829l.891.7494,4.7061-7.12589-.891-.7498-4.7061,7.12629M185.32431,294.47969l.891.7494,4.7061-7.12629-.891-.7494-4.7061,7.12629M181.82409,291.56219l.891.7498,4.7061-7.12629-.891-.7494-4.7061,7.12589M187.04861,295.91669l.891.7494,4.7061-7.12629-.891-.7494-4.7061,7.12629M188.42091,297.0644l.891.7494,4.70551-7.1332-.891-.742-4.70551,7.12589M194.8888,302.46429l.6789.5633,4.7061-7.1336-.67949-.55559-4.70551,7.12589M193.3503,301.1771l.6728.56681,4.7122-7.12971-.67949-.56299-4.70551,7.12589M204.8695,310.7888l4.7061-7.12629-.6735-.5665-4.70579,7.1261.6731.5666M202.65751,308.9426l.6735.5591,4.7061-7.12589-.6735-.5665-4.7061,7.1332" fill="#c8e0ee"/><polygon points="226.7975 226.87031 227.50481 227.4608 240.6175 238.4038 241.3291 238.9974 240.2339 240.65849 239.9272 240.403 225.99791 228.7859 225.7016 228.5392 226.7975 226.87031" fill="#4f5056"/><path d="M239.9754,223.9798c4.59021,3.8312,3.75469,13.87421-1.86131,22.3782-2.4288,3.6801-5.361,6.481-8.2782,8.1653-3.8302,2.2114-7.63491,2.49969-10.24309.3306-4.59631-3.83499-3.7554-13.88069,1.86131-22.3851,2.4288-3.6805,5.36131-6.48279,8.27959-8.16799,3.8295-2.2114,7.6335-2.49781,10.24179-.32089l-.0001-.00011ZM240.23371,240.65889l1.0951-1.661-.71159-.59389c1.6081-5.3793,1.0899-10.39511-1.7429-12.7593-2.32731-1.9417-5.72571-1.6857-9.1464.28931-.74329.42919-1.4888.9407-2.2233,1.52719l-.70721-.59071-1.0961,1.66889.2964.24679c-1.2948,1.24701-2.5334,2.73109-3.65271,4.42459-5.01129,7.59661-5.75331,16.55649-1.65119,19.97129,2.3259,1.9409,5.72201,1.68631,9.14101-.2877,2.6012-1.50181,5.21561-3.999,7.3818-7.28241,1.1179-1.6931,2.024-3.4557,2.7104-5.20861l.30661.2556" fill="#4f5056"/><path d="M238.8743,225.6447c2.83279,2.3642,3.351,7.38001,1.7429,12.7593l-13.1126-10.9429c.7345-.5864,1.47989-1.098,2.2233-1.52719,3.4207-1.975,6.8191-2.23089,9.1464-.28931v.0001Z" fill="#d3c7b7"/><path d="M121.0048,209.6006l32.2567,26.9005c.8209.68701.6718,2.47801-.3342,3.9994l-10.7935,16.3505c-.4318.65559-.9549,1.15561-1.4759,1.45639-.6852.3956-1.3664.4471-1.8324.05671l-32.2564-26.90029c-.8202-.6951-.6719-2.48529.3342-4.00669l10.7868-16.3393c.4355-.6616.9606-1.1647,1.4829-1.4662.6859-.396,1.3667-.4454,1.8318-.05091v-.00011ZM144.6173,246.2389c2.8589-4.33281,3.2859-9.42921.9461-11.38531-1.3277-1.1104-3.2615-.96621-5.21.15881-1.484.8568-2.9774,2.2838-4.217,4.1597-2.8593,4.333-3.2862,9.4367-.9401,11.3814,1.3287,1.10979,3.2602.96701,5.2067-.1568,1.4826-.856,2.9754-2.2827,4.2143-4.1577M114.2732,233.1073c1.3284,1.11,3.2622.96581,5.2087-.158,1.484-.8568,2.9761-2.2831,4.2123-4.15661,2.8653-4.33649,3.2859-9.43689.9461-11.38531-1.3277-1.1104-3.2615-.96661-5.2087.158-1.484.8568-2.9754,2.2827-4.2123,4.15701-2.8653,4.33649-3.2852,9.42881-.9461,11.38491M124.7351,241.8302c1.3277,1.1104,3.2592.9675,5.206-.1565,1.4833-.8564,2.9754-2.2827,4.2143-4.1577,2.866-4.33689,3.2859-9.43689.9468-11.38571-1.3284-1.11-3.2622-.96621-5.2094.15841-1.4833.8564-2.9754,2.2827-4.2116,4.15661-2.8653,4.33649-3.2859,9.43649-.9461,11.38491" fill="#d3c7b7"/><path d="M119.4316,217.56519c1.9474-1.12459,3.8809-1.26829,5.2088-.1581,2.3398,1.9486,1.9192,7.0487-.9461,11.38531-1.2361,1.87349-2.7281,3.3-4.2121,4.1567-1.9467,1.12391-3.8802,1.26789-5.2088.1581-2.3392-1.95629-1.9192-7.0487.9461-11.38531,1.2368-1.87389,2.7281-3.29981,4.2121-4.1567Z" fill="#c1272d"/></g></g><path d="M155.5865,125.0272s-41.9234,60.32459-47.9112,68.67109-21.8988,37.0643-21.8988,37.0643c0,0,42.2209-61.92261,47.1199-69.18049s22.69-36.555,22.69-36.555l.0001.0001Z" fill="#ced7e3"/></g></g></g></g></g></svg>