<svg xmlns="http://www.w3.org/2000/svg" xmlns:xlink="http://www.w3.org/1999/xlink" version="1.1" id="_レイヤー_2" x="0px" y="0px" viewBox="0 0 1859.67236 2394.81396" enable-background="new 0 0 1859.67236 2394.81396" width="1860px" height="2395px" class="lg:!max-h-[405px] isometric rectangleModalImage"><title>ダンスする男性1</title><g id="_男性"><g><ellipse transform="matrix(0.99241 -0.12299 0.12299 0.99241 -267.80902 142.82056)" opacity="0.05" cx="1022.91547" cy="2240.61353" rx="440.57068" ry="145.46204" enable-background="new"/><g><path fill="#F7D5D4" d="M506.82959,2007.76172c-31.40839,22.53809-81.39905,123.80835-140.84079,148.70142&#10;&#9;&#9;&#9;&#9;c-25.1694,10.54053-60.9762,32.2644,13.12402,75.9834s121.35211,73.8291,101.45691,44.90234&#10;&#9;&#9;&#9;&#9;c-25.26602-36.73535-32.76761-80.47412-50.62619-90.72778l124.20343-87.88672l-47.3172-90.97266H506.82959z"/><path fill="#BFBFBF" d="M893.21082,1587.87451c-25.10382,14.81567-70.68182,53.25317-123.77869,102.60376&#10;&#9;&#9;&#9;&#9;c-48.31671,44.90723-68.11102,46.03027-119.11621,99.43848c-42.07581,44.06006-99.60388,142.60742-148.27386,178.53149&#10;&#9;&#9;&#9;&#9;c-21.7706,16.07056-37.64951,34.08691-48.93188,51.03882c-1.65891,0.68481-3.2153,1.61011-4.45251,2.64771&#10;&#9;&#9;&#9;&#9;c-5.09521,4.27368-3.9801,15.71167-10.03302,15.31372c-4.56537-0.30029-5.06409,6.55518-5.0336,21.46362&#10;&#9;&#9;&#9;&#9;c-2.7753,8.70728-3.90869,15.75439-3.64749,20.0769c3.46982,57.4353,33.85498,71.78955,59.66,72.86133&#10;&#9;&#9;&#9;&#9;c7.30469,0.30273,50.51761-19.15039,119.08566-58.9502c6.19629-3.59619,13.04633-7.23145,20.13373-10.89111&#10;&#9;&#9;&#9;&#9;c11.69983,2.82349,16.06506,3.76221,54.20532-5.93872c47.96997-12.20093,59.05328-30.62744,66.65833-58.17749&#10;&#9;&#9;&#9;&#9;c41.10229-26.95068,75.29297-57.34619,117.05261-85.02197c48.39539-32.07397,93.24158-51.30615,129.83032-79.18945&#10;&#9;&#9;&#9;&#9;c49.96954-38.08105,84.1712-81.67114,87.60553-98.39722c14.57764-70.98999-173.42035-177.76489-190.96429-167.40967H893.21082z"/><path fill="#BFBFBF" d="M863.53821,1099.16638c0,0-9.97522,458.5929,0.94885,509.24609&#10;&#9;&#9;&#9;&#9;c0,0,144.32166,240.36816,211.30078,160.05457c66.979-80.31348,117.63989-730.71741,118.96423-792.95801&#10;&#9;&#9;&#9;&#9;s-331.21393,123.65735-331.21393,123.65735H863.53821z"/><path fill="#BFBFBF" d="M434.18369,2092.8999c-5.8826,4.25977-30.65268,37.89404-30.65268,37.89404&#10;&#9;&#9;&#9;&#9;s37.75241,42.43433,51.14047,42.63721l37.93289-27.99316l-58.42072-52.53809H434.18369z"/><g><path fill="#E5E5E5" d="M316.27872,2262.71533c-10.58841-7.63892-20.79773,30.95312-16.89032,38.03223&#10;&#9;&#9;&#9;&#9;&#9;c3.90744,7.0791,64.48941,44.78198,88.4267,53.66211c23.93729,8.88037,97.97211,40.31226,155.6713,39.59644&#10;&#9;&#9;&#9;&#9;&#9;c57.69928-0.71606,87.6488-14.98389,82.21356-45.17041c-2.52631-14.03101-207.18631-12.36499-309.42123-86.12012V2262.71533z"/><path fill="#4A4C56" d="M406.90497,2236.01978c-7.00327-0.72827-4.26038-47.27173-8.65988-55.6394&#10;&#9;&#9;&#9;&#9;&#9;c-1.30649-2.48511-0.16171-5.54663,2.46201-6.54468c12.45029-13.05981,28.92181-20.43555,51.2746-19.48926&#10;&#9;&#9;&#9;&#9;&#9;c1.08551-0.41309,2.29742,0.12988,2.7142,1.21216l-3.08231,53.91821c0,0,39.79147,45.37866,60.86206,61.69897&#10;&#9;&#9;&#9;&#9;&#9;c29.87628,23.13843,144.79883,64.23389,101.63702,89.00146c-21.95239,12.59595-44.15881,15.90894-70.78241,14.21875&#10;&#9;&#9;&#9;&#9;&#9;c-2.28278-5.22314-4.52032-12.52002-3.99689-20.41943C540.34558,2338.70654,426.98138,2238.10767,406.90497,2236.01978z"/><path fill="#545456" d="M539.33331,2353.97681c1.01208-15.27026-105.60461-121.58472-125.68091-123.67261&#10;&#9;&#9;&#9;&#9;&#9;c-20.0788-2.08691-4.29889-42.7583-18.10229-42.7583c-13.8042,0.00244-39.71539-34.80811-49.60779-39.83667&#10;&#9;&#9;&#9;&#9;&#9;c-5.0961-2.59058-6.51682,26.22729-7.92032,26.19922c-14.92697-0.29883-12.71802,18.38867-18.62161,33.33545&#10;&#9;&#9;&#9;&#9;&#9;c-2.586,6.55078-5.25629,14.27197-7.62027,22.15576c-5.09842,17.0061-8.7666,34.77124-7.0831,43.20605&#10;&#9;&#9;&#9;&#9;&#9;c1.00677,5.04272,33.36099,36.06396,90.09869,59.52637c22.59943,9.34546,98.19193,35.46509,112.62299,37.85791&#10;&#9;&#9;&#9;&#9;&#9;c12.9541,2.146,24.80762,3.7002,35.91205,4.40674c-2.28302-5.22412-4.52032-12.52026-3.99719-20.41992H539.33331z"/><g><path fill="#3E4354" d="M500.0863,2309.88184c0.33759,0.04688,0.68658,0.04907,1.04117,0.00049&#10;&#9;&#9;&#9;&#9;&#9;&#9;c2.08752-0.28296,3.55112-2.20386,3.272-4.29028l0,0c-0.01749-0.13135-1.64197-13.1792,5.22363-20.23022&#10;&#9;&#9;&#9;&#9;&#9;&#9;c3.63312-3.73071,9.2489-5.22778,16.6908-4.4502c2.09839,0.21851,3.97668-1.30493,4.19568-3.40234&#10;&#9;&#9;&#9;&#9;&#9;&#9;c0.21967-2.09814-1.29016-3.96289-3.4021-4.19653c-9.90686-1.03491-17.64218,1.23779-22.9903,6.75293&#10;&#9;&#9;&#9;&#9;&#9;&#9;c-9.4472,9.74414-7.3815,25.86475-7.28918,26.54614c0.23602,1.73584,1.6037,3.04053,3.25809,3.27002H500.0863z"/><path fill="#3E4354" d="M477.4317,2290.59424c0.50943,0.0708,1.0415,0.03906,1.56793-0.11084l3.36978-0.96436&#10;&#9;&#9;&#9;&#9;&#9;&#9;c21.5845-6.19946,41.97141-12.05591,62.38071,6.05029c1.57745,1.40137,3.99182,1.25635,5.39233-0.32129&#10;&#9;&#9;&#9;&#9;&#9;&#9;c1.40015-1.57861,1.25592-3.99292-0.3222-5.39258c-23.55017-20.89746-46.94037-14.17651-69.56052-7.6792l-3.3493,0.95972&#10;&#9;&#9;&#9;&#9;&#9;&#9;c-2.0293,0.57617-3.20657,2.68945-2.62949,4.71826c0.42749,1.50269,1.69687,2.53857,3.15088,2.74023L477.4317,2290.59424z"/><path fill="#3E4354" d="M523.28992,2328.98682c0.33759,0.04688,0.68658,0.04907,1.0412,0.00049&#10;&#9;&#9;&#9;&#9;&#9;&#9;c2.08746-0.28271,3.55109-2.20361,3.27197-4.29028l0,0c-0.01752-0.13135-1.64197-13.17896,5.22363-20.22998&#10;&#9;&#9;&#9;&#9;&#9;&#9;c3.63312-3.73071,9.2489-5.22803,16.6908-4.45044c2.09839,0.21875,3.97668-1.30469,4.19574-3.40234&#10;&#9;&#9;&#9;&#9;&#9;&#9;c0.2196-2.09814-1.29022-3.96265-3.4021-4.19653c-9.90692-1.03491-17.64221,1.23779-22.99036,6.75293&#10;&#9;&#9;&#9;&#9;&#9;&#9;c-9.4472,9.74414-7.38147,25.86499-7.28918,26.54614c0.23602,1.73584,1.6037,3.04053,3.25812,3.27002H523.28992z"/><path fill="#3E4354" d="M500.63531,2309.69922c0.5094,0.0708,1.04147,0.03906,1.5679-0.11084l3.36978-0.96436&#10;&#9;&#9;&#9;&#9;&#9;&#9;c21.58453-6.19946,41.97144-12.05591,62.38074,6.05029c1.57739,1.40137,3.99182,1.2561,5.39227-0.32153&#10;&#9;&#9;&#9;&#9;&#9;&#9;c1.40021-1.57837,1.25592-3.99268-0.3222-5.39233c-23.55017-20.89746-46.94037-14.17651-69.56049-7.6792l-3.3493,0.95972&#10;&#9;&#9;&#9;&#9;&#9;&#9;c-2.0293,0.57617-3.2066,2.68921-2.62952,4.71826c0.42752,1.50244,1.6969,2.53833,3.15091,2.74023L500.63531,2309.69922z"/><path fill="#3E4354" d="M469.13971,2284.22876c0.33759,0.04663,0.68661,0.04907,1.0412,0.00024&#10;&#9;&#9;&#9;&#9;&#9;&#9;c2.08749-0.28271,3.55109-2.20361,3.272-4.29004l0,0c-0.01752-0.13135-1.642-13.1792,5.2236-20.22998&#10;&#9;&#9;&#9;&#9;&#9;&#9;c3.63312-3.73096,9.2489-5.22803,16.6908-4.45044c2.09839,0.21851,3.97672-1.30493,4.19571-3.40234&#10;&#9;&#9;&#9;&#9;&#9;&#9;c0.21964-2.09814-1.2991-3.96704-3.4021-4.19653c-9.90689-1.03491-17.64221,1.23779-22.9903,6.75293&#10;&#9;&#9;&#9;&#9;&#9;&#9;c-9.4472,9.74414-7.3815,25.86475-7.28922,26.54614c0.23602,1.73584,1.6037,3.04053,3.25812,3.27002H469.13971z"/><path fill="#3E4354" d="M446.48523,2264.94019c0.5094,0.07056,1.04147,0.03906,1.56778-0.11011l3.37131-0.96509&#10;&#9;&#9;&#9;&#9;&#9;&#9;c21.58508-6.20044,41.97223-12.05493,62.37921,6.05078c1.57727,1.40234,3.99182,1.25635,5.39227-0.32129&#10;&#9;&#9;&#9;&#9;&#9;&#9;c1.40021-1.57861,1.25592-3.99292-0.32214-5.39258c-23.54892-20.89648-46.93884-14.17725-69.5585-7.67969l-3.3511,0.9585&#10;&#9;&#9;&#9;&#9;&#9;&#9;c-2.02899,0.57715-3.20673,2.69019-2.6297,4.71924c0.42752,1.50269,1.6969,2.53857,3.15091,2.74023H446.48523z"/><path fill="#3E4354" d="M438.58411,2260.06567c0.33759,0.04688,0.68658,0.04907,1.04117,0.00049&#10;&#9;&#9;&#9;&#9;&#9;&#9;c2.08902-0.28369,3.55289-2.2063,3.2713-4.29517c-0.03922-0.31152-1.5925-13.22412,5.22479-20.2251&#10;&#9;&#9;&#9;&#9;&#9;&#9;c3.63312-3.73096,9.24838-5.22827,16.6908-4.45044c2.09839,0.21851,3.97672-1.30493,4.19571-3.40234&#10;&#9;&#9;&#9;&#9;&#9;&#9;c0.2196-2.09814-1.29971-3.96606-3.4021-4.19653c-9.90689-1.03491-17.64221,1.23779-22.9903,6.75293&#10;&#9;&#9;&#9;&#9;&#9;&#9;c-9.4472,9.74414-7.38202,25.86475-7.28958,26.54614c0.23599,1.73584,1.6037,3.04053,3.25809,3.27002H438.58411z"/><path fill="#3E4354" d="M415.93011,2240.7771c0.5094,0.07056,1.04147,0.03906,1.56778-0.11011l3.37131-0.96509&#10;&#9;&#9;&#9;&#9;&#9;&#9;c21.58508-6.20044,41.97241-12.05566,62.37921,6.05078c1.57648,1.40137,3.99121,1.25708,5.3923-0.32129&#10;&#9;&#9;&#9;&#9;&#9;&#9;c1.40018-1.57861,1.25589-3.99292-0.3222-5.39258c-23.54837-20.89624-46.93881-14.17725-69.55847-7.67969l-3.3511,0.9585&#10;&#9;&#9;&#9;&#9;&#9;&#9;c-2.02899,0.57715-3.20673,2.69019-2.6297,4.71924c0.427,1.50269,1.6969,2.53857,3.15091,2.74023H415.93011z"/></g><path fill="#DFDFDF" d="M414.95349,2194.68262c0,0-2.08408,14.17993,0.11459,14.3728&#10;&#9;&#9;&#9;&#9;&#9;c2.1987,0.19287,28.241-8.29517,29.22131-10.16797s2.12238-13.03394,1.19321-13.60522&#10;&#9;&#9;&#9;&#9;&#9;c-0.9292-0.57104-29.57721,7.85156-30.52911,9.40015V2194.68262z"/></g><path opacity="0.05" d="M837.63031,1643.97852&#10;&#9;&#9;&#9;&#9;c63.53247-56.24927,151.13708-133.00061,154.15991-195.72266c3.02289-62.72192,12.091-79.34692,18.13654-45.34094&#10;&#9;&#9;&#9;&#9;c6.04553,34.00586-4.53406,182.12024-52.14233,225.19421s9.82391-37.7843,9.82391-71.79016&#10;&#9;&#9;&#9;&#9;c0,0-100.0434,102.75159-137.58911,105.73816c-37.54572,2.98669,7.61127-18.07861,7.61127-18.07861H837.63031z" enable-background="new"/><path fill="#F7D5D4" d="M1607.15137,2013.63989c16.02136,37.7644,17.25269,122.56592,33.27393,129.43213&#10;&#9;&#9;&#9;&#9;c16.02124,6.86646,71.57654,43.5415,63.56592,65.28467c-8.01074,21.74341-144.17859-26.3208-133.87915-53.78589&#10;&#9;&#9;&#9;&#9;c10.29932-27.46533-45.64136-96.03418-38.77515-121.21069C1538.20325,2008.18372,1607.15137,2013.63989,1607.15137,2013.63989z"/><path fill="#BFBFBF" d="M999.19031,1048.65698c0,0,410.21948,454.3811,422.53101,479.20679l-161.07288,157.92834&#10;&#9;&#9;&#9;&#9;c0,0-433.44507-316.57703-479.71094-399.80652s-1.55188-181.50708,29.40009-215.14587&#10;&#9;&#9;&#9;&#9;c64.80121-70.42615,188.85272-22.18262,188.85272-22.18262V1048.65698z"/><g><path fill="#E5E5E5" d="M1543.703,2219.38672c-11.08704-6.89551-18.62793,32.30542-14.24451,39.09985&#10;&#9;&#9;&#9;&#9;&#9;c4.3833,6.79468,70.81506,54.02026,95.30457,61.23975c24.48938,7.21924,103.0321,15.53369,160.54675,10.86597&#10;&#9;&#9;&#9;&#9;&#9;c57.51465-4.66797,80.47925-16.74658,72.9884-46.48975c-3.48181-13.82471-207.54651,1.8606-314.59509-64.71582H1543.703z"/><path fill="#4A4C56" d="M1632.28711,2186.54395c-7.03674-0.24658-7.4895-46.86841-12.4519-54.91504&#10;&#9;&#9;&#9;&#9;&#9;c-1.47388-2.38965-0.54138-5.52246,2.00781-6.69775c11.52612-13.88232,27.45337-22.36963,49.81848-22.95703&#10;&#9;&#9;&#9;&#9;&#9;c1.05469-0.48633,2.3009-0.02783,2.79089,1.02319L1675.0719,2157c0,0,42.80725,42.54565,64.94666,57.38379&#10;&#9;&#9;&#9;&#9;&#9;c31.39148,21.03711,148.85986,54.16113,107.4967,81.82788c-21.03772,14.07056-42.96497,18.89771-69.64172,19.0354&#10;&#9;&#9;&#9;&#9;&#9;c-2.63538-5.05469-5.36755-12.18091-5.38672-20.09766C1772.45044,2279.84595,1652.45947,2187.25122,1632.28711,2186.54395&#10;&#9;&#9;&#9;&#9;&#9;L1632.28711,2186.54395z"/><path fill="#545456" d="M1772.48669,2295.14966c-0.03662-15.30371-113.68738-114.06274-133.8595-114.77002&#10;&#9;&#9;&#9;&#9;&#9;c-20.17456-0.7063-7.21863-42.36328-20.9895-41.41748c-13.77173,0.94849-56.66113-26.04663-66.87488-30.38574&#10;&#9;&#9;&#9;&#9;&#9;c-5.2616-2.23511-0.42969,22.38623-1.83191,22.45435c-14.91235,0.72485-6.83423,19.84326-11.69971,35.15918&#10;&#9;&#9;&#9;&#9;&#9;c-2.1311,6.71265-4.26611,14.59863-6.08435,22.62573c-3.92126,17.31543-0.57812,32.93213,1.67932,41.23169&#10;&#9;&#9;&#9;&#9;&#9;c1.34998,4.96191,39.1239,48.61646,97.33594,68.13599c23.18652,7.7749,97.02112,13.73022,111.58228,15.12866&#10;&#9;&#9;&#9;&#9;&#9;c13.07068,1.25317,25.00269,1.99146,36.12939,1.93579c-2.63562-5.05542-5.36755-12.18115-5.38696-20.09814H1772.48669z"/><g><path fill="#3E4354" d="M1730.31067,2253.84766c0.33997,0.02368,0.68835,0.00195,1.03882-0.07104&#10;&#9;&#9;&#9;&#9;&#9;&#9;c2.06311-0.42505,3.39172-2.44165,2.97046-4.50415l0,0c-0.02661-0.12988-2.54126-13.03564,3.82507-20.54053&#10;&#9;&#9;&#9;&#9;&#9;&#9;c3.36877-3.97095,8.8689-5.84937,16.34668-5.5835c2.10852,0.07446,3.87805-1.57422,3.95288-3.68164&#10;&#9;&#9;&#9;&#9;&#9;&#9;c0.0752-2.10864-1.55884-3.86523-3.68164-3.95386c-9.95459-0.35352-17.51587,2.44385-22.47351,8.3125&#10;&#9;&#9;&#9;&#9;&#9;&#9;c-8.75732,10.36865-5.59192,26.30981-5.453,26.98315c0.35449,1.71582,1.80835,2.92358,3.47437,3.03931L1730.31067,2253.84766z"/><path fill="#3E4354" d="M1706.3877,2236.15771c0.51306,0.03564,1.04175-0.03247,1.55652-0.21826l3.29578-1.19287&#10;&#9;&#9;&#9;&#9;&#9;&#9;c21.10889-7.66382,41.04663-14.90332,62.64856,1.76172c1.6698,1.28979,4.06848,0.97974,5.35767-0.69019&#10;&#9;&#9;&#9;&#9;&#9;&#9;c1.2887-1.67065,0.97949-4.06958-0.69092-5.35767c-24.92676-19.23462-47.80139-10.92676-69.92322-2.89478l-3.27576,1.18701&#10;&#9;&#9;&#9;&#9;&#9;&#9;c-1.98523,0.71387-3.01489,2.90283-2.29993,4.88745c0.5293,1.46973,1.86682,2.41602,3.33105,2.51782L1706.3877,2236.15771z"/><path fill="#3E4354" d="M1754.76868,2271.31787c0.33997,0.02344,0.68835,0.00195,1.03882-0.07104&#10;&#9;&#9;&#9;&#9;&#9;&#9;c2.06311-0.42505,3.39172-2.44189,2.97046-4.50415l0,0c-0.02661-0.12988-2.54126-13.03564,3.82507-20.54053&#10;&#9;&#9;&#9;&#9;&#9;&#9;c3.36877-3.97095,8.8689-5.84961,16.34668-5.58374c2.10852,0.07446,3.87805-1.57422,3.95288-3.68164&#10;&#9;&#9;&#9;&#9;&#9;&#9;c0.0752-2.1084-1.55884-3.86523-3.68164-3.95361c-9.95459-0.35352-17.51587,2.44385-22.47351,8.31226&#10;&#9;&#9;&#9;&#9;&#9;&#9;c-8.75732,10.36865-5.59192,26.31006-5.453,26.9834c0.35449,1.71582,1.80835,2.92334,3.47437,3.03906H1754.76868z"/><path fill="#3E4354" d="M1730.8457,2253.62793c0.51306,0.03564,1.04175-0.03223,1.55652-0.21826l3.29578-1.19287&#10;&#9;&#9;&#9;&#9;&#9;&#9;c21.10889-7.66382,41.04663-14.90332,62.64856,1.76172c1.6698,1.28979,4.06848,0.97974,5.35767-0.69019&#10;&#9;&#9;&#9;&#9;&#9;&#9;c1.2887-1.67065,0.97949-4.06934-0.69092-5.35767c-24.92676-19.23462-47.80139-10.92676-69.92322-2.89453l-3.27576,1.18677&#10;&#9;&#9;&#9;&#9;&#9;&#9;c-1.98523,0.71387-3.01489,2.90283-2.29993,4.88745c0.5293,1.46973,1.86682,2.41602,3.33105,2.51782L1730.8457,2253.62793z"/><path fill="#3E4354" d="M1697.67883,2230.37549c0.33997,0.02344,0.68835,0.00195,1.03882-0.07104&#10;&#9;&#9;&#9;&#9;&#9;&#9;c2.06311-0.42505,3.39172-2.44189,2.97046-4.50415l0,0c-0.02661-0.12988-2.54126-13.03564,3.82507-20.54053&#10;&#9;&#9;&#9;&#9;&#9;&#9;c3.36877-3.97095,8.8689-5.84961,16.34668-5.58374c2.10852,0.07446,3.87805-1.57422,3.95288-3.68164&#10;&#9;&#9;&#9;&#9;&#9;&#9;c0.0752-2.1084-1.56787-3.86841-3.68164-3.95361c-9.95459-0.35352-17.51587,2.44385-22.47351,8.31226&#10;&#9;&#9;&#9;&#9;&#9;&#9;c-8.75732,10.36865-5.59192,26.31006-5.453,26.9834c0.35449,1.71582,1.80835,2.92334,3.47437,3.03906H1697.67883z"/><path fill="#3E4354" d="M1673.75598,2212.68433c0.51306,0.03564,1.04187-0.03247,1.55652-0.21729l3.29724-1.19385&#10;&#9;&#9;&#9;&#9;&#9;&#9;c21.1095-7.66479,41.04773-14.90234,62.64734,1.76245c1.66968,1.29102,4.06836,0.97974,5.35767-0.68994&#10;&#9;&#9;&#9;&#9;&#9;&#9;c1.2887-1.6709,0.97937-4.06958-0.69092-5.35791c-24.92542-19.23364-47.80005-10.92773-69.92139-2.89551l-3.27734,1.18579&#10;&#9;&#9;&#9;&#9;&#9;&#9;c-1.98474,0.71509-3.01489,2.90356-2.30017,4.88843c0.52942,1.46973,1.86694,2.41602,3.33118,2.51782H1673.75598z"/><path fill="#3E4354" d="M1665.53955,2208.36279c0.33997,0.02368,0.68835,0.00195,1.03882-0.07104&#10;&#9;&#9;&#9;&#9;&#9;&#9;c2.0647-0.42603,3.39343-2.44434,2.96936-4.50903c-0.06042-0.30811-2.495-13.08374,3.82678-20.53564&#10;&#9;&#9;&#9;&#9;&#9;&#9;c3.36877-3.97095,8.86841-5.84937,16.34668-5.58374c2.10852,0.07446,3.87805-1.57422,3.95288-3.68164&#10;&#9;&#9;&#9;&#9;&#9;&#9;c0.0752-2.1084-1.56848-3.86743-3.68164-3.95361c-9.95459-0.35352-17.51587,2.44385-22.47351,8.31226&#10;&#9;&#9;&#9;&#9;&#9;&#9;c-8.75732,10.36865-5.59241,26.31006-5.45349,26.9834c0.35449,1.71558,1.80835,2.92334,3.47437,3.03906H1665.53955z"/><path fill="#3E4354" d="M1641.61719,2190.67188c0.51306,0.03564,1.04175-0.03247,1.55652-0.21729l3.29724-1.19385&#10;&#9;&#9;&#9;&#9;&#9;&#9;c21.1095-7.66479,41.04761-14.90332,62.64722,1.76245c1.66895,1.28979,4.06799,0.98071,5.35767-0.69019&#10;&#9;&#9;&#9;&#9;&#9;&#9;c1.28882-1.67065,0.97949-4.06934-0.69092-5.35767c-24.92493-19.23364-47.79993-10.92773-69.92126-2.89551l-3.27747,1.18579&#10;&#9;&#9;&#9;&#9;&#9;&#9;c-1.98462,0.71484-3.01477,2.90356-2.30005,4.88843c0.52905,1.46973,1.86694,2.41602,3.33118,2.51782H1641.61719z"/></g><path fill="#DFDFDF" d="M1637.48425,2144.75244c0,0-1.10754,14.28955,1.09912,14.33105&#10;&#9;&#9;&#9;&#9;&#9;c2.20667,0.04175,27.6062-10.21094,28.45593-12.146c0.84985-1.9353,1.22437-13.14893,0.25818-13.65503&#10;&#9;&#9;&#9;&#9;&#9;S1638.32776,2143.14233,1637.48425,2144.75244z"/></g><path fill="#BFBFBF" d="M1537.16211,2076.19092c0.20117,8.64526,11.78003,35.2749,14.3645,37.08472&#10;&#9;&#9;&#9;&#9;c2.58459,1.80957,61.10327-7.93213,76.84875-21.80469l-7.17407-39.00391l-84.03918,23.72412V2076.19092z"/><path fill="#BFBFBF" d="M1599.23608,1929.84119c-0.01831-3.42651-0.0061-6.66504,0.04956-9.61426&#10;&#9;&#9;&#9;&#9;c0.33813-17.93945-6.98364-36.65649-21.88721-62.8772c-47.51709-147.58911-123.41138-328.10425-184.48608-349.15405&#10;&#9;&#9;&#9;&#9;c-102.93408-35.47729-175.83374,123.70117-175.83374,123.70117c2.41992,18.24585,63.68823,112.28027,132.17407,209.17114&#10;&#9;&#9;&#9;&#9;c1.24805,22.75513,6.18164,64.12476,24.30469,68.15186c22.61353,5.02563,99.93848,99.02954,99.66553,117.25342&#10;&#9;&#9;&#9;&#9;c-0.22217,14.86816,17.20532,24.70447,40.771,29.8717c11.25171,12.18994,19.38525,19.38843,23.16821,19.84619&#10;&#9;&#9;&#9;&#9;c29.14307,3.52417,69.66138-8.84277,84.03931-23.72437C1627.18604,2046.27307,1617.91162,1996.73328,1599.23608,1929.84119z"/><path opacity="0.05" d="M626.32959,1869.51416&#10;&#9;&#9;&#9;&#9;c168.95007-114.41113,233.38464-86.68921,310.55627-115.90942s80.16852-47.95142,77.17163-29.22021&#10;&#9;&#9;&#9;&#9;c-2.99695,18.73096-45.17255,80.42395-160.33704,80.91772s-264.25549,112.24854-286.78296,112.85742&#10;&#9;&#9;&#9;&#9;c-22.52747,0.60876,59.39233-48.64526,59.39233-48.64526L626.32959,1869.51416z" enable-background="new"/><path opacity="0.05" d="M1353.54236,1841.21167c8.14478,9.79785,68.31372,48.83716,90.98816,50.5813&#10;&#9;&#9;&#9;&#9;c22.67432,1.74402,50.29053-7.26758,57.26733-2.03491c6.97668,5.23242,14.53467-16.86035-23.83716-31.68604&#10;&#9;&#9;&#9;&#9;c-38.37195-14.82556-110.75549-11.04639-114.8252-18.02319c-4.06958-6.97681-9.59302-47.67432,12.5-47.67432&#10;&#9;&#9;&#9;&#9;s33.43005-47.38354,20.05811-31.97656c-13.37183,15.40698-40.40674,12.20935-42.151,27.32544s-3.70154,49.03516,0,53.48816&#10;&#9;&#9;&#9;&#9;L1353.54236,1841.21167z" enable-background="new"/><path opacity="0.05" d="M452.55618,2025.56128&#10;&#9;&#9;&#9;&#9;c7.33182,9.77563,109.97641-30.41333,107.53238-19.27979c-2.44397,11.1333-100.69409,39.60095-111.60559,34.75793&#10;&#9;&#9;&#9;&#9;s4.07318-15.47815,4.07318-15.47815H452.55618z" enable-background="new"/><path opacity="0.05" d="M436.2818,2058.25586c23.89612,0,78.80908-15.23401,91.85852-24.78247&#10;&#9;&#9;&#9;&#9;c20.20435-14.78369,30.33752-11.33325,20.56183-0.74292c-9.7757,10.59009-104.27393,40.46021-112.42035,40.46021&#10;&#9;&#9;&#9;&#9;c-8.14639,0,0-14.93506,0-14.93506V2058.25586z" enable-background="new"/><path opacity="0.05" d="M1217.07861,1631.89673&#10;&#9;&#9;&#9;&#9;c29.26172-49.57568-4.07678-185.18945,36.72095-134.19238c40.79761,50.99695-23.68176,162.73022-23.68176,162.73022&#10;&#9;&#9;&#9;&#9;l-18.63489-14.96362L1217.07861,1631.89673z" enable-background="new"/></g><g><g><path fill="#FFD3D4" d="M1190.56299,353.2738c32.35522-42.6037,243.05273-141.5616,274.34277-82.3512&#10;&#9;&#9;&#9;&#9;&#9;c21.32861,40.36072-40.7207,66.60712-166.60266,141.87601C1169.20142,489.99271,1158.20776,395.87753,1190.56299,353.2738z"/><path fill="#FFD3D4" d="M1470.02051,289.70569c19.88037-53.3253-300.76501-235.83638-321.89624-212.6819&#10;&#9;&#9;&#9;&#9;&#9;c-27.17615,29.7782,182.84863,185.7964,251.46997,221.16151s70.42627-8.47974,70.42627-8.47974V289.70569z"/><path fill="#FFD3D4" d="M1125.21118,84.5934c15.66492,12.0447,19.30164,48.6429,43.48669,28.16531&#10;&#9;&#9;&#9;&#9;&#9;c25.11365-21.2638-2.19421-70.8091-10.20923-78.5513c-54.50439-52.6496-79.776-32.7662-101.75879-17.341&#10;&#9;&#9;&#9;&#9;&#9;c-21.98267,15.4251,35.87756,42.6582,68.48132,67.7271V84.5934z"/></g><path fill="#1D71A2" d="M1415.79346,541.29346c0,0-11.86499-178.44019-85.7948-243.99408&#10;&#9;&#9;&#9;&#9;c-63.38538-56.20398-199.79651,42.91113-267.75671,56.25452c-13.98218,2.74527,11.15002,377.53448,96.61499,318.0152&#10;&#9;&#9;&#9;&#9;c25.62537-17.84601,64.99866-61.1651,112.45068-83.07935c55.23999-25.51068,88.95361-1.67834,144.48596-47.19629H1415.79346z"/></g><path fill="#1D71A2" d="M1187.12695,545.99249c2.16699-57.42499-29.57153-173.92029-124.88513-192.43848&#10;&#9;&#9;&#9;c-119.30005,2.49277-125.94598,16.92267-169.03088,35.24469c-43.08496,18.32202-88.82629,92.20651-92.89954,138.20276&#10;&#9;&#9;&#9;c-2.33459,26.35724-3.99463,62.31653-3.89661,79.42981c0.39429,68.87097,15.60364,87.94092,6.36328,258.76959&#10;&#9;&#9;&#9;c-1.46954,27.16333-20.53448,105.64697-36.92041,175.61798c-12.4693,53.24536-47.05347,138.67554-47.48248,155.68774&#10;&#9;&#9;&#9;c26.35858,14.93579,71.25311,14.44019,101.39221,31.15515c31.72827,17.59656,85.8512,62.96875,125.30219,64.37012&#10;&#9;&#9;&#9;c59.72528,2.12158,27.74078-94.36084,101.22827-114.05994c29.05505-7.78857,88.68323,28.97864,111.93079,47.69153&#10;&#9;&#9;&#9;c28.3385,22.81079,60.74756-63.49536,61.98499-71.0791c4.25586-26.08594-18.31689-76.19348-20.89209-113.76575&#10;&#9;&#9;&#9;c-2.68359-39.15735,5.40112-82.36987,0.99451-126.42883c-19.69006-196.86987-15.35608-310.97235-13.18909-368.39746V545.99249z"/><path opacity="0.1" d="M893.04742,830.54517&#10;&#9;&#9;&#9;c-4.1875-145.12683-55.64044-201.91553-96.63263-224.11395c0.39429,68.87097,15.60364,87.94086,6.36328,258.76959&#10;&#9;&#9;&#9;c-1.46954,27.16333-20.53448,105.64697-36.92041,175.61792c61.23596-19.43256,131.18433-71.8197,127.1897-210.27356H893.04742z" enable-background="new"/><path fill="#FFC9CA" d="M1071.32593,371.00989c-8.42871-9.5452-18.13647-9.84326-18.13647-9.84326&#10;&#9;&#9;&#9;s-6.14197-38.99393-6.30737-42.02072l-108.95117-9.73199c0,0,3.63226,63.01718-4.53003,68.57312&#10;&#9;&#9;&#9;c-15.52173,10.56491-42.68097,5.7973-34.68103,29.79727c8.00006,24.00003,104.17743,61.68048,148.17737,45.68051&#10;&#9;&#9;&#9;c44.00012-15.99997,32.8573-72.90939,24.42871-82.4548V371.00989z"/><path fill="#1D71A2" d="M874.901,399.8497c1.95715-5.36899-118.1189,23.90689-141.53345,66.12302&#10;&#9;&#9;&#9;c-20.25513,36.51959-209.13879-12.56-215.72583,96.83118c-3.09711,51.43365,23.05182,218.42487,44.88062,250.82678&#10;&#9;&#9;&#9;c0,0,17.70691-7.76703,36.36853-9.55811c18.74847-1.79938,38.51617,2.36023,66.35577-4.89508&#10;&#9;&#9;&#9;c70.66815-18.41693,137.50897-49.54517,150.66034-61.13708c23.48926-20.7041,92.13306-42.35736,115.28687-70.2915&#10;&#9;&#9;&#9;c0,0-59.50635-259.08337-56.29279-267.89923L874.901,399.8497z"/><path fill="#FFD3D4" d="M596.41412,564.40942c-47.60864-65.48193-448.84363,77.77502-429.79053,143.7312&#10;&#9;&#9;&#9;c7.7923,26.97461,321.41461-50.94238,391.84442-82.55292c74.77539-33.56085,37.94611-61.17841,37.94611-61.17841V564.40942z"/><path fill="#FFD3D4" d="M154.61169,747.48877c14.1759,15.76202,56.52751-24.19385,54.6264-58.13812&#10;&#9;&#9;&#9;c-1.97412-35.24738-67.59731-28.1123-79.40691-26.25385c-80.3103,12.63745-47.2641,40.61707-48.2656,69.40967&#10;&#9;&#9;&#9;s44.8499-16.36877,73.04609,14.98224L154.61169,747.48877z"/><path fill="#FFD3D4" d="M113.8154,713.64014C66.2459,726.95343-11.5329,735.05872,1.4381,760.16235&#10;&#9;&#9;&#9;S132.741,749.96948,145.3141,724.06403s-31.4987-10.42383-31.4987-10.42383V713.64014z"/><path fill="#FFD3D4" d="M100.6017,745.25818c45.28751-3.57568,53.0475,44.63629,73.6955,46.48981&#10;&#9;&#9;&#9;c20.64801,1.85345,8.9456-37.66449-4.692-52.84027S92.4556,745.90137,100.6017,745.25818z"/><g><path fill="#FFD3D4" d="M864.82532,100.1661c-29.83948,35.1824-8.72003,125.3679-8.72003,125.3679&#10;&#9;&#9;&#9;&#9;s-14.73969,105.64081,79.56122,142.564c74.9668,29.353,144.15088-48.25992,144.15088-48.25992&#10;&#9;&#9;&#9;&#9;s112.42786-202.4043-16.58569-255.85179s-168.56689,0.9973-198.40637,36.1797V100.1661z"/><path fill="#3C4358" d="M948.11316,13.2265c97.35645-22.7809,155.20886,22.6211,158.37732,49.0243&#10;&#9;&#9;&#9;&#9;c25.87512,12.1455,48.6814,43.09451,47.04138,89.98339c-3.15845,90.30679-73.71448,167.60379-73.71448,167.60379&#10;&#9;&#9;&#9;&#9;s-15.16907-26.297-1.51587-23.39279c17.26855,3.67319,49.22668-79.8447,31.70508-102.20059&#10;&#9;&#9;&#9;&#9;c-17.52136-22.35541-42.44299,50.96889-42.44299,50.96889l-14.80896,19.50502l-3.19141-49.248&#10;&#9;&#9;&#9;&#9;c0,0-11.64221-5.26001-30.87054-37.5634c-17.14349-28.8009-84.73517-60.48041-103.79614-56.3289&#10;&#9;&#9;&#9;&#9;c-20.24756,4.41-66.3125,29.701-65.98981,34.6812l0.3302,19.09781c0,0-10.96002-8.7899-13.29138-31.97211&#10;&#9;&#9;&#9;&#9;c-2.36975-23.56479-2.48798-103.33,112.16754-130.15869L948.11316,13.2265z"/></g></g></g></svg>