<svg xmlns="http://www.w3.org/2000/svg" xmlns:xlink="http://www.w3.org/1999/xlink" version="1.1" id="_レイヤー_2" x="0px" y="0px" viewBox="0 0 1011.14459 1035.71313" enable-background="new 0 0 1011.14459 1035.71313" width="1011px" height="1036px" class="lg:!max-h-[405px] isometric rectangleModalImage"><title>スケジュール管理2</title><g id="_2"><g><g><path fill="#999999" d="M929.46979,328.18799c7.86682,29.48859,13.6958,57.80096,13.6958,81.1171l-5.70416-2.01971&#10;&#9;&#9;&#9;&#9;l-7.99158-79.09738H929.46979z"/><polygon opacity="0.05" enable-background="new" points="197.98061,579.48865 423.36139,460.69958 1011.14459,779.66449 &#10;&#9;&#9;&#9;&#9;777.92194,914.32257"/><path fill="#697A94" d="M446.63287,105.26989l-3.99411-6.9336c13.37399-7.7148,25.93262-23.33009,32.7832-40.752l7.44141,2.9297&#10;&#9;&#9;&#9;&#9;C475.27548,79.83039,461.73056,96.55888,446.63287,105.26989z"/><path fill="#697A94" d="M827.40436,328.18979l-3.99408-6.93359c13.37402-7.71481,25.93262-23.33011,32.7832-40.75198&#10;&#9;&#9;&#9;&#9;l7.44141,2.92969c-7.59277,19.31641-21.13281,36.04492-36.23047,44.75592L827.40436,328.18979z"/><polygon fill="#E6E6E6" points="929.46979,328.18799 835.91266,685.75323 998.8642,779.83344"/><polygon fill="#DFDFDF" points="835.91266,685.75323 777.92004,907.39569 884.31958,829.72601 998.8642,779.83344 &#10;&#9;&#9;&#9;&#9;998.8642,779.83344"/><g><polygon fill="#DFDFDF" points="501.40887,247.72638 487.2002,302.03049 444.6337,277.45468 458.84238,223.15057"/><polygon fill="#DFDFDF" points="565.25537,284.58826 551.04669,338.89224 508.48029,314.31647 522.68903,260.01248"/><polygon fill="#DFDFDF" points="629.10193,321.45007 614.89325,375.75406 572.32684,351.17838 586.53558,296.87427"/><polygon fill="#DFDFDF" points="692.94855,358.31186 678.73987,412.61597 636.1734,388.04016 650.38202,333.73615"/><polygon fill="#DFDFDF" points="416.25037,292.31598 402.04169,346.61996 359.47528,322.04425 373.68399,267.74017"/><polygon fill="#DFDFDF" points="480.09698,329.1778 465.88828,383.48187 423.3219,358.90607 437.53058,304.60208"/><polygon fill="#DFDFDF" points="543.9436,366.03967 529.73492,420.34366 487.16837,395.76797 501.37708,341.46387"/><polygon fill="#DFDFDF" points="607.79016,402.90146 593.58148,457.20554 551.01501,432.62976 565.22369,378.32578"/><polygon fill="#DFDFDF" points="671.63678,439.76337 657.4281,494.06732 614.86157,469.49164 629.07025,415.18756"/><polygon fill="#DFDFDF" points="735.48334,476.62518 721.27466,530.92926 678.70813,506.35345 692.91681,452.04944"/><polygon fill="#DFDFDF" points="458.78519,410.62927 444.57648,464.93323 402.00998,440.35754 416.21866,386.05347"/><polygon fill="#DFDFDF" points="522.63177,447.49106 508.4231,501.79514 465.85657,477.21936 480.06528,422.91534"/><polygon fill="#DFDFDF" points="586.47833,484.35294 572.26965,538.65692 529.70319,514.08112 543.91187,459.77713"/><polygon fill="#DFDFDF" points="373.62677,455.21884 359.41809,509.52286 316.85159,484.94714 331.0603,430.64304"/><polygon fill="#DFDFDF" points="437.47339,492.08063 423.26468,546.38477 380.69821,521.80896 394.90689,467.50485"/><polygon fill="#DFDFDF" points="501.31985,528.94257 487.11118,583.24658 444.54477,558.67078 458.75351,504.36676"/><polygon fill="#DFDFDF" points="565.1665,565.80432 550.95776,620.10834 508.39139,595.53265 522.6001,541.22858"/><polygon fill="#DFDFDF" points="629.01306,602.66614 614.80438,656.97021 572.23785,632.39441 586.44659,578.09045"/><polygon fill="#DFDFDF" points="692.85968,639.52802 678.65094,693.83203 636.08447,669.25629 650.29315,614.95227"/><polygon fill="#999999" points="756.7063,676.38983 742.49762,730.69391 699.93109,706.1181 714.13977,651.81415"/><polygon fill="#DFDFDF" points="352.31491,536.67023 338.10629,590.97424 295.53979,566.3985 309.7485,512.09442"/><polygon fill="#DFDFDF" points="416.1615,573.53204 401.95276,627.83612 359.38641,603.26031 373.59509,548.95636"/><g enable-background="new"><path fill="#EFF6FA" d="M338.2637,91.02519l567.52698,327.66187L777.91974,907.39563L210.39272,579.73376L338.2637,91.02519z&#10;&#9;&#9;&#9;&#9;&#9;&#9; M785.12067,567.7901l14.20923-54.30579l-42.56635-24.57568l-14.20917,54.30579L785.12067,567.7901 M338.10568,590.97333&#10;&#9;&#9;&#9;&#9;&#9;&#9;l14.20923-54.30579l-42.56628-24.57568l-14.2092,54.30579L338.10568,590.97333 M359.41748,509.52197l14.20923-54.30579&#10;&#9;&#9;&#9;&#9;&#9;&#9;l-42.56631-24.57571l-14.20917,54.30582L359.41748,509.52197 M380.72928,428.07043l14.20923-54.30579l-42.56631-24.57568&#10;&#9;&#9;&#9;&#9;&#9;&#9;l-14.2092,54.30579L380.72928,428.07043 M402.0412,346.61908l14.2092-54.30579l-42.56628-24.57571l-14.2092,54.30582&#10;&#9;&#9;&#9;&#9;&#9;&#9;L402.0412,346.61908 M401.95227,627.83527l14.20923-54.30579l-42.56631-24.57568l-14.2092,54.30579L401.95227,627.83527&#10;&#9;&#9;&#9;&#9;&#9;&#9; M423.26407,546.38373l14.20923-54.30579l-42.56631-24.57568l-14.2092,54.30579L423.26407,546.38373 M444.57587,464.93237&#10;&#9;&#9;&#9;&#9;&#9;&#9;l14.20923-54.30582l-42.56631-24.57568l-14.2092,54.30579L444.57587,464.93237 M465.8877,383.48096l14.20923-54.30582&#10;&#9;&#9;&#9;&#9;&#9;&#9;l-42.56631-24.57568l-14.2092,54.30582L465.8877,383.48096 M487.19958,302.02948l14.2092-54.30582l-42.56628-24.57568&#10;&#9;&#9;&#9;&#9;&#9;&#9;l-14.20923,54.30579L487.19958,302.02948 M487.11069,583.24567l14.20923-54.30585l-42.56631-24.57565l-14.2092,54.30582&#10;&#9;&#9;&#9;&#9;&#9;&#9;L487.11069,583.24567 M508.42249,501.79416l14.20923-54.30579l-42.56631-24.57571l-14.2092,54.30582L508.42249,501.79416&#10;&#9;&#9;&#9;&#9;&#9;&#9; M529.73431,420.34274l14.20917-54.30579l-42.56628-24.57568l-14.2092,54.30579L529.73431,420.34274 M806.43243,486.33865&#10;&#9;&#9;&#9;&#9;&#9;&#9;l14.20923-54.30582l-42.56628-24.57568l-14.20923,54.30582L806.43243,486.33865 M550.95728,620.10742l14.20923-54.30579&#10;&#9;&#9;&#9;&#9;&#9;&#9;l-42.56628-24.57568l-14.20923,54.30579L550.95728,620.10742 M593.58087,457.20456l14.20923-54.30582l-42.56635-24.57568&#10;&#9;&#9;&#9;&#9;&#9;&#9;l-14.20917,54.30579L593.58087,457.20456 M614.89264,375.75317l14.20923-54.30579l-42.56628-24.57568l-14.20923,54.30579&#10;&#9;&#9;&#9;&#9;&#9;&#9;L614.89264,375.75317 M614.80377,656.9693l14.20923-54.30579l-42.56628-24.57568l-14.20923,54.30579L614.80377,656.9693&#10;&#9;&#9;&#9;&#9;&#9;&#9; M636.11566,575.51782l14.20917-54.30579l-42.56628-24.57568l-14.20923,54.30579l42.56628,24.57568 M657.42749,494.06647&#10;&#9;&#9;&#9;&#9;&#9;&#9;l14.20923-54.30582l-42.56628-24.57568l-14.20923,54.30582L657.42749,494.06647 M678.73926,412.61505l14.20923-54.30579&#10;&#9;&#9;&#9;&#9;&#9;&#9;l-42.56628-24.57571l-14.20923,54.30582L678.73926,412.61505 M678.65039,693.83112l14.20923-54.30579l-42.56628-24.57568&#10;&#9;&#9;&#9;&#9;&#9;&#9;l-14.20923,54.30579l42.56628,24.57574 M699.96228,612.37976l14.20923-54.30579l-42.56635-24.57574L657.396,587.80408&#10;&#9;&#9;&#9;&#9;&#9;&#9;L699.96228,612.37976 M721.27405,530.92828l14.20923-54.30582l-42.56628-24.57568l-14.20923,54.30579L721.27405,530.92828&#10;&#9;&#9;&#9;&#9;&#9;&#9; M742.58588,449.47684l14.20923-54.30579l-42.56635-24.57568l-14.20917,54.30579L742.58588,449.47684 M742.49701,730.69293&#10;&#9;&#9;&#9;&#9;&#9;&#9;l14.20917-54.30585l-42.56628-24.57568l-14.20923,54.30579L742.49701,730.69293 M763.80878,649.24152l14.20923-54.30579&#10;&#9;&#9;&#9;&#9;&#9;&#9;l-42.56628-24.57574l-14.20923,54.30585L763.80878,649.24152 M551.0462,338.89139l14.20923-54.30582l-42.56635-24.57568&#10;&#9;&#9;&#9;&#9;&#9;&#9;l-14.2092,54.30582L551.0462,338.89139 M572.26904,538.65601l14.20923-54.30579l-42.56628-24.57568l-14.20923,54.30579&#10;&#9;&#9;&#9;&#9;&#9;&#9;L572.26904,538.65601"/><polygon fill="#DFDFDF" points="394.93857,373.76736 380.72989,428.07147 338.16342,403.49567 352.3721,349.19168"/><polygon fill="#DFDFDF" points="650.32489,521.21472 636.11621,575.51886 593.5498,550.94305 607.75848,496.63895"/><polygon fill="#DFDFDF" points="714.17151,558.07654 699.96271,612.38068 657.39636,587.80487 671.60504,533.50085"/><polygon fill="#999999" points="778.01807,594.93848 763.80939,649.24243 721.24286,624.66675 735.45154,570.36267"/><polygon fill="#DFDFDF" points="756.79517,395.17377 742.58649,449.47775 700.01996,424.90207 714.22864,370.59796"/><polygon fill="#999999" points="799.3299,513.48706 785.12122,567.79102 742.55475,543.21527 756.76349,488.91122"/><polygon fill="#999999" points="820.64172,432.03555 806.43304,486.33963 763.86652,461.76389 778.07532,407.45987"/><path fill="#999999" d="M361.94388,0.5269l567.52588,327.66138l-23.07617,91.41446L337.84482,90.92599&#10;&#9;&#9;&#9;&#9;&#9;&#9;c6.00342-31.86099,13.79428-62.20029,24.09906-90.39919V0.5269z M439.48846,109.88589&#10;&#9;&#9;&#9;&#9;&#9;&#9;c4.6991,2.713,9.78311,0.051,11.3537-5.9519c1.5686-5.9948-0.97079-13.0581-5.66989-15.77119&#10;&#9;&#9;&#9;&#9;&#9;&#9;c-4.70551-2.71671-9.78952-0.0547-11.358,5.9401c-1.57071,6.003,0.9686,13.0663,5.6741,15.783 M822.56793,331.05685&#10;&#9;&#9;&#9;&#9;&#9;&#9;c4.6991,2.71301,9.78308,0.05103,11.3537-5.95187c1.5686-5.99478-0.97076-13.05807-5.66998-15.77118&#10;&#9;&#9;&#9;&#9;&#9;&#9;c-4.70551-2.71671-9.78949-0.05472-11.35803,5.94009c-1.57062,6.00299,0.96863,13.06628,5.67413,15.78296"/></g></g><path fill="#697A94" d="M426.76471,111.28548c-4.49219,0-8.67679-1.0645-12.39749-3.2129&#10;&#9;&#9;&#9;&#9;c-8.84283-5.0977-13.71091-15.5273-13.71091-29.3457c0-26.72849,18.83301-59.34569,41.97751-72.70509&#10;&#9;&#9;&#9;&#9;c11.9678-6.9141,23.42288-7.9102,32.26556-2.8027c8.84271,5.1075,13.71091,15.5273,13.71091,29.3457&#10;&#9;&#9;&#9;&#9;c0,8.7109-1.9873,18.36909-5.74219,27.9492l-7.4512-2.9297c3.39841-8.6523,5.19531-17.3047,5.19531-25.0195&#10;&#9;&#9;&#9;&#9;c0-10.8398-3.45212-18.7988-9.71191-22.4121c-6.26462-3.6328-14.88281-2.6172-24.2627,2.8027&#10;&#9;&#9;&#9;&#9;c-20.94238,12.0898-37.9834,41.5918-37.9834,65.77149c0,10.8398,3.4473,18.80859,9.71191,22.42189&#10;&#9;&#9;&#9;&#9;c6.25488,3.6133,14.8779,2.6172,24.26761-2.81249l4.00391,6.9336c-6.92871,4.00389-13.69141,6.01559-19.87302,6.01559&#10;&#9;&#9;&#9;&#9;L426.76471,111.28548z"/><path fill="#697A94" d="M807.54108,334.20547c-4.49219,0-8.67682-1.06448-12.40228-3.21289&#10;&#9;&#9;&#9;&#9;c-8.83789-5.09769-13.70612-15.52728-13.70612-29.3457c0-26.72849,18.82812-59.34569,41.97272-72.70508&#10;&#9;&#9;&#9;&#9;c11.97272-6.9043,23.4375-7.89061,32.27051-2.79301c8.83789,5.0977,13.70612,15.51759,13.70612,29.33591&#10;&#9;&#9;&#9;&#9;c0,8.71089-1.9873,18.36909-5.74219,27.9492l-7.45117-2.92972c3.39844-8.65231,5.19531-17.30472,5.19531-25.01949&#10;&#9;&#9;&#9;&#9;c0-10.83981-3.44727-18.79881-9.70703-22.41209c-6.25488-3.6035-14.87793-2.62698-24.26758,2.8027&#10;&#9;&#9;&#9;&#9;c-20.94238,12.08009-37.97845,41.5918-37.97845,65.77148c0,10.83981,3.44727,18.80862,9.70703,22.42191&#10;&#9;&#9;&#9;&#9;c6.26453,3.60352,14.88275,2.60736,24.26752-2.8125l4.00391,6.93359c-6.93359,4.00391-13.69141,6.01556-19.86816,6.01556&#10;&#9;&#9;&#9;&#9;L807.54108,334.20547z"/></g><g><path opacity="0.05" fill="#1A1A1A" d="M30.95763,972.19641&#10;&#9;&#9;&#9;&#9;c14.3412-8.27991,49.2196-1.56732,77.90289,14.99298s40.30989,36.69733,25.96869,44.97723&#10;&#9;&#9;&#9;&#9;c-14.34119,8.28003-49.21959,1.56738-77.90289-14.99298C28.24303,1000.6134,16.61643,980.47638,30.95763,972.19641z" enable-background="new"/><g><path fill="#FFD3D4" d="M130.89291,543.73615c8.3548-15.57153-30.0206-105.87692-37.46359-103.42361&#10;&#9;&#9;&#9;&#9;&#9;c-6.6666,2.19742,12.5008,73.40591,22.2374,90.06931s15.22609,13.35419,15.22609,13.35419L130.89291,543.73615z"/><path fill="#FFD3D4" d="M91.26862,443.97604c1.5427,3.16583-1.4211,10.7131,6.012,9.88022&#10;&#9;&#9;&#9;&#9;&#9;c7.7185-0.8649,7.8645-9.91031,7.2794-11.76138c-3.9791-12.58771-10.695-12.59201-17.0392-12.30173&#10;&#9;&#9;&#9;&#9;&#9;c-6.34421,0.29031,0.5369,7.59369,3.7478,14.18283L91.26862,443.97604z"/><g><path fill="#FFD3D4" d="M12.75583,458.76636c-6.8135,10.94571-4.225,94.35712,7.164,95.08429&#10;&#9;&#9;&#9;&#9;&#9;&#9;c11.389,0.72723,12.30939-40.64459,17.8726-75.23846c5.7056-35.47873-18.2231-30.79153-25.0366-19.84589L12.75583,458.76636z"/><path fill="#FFD3D4" d="M17.40593,538.42712c-13.3763,4.65302-0.2071,100.12592,7.6283,99.97638&#10;&#9;&#9;&#9;&#9;&#9;&#9;c7.0181-0.13385,9.7635-70.54187,5.3895-88.49316S17.40593,538.42712,17.40593,538.42712z"/><path fill="#FFD3D4" d="M34.27363,633.41565c-0.4668-4.68457-3.9451-11.78925-11.4466-12.64368&#10;&#9;&#9;&#9;&#9;&#9;&#9;c-7.7895-0.88721-10.8847,11.2854-10.92,13.94006c-0.2397,18.05273,6.2909,19.84637,12.556,21.14337&#10;&#9;&#9;&#9;&#9;&#9;&#9;S35.24523,643.16577,34.27363,633.41565L34.27363,633.41565z"/></g><path fill="#EDE6EB" d="M37.54893,443.07816c-7.2179,1.3761-18.3176,4.86301-24.7832,12.79419&#10;&#9;&#9;&#9;&#9;&#9;c-10.5141,12.89722-13.437,57.3577-12.6428,58.3334c0.7019,0.86243,10.6152,8.96625,18.1452,8.96692&#10;&#9;&#9;&#9;&#9;&#9;c30.44179,0.00262,19.2808-80.09448,19.2808-80.09448V443.07816z"/><path opacity="0.1" d="M33.52523,469.65286c0,0-5.5068,5.90579-8.0596,10.94827&#10;&#9;&#9;&#9;&#9;&#9;c-6.7295,13.293-11.9252,32.80463,1.6587,38.69098c13.5839,5.88641,6.4009-49.63928,6.4009-49.63928V469.65286z" enable-background="new"/><g><path fill="#EDE6EB" d="M112.23212,480.64606c-1.48501-5.47119-4.0979-11.22559-8.6359-16.55551&#10;&#9;&#9;&#9;&#9;&#9;&#9;c-9.9194-11.65131-26.14339-18.73331-50.1692-22.08063c-4.0714-0.56729-17.9359-2.20068-26.3322,5.65869&#10;&#9;&#9;&#9;&#9;&#9;&#9;c-11.3193,10.5957-5.6955,32.84592-4.418,53.9989c1.3333,22.08047,10.7739,25.7988,4.9664,75.14468&#10;&#9;&#9;&#9;&#9;&#9;&#9;c-4.1199,35.0058,37.2223,46.55206,55.2319,47.09369c18.00959,0.54199,11.1969-11.31067,20.7526-11.10632&#10;&#9;&#9;&#9;&#9;&#9;&#9;c9.5551,0.20374,10.62009-19.15741,8.68349-28.29315c-0.3546-1.67242-0.6451-3.57861-0.838-5.77771&#10;&#9;&#9;&#9;&#9;&#9;&#9;c-0.1392-1.58649,0.0006-3.34552,0.1453-5.26923c0.2002-2.65668,0.4102-5.63739-0.0922-8.99896&#10;&#9;&#9;&#9;&#9;&#9;&#9;c-4.057-27.16803-5.2103-31.02979,4.92369-57.789c0.3152-0.83209,0.603-1.68759,0.8856-2.5452&#10;&#9;&#9;&#9;&#9;&#9;&#9;c2.5266-7.66461-3.4238-17.28989-5.1035-23.48019L112.23212,480.64606z"/><path opacity="0.1" d="M83.96782,520.94934c1.3958,15.8009,18.56841,43.43524,27.6506,52.51013&#10;&#9;&#9;&#9;&#9;&#9;&#9;c0.2002-2.65674,0.4102-5.63739-0.0922-8.99902c-4.057-27.16797-5.2103-31.02979,4.9237-57.78897&#10;&#9;&#9;&#9;&#9;&#9;&#9;c0.3152-0.83209,0.603-1.68759,0.8856-2.5452C104.34412,500.70679,81.83322,496.78506,83.96782,520.94934z" enable-background="new"/></g><path fill="#3C4358" d="M23.67493,658.56067c0,0-11.7743-40.80383,1.3035-80.66028&#10;&#9;&#9;&#9;&#9;&#9;c1.3241-4.03534,0.4362-16.27844,2.8453-16.2738c1.2683,0.00238,23.1493,21.82886,53.0129,21.1908&#10;&#9;&#9;&#9;&#9;&#9;c17.0178-0.36365,30.13059-8.74152,30.7785-8.09363c0.6479,0.64789,1.5822,15.18372,1.5822,15.18372&#10;&#9;&#9;&#9;&#9;&#9;c5.6292,1.5011,5.54671,71.02258,5.54671,71.02258l-95.06899-2.36938H23.67493z"/><g><path fill="#FFC9CA" d="M52.66113,429.99664c-1.4199,6.4646-5.079,13.4082-0.1185,15.66299s19.9652,3.70239,20.303-0.57468&#10;&#9;&#9;&#9;&#9;&#9;&#9;c0.2651-3.35641,1.4684-17.11761-0.0007-18.47052c-1.4691-1.35287-20.1837,3.3822-20.1837,3.3822H52.66113z"/><path fill="#3C4358" d="M100.52792,424.70935c-0.2747,1.86218-2.7689,2.41409-8.24839,1.51169&#10;&#9;&#9;&#9;&#9;&#9;&#9;c0,0,11.1197,6.5079,10.6468-1.1058C102.92632,425.11523,100.52792,424.70935,100.52792,424.70935z"/><path fill="#FFD3D4" d="M38.85523,394.74124c-2.2652,13.76782,2.94469,37.11923,16.9107,41.62628&#10;&#9;&#9;&#9;&#9;&#9;&#9;c17.51329,5.65189,39.74059-1.1102,43.21479-19.18188c6.93-36.0477-5.03199-42.84711-22.935-47.10611&#10;&#9;&#9;&#9;&#9;&#9;&#9;C58.14272,365.82056,41.84282,376.58273,38.85523,394.74124z"/><path fill="#3C4358" d="M88.20422,401.33655c0.9776-2.18948,10.01389-3.2225,13.4585-8.68048&#10;&#9;&#9;&#9;&#9;&#9;&#9;c3.44461-5.45801-3.1624-27.15759-19.8425-31.9726c-31.79449-9.17789-46.72919,9.40222-51.00019,21.00073&#10;&#9;&#9;&#9;&#9;&#9;&#9;s-4.3304,24.27039,7.5248,37.39438c10.2795,11.3797,16.8261,15.15283,28.63639,13.5423&#10;&#9;&#9;&#9;&#9;&#9;&#9;c7.002-0.9549,16.3072-13.84732,14.3369-12.8613c-6.6586,3.33231-8.2207-13.9859-5.3834-17.96609&#10;&#9;&#9;&#9;&#9;&#9;&#9;c1.7169-2.40848,9.7143,3.09738,9.7143,3.09738S87.20502,403.57443,88.20422,401.33655z"/><path fill="#3C4358" d="M27.39863,429.42755c-6.1209-23.27676,12.3001-33.5947,23.6276-28.34756&#10;&#9;&#9;&#9;&#9;&#9;&#9;c11.3275,5.2471-0.0435,31.91132-7.2702,34.47128s-14.6028,0.54901-16.3574-6.12381L27.39863,429.42755z"/><path fill="#3C4358" d="M99.67252,415.67065c-10.443-21.0004,2.80559-26.2688-1.88341-24.46558&#10;&#9;&#9;&#9;&#9;&#9;&#9;c-4.689,1.80301-12.0197,7.03812-12.0197,7.03812c-0.228,4.91116,7.709,14.57697,9.8558,17.32297&#10;&#9;&#9;&#9;&#9;&#9;&#9;c3.3063,4.22903,5.1721,7.31641,4.9026,9.14319l2.39839,0.40588c-0.1257-2.0242-1.06049-5.034-3.2538-9.44461&#10;&#9;&#9;&#9;&#9;&#9;&#9;L99.67252,415.67065z"/></g><path fill="#EDE6EB" d="M29.77733,546.16644c0.0437,1.54364-2.5512,7.70648-2.5899,9.56s-0.5035,6.35211,1.1031,8.18292&#10;&#9;&#9;&#9;&#9;&#9;c0.3407,0.38818,13.8528,12.1344,18.0197,12.05103c1.9112-0.03821,40.246,13.5116,42.43739,5.2467&#10;&#9;&#9;&#9;&#9;&#9;c1.0163-3.83301-57.7957-32.85321-57.99439-33.82184c-0.2989-1.45721-0.9759-1.21875-0.9759-1.21875L29.77733,546.16644z"/><g><g><path fill="#3C4358" d="M38.48112,983.68945c0.3172,2.49481,3.6279,6.59821,3.6279,9.8299&#10;&#9;&#9;&#9;&#9;&#9;&#9;&#9;c0,3.23175-1.0018,8.13348,0.1433,8.60352c0.6482,0.26605,2.421-0.07782,3.0942-1.02045s-1.7638-10.13025,2.2085-13.4292&#10;&#9;&#9;&#9;&#9;&#9;&#9;&#9;s-9.074-3.98364-9.074-3.98364L38.48112,983.68945z"/><path fill="#3C4358" d="M40.44273,964.08728c0,0-6.7573,10.34973-3.7279,18.4281&#10;&#9;&#9;&#9;&#9;&#9;&#9;&#9;c3.0294,8.07837,10.3109,9.14459,14.3844,6.93994s14.7823,4.15033,26.86351,0.50409&#10;&#9;&#9;&#9;&#9;&#9;&#9;&#9;c6.68219-2.01672,20.4429-12.07336,15.26649-16.8869c-1.9427-1.80652-15.2224-0.60071-24.4081,3.5871&#10;&#9;&#9;&#9;&#9;&#9;&#9;&#9;c-4.9503,2.2569-11.7254-3.55463-17.5824-7.2619s-10.796-5.31036-10.796-5.31036V964.08728z"/><path fill="#FFD6D6" d="M37.42523,920.99408c0,0,7.489,30.9975,1.2763,46.28741&#10;&#9;&#9;&#9;&#9;&#9;&#9;&#9;c-0.8939,2.20001,4.7144,0.16571,12.4971,5.04199c2.2632,1.41803,4.3552,7.0675,11.1875,7.34241&#10;&#9;&#9;&#9;&#9;&#9;&#9;&#9;c10.3562,0.41656,18.689,0.83716,12.8757-2.29425c-1.608-0.86615-17.5987-5.36902-19.5848-10.40845&#10;&#9;&#9;&#9;&#9;&#9;&#9;&#9;c-4.1207-10.45612,8.9437-47.0752,8.9437-47.0752S37.42523,920.99408,37.42523,920.99408z"/></g><path fill="#3C4358" d="M75.59483,776.40741c0,0-4.66,80.72028-4.02171,156.88916&#10;&#9;&#9;&#9;&#9;&#9;&#9;c0.0362,4.31873-16.42489,9.29529-21.0701,9.50531c-5.68019,0.25684-20.69449-4.89563-20.2519-12.91394&#10;&#9;&#9;&#9;&#9;&#9;&#9;c2.5387-45.99567-3.5958-96.65369-4.6268-160.05115c-0.5046-31.02966,49.97039,6.57068,49.97039,6.57068L75.59483,776.40741z"/><path fill="#3C4358" d="M23.51013,622.40265c0.0309,131.04498,2.8919,157.84973,3.8907,190.26099&#10;&#9;&#9;&#9;&#9;&#9;&#9;c0.2076,6.73602,19.2396,15.43939,24.9472,13.43829c35.4963-12.44501,24.84139-128.17419,30.3327-174.69562&#10;&#9;&#9;&#9;&#9;&#9;&#9;C88.08703,605.60468,23.50333,593.62604,23.51013,622.40265z"/></g><path opacity="0.1" fill="#1A1A1A" d="M65.15102,879.77716l0.9669-236.37384&#10;&#9;&#9;&#9;&#9;&#9;c-2.912-0.00269-5.3353,7.44617-6.9946,12.99139c-5.2566-4.27588-13.0466-30.4856-13.0466-30.4856&#10;&#9;&#9;&#9;&#9;&#9;c-0.3424,9.59125,5.3341,31.15173,8.0367,34.94635c-7.1185,42.7373-0.9925,166.92908,11.0375,218.92157L65.15102,879.77716z" enable-background="new"/><g><g><path fill="#3C4358" d="M74.87453,1005.91846c0.3172,2.49481,3.6279,6.59821,3.6279,9.8299&#10;&#9;&#9;&#9;&#9;&#9;&#9;&#9;c0,3.23175-1.0018,8.13348,0.1433,8.60345c0.6482,0.26611,2.42101-0.07776,3.0942-1.02039&#10;&#9;&#9;&#9;&#9;&#9;&#9;&#9;c0.6732-0.94263-1.76379-10.13025,2.2085-13.4292s-9.074-3.98364-9.074-3.98364L74.87453,1005.91846z"/><path fill="#3C4358" d="M76.83612,986.31641c0,0-6.75729,10.34973-3.7279,18.42816&#10;&#9;&#9;&#9;&#9;&#9;&#9;&#9;c3.0294,8.07837,10.31091,9.14459,14.3844,6.93988c4.07349-2.20465,14.7823,4.15033,26.86349,0.50409&#10;&#9;&#9;&#9;&#9;&#9;&#9;&#9;c6.6822-2.01666,20.44291-12.07336,15.26649-16.8869c-1.9427-1.80646-15.22239-0.60065-24.4081,3.5871&#10;&#9;&#9;&#9;&#9;&#9;&#9;&#9;c-4.9503,2.25696-11.7254-3.55457-17.58239-7.26184c-5.857-3.70728-10.796-5.31036-10.796-5.31036V986.31641z"/><path fill="#FFD6D6" d="M73.81852,943.22321c0,0,7.489,30.99744,1.2763,46.28735&#10;&#9;&#9;&#9;&#9;&#9;&#9;&#9;c-0.8939,2.20001,4.7144,0.16571,12.4971,5.04193c2.2632,1.41803,4.3552,7.0675,11.18749,7.34241&#10;&#9;&#9;&#9;&#9;&#9;&#9;&#9;c10.3562,0.41656,18.689,0.83716,12.8757-2.29425c-1.608-0.86615-17.59869-5.36902-19.5848-10.40845&#10;&#9;&#9;&#9;&#9;&#9;&#9;&#9;c-4.1207-10.45612,8.9437-47.0752,8.9437-47.0752l-27.1955,1.10608V943.22321z"/></g><g><path fill="#3C4358" d="M114.97642,801.90222c0,0-4.2735,80.67279-3.6352,156.84174&#10;&#9;&#9;&#9;&#9;&#9;&#9;&#9;c0.0362,4.31866-16.4249,9.29529-21.07009,9.50531c-5.6802,0.25677-20.6945-4.89563-20.25191-12.91394&#10;&#9;&#9;&#9;&#9;&#9;&#9;&#9;c2.5387-45.99567-17.19349-131.33142,1.4463-148.68427c22.71439-21.146,43.51079-4.74878,43.51079-4.74878&#10;&#9;&#9;&#9;&#9;&#9;&#9;&#9;L114.97642,801.90222z"/><path fill="#3C4358" d="M58.76553,632.16656c1.3362,89.25,2.1885,165.00574,5.0447,197.6059&#10;&#9;&#9;&#9;&#9;&#9;&#9;&#9;c0.6813,7.77618,50.8261-20.89764,51.1662-27.87036c1.4346-29.41321,3.7555-87.1582,3.7555-134.53143&#10;&#9;&#9;&#9;&#9;&#9;&#9;&#9;c0-76.03693-60.39719-63.97754-59.96639-35.20416L58.76553,632.16656z"/></g></g><g><path fill="#FFD3D4" d="M115.12232,474.33347c9.46769,9.44629,23.57009,70.05917,12.7038,73.54727&#10;&#9;&#9;&#9;&#9;&#9;&#9;s-17.4158-13.6748-31.83469-47.38788c-14.7877-34.57538,9.6631-35.6058,19.1308-26.15952L115.12232,474.33347z"/><path fill="#EDE6EB" d="M88.99592,506.65424c2.7556,4.43759,3.6382,32.30768,13.365,35.14648&#10;&#9;&#9;&#9;&#9;&#9;&#9;c12.6454,3.69061,30.30099-11.29962,30.30099-11.29962s-6.94749-41.78827-10.9427-49.52386&#10;&#9;&#9;&#9;&#9;&#9;&#9;c-3.6199-7.00888-22.7678-22.68106-26.85939-24.3064c-4.0916-1.62534-14.2686,36.44839-5.86391,49.98346V506.65424z"/></g><path fill="#FFCCCC" d="M48.06353,441.63998c-0.7007,0.17038-1.8967,0.82779-1.6052,1.84927&#10;&#9;&#9;&#9;&#9;&#9;c0.2915,1.02151,5.6637,6.13141,12.6386,6.67871c4.8964,0.38428,19.5688,3.14737,20.5927-1.26532&#10;&#9;&#9;&#9;&#9;&#9;c0.67079-2.89069-27.1237-8.35748-31.6261-7.26279L48.06353,441.63998z"/></g></g></g></g></svg>