<svg xmlns="http://www.w3.org/2000/svg" xmlns:xlink="http://www.w3.org/1999/xlink" version="1.1" id="_レイヤー_2" x="0px" y="0px" viewBox="0 0 574.89771 953.76001" enable-background="new 0 0 574.89771 953.76001" width="575px" height="954px" class="lg:!max-h-[405px] isometric rectangleModalImage"><title>円グラフ</title><g id="_レイヤー_2-2"><g><g><g><path fill="#1B73A1" d="M77.8536,70.2212C55.9646,95.5954,43.2,133.84729,43.2,182.91701&#10;&#9;&#9;&#9;&#9;&#9;c0,64.114,21.7751,134.92601,57.24979,198.45653l142.5433-82.29272L77.8536,70.2212z"/><path fill="#1B73A1" d="M34.6536,95.4212C12.7646,120.7955,0,159.04741,0,208.1171&#10;&#9;&#9;&#9;&#9;&#9;c0,64.11401,21.7751,134.92599,57.2498,198.45651l142.54329-82.29272L34.6536,95.4212z"/><polygon fill="#1B73A1" points="34.6536,95.4212 77.8536,70.2212 242.9931,299.0809 199.79309,324.28088"/><path opacity="0.4" fill="#FFFFFF" d="M34.6536,95.4212C12.7646,120.7955,0,159.04741,0,208.1171&#10;&#9;&#9;&#9;&#9;&#9;c0,64.11401,21.7751,134.92599,57.2498,198.45651l142.54329-82.29272L34.6536,95.4212z" enable-background="new"/><polygon opacity="0.1" enable-background="new" points="34.6536,95.4212 77.8536,70.2212 242.9931,299.0809 &#10;&#9;&#9;&#9;&#9;&#9;199.79309,324.28088"/></g><g><path fill="#1B73A1" d="M245.8499,288.39169V60C179.4137,23.5256,82.74599,48.1903,45.8478,84.5107L245.8499,288.39169&#10;&#9;&#9;&#9;&#9;&#9;L245.8499,288.39169z"/><path opacity="0.05" d="M245.8499,288.39169V60C179.4137,23.5256,82.74599,48.1903,45.8478,84.5107&#10;&#9;&#9;&#9;&#9;&#9;L245.8499,288.39169L245.8499,288.39169z" enable-background="new"/><polygon fill="#1B73A1" points="202.6499,85.2 245.8499,60 245.8499,288.39169 202.6499,313.59171"/><path fill="#1B73A1" d="M202.6499,313.59171V85.2C136.2137,48.72561,77.518,52.7206,40.61979,89.041L202.6499,313.59171z"/><polygon opacity="0.2" enable-background="new" points="202.6499,85.2 245.8499,60 245.8499,288.39169 202.6499,313.59171"/><path opacity="0.6" fill="#FFFFFF" d="M202.6499,313.59171V85.2&#10;&#9;&#9;&#9;&#9;&#9;C136.2137,48.72561,77.518,52.7206,40.61979,89.041L202.6499,313.59171z" enable-background="new"/></g><g><path fill="#1B73A1" d="M372.24768,0l-86.39996,50.4l145.40039,489.26724l86.39996-50.40002&#10;&#9;&#9;&#9;&#9;&#9;c35.47443-22.56793,57.24963-68.23621,57.24963-132.3501C574.89771,226.37862,484.63699,68.07242,372.24768,0z"/><path opacity="0.05" d="M372.24768,0l-86.39996,50.4l145.40039,489.26724l86.39996-50.40002&#10;&#9;&#9;&#9;&#9;&#9;c35.47443-22.56793,57.24963-68.23621,57.24963-132.3501C574.89771,226.37862,484.63699,68.07242,372.24768,0z" enable-background="new"/><path fill="#1B73A1" d="M285.84781,287.8316l145.40021,251.83563c35.4747-22.56805,57.24979-68.23624,57.24979-132.35022&#10;&#9;&#9;&#9;&#9;&#9;c0-130.53851-90.2608-288.8446-202.6499-356.91711v237.43158L285.84781,287.8316z"/></g><g><path fill="#1B73A1" d="M251.04611,311.4024L107.7985,394.10172c37.2826,62.48642,87.7216,116.7504,143.24762,148.80838&#10;&#9;&#9;&#9;&#9;&#9;c55.526,32.05804,105.965,36.03583,143.24759,16.59973L251.04611,311.4024L251.04611,311.4024z"/><path fill="#1B73A1" d="M207.8461,336.60242L64.5985,419.3017c37.2826,62.48639,87.7216,116.75043,143.24759,148.80841&#10;&#9;&#9;&#9;&#9;&#9;s105.965,36.03577,143.24762,16.59967L207.8461,336.60242z"/><path opacity="0.15" fill="#FFFFFF" d="M207.8461,336.60242L64.5985,419.3017&#10;&#9;&#9;&#9;&#9;&#9;c37.2826,62.48639,87.7216,116.75043,143.24759,148.80841s105.965,36.03577,143.24762,16.59967L207.8461,336.60242z" enable-background="new"/><polygon fill="#1B73A1" points="251.04611,311.4024 207.8461,336.60242 351.09372,584.70984 394.2937,559.50983"/><polygon opacity="0.1" enable-background="new" points="251.04611,311.4024 207.8461,336.60242 351.09372,584.70984 &#10;&#9;&#9;&#9;&#9;&#9;394.2937,559.50983"/></g></g><polygon opacity="0.05" enable-background="new" points="499.45111,859.56189 499.45111,859.56189 449.5679,830.76184 &#10;&#9;&#9;&#9;340.44879,767.7619 340.44879,767.7619 83.759,619.56189 26.6028,652.56104 283.29291,800.76105 226.1368,833.76001 &#10;&#9;&#9;&#9;433.98288,953.76001 548.29492,887.7619"/></g></g></svg>