<svg xmlns="http://www.w3.org/2000/svg" xmlns:xlink="http://www.w3.org/1999/xlink" version="1.1" id="_レイヤー_2" x="0px" y="0px" viewBox="0 0 1044.37305 749.25537" enable-background="new 0 0 1044.37305 749.25537" width="1044px" height="749px" class="lg:!max-h-[405px] isometric rectangleModalImage"><title>削減</title><g id="_2"><g><path opacity="0.05" d="M616.38617,603.48291c57.76129,33.34851,58.06561,87.41461,0.67975,120.76361&#10;&#9;&#9;&#9;c-57.37952,33.34534-150.71973,33.34576-208.48102-0.00269c-57.76169-33.34869-58.06598-87.41473-0.68649-120.76007&#10;&#9;&#9;&#9;c57.38589-33.349,150.72598-33.34955,208.4877-0.00085H616.38617z" enable-background="new"/><g><path fill="#1c72a1" d="M655.55518,572.50128c0.42041-21.61328-13.65723-43.32617-42.22272-59.81842&#10;&#9;&#9;&#9;&#9;c-56.06396-32.36868-146.66058-32.36819-202.35986,0.00098c-27.75589,16.12994-41.60211,37.25494-41.57281,58.39703&#10;&#9;&#9;&#9;&#9;c0-0.06793-0.00388-0.13568-0.00339-0.20361l-0.23138,81.51605c-0.06009,21.34778,14.02982,42.72852,42.24271,59.01715&#10;&#9;&#9;&#9;&#9;c1.68701,0.97412,3.4082,1.91498,5.15619,2.83057c0.57962,0.30371,1.17773,0.58838,1.7637,0.88531&#10;&#9;&#9;&#9;&#9;c1.18118,0.59912,2.36276,1.19781,3.56931,1.77051c0.71478,0.33942,1.44678,0.66058,2.17041,0.99121&#10;&#9;&#9;&#9;&#9;c1.10297,0.50336,2.20557,1.00671,3.32806,1.48932c0.78421,0.33691,1.58151,0.65814,2.37451,0.98486&#10;&#9;&#9;&#9;&#9;c0.76221,0.31348,1.5112,0.64209,2.28119,0.9458c0.39362,0.15533,0.79541,0.29987,1.19092,0.45258&#10;&#9;&#9;&#9;&#9;c0.49658,0.19189,0.99609,0.38043,1.49609,0.56842c1.46829,0.55219,2.94867,1.0874,4.44287,1.60498&#10;&#9;&#9;&#9;&#9;c0.34723,0.12061,0.68991,0.24658,1.0386,0.36469c1.80371,0.61334,3.62653,1.19873,5.46478,1.76221&#10;&#9;&#9;&#9;&#9;c0.45609,0.14014,0.91647,0.27258,1.375,0.40918c0.78912,0.23584,1.57373,0.47852,2.36871,0.70514&#10;&#9;&#9;&#9;&#9;c0.82956,0.23627,1.66647,0.46088,2.50198,0.68744c0.24658,0.06696,0.49066,0.13672,0.7373,0.20264&#10;&#9;&#9;&#9;&#9;c1.85742,0.49609,3.73099,0.96338,5.61517,1.41113c0.3623,0.08594,0.72363,0.17145,1.08691,0.25592&#10;&#9;&#9;&#9;&#9;c1.65326,0.3833,3.31247,0.75537,4.98438,1.10162c0.1611,0.03369,0.32571,0.06012,0.48682,0.09277&#10;&#9;&#9;&#9;&#9;c1.47015,0.30127,2.95309,0.57178,4.43549,0.84418c0.80133,0.14746,1.59518,0.30963,2.3999,0.44824&#10;&#9;&#9;&#9;&#9;c1.93457,0.33398,3.88229,0.63428,5.83499,0.91986c0.3447,0.05078,0.6846,0.11383,1.02982,0.1626&#10;&#9;&#9;&#9;&#9;c0.01709,0.00232,0.03522,0.00391,0.05219,0.00635c2.26898,0.32123,4.5488,0.60986,6.83691,0.86615&#10;&#9;&#9;&#9;&#9;c0.52438,0.05859,1.05267,0.09857,1.57758,0.15381c1.76764,0.18597,3.53564,0.36816,5.31152,0.51514&#10;&#9;&#9;&#9;&#9;c0.0444,0.00385,0.08887,0.00928,0.1333,0.01318c0.78809,0.06494,1.58057,0.10352,2.37009,0.16058&#10;&#9;&#9;&#9;&#9;c1.47562,0.10742,2.94974,0.22021,4.42923,0.30084c0.94818,0.05182,1.8989,0.07758,2.84857,0.11816&#10;&#9;&#9;&#9;&#9;c1.3696,0.05914,2.7388,0.125,4.11078,0.16113c0.11182,0.00293,0.22363,0.01031,0.33539,0.01324&#10;&#9;&#9;&#9;&#9;c0.76514,0.01898,1.53174,0.01117,2.29742,0.02338c1.49316,0.02289,2.98538,0.04883,4.479,0.04498&#10;&#9;&#9;&#9;&#9;c0.97607-0.00201,1.95117-0.02643,2.92676-0.04004c1.39313-0.01996,2.78558-0.03802,4.17719-0.08105&#10;&#9;&#9;&#9;&#9;c0.25781-0.0083,0.5166-0.00635,0.77496-0.01514c1.61041-0.05524,3.21832-0.13092,4.82471-0.21777&#10;&#9;&#9;&#9;&#9;c0.34723-0.01868,0.69287-0.04053,1.03955-0.06055c2.05133-0.11908,4.10016-0.25623,6.14264-0.42676&#10;&#9;&#9;&#9;&#9;c0.07275-0.00586,0.14502-0.01373,0.21777-0.02002c1.2168-0.10242,2.43164-0.21185,3.64398-0.33246&#10;&#9;&#9;&#9;&#9;c0.69244-0.06885,1.38184-0.15192,2.07281-0.22662c0.49902-0.05414,0.99756-0.10645,1.49561-0.16357&#10;&#9;&#9;&#9;&#9;c1.98236-0.22748,3.95996-0.4751,5.92719-0.75146c0.29047-0.04102,0.57861-0.08789,0.86865-0.12994&#10;&#9;&#9;&#9;&#9;c1.72662-0.24902,3.44482-0.51947,5.15674-0.80658c0.50592-0.08453,1.01068-0.16895,1.51508-0.25726&#10;&#9;&#9;&#9;&#9;c0.40381-0.07025,0.81104-0.1333,1.21442-0.20605c0.71387-0.12897,1.4165-0.28375,2.12738-0.41895&#10;&#9;&#9;&#9;&#9;c1.24951-0.23779,2.49713-0.47705,3.73682-0.73578c1.01715-0.21185,2.02594-0.43854,3.03613-0.66406&#10;&#9;&#9;&#9;&#9;c1.21973-0.27252,2.43597-0.54932,3.64496-0.8418c1.00781-0.24408,2.00781-0.50006,3.00732-0.75787&#10;&#9;&#9;&#9;&#9;c1.19293-0.30804,2.38129-0.62262,3.5625-0.95013c0.99371-0.27588,1.98102-0.56055,2.96582-0.85059&#10;&#9;&#9;&#9;&#9;c1.16748-0.34375,2.32764-0.69684,3.48193-1.06055c0.50488-0.15918,1.02148-0.30127,1.52386-0.46387&#10;&#9;&#9;&#9;&#9;c0.71002-0.23047,1.40869-0.47559,2.11334-0.71289c0.43304-0.14648,0.86865-0.28955,1.29974-0.43848&#10;&#9;&#9;&#9;&#9;c1.78027-0.61627,3.54388-1.25348,5.28662-1.91809c0.32422-0.12347,0.64307-0.25433,0.96631-0.37982&#10;&#9;&#9;&#9;&#9;c1.47412-0.57233,2.93256-1.16315,4.37738-1.77106c0.43951-0.18506,0.87988-0.36871,1.31689-0.55707&#10;&#9;&#9;&#9;&#9;c1.69733-0.73145,3.37744-1.48138,5.02985-2.26221c0.19476-0.09229,0.38477-0.18951,0.5791-0.28265&#10;&#9;&#9;&#9;&#9;c1.47998-0.70648,2.9375-1.43646,4.37836-2.18359c0.42334-0.21973,0.84576-0.43958,1.26611-0.6626&#10;&#9;&#9;&#9;&#9;c1.60254-0.85065,3.18903-1.71735,4.73883-2.61774c0.58838-0.3418,1.17035-0.68604,1.74658-1.03217&#10;&#9;&#9;&#9;&#9;c0.13281-0.08014,0.25983-0.16217,0.39258-0.24274c0.44824-0.27155,0.88873-0.54584,1.32916-0.82031&#10;&#9;&#9;&#9;&#9;c0.39838-0.24847,0.79828-0.49603,1.19037-0.74658c0.43463-0.27692,0.86041-0.55658,1.28711-0.83643&#10;&#9;&#9;&#9;&#9;c0.38483-0.25238,0.771-0.50439,1.14941-0.7583c0.42145-0.2832,0.83405-0.56927,1.24762-0.85449&#10;&#9;&#9;&#9;&#9;c0.36963-0.25586,0.7417-0.51031,1.10553-0.76758c0.4082-0.28864,0.80707-0.58063,1.20746-0.87158&#10;&#9;&#9;&#9;&#9;c0.35553-0.25879,0.71393-0.5166,1.06305-0.77692c0.39447-0.29388,0.77881-0.59125,1.16498-0.8877&#10;&#9;&#9;&#9;&#9;c0.3418-0.26166,0.68701-0.52252,1.02252-0.78656c0.38379-0.30182,0.75677-0.60638,1.13281-0.91058&#10;&#9;&#9;&#9;&#9;c0.32367-0.26166,0.65088-0.52252,0.96869-0.78558c0.37299-0.30963,0.73486-0.62213,1.10004-0.93408&#10;&#9;&#9;&#9;&#9;c0.30762-0.26263,0.62012-0.52435,0.92194-0.78857c0.36279-0.31793,0.71387-0.63873,1.06836-0.95898&#10;&#9;&#9;&#9;&#9;c0.25543-0.23053,0.51862-0.45898,0.76953-0.69037c0.02826-0.02643,0.05469-0.05371,0.08301-0.08014&#10;&#9;&#9;&#9;&#9;c0.74707-0.69092,1.47217-1.38818,2.18018-2.08893c0.18854-0.18646,0.37012-0.37451,0.55573-0.56152&#10;&#9;&#9;&#9;&#9;c0.53027-0.53522,1.05029-1.07233,1.55859-1.61279c0.20746-0.22015,0.41406-0.44037,0.61774-0.66162&#10;&#9;&#9;&#9;&#9;c0.5542-0.60211,1.09467-1.20752,1.62158-1.81586c0.10352-0.11963,0.2124-0.23828,0.31488-0.35846&#10;&#9;&#9;&#9;&#9;c0.61816-0.72272,1.21338-1.4502,1.79297-2.18115c0.04828-0.06104,0.10162-0.12109,0.1499-0.18256&#10;&#9;&#9;&#9;&#9;c0.14008-0.17767,0.26862-0.35742,0.40619-0.53558c0.32184-0.4165,0.64008-0.83301,0.94916-1.25195&#10;&#9;&#9;&#9;&#9;c0.1958-0.26465,0.38623-0.53082,0.57709-0.79645c0.29102-0.40619,0.57709-0.81354,0.85693-1.22223&#10;&#9;&#9;&#9;&#9;c0.18512-0.27051,0.36823-0.54102,0.54834-0.81201c0.2749-0.41455,0.54156-0.82959,0.8042-1.24609&#10;&#9;&#9;&#9;&#9;c0.16602-0.26324,0.33405-0.52588,0.49506-0.78955c0.27393-0.44733,0.53613-0.89655,0.79645-1.34625&#10;&#9;&#9;&#9;&#9;c0.10602-0.18353,0.22119-0.36566,0.32471-0.54932c0.0293-0.05182,0.05524-0.10352,0.08405-0.15533&#10;&#9;&#9;&#9;&#9;c0.22168-0.39496,0.43115-0.79199,0.64209-1.18848c0.13715-0.25781,0.28027-0.51514,0.41309-0.77344&#10;&#9;&#9;&#9;&#9;c0.23395-0.45508,0.45361-0.91205,0.67334-1.36865c0.09662-0.20123,0.2002-0.40094,0.29437-0.60217&#10;&#9;&#9;&#9;&#9;c0.30811-0.65967,0.60248-1.32025,0.88226-1.9834c0.04596-0.10938,0.08594-0.21918,0.13135-0.32861&#10;&#9;&#9;&#9;&#9;c0.22949-0.55365,0.45355-1.1084,0.6626-1.66455c0.00928-0.02344,0.01953-0.04694,0.02832-0.07025&#10;&#9;&#9;&#9;&#9;c0.09467-0.25201,0.17676-0.50537,0.26752-0.75787c0.13617-0.38092,0.27643-0.76172,0.40332-1.14355&#10;&#9;&#9;&#9;&#9;c0.09662-0.28961,0.18207-0.58008,0.27344-0.86957c0.11615-0.37067,0.23535-0.74078,0.34277-1.11188&#10;&#9;&#9;&#9;&#9;c0.08691-0.29828,0.1626-0.59766,0.24371-0.89648c0.09808-0.36279,0.19861-0.72565,0.28857-1.08942&#10;&#9;&#9;&#9;&#9;c0.07568-0.30573,0.1416-0.61279,0.21088-0.91888c0.08148-0.3584,0.16547-0.71631,0.23883-1.07471&#10;&#9;&#9;&#9;&#9;c0.01318-0.06445,0.02979-0.12891,0.04248-0.19287c0.04791-0.23877,0.08398-0.47797,0.12842-0.71631&#10;&#9;&#9;&#9;&#9;c0.06787-0.36719,0.13715-0.73389,0.19678-1.10156c0.04926-0.30664,0.09076-0.61334,0.13477-0.92041&#10;&#9;&#9;&#9;&#9;c0.05182-0.36334,0.10455-0.72711,0.14795-1.09082c0.03711-0.31097,0.06689-0.62207,0.09814-0.93304&#10;&#9;&#9;&#9;&#9;c0.03607-0.36041,0.07227-0.7207,0.10059-1.08112c0.02441-0.31403,0.04205-0.62787,0.06055-0.94238&#10;&#9;&#9;&#9;&#9;c0.02051-0.3584,0.04095-0.71631,0.05371-1.0752c0.00439-0.11621,0.01416-0.23242,0.01758-0.34857&#10;&#9;&#9;&#9;&#9;c0.01221-0.41895,0.01862-0.83795,0.02002-1.25677l0.23102-81.51666c-0.00055,0.26764-0.01373,0.53522-0.01862,0.80273H655.55518&#10;&#9;&#9;&#9;&#9;z"/><path opacity="0.1" fill="#FFFFFF" d="M613.33228,512.68298&#10;&#9;&#9;&#9;&#9;c56.06348,32.36835,56.35889,84.84534,0.65973,117.21411c-55.69299,32.36517-146.28961,32.36554-202.35321-0.00275&#10;&#9;&#9;&#9;&#9;c-56.0639-32.36847-56.35928-84.84546-0.66632-117.21069c55.69922-32.36877,146.29584-32.36917,202.35968-0.00067H613.33228z" enable-background="new"/></g><g><path fill="#1c72a1" d="M673.521,484.707c0.42035-21.61331-13.65723-43.3262-42.22272-59.81839&#10;&#9;&#9;&#9;&#9;c-56.06403-32.36871-146.66064-32.36819-202.35992,0.00098c-27.75586,16.12994-41.60208,37.25491-41.57278,58.397&#10;&#9;&#9;&#9;&#9;c0-0.0679-0.00388-0.13568-0.00339-0.20358l-0.23141,81.51611c-0.06009,21.34766,14.02982,42.72852,42.24271,59.01709&#10;&#9;&#9;&#9;&#9;c1.68701,0.97412,3.4082,1.91504,5.15622,2.83057c0.57959,0.30371,1.1777,0.58844,1.76367,0.88531&#10;&#9;&#9;&#9;&#9;c1.18118,0.59912,2.36279,1.19781,3.56931,1.77057c0.71478,0.33936,1.44681,0.66058,2.17041,0.99121&#10;&#9;&#9;&#9;&#9;c1.10297,0.50336,2.20557,1.00677,3.32809,1.48926c0.78418,0.33691,1.58151,0.6582,2.37448,0.98492&#10;&#9;&#9;&#9;&#9;c0.76224,0.31348,1.5112,0.64209,2.28119,0.9458c0.39362,0.15533,0.79541,0.2998,1.19092,0.45264&#10;&#9;&#9;&#9;&#9;c0.49661,0.19189,0.99609,0.38037,1.49609,0.56836c1.46832,0.55225,2.94867,1.08746,4.4429,1.60504&#10;&#9;&#9;&#9;&#9;c0.3472,0.12054,0.68988,0.24658,1.0386,0.36469c1.80368,0.61328,3.6265,1.19867,5.46478,1.76215&#10;&#9;&#9;&#9;&#9;c0.45605,0.14014,0.91647,0.27252,1.375,0.40924c0.78909,0.23578,1.5737,0.47852,2.36868,0.70508&#10;&#9;&#9;&#9;&#9;c0.82959,0.23633,1.6665,0.46094,2.50198,0.68756c0.24658,0.06689,0.49069,0.13672,0.7373,0.20264&#10;&#9;&#9;&#9;&#9;c1.85742,0.49603,3.73102,0.96338,5.6152,1.41113c0.36227,0.08588,0.7236,0.17139,1.08688,0.25586&#10;&#9;&#9;&#9;&#9;c1.65329,0.3833,3.3125,0.75537,4.98441,1.10162c0.1611,0.03375,0.32568,0.06012,0.48679,0.09277&#10;&#9;&#9;&#9;&#9;c1.47018,0.30127,2.95312,0.57184,4.43549,0.84418c0.80133,0.14746,1.59521,0.30963,2.3999,0.44824&#10;&#9;&#9;&#9;&#9;c1.9346,0.33398,3.88232,0.63428,5.83502,0.91986c0.3447,0.05084,0.68457,0.11383,1.02982,0.1626&#10;&#9;&#9;&#9;&#9;c0.01709,0.00238,0.03519,0.00391,0.05219,0.00635c2.26898,0.32123,4.5488,0.60986,6.83688,0.86615&#10;&#9;&#9;&#9;&#9;c0.52441,0.05859,1.0527,0.09857,1.57761,0.15381c1.76761,0.18604,3.53561,0.36816,5.31149,0.51514&#10;&#9;&#9;&#9;&#9;c0.04443,0.00391,0.0889,0.00928,0.1333,0.01318c0.78812,0.06494,1.58057,0.10352,2.37012,0.16064&#10;&#9;&#9;&#9;&#9;c1.47559,0.10742,2.94971,0.22015,4.4292,0.30078c0.94818,0.05182,1.89893,0.07764,2.84857,0.11816&#10;&#9;&#9;&#9;&#9;c1.36963,0.05914,2.73883,0.125,4.11078,0.16113c0.11182,0.00293,0.22363,0.01031,0.33545,0.01324&#10;&#9;&#9;&#9;&#9;c0.76508,0.01898,1.53168,0.01117,2.29736,0.02338c1.49316,0.02295,2.98541,0.04883,4.479,0.04498&#10;&#9;&#9;&#9;&#9;c0.97607-0.00201,1.95123-0.02643,2.92676-0.03998c1.39313-0.02002,2.78564-0.03809,4.17725-0.08112&#10;&#9;&#9;&#9;&#9;c0.25781-0.0083,0.5166-0.00635,0.7749-0.01508c1.61041-0.0553,3.21832-0.13098,4.82471-0.21783&#10;&#9;&#9;&#9;&#9;c0.34723-0.01862,0.69293-0.04053,1.03961-0.06049c2.05127-0.11914,4.1001-0.25629,6.14258-0.42682&#10;&#9;&#9;&#9;&#9;c0.07281-0.00586,0.14502-0.01373,0.21777-0.01996c1.21686-0.10248,2.43164-0.21191,3.64398-0.33252&#10;&#9;&#9;&#9;&#9;c0.69244-0.06885,1.38184-0.15192,2.07281-0.22656c0.49902-0.0542,0.99762-0.10645,1.49561-0.16357&#10;&#9;&#9;&#9;&#9;c1.98236-0.22754,3.96002-0.4751,5.92719-0.75153c0.29053-0.04095,0.57861-0.08789,0.86871-0.12994&#10;&#9;&#9;&#9;&#9;c1.72656-0.24902,3.44476-0.51947,5.15668-0.80658c0.50592-0.08453,1.01074-0.16888,1.51508-0.25726&#10;&#9;&#9;&#9;&#9;c0.40381-0.07025,0.81104-0.1333,1.21442-0.20605c0.71387-0.12891,1.4165-0.28375,2.12744-0.41895&#10;&#9;&#9;&#9;&#9;c1.24951-0.23779,2.49707-0.47705,3.73682-0.73578c1.01709-0.21185,2.02588-0.43854,3.03607-0.66406&#10;&#9;&#9;&#9;&#9;c1.21973-0.27252,2.43597-0.54932,3.64502-0.8418c1.00775-0.24408,2.00775-0.50006,3.00726-0.75787&#10;&#9;&#9;&#9;&#9;c1.19293-0.30804,2.38135-0.62262,3.56256-0.9502c0.99365-0.27588,1.98102-0.56049,2.96576-0.85059&#10;&#9;&#9;&#9;&#9;c1.16754-0.34381,2.32764-0.69678,3.48193-1.06049c0.50488-0.15918,1.02148-0.30127,1.52393-0.46393&#10;&#9;&#9;&#9;&#9;c0.70996-0.23047,1.40869-0.47559,2.11328-0.71289c0.43311-0.14648,0.86865-0.28955,1.2998-0.43848&#10;&#9;&#9;&#9;&#9;c1.78027-0.61621,3.54388-1.25342,5.28656-1.91797c0.32422-0.12347,0.64307-0.25439,0.96631-0.37994&#10;&#9;&#9;&#9;&#9;c1.47412-0.57233,2.93256-1.16309,4.37738-1.771c0.43951-0.18506,0.87994-0.36871,1.31696-0.55707&#10;&#9;&#9;&#9;&#9;c1.69727-0.73145,3.37738-1.48145,5.02979-2.26221c0.19482-0.09235,0.38477-0.18951,0.5791-0.28271&#10;&#9;&#9;&#9;&#9;c1.47998-0.70648,2.9375-1.43652,4.37836-2.18359c0.42334-0.21973,0.84576-0.43951,1.26611-0.6626&#10;&#9;&#9;&#9;&#9;c1.60254-0.85065,3.18903-1.71735,4.73883-2.61774c0.58844-0.3418,1.17035-0.68597,1.74658-1.03217&#10;&#9;&#9;&#9;&#9;c0.13281-0.08014,0.25983-0.16211,0.39264-0.24274c0.44818-0.27148,0.88867-0.54584,1.3291-0.82031&#10;&#9;&#9;&#9;&#9;c0.39838-0.24847,0.79828-0.49609,1.19043-0.74658c0.43457-0.27692,0.86035-0.55664,1.28711-0.83643&#10;&#9;&#9;&#9;&#9;c0.38477-0.25244,0.771-0.50439,1.14941-0.7583c0.42139-0.2832,0.83398-0.56927,1.24756-0.85449&#10;&#9;&#9;&#9;&#9;c0.36957-0.25586,0.74176-0.51025,1.10553-0.76758c0.40814-0.28857,0.80707-0.58063,1.20746-0.87158&#10;&#9;&#9;&#9;&#9;c0.35559-0.25879,0.71393-0.5166,1.06305-0.77692c0.39447-0.29388,0.77881-0.59131,1.16498-0.8877&#10;&#9;&#9;&#9;&#9;c0.3418-0.26172,0.68701-0.52252,1.02252-0.78662c0.38385-0.30182,0.75684-0.60638,1.13281-0.91058&#10;&#9;&#9;&#9;&#9;c0.32367-0.26166,0.65082-0.52252,0.96869-0.78558c0.37299-0.30963,0.73486-0.62213,1.1001-0.93414&#10;&#9;&#9;&#9;&#9;c0.30762-0.2627,0.62012-0.52435,0.92194-0.78857c0.36273-0.31793,0.71387-0.63873,1.06842-0.95905&#10;&#9;&#9;&#9;&#9;c0.25543-0.23047,0.51855-0.45898,0.76947-0.69037c0.02832-0.02643,0.05475-0.05371,0.08301-0.08014&#10;&#9;&#9;&#9;&#9;c0.74707-0.69092,1.47217-1.38818,2.18018-2.08887c0.18854-0.18652,0.37012-0.37451,0.55573-0.56146&#10;&#9;&#9;&#9;&#9;c0.53033-0.53522,1.05029-1.07233,1.55859-1.61285c0.20752-0.22015,0.41418-0.44037,0.61768-0.66156&#10;&#9;&#9;&#9;&#9;c0.5542-0.60211,1.09473-1.20752,1.62164-1.81592c0.10358-0.11957,0.2124-0.23828,0.31488-0.3584&#10;&#9;&#9;&#9;&#9;c0.61823-0.72266,1.21338-1.4502,1.79297-2.18121c0.04834-0.06097,0.10162-0.12109,0.1499-0.18262&#10;&#9;&#9;&#9;&#9;c0.14014-0.17767,0.26868-0.35736,0.40625-0.53552c0.32178-0.4165,0.64008-0.83307,0.94916-1.25201&#10;&#9;&#9;&#9;&#9;c0.19574-0.26459,0.38617-0.53082,0.57709-0.79639c0.29095-0.40619,0.57709-0.81348,0.85693-1.22223&#10;&#9;&#9;&#9;&#9;c0.18506-0.27045,0.36816-0.54095,0.54834-0.81195c0.27484-0.41461,0.5415-0.82959,0.8042-1.24615&#10;&#9;&#9;&#9;&#9;c0.16602-0.26318,0.33398-0.52588,0.49506-0.78955c0.27386-0.44733,0.53613-0.89648,0.79645-1.34625&#10;&#9;&#9;&#9;&#9;c0.10596-0.18359,0.22119-0.36566,0.32471-0.54932c0.0293-0.05176,0.05524-0.10345,0.08398-0.15527&#10;&#9;&#9;&#9;&#9;c0.22168-0.39502,0.43121-0.79199,0.64209-1.18854c0.13721-0.25775,0.28027-0.51508,0.41315-0.77338&#10;&#9;&#9;&#9;&#9;c0.23389-0.45508,0.45355-0.91205,0.67328-1.36871c0.09668-0.20117,0.2002-0.40088,0.29443-0.60211&#10;&#9;&#9;&#9;&#9;c0.30804-0.65973,0.60248-1.32031,0.88226-1.9834c0.0459-0.10944,0.08588-0.21918,0.13129-0.32861&#10;&#9;&#9;&#9;&#9;c0.22949-0.55371,0.45355-1.1084,0.6626-1.66455c0.00934-0.02338,0.01953-0.04688,0.02832-0.07031&#10;&#9;&#9;&#9;&#9;c0.09467-0.25201,0.17676-0.50543,0.26758-0.75781c0.13617-0.38086,0.27637-0.76172,0.40326-1.14362&#10;&#9;&#9;&#9;&#9;c0.09668-0.28961,0.18213-0.58008,0.27344-0.86957c0.11621-0.37061,0.23541-0.74072,0.34283-1.11182&#10;&#9;&#9;&#9;&#9;c0.08685-0.29828,0.16254-0.59766,0.24365-0.89648c0.09814-0.36279,0.19867-0.72559,0.28864-1.08942&#10;&#9;&#9;&#9;&#9;c0.07568-0.30566,0.1416-0.61279,0.21088-0.91888c0.08148-0.35834,0.16547-0.71625,0.23877-1.07471&#10;&#9;&#9;&#9;&#9;c0.01318-0.06451,0.02985-0.12891,0.04248-0.19287c0.04797-0.23883,0.08405-0.47803,0.12842-0.71631&#10;&#9;&#9;&#9;&#9;c0.06793-0.36719,0.13721-0.73389,0.19678-1.10162c0.04932-0.30658,0.09082-0.61328,0.13483-0.92041&#10;&#9;&#9;&#9;&#9;c0.05182-0.36328,0.10449-0.72705,0.14789-1.09082c0.03711-0.31097,0.06696-0.62207,0.09814-0.93311&#10;&#9;&#9;&#9;&#9;c0.03607-0.36041,0.07233-0.7207,0.10065-1.08105c0.02441-0.31403,0.04205-0.62793,0.06049-0.94238&#10;&#9;&#9;&#9;&#9;c0.02051-0.3584,0.04095-0.71631,0.05371-1.0752c0.00439-0.11621,0.01416-0.23242,0.01764-0.34863&#10;&#9;&#9;&#9;&#9;c0.01221-0.41888,0.01862-0.83789,0.01996-1.25677l0.23102-81.5166c-0.00055,0.26758-0.01373,0.53519-0.01862,0.80267&#10;&#9;&#9;&#9;&#9;L673.521,484.707z"/><g opacity="0.03" enable-background="new"><path d="M673.53955,483.9043l-0.23108,81.51617c-0.05963,21.07495-13.91113,42.11792-41.58167,58.19843&#10;&#9;&#9;&#9;&#9;&#9;c-55.69299,32.36523-146.28961,32.3656-202.35318-0.00269c-28.21289-16.2887-42.30307-37.66974-42.24258-59.01733&#10;&#9;&#9;&#9;&#9;&#9;l0.23108-81.51617c-0.06049,21.3476,14.02972,42.72858,42.24261,59.01727&#10;&#9;&#9;&#9;&#9;&#9;c56.06348,32.36835,146.66016,32.36792,202.35321,0.00275c27.67059-16.08044,41.52197-37.1235,41.58173-58.19843H673.53955z"/><g><defs><path id="SVGID_1_" d="M673.53955,483.9043l-0.23108,81.51617c-0.05963,21.07495-13.91113,42.11792-41.58167,58.19843&#10;&#9;&#9;&#9;&#9;&#9;&#9;&#9;c-55.69299,32.36523-146.28961,32.3656-202.35318-0.00269c-28.21289-16.2887-42.30307-37.66974-42.24258-59.01733&#10;&#9;&#9;&#9;&#9;&#9;&#9;&#9;l0.23108-81.51617c-0.06049,21.3476,14.02972,42.72858,42.24261,59.01727&#10;&#9;&#9;&#9;&#9;&#9;&#9;&#9;c56.06348,32.36835,146.66016,32.36792,202.35321,0.00275c27.67059-16.08044,41.52197-37.1235,41.58173-58.19843H673.53955z"/></defs><clipPath id="SVGID_00000146493872725200243860000003057252217238343307_"><use xmlns:xlink="http://www.w3.org/1999/xlink" xlink:href="#SVGID_1_" overflow="visible"/></clipPath><g clip-path="url(#SVGID_00000146493872725200243860000003057252217238343307_)"><path d="M673.53955,483.9043l-0.23108,81.51617c-0.00122,0.41901-0.00775,0.83801-0.0199,1.2569l0.23108-81.51617&#10;&#9;&#9;&#9;&#9;&#9;&#9;&#9;C673.5318,484.74231,673.53833,484.3233,673.53955,483.9043"/><path d="M673.51965,485.16119l-0.23108,81.51617c-0.0791,2.74231-0.39191,5.48242-0.93823,8.20953l0.23108-81.5162&#10;&#9;&#9;&#9;&#9;&#9;&#9;&#9;C673.12781,490.64362,673.44049,487.9035,673.51965,485.16119"/><path d="M672.58142,493.3707l-0.23108,81.5162c-0.54132,2.70148-1.31189,5.3902-2.31183,8.05536l0.23114-81.51617&#10;&#9;&#9;&#9;&#9;&#9;&#9;&#9;C671.26953,498.7608,672.0401,496.0722,672.58142,493.3707"/><path d="M670.26965,501.42621l-0.23114,81.51617c-1.02795,2.74011-2.29852,5.45551-3.8114,8.1347l0.23108-81.5162&#10;&#9;&#9;&#9;&#9;&#9;&#9;&#9;C667.97113,506.88168,669.24164,504.16629,670.26965,501.42621"/><path d="M666.45819,509.56088l-0.23108,81.5162c-1.63593,2.89697-3.5553,5.75159-5.7583,8.5495l0.23114-81.51617&#10;&#9;&#9;&#9;&#9;&#9;&#9;&#9;C662.90289,515.31256,664.82233,512.45789,666.45819,509.56088"/><path d="M660.69995,518.11029l-0.23114,81.51624c-2.57172,3.26599-5.52991,6.45453-8.87457,9.5426l0.23108-81.51617&#10;&#9;&#9;&#9;&#9;&#9;&#9;&#9;C655.17004,524.56494,658.12817,521.37634,660.69995,518.11029"/><path d="M651.82532,527.65302l-0.23108,81.51617c-5.13062,4.73682-11.17078,9.23712-18.12122,13.41742l0.23114-81.51617&#10;&#9;&#9;&#9;&#9;&#9;&#9;&#9;C640.65442,536.89014,646.69464,532.38989,651.82532,527.65302"/><path d="M633.7041,541.07043l-0.23108,81.51617c-0.57581,0.34625-1.1579,0.69049-1.74622,1.03241&#10;&#9;&#9;&#9;&#9;&#9;&#9;&#9;c-9.5426,5.54547-20.10992,10.14087-31.3526,13.78607l0.23108-81.51617c11.24274-3.6452,21.81-8.24054,31.3526-13.78613&#10;&#9;&#9;&#9;&#9;&#9;&#9;&#9;C632.5462,541.76093,633.1283,541.41681,633.7041,541.07043"/><path d="M600.60541,555.88879l-0.23114,81.51617c-8.67999,2.81427-17.7627,5.06219-27.08716,6.74371l0.23108-81.51617&#10;&#9;&#9;&#9;&#9;&#9;&#9;&#9;C582.84265,560.95099,591.92529,558.70312,600.60541,555.88879"/><path d="M573.51819,562.63251l-0.23108,81.51617c-5.99768,1.08167-12.0954,1.92883-18.25049,2.54175l0.23108-81.51617&#10;&#9;&#9;&#9;&#9;&#9;&#9;&#9;c6.15503-0.61292,12.25281-1.46014,18.25049-2.54169"/><path d="M555.2677,565.17419l-0.23108,81.51624c-5.25659,0.52338-10.55499,0.87604-15.86859,1.05762l0.23108-81.51624&#10;&#9;&#9;&#9;&#9;&#9;&#9;&#9;c5.3136-0.18158,10.612-0.53406,15.86859-1.05756"/><path d="M539.39911,566.23181l-0.23108,81.51624c-4.87921,0.16675-9.77118,0.18945-14.65533,0.06787l0.23108-81.51617&#10;&#9;&#9;&#9;&#9;&#9;&#9;&#9;C529.62793,566.42126,534.5199,566.39868,539.39911,566.23181"/><path d="M524.74377,566.29956l-0.23108,81.51624c-4.71161-0.11719-9.41577-0.36853-14.09418-0.75403l0.23108-81.51617&#10;&#9;&#9;&#9;&#9;&#9;&#9;&#9;C515.328,565.93097,520.03229,566.18237,524.74377,566.29956"/><path d="M510.64948,565.54572l-0.23108,81.51617c-4.66913-0.38464-9.3125-0.90283-13.9118-1.55475l0.23108-81.51617&#10;&#9;&#9;&#9;&#9;&#9;&#9;&#9;C501.33685,564.64282,505.98026,565.16101,510.64948,565.54572"/><path d="M496.73779,563.99091l-0.23111,81.51624c-4.78351-0.67804-9.51932-1.50049-14.18658-2.46753l0.23111-81.51617&#10;&#9;&#9;&#9;&#9;&#9;&#9;&#9;c4.66727,0.96698,9.40311,1.78949,14.18658,2.46753"/><path d="M482.55112,561.52338l-0.23111,81.51624c-5.06488-1.04938-10.04907-2.26886-14.92618-3.65869l0.23111-81.51617&#10;&#9;&#9;&#9;&#9;&#9;&#9;&#9;c4.87708,1.38965,9.8613,2.60925,14.92618,3.65869"/><path d="M467.625,557.86469l-0.23108,81.51617c-5.96881-1.70074-11.77719-3.65649-17.37659-5.86719l0.23108-81.51617&#10;&#9;&#9;&#9;&#9;&#9;&#9;&#9;C455.84781,554.20813,461.65622,556.16382,467.625,557.86469"/><path d="M450.24829,551.99762l-0.23108,81.51617c-7.26874-2.86963-14.1853-6.16876-20.64362-9.89752&#10;&#9;&#9;&#9;&#9;&#9;&#9;&#9;c-28.21289-16.2887-42.3031-37.66968-42.24258-59.01727l0.23108-81.51617&#10;&#9;&#9;&#9;&#9;&#9;&#9;&#9;c-0.06049,21.34756,14.02969,42.72858,42.24258,59.01727C436.06296,545.8288,442.97958,549.12799,450.24829,551.99762"/></g></g></g><path opacity="0.1" fill="#FFFFFF" d="M631.29822,424.88861&#10;&#9;&#9;&#9;&#9;c56.06354,32.36832,56.35889,84.84531,0.65973,117.21411c-55.69305,32.36517-146.28961,32.3656-202.35321-0.00275&#10;&#9;&#9;&#9;&#9;c-56.06393-32.3685-56.35931-84.84549-0.66632-117.21069c55.69919-32.3688,146.29584-32.36917,202.35968-0.00067H631.29822z" enable-background="new"/></g><g><path fill="#1c72a1" d="M655.55518,396.4339c0.42041-21.61331-13.65723-43.32617-42.22272-59.81836&#10;&#9;&#9;&#9;&#9;c-56.06396-32.36871-146.66058-32.36823-202.35986,0.00098c-27.75589,16.12991-41.60211,37.25491-41.57281,58.39697&#10;&#9;&#9;&#9;&#9;c0-0.06787-0.00388-0.13568-0.00339-0.20358l-0.23138,81.51611c-0.06009,21.34769,14.02982,42.72849,42.24271,59.01712&#10;&#9;&#9;&#9;&#9;c1.68701,0.97406,3.4082,1.91504,5.15619,2.83057c0.57962,0.30371,1.17773,0.58844,1.7637,0.88531&#10;&#9;&#9;&#9;&#9;c1.18118,0.59912,2.36276,1.19781,3.56931,1.77051c0.71478,0.33942,1.44678,0.66058,2.17041,0.99121&#10;&#9;&#9;&#9;&#9;c1.10297,0.50342,2.20557,1.00684,3.32806,1.48932c0.78421,0.33691,1.58151,0.6582,2.37451,0.98492&#10;&#9;&#9;&#9;&#9;c0.76221,0.31348,1.5112,0.64209,2.28119,0.9458c0.39362,0.15527,0.79541,0.2998,1.19092,0.45264&#10;&#9;&#9;&#9;&#9;c0.49658,0.19189,0.99609,0.38037,1.49609,0.56836c1.46829,0.55225,2.94867,1.0874,4.44287,1.60498&#10;&#9;&#9;&#9;&#9;c0.34723,0.12061,0.68991,0.24658,1.0386,0.36469c1.80371,0.61328,3.62653,1.19873,5.46478,1.76221&#10;&#9;&#9;&#9;&#9;c0.45609,0.14014,0.91647,0.27252,1.375,0.40924c0.78912,0.23578,1.57373,0.47852,2.36871,0.70508&#10;&#9;&#9;&#9;&#9;c0.82956,0.23627,1.66647,0.46088,2.50198,0.6875c0.24658,0.06689,0.49066,0.13672,0.7373,0.20258&#10;&#9;&#9;&#9;&#9;c1.85742,0.49609,3.73099,0.96344,5.61517,1.41113c0.3623,0.08588,0.72363,0.17139,1.08691,0.25586&#10;&#9;&#9;&#9;&#9;c1.65326,0.3833,3.31247,0.75537,4.98438,1.10162c0.1611,0.03369,0.32571,0.06006,0.48682,0.09283&#10;&#9;&#9;&#9;&#9;c1.47015,0.30127,2.95309,0.57178,4.43549,0.84418c0.80133,0.14752,1.59518,0.30957,2.3999,0.44818&#10;&#9;&#9;&#9;&#9;c1.93457,0.33398,3.88229,0.63428,5.83499,0.91992c0.3447,0.05078,0.6846,0.11377,1.02982,0.1626&#10;&#9;&#9;&#9;&#9;c0.01709,0.00238,0.03522,0.00385,0.05219,0.00629c2.26898,0.32129,4.5488,0.60986,6.83691,0.86615&#10;&#9;&#9;&#9;&#9;c0.52438,0.05859,1.05267,0.09863,1.57758,0.15381c1.76764,0.18604,3.53564,0.36823,5.31152,0.51514&#10;&#9;&#9;&#9;&#9;c0.0444,0.00391,0.08887,0.00928,0.1333,0.01318c0.78809,0.06488,1.58057,0.10352,2.37009,0.16058&#10;&#9;&#9;&#9;&#9;c1.47562,0.10742,2.94974,0.22021,4.42923,0.30084c0.94818,0.05176,1.8989,0.07758,2.84857,0.11816&#10;&#9;&#9;&#9;&#9;c1.3696,0.05908,2.7388,0.125,4.11078,0.16113c0.11182,0.00287,0.22363,0.01025,0.33539,0.01318&#10;&#9;&#9;&#9;&#9;c0.76514,0.01898,1.53174,0.01123,2.29742,0.02338c1.49316,0.02289,2.98538,0.04877,4.479,0.04492&#10;&#9;&#9;&#9;&#9;c0.97607-0.00201,1.95117-0.02643,2.92676-0.04004c1.39313-0.01996,2.78558-0.03809,4.17719-0.08112&#10;&#9;&#9;&#9;&#9;c0.25781-0.0083,0.5166-0.00629,0.77496-0.01508c1.61041-0.05524,3.21832-0.13092,4.82471-0.21777&#10;&#9;&#9;&#9;&#9;c0.34723-0.01862,0.69287-0.04053,1.03955-0.06049c2.05133-0.11914,4.10016-0.25635,6.14264-0.42682&#10;&#9;&#9;&#9;&#9;c0.07275-0.00592,0.14502-0.01367,0.21777-0.01996c1.2168-0.10254,2.43164-0.21191,3.64398-0.33252&#10;&#9;&#9;&#9;&#9;c0.69244-0.06885,1.38184-0.15192,2.07281-0.22656c0.49902-0.05426,0.99756-0.10645,1.49561-0.16364&#10;&#9;&#9;&#9;&#9;c1.98236-0.22754,3.95996-0.4751,5.92719-0.75153c0.29047-0.04102,0.57861-0.08789,0.86865-0.12988&#10;&#9;&#9;&#9;&#9;c1.72662-0.24896,3.44482-0.51947,5.15674-0.80658c0.50592-0.08453,1.01068-0.16895,1.51508-0.25732&#10;&#9;&#9;&#9;&#9;c0.40381-0.07031,0.81104-0.1333,1.21442-0.20612c0.71387-0.12891,1.4165-0.28369,2.12738-0.41888&#10;&#9;&#9;&#9;&#9;c1.24951-0.23779,2.49713-0.47711,3.73682-0.73584c1.01715-0.21185,2.02594-0.43848,3.03613-0.66406&#10;&#9;&#9;&#9;&#9;c1.21973-0.27252,2.43597-0.54932,3.64496-0.8418c1.00781-0.24408,2.00781-0.5,3.00732-0.75781&#10;&#9;&#9;&#9;&#9;c1.19293-0.30811,2.38129-0.62256,3.5625-0.9502c0.99371-0.27594,1.98102-0.56049,2.96582-0.85059&#10;&#9;&#9;&#9;&#9;c1.16748-0.34369,2.32764-0.69678,3.48193-1.06049c0.50488-0.15918,1.02148-0.30127,1.52386-0.46393&#10;&#9;&#9;&#9;&#9;c0.71002-0.23047,1.40869-0.47559,2.11334-0.71289c0.43304-0.14648,0.86865-0.28961,1.29974-0.43848&#10;&#9;&#9;&#9;&#9;c1.78027-0.61621,3.54388-1.25342,5.28662-1.91803c0.32422-0.12347,0.64307-0.25439,0.96631-0.37988&#10;&#9;&#9;&#9;&#9;c1.47412-0.57233,2.93256-1.16309,4.37738-1.771c0.43951-0.18512,0.87988-0.36871,1.31689-0.55713&#10;&#9;&#9;&#9;&#9;c1.69733-0.73138,3.37744-1.48138,5.02985-2.26215c0.19476-0.09235,0.38477-0.18951,0.5791-0.28271&#10;&#9;&#9;&#9;&#9;c1.47998-0.70648,2.9375-1.43652,4.37836-2.18365c0.42334-0.21967,0.84576-0.43945,1.26611-0.6626&#10;&#9;&#9;&#9;&#9;c1.60254-0.85059,3.18903-1.71729,4.73883-2.61768c0.58838-0.3418,1.17035-0.68597,1.74658-1.03223&#10;&#9;&#9;&#9;&#9;c0.13281-0.08008,0.25983-0.16205,0.39258-0.24268c0.44824-0.27148,0.88873-0.5459,1.32916-0.82031&#10;&#9;&#9;&#9;&#9;c0.39838-0.24847,0.79828-0.49609,1.19037-0.74658c0.43463-0.27692,0.86041-0.55664,1.28711-0.83643&#10;&#9;&#9;&#9;&#9;c0.38483-0.25244,0.771-0.50446,1.14941-0.7583c0.42145-0.2832,0.83405-0.56934,1.24762-0.85449&#10;&#9;&#9;&#9;&#9;c0.36963-0.25586,0.7417-0.51031,1.10553-0.76758c0.4082-0.28857,0.80707-0.58063,1.20746-0.87158&#10;&#9;&#9;&#9;&#9;c0.35553-0.25879,0.71393-0.5166,1.06305-0.77692c0.39447-0.29388,0.77881-0.59131,1.16498-0.8877&#10;&#9;&#9;&#9;&#9;c0.3418-0.26172,0.68701-0.52252,1.02252-0.78662c0.38379-0.30182,0.75677-0.60638,1.13281-0.91058&#10;&#9;&#9;&#9;&#9;c0.32367-0.26172,0.65088-0.52252,0.96869-0.78564c0.37299-0.30957,0.73486-0.62207,1.10004-0.93408&#10;&#9;&#9;&#9;&#9;c0.30762-0.2627,0.62012-0.52441,0.92194-0.78857c0.36279-0.31793,0.71387-0.63873,1.06836-0.95905&#10;&#9;&#9;&#9;&#9;c0.25543-0.23047,0.51862-0.45898,0.76953-0.69037c0.02826-0.02643,0.05469-0.05371,0.08301-0.08014&#10;&#9;&#9;&#9;&#9;c0.74707-0.69092,1.47217-1.38818,2.18018-2.08887c0.18854-0.18652,0.37012-0.37451,0.55573-0.56146&#10;&#9;&#9;&#9;&#9;c0.53027-0.53522,1.05029-1.07233,1.55859-1.61285c0.20746-0.22015,0.41406-0.44037,0.61774-0.66156&#10;&#9;&#9;&#9;&#9;c0.5542-0.60211,1.09467-1.20752,1.62158-1.81592c0.10352-0.11963,0.2124-0.23828,0.31488-0.3584&#10;&#9;&#9;&#9;&#9;c0.61816-0.72272,1.21338-1.4502,1.79297-2.18121c0.04828-0.06097,0.10162-0.12109,0.1499-0.18262&#10;&#9;&#9;&#9;&#9;c0.14008-0.17767,0.26862-0.35739,0.40619-0.53558c0.32184-0.41647,0.64008-0.83301,0.94916-1.25195&#10;&#9;&#9;&#9;&#9;c0.1958-0.26459,0.38623-0.53082,0.57709-0.79642c0.29102-0.40619,0.57709-0.81348,0.85693-1.2222&#10;&#9;&#9;&#9;&#9;c0.18512-0.27048,0.36823-0.54099,0.54834-0.81198c0.2749-0.41458,0.54156-0.82959,0.8042-1.24612&#10;&#9;&#9;&#9;&#9;c0.16602-0.26318,0.33405-0.52588,0.49506-0.78958c0.27393-0.44733,0.53613-0.89651,0.79645-1.34622&#10;&#9;&#9;&#9;&#9;c0.10602-0.18359,0.22119-0.36572,0.32471-0.54932c0.0293-0.05179,0.05524-0.10349,0.08405-0.15527&#10;&#9;&#9;&#9;&#9;c0.22168-0.39502,0.43115-0.79202,0.64209-1.18854c0.13715-0.25778,0.28027-0.51508,0.41309-0.77338&#10;&#9;&#9;&#9;&#9;c0.23395-0.45508,0.45361-0.91211,0.67334-1.36871c0.09662-0.20117,0.2002-0.40088,0.29437-0.60211&#10;&#9;&#9;&#9;&#9;c0.30811-0.65973,0.60248-1.32031,0.88226-1.9834c0.04596-0.10944,0.08594-0.21921,0.13135-0.32861&#10;&#9;&#9;&#9;&#9;c0.22949-0.55371,0.45355-1.1084,0.6626-1.66458c0.00928-0.02338,0.01953-0.04688,0.02832-0.07031&#10;&#9;&#9;&#9;&#9;c0.09467-0.25198,0.17676-0.5054,0.26752-0.75778c0.13617-0.38089,0.27643-0.76172,0.40332-1.14362&#10;&#9;&#9;&#9;&#9;c0.09662-0.28961,0.18207-0.58008,0.27344-0.8696c0.11615-0.37057,0.23535-0.74069,0.34277-1.11179&#10;&#9;&#9;&#9;&#9;c0.08691-0.29831,0.1626-0.59769,0.24371-0.89648c0.09808-0.36282,0.19861-0.72559,0.28857-1.08942&#10;&#9;&#9;&#9;&#9;c0.07568-0.30569,0.1416-0.61279,0.21088-0.91888c0.08148-0.3584,0.16547-0.71628,0.23883-1.07471&#10;&#9;&#9;&#9;&#9;c0.01318-0.06451,0.02979-0.12891,0.04248-0.1929c0.04791-0.2388,0.08398-0.478,0.12842-0.71628&#10;&#9;&#9;&#9;&#9;c0.06787-0.36722,0.13715-0.73392,0.19678-1.10162c0.04926-0.30658,0.09076-0.61328,0.13477-0.92041&#10;&#9;&#9;&#9;&#9;c0.05182-0.36331,0.10455-0.72708,0.14795-1.09082c0.03711-0.311,0.06689-0.6221,0.09814-0.93311&#10;&#9;&#9;&#9;&#9;c0.03607-0.36041,0.07227-0.7207,0.10059-1.08109c0.02441-0.314,0.04205-0.6279,0.06055-0.94238&#10;&#9;&#9;&#9;&#9;c0.02051-0.3584,0.04095-0.71628,0.05371-1.07523c0.00439-0.11618,0.01416-0.23236,0.01758-0.34857&#10;&#9;&#9;&#9;&#9;c0.01221-0.41888,0.01862-0.83789,0.02002-1.25677l0.23102-81.51663c-0.00055,0.26761-0.01373,0.53522-0.01862,0.8027&#10;&#9;&#9;&#9;&#9;L655.55518,396.4339z"/><path opacity="0.1" fill="#FFFFFF" d="M613.33228,336.6156&#10;&#9;&#9;&#9;&#9;c56.06348,32.36832,56.35889,84.84531,0.65973,117.21408c-55.69299,32.3652-146.28961,32.36563-202.35321-0.00272&#10;&#9;&#9;&#9;&#9;c-56.0639-32.3685-56.35928-84.84549-0.66632-117.21069c55.69922-32.36877,146.29584-32.36917,202.35968-0.00067H613.33228z" enable-background="new"/></g><g><g><path fill="#FFD3D4" d="M246.0594,93.3067c11.47472,6.8703,55.31389,79.83189,41.45979,89.23251&#10;&#9;&#9;&#9;&#9;&#9;c-9.4436,6.4079-31.13412-31.6124-53.2933-60.8263c-22.72592-29.9611,0.35878-35.2765,11.8335-28.4062L246.0594,93.3067z"/><g><path fill="#E7E7EE" d="M279.3392,184.66379c0,0,29.5831-50.3481,6.3526-58.7459&#10;&#9;&#9;&#9;&#9;&#9;&#9;c-19.91721-7.2001-42.20691-57.6325-80.09369-39.94061c-4.33141,2.0226,11.6765,97.2765,73.74112,98.6865H279.3392z"/><path opacity="0.1" d="M252.13422,175.3392c0,0,2.1223-36.6194-6.34592-43.60139&#10;&#9;&#9;&#9;&#9;&#9;&#9;c-8.4682-6.98201-1.299,7.97069-2.02319,17.4462S252.13422,175.3392,252.13422,175.3392z" enable-background="new"/></g></g><path opacity="0.05" d="M337.49741,693.42957&#10;&#9;&#9;&#9;&#9;c-34.4758,7.03174-131.87851-22.14996-217.55521-65.1792C34.2656,585.22119-7.2409,544.63879,27.2348,537.60712&#10;&#9;&#9;&#9;&#9;c34.4758-7.03168,131.87849,22.15002,217.55521,65.1792s127.1832,83.61163,92.7074,90.64337V693.42957z" enable-background="new"/><path fill="#545456" d="M314.7327,633.74139c0,0-0.23569,6.44659,0,7.26923c0.23569,0.82257,1.67261,1.37616,1.17902,13.71533&#10;&#9;&#9;&#9;&#9;s-1.4877,22.23792-1.0853,26.06012c0.4024,3.82214,2.88748,7.92969,6.70569,8.71741&#10;&#9;&#9;&#9;&#9;c12.30609,2.53864,20.85461-5.83392,25.54858-12.53961s-0.26822-21.72632-0.26822-21.72632l-32.07968-21.49615H314.7327z"/><path fill="#4A4C57" d="M337.65659,613.04022c8.68253,8.99567,6.32999,26.67621,7.23419,33.00616&#10;&#9;&#9;&#9;&#9;s2.32492,4.67084,3.0459,11.26294c1.16269,10.63007,3.1442,15.74542-12.09531,24.41101&#10;&#9;&#9;&#9;&#9;c-13.02319,7.40533-17.50211,2.07593-19.3107-5.00763c-1.80862-7.0835-1.38309-23.64606-0.2056-28.9624&#10;&#9;&#9;&#9;&#9;c0.96381-4.35156-1.78699-9.56079-2.78772-14.78638c-1.0007-5.22565,0.22241-18.38892,11.89679-19.92383&#10;&#9;&#9;&#9;&#9;c11.67438-1.53485,12.22241,0,12.22241,0L337.65659,613.04022z"/><path fill="#3C4358" d="M140.9433,260.23718c0,0-18.13091,12.26523-7.18359,57.61823&#10;&#9;&#9;&#9;&#9;c10.9473,45.35291,83.11929-12.61282,83.11929-12.61282l-52.8248-45.0054H140.9433z"/><path fill="#3C4358" d="M135.55991,285.936c-0.5144,106.96402-29.10481,164.8306,6.04221,166.9097&#10;&#9;&#9;&#9;&#9;c45.1451,2.67059,49.60419-88.51801,54.32021-135.21231c6.42-63.56589-60.224-60.48581-60.3624-31.69739H135.55991z"/><path opacity="0.1" fill="#1A1A1A" d="M179.46581,338.88199&#10;&#9;&#9;&#9;&#9;c-27.96431,0.4552,8.97881,31.70609,11.181,41.03592L179.46581,338.88199z" enable-background="new"/><path fill="#FFD3D4" d="M335.05099,576.30609c7.43723,11.43402,1.63571,31.2265,4.00281,39.66443&#10;&#9;&#9;&#9;&#9;c2.52573,9.0033,3.58051,19.55646,2.08722,19.03589c-0.88034-0.30688,0.10959-8.41913-1.64743-10.76178&#10;&#9;&#9;&#9;&#9;c-1.3927-1.85693-18.74869-0.74054-21.08459,0.83667c-1.33499,0.90143,0.8508,12.25397-0.79529,9.15112&#10;&#9;&#9;&#9;&#9;c-2.8511-5.37408,3.22321-19.42609,3.62952-19.90979c2.5116-2.98999-5.0939-31.53796-6.44012-34.80719&#10;&#9;&#9;&#9;&#9;C313.45691,576.24628,331.83771,571.36597,335.05099,576.30609L335.05099,576.30609z"/><path fill="#3C4358" d="M275.05679,424.98669c0,0,53.22321,88.41852,71.24619,177.85706&#10;&#9;&#9;&#9;&#9;c0.85312,4.23376-16.45551,9.29535-21.10931,9.50537c-5.6907,0.25677-18.61749-5.05945-20.28958-12.91406&#10;&#9;&#9;&#9;&#9;c-9.3483-43.91284-62.73001-115.94888-77.12201-153.13559C216.24098,416.47894,275.05679,424.98669,275.05679,424.98669&#10;&#9;&#9;&#9;&#9;L275.05679,424.98669z"/><path fill="#3C4358" d="M159.8985,303.42551C195.20068,404.3974,242.1059,488.24408,275.923,478.44427&#10;&#9;&#9;&#9;&#9;c43.43689-12.58749-24.63989-133.3718-35.8181-178.95297c-15.21721-62.05063-89.7076-23.24142-80.2063,3.93417&#10;&#9;&#9;&#9;&#9;L159.8985,303.42551z"/><g><polygon fill="#CDCDD5" points="223.76129,103.8256 223.76129,103.8256 223.20259,100.6964"/><path fill="#E7E7EE" d="M244.28021,132.70079c-4.90091-13.50469-7.39291-43.48009-31.2213-48.10959&#10;&#9;&#9;&#9;&#9;&#9;c-29.825,0.62319-31.4865,4.2307-42.25771,8.8112c-10.77122,4.5805-22.2066,23.0516-23.2249,34.5507&#10;&#9;&#9;&#9;&#9;&#9;c-0.5836,6.58929-0.9987,15.5791-0.97411,19.8575c0.0986,17.2178,3.90089,21.98521,1.59079,64.6924&#10;&#9;&#9;&#9;&#9;&#9;c-0.3674,6.7908-5.13359,26.41171-9.2301,43.90451c-3.11729,13.3114-17.59589,17.63-17.70309,21.88309&#10;&#9;&#9;&#9;&#9;&#9;c6.5897,3.73392,42.12849-2.9874,43.9632,6.71021c0.57858,3.05823-31.7124,27.17261,51.65559,17.32132&#10;&#9;&#9;&#9;&#9;&#9;c15.2881-1.80661,20.41429-8.33572,21.01909-12.04251c1.064-6.52148,1.30031-24.57721,2.8007-33.87201&#10;&#9;&#9;&#9;&#9;&#9;c1.5851-9.81938,14.3856-51.46979,13.284-62.48459c-4.9225-49.21751-4.21881-46.1123-9.7023-61.22202L244.28021,132.70079z"/><path opacity="0.1" d="M170.76031,203.83899&#10;&#9;&#9;&#9;&#9;&#9;c-1.04691-36.28169-13.91011-50.47888-24.15811-56.02849c0.0986,17.2178,3.90091,21.9852,1.59081,64.6924&#10;&#9;&#9;&#9;&#9;&#9;c-0.3674,6.7908-5.13361,26.41171-9.2301,43.90451C154.27191,251.5493,171.75902,238.45248,170.76031,203.83899z" enable-background="new"/><path fill="#FFC9CA" d="M215.33002,88.9552c-2.10721-2.3863-4.5341-2.4608-4.5341-2.4608s-1.53549-9.7485-1.57689-10.5052&#10;&#9;&#9;&#9;&#9;&#9;l-27.23781-2.433c0,0,0.90811,15.7543-1.13251,17.1433c-3.8804,2.6412-10.6702,1.4493-8.6702,7.4493&#10;&#9;&#9;&#9;&#9;&#9;c2.00002,6,26.0443,15.4201,37.0443,11.4201S217.43712,91.34151,215.33002,88.9552z"/><g><path fill="#FFD3D4" d="M227.47481,57.7226c0,18.1762-13.68561,32.9109-30.5677,32.9109s-30.5677-14.7347-30.5677-32.9109&#10;&#9;&#9;&#9;&#9;&#9;&#9;s-5.78511-32.9109,30.5677-32.9109S227.47481,39.54641,227.47481,57.7226z"/><path fill="#FFD3D4" d="M169.3492,55.7766c-4.2482-7.4923-7.4343-10.7498-7.9653-6.0264s2.4781,21.4996,7.9653,18.2421&#10;&#9;&#9;&#9;&#9;&#9;&#9;S169.3492,55.7766,169.3492,55.7766z"/><path fill="#FFD3D4" d="M224.46501,55.7766c4.2482-7.4923,7.43428-10.7498,7.96529-6.0264s-2.47809,21.4996-7.96529,18.2421&#10;&#9;&#9;&#9;&#9;&#9;&#9;S224.46501,55.7766,224.46501,55.7766z"/><path fill="#3C4358" d="M196.9071,3.5595c-56.0117,0-30.3521,55.874-30.3521,55.874l0.1783-6.2055&#10;&#9;&#9;&#9;&#9;&#9;&#9;c7.92828-0.7935,14.01889-14.8288,30.1738-14.8288s22.24541,14.0353,30.1738,14.8288l0.1783,6.2055&#10;&#9;&#9;&#9;&#9;&#9;&#9;C227.2592,59.4335,251.10991,3.5595,196.9071,3.5595z"/><path fill="#3C4358" d="M162.53812,23.8095c0,0,14.9147-46.0635,58.45828-10.0489L162.53812,23.8095z"/></g></g><g><path fill="#998E82" d="M6.282,539.29877c0,0,3.6556,0.88281,4.335,0.36017c0.6794-0.52258-1.5307-3.09735-1.5307-3.09735&#10;&#9;&#9;&#9;&#9;&#9;l-1.8751,0.82007L6.282,539.29877z"/><path fill="#4A4C57" d="M4.1685,519.91467c2.818-5.57397,6.8063-10.49329,13.5875-11.98087&#10;&#9;&#9;&#9;&#9;&#9;c11.3315-2.4855,17.9414,8.19888,20.6343,15.07999s-4.8933,13.5719,2.0363,33.0791&#10;&#9;&#9;&#9;&#9;&#9;c1.7511,4.92932,20.0356,19.4209,8.652,21.82361c-8.1898,1.72864-24.6717-0.13678-34.2734-12.33856&#10;&#9;&#9;&#9;&#9;&#9;c-8.2026-10.42389-3.7875-25.95508-6.6759-27.37012c-0.4908-0.12451-1.095,1.48138-2.029,1.224&#10;&#9;&#9;&#9;&#9;&#9;c-2.0502-0.56372-7.32-13.72351-5.8427-15.88025c1.3025-1.90021,1.7042-2.57776,3.9109-3.63678L4.1685,519.91467z"/><path fill="#FFD6D6" d="M55.2377,483.97821c-12.9336,4.33249-27.2959,23.1098-35.7316,25.4848&#10;&#9;&#9;&#9;&#9;&#9;c-10.766,3.03107-2.6545,19.63239,0.8735,21.45709c0.8281,0.42828,1.1196-2.55701,1.9572-4.42377&#10;&#9;&#9;&#9;&#9;&#9;c0.9502-2.11774,14.9071,1.80011,15.7563,4.48761c0.4853,1.53589-1.1885-4.77081-2.5173-8.02216&#10;&#9;&#9;&#9;&#9;&#9;c-0.5372-1.31439-1.0771-3.08575-1.0947-3.71716c-0.1085-3.90338,31.5343-18.44135,34.621-20.1651&#10;&#9;&#9;&#9;&#9;&#9;c3.0867-1.72382-8.2764-16.97333-13.8645-15.10153L55.2377,483.97821z"/><path fill="#3C4358" d="M140.20551,390.85352c0,0-52.53391,44.75317-114.41081,89.17578&#10;&#9;&#9;&#9;&#9;&#9;c-3.5083,2.51868,2.2035,18.77042,4.7796,22.65192c3.1501,4.74628,16.1851,13.85168,22.3976,8.76288&#10;&#9;&#9;&#9;&#9;&#9;c35.6367-29.19061,68.5495-36.91492,101.2652-59.711c30.5867-21.31259-14.03169-60.87958-14.03169-60.87958H140.20551z"/></g><path fill="#FFD3D4" d="M275.79929,166.03781c-8.9263,11.0791,29.63159,81.741,36.47232,77.9173&#10;&#9;&#9;&#9;&#9;c8.79758-4.9176-5.61279-60.56049-19.09741-74.36758c-13.48462-13.80711-17.37482-3.54961-17.37482-3.54961L275.79929,166.03781z"/><path fill="#FFD3D4" d="M316.38058,228.2605c-2.76468-4.09401-9.14087-4.99429-16.49469-2.0466&#10;&#9;&#9;&#9;&#9;c-7.63599,3.06079-4.80649,11.9162-3.51669,14.3855c8.7713,16.79239,15.6962,15.19591,22.1286,13.27281&#10;&#9;&#9;&#9;&#9;c6.43237-1.92311,3.6369-17.09081-2.11719-25.61171H316.38058z"/><g><g><path fill="#FFD3D4" d="M147.2377,168.16209c-1.08209,13.3304,36.6172,89.17522,52.32071,83.3694&#10;&#9;&#9;&#9;&#9;&#9;&#9;c10.70432-3.95761-7.61749-43.711-18.5018-78.72552c-11.16269-35.90999-32.73679-17.97429-33.81889-4.64389L147.2377,168.16209&#10;&#9;&#9;&#9;&#9;&#9;&#9;z"/><path fill="#FFD3D4" d="M190.0224,246.6514c2.46848,14.0119,106.23199,22.48462,108.10101,11.38861&#10;&#9;&#9;&#9;&#9;&#9;&#9;c1.16589-6.92191-74.72491-23.2038-93.99492-22.1357s-14.10609,10.74721-14.10609,10.74721V246.6514z"/><path fill="#FFD3D4" d="M306.99271,247.9464c-4.90201-0.6122-12.98099,1.2939-15.60049,8.77071&#10;&#9;&#9;&#9;&#9;&#9;&#9;c-2.72009,7.76389,9.01511,13.76318,11.72321,14.4169c18.4162,4.4454,21.771-1.81949,24.55566-7.92841&#10;&#9;&#9;&#9;&#9;&#9;&#9;c2.7847-6.10889-10.47589-13.985-20.67841-15.2592H306.99271z"/></g><path fill="#E7E7EE" d="M156.4819,106.7758c-0.1297-1.4228-19.78661,26.5153-20.58151,38.55779&#10;&#9;&#9;&#9;&#9;&#9;c-0.68759,10.41751,2.4688,43.65811,12.63991,69.0975c4.7822,11.96111,2.0356,18.82349,5.8942,25.4077&#10;&#9;&#9;&#9;&#9;&#9;c0,0,35.80859,13.88051,56.88029-9.33679c0,0-32.849-74.364-30.5907-83.149&#10;&#9;&#9;&#9;&#9;&#9;C180.72409,147.353,156.69489,109.112,156.4819,106.7758z"/></g><path fill="#C6AD91" d="M359.46899,342.67633h-0.0098c-2.61719-0.00488-4.74609-2.13379-4.7363-4.75592&#10;&#9;&#9;&#9;&#9;c0.0293-20.14648-30.81052-59.46289-42.69528-72.91498c-1.73831-1.96289-1.5527-4.96582,0.41019-6.7041&#10;&#9;&#9;&#9;&#9;c1.94339-1.7236,4.95117-1.5625,6.69919,0.41498c1.8457,2.08011,45.12698,51.35742,45.07809,79.21393&#10;&#9;&#9;&#9;&#9;C364.21509,340.55234,362.08618,342.67633,359.46899,342.67633z"/><g><path fill="#D3C2A8" d="M434.27472,368.7897c0.06738-13.40768-3.58539-31.8735-8.15381-41.24069&#10;&#9;&#9;&#9;&#9;&#9;c-1.73141-3.54932-3.3457-5.28271-4.68799-5.34229l-0.00101-0.00488c0,0-22.33002-2.60031-34.0322-1.7822&#10;&#9;&#9;&#9;&#9;&#9;c-11.70221,0.81815-36.742,5.05231-48.1553,7.70309c-11.4133,2.65082-36.43259,11.7915-36.43259,11.7915&#10;&#9;&#9;&#9;&#9;&#9;s1.63129,56.89258,9.54929,59.12061c7.91849,2.22751,24.72308-0.57523,37.9277-1.78473&#10;&#9;&#9;&#9;&#9;&#9;c13.20459-1.20947,34.44128-5.39789,48.15527-7.70358c13.71399-2.30566,32.03418-7.7739,32.70749-8.19629&#10;&#9;&#9;&#9;&#9;&#9;c0.00049,0,0.00049-0.00101,0.00049-0.0015c1.87112-0.66107,3.08499-4.99512,3.12259-12.55908L434.27472,368.7897z&#10;&#9;&#9;&#9;&#9;&#9; M351.11401,396.88541c0.03369-0.0249,0.06689-0.05371,0.1001-0.08109c-0.02252,0.01862-0.04391,0.04297-0.06641,0.06049&#10;&#9;&#9;&#9;&#9;&#9;c-0.01123,0.00833-0.02289,0.01221-0.03369,0.02051V396.88541z M351.89331,396.04068&#10;&#9;&#9;&#9;&#9;&#9;c0.01031-0.01511,0.02048-0.02829,0.03079-0.04349c-0.00241,0.00342-0.00439,0.00778-0.00681,0.01172&#10;&#9;&#9;&#9;&#9;&#9;c-0.00778,0.01172-0.01608,0.01999-0.02393,0.03171L351.89331,396.04068z M350.78152,397.08612&#10;&#9;&#9;&#9;&#9;&#9;c-0.0181,0.0083-0.03473,0.02289-0.0527,0.03076c-0.00287,0.0015-0.00589,0.0015-0.00879,0.0029&#10;&#9;&#9;&#9;&#9;&#9;C350.74103,397.11047,350.76053,397.09589,350.78152,397.08612z M351.58328,396.4455&#10;&#9;&#9;&#9;&#9;&#9;c-0.01318,0.01511-0.02591,0.03473-0.03909,0.0498c-0.01511,0.01657-0.03171,0.0278-0.04742,0.04437&#10;&#9;&#9;&#9;&#9;&#9;c0.0293-0.03076,0.05811-0.06146,0.08643-0.09418H351.58328z"/><path fill="#C6AD91" d="M308.15228,345.14432c4.56851,9.36691,8.2211,27.83292,8.15399,41.24081&#10;&#9;&#9;&#9;&#9;&#9;c-0.06708,13.4075-3.82837,16.67276-8.39688,7.30597c-4.57089-9.3718-8.22348-27.83789-8.15652-41.24539&#10;&#9;&#9;&#9;&#9;&#9;c0.06711-13.4079,3.8284-16.67319,8.39932-7.30139H308.15228z"/></g><g><ellipse transform="matrix(0.9522 -0.30549 0.30549 0.9522 -96.83912 132.61214)" fill="#D3C7B7" cx="375.29993" cy="375.7244" rx="4.5335" ry="3.63449"/><path fill="#C6AD91" d="M372.13229,373.46802c0.00702-0.00562,0.0126-0.01331,0.01822-0.01889&#10;&#9;&#9;&#9;&#9;&#9;c0.39828-0.37311,0.87198-0.69321,1.39749-0.93558c0.00421-0.00211,0.00839-0.00421,0.01401-0.00629&#10;&#9;&#9;&#9;&#9;&#9;c0.53107-0.24393,1.11517-0.41162,1.72729-0.47861c1.03278-0.11319,1.98169,0.07968,2.73911,0.48563&#10;&#9;&#9;&#9;&#9;&#9;c0.0098,0.00558,0.01962,0.01047,0.0307,0.01608c0.75192,0.41229,1.31088,1.039,1.55682,1.8063l-1.04388-3.2583&#10;&#9;&#9;&#9;&#9;&#9;c-0.00702-0.0231-0.01541-0.04608-0.0238-0.06918c-0.02524-0.06989-0.05032-0.1384-0.08112-0.20538&#10;&#9;&#9;&#9;&#9;&#9;c-0.02798-0.06644-0.05869-0.13144-0.09219-0.19501c-0.03491-0.0636-0.06989-0.1265-0.10898-0.18732&#10;&#9;&#9;&#9;&#9;&#9;c-0.03909-0.06223-0.08112-0.12299-0.12299-0.1824c-0.04471-0.06082-0.09219-0.12021-0.14111-0.17819&#10;&#9;&#9;&#9;&#9;&#9;c-0.0517-0.06009-0.1048-0.1188-0.16071-0.17538c-0.06009-0.06152-0.12299-0.12021-0.18872-0.17752&#10;&#9;&#9;&#9;&#9;&#9;c-0.07129-0.06223-0.1467-0.12228-0.22501-0.17889c-0.08942-0.0657-0.18167-0.1272-0.27948-0.18521&#10;&#9;&#9;&#9;&#9;&#9;c-0.0419-0.02591-0.08942-0.04608-0.13422-0.07062c-0.0112-0.00629-0.021-0.0105-0.03207-0.01678&#10;&#9;&#9;&#9;&#9;&#9;c-0.0769-0.0412-0.15228-0.08591-0.23337-0.12228c-0.55063-0.25021-1.1907-0.39133-1.87833-0.39621&#10;&#9;&#9;&#9;&#9;&#9;c-0.16208-0.00067-0.327,0.00562-0.49332,0.01962c-0.0433,0.00418-0.08801,0.00839-0.13281,0.01331&#10;&#9;&#9;&#9;&#9;&#9;c-0.08658,0.00912-0.17188,0.02103-0.25708,0.03421c-0.11182,0.01752-0.22223,0.03769-0.33121,0.06223&#10;&#9;&#9;&#9;&#9;&#9;c-0.09918,0.0217-0.1998,0.04608-0.2977,0.07339c-0.09219,0.02591-0.18451,0.05377-0.2753,0.08389&#10;&#9;&#9;&#9;&#9;&#9;c-0.08801,0.0293-0.17471,0.06079-0.25848,0.0936s-0.16769,0.06711-0.24881,0.10342&#10;&#9;&#9;&#9;&#9;&#9;c-0.01819,0.00839-0.03632,0.01819-0.05588,0.02658l-0.01962,0.00983c-0.05588,0.02521-0.11179,0.05029-0.16489,0.07758&#10;&#9;&#9;&#9;&#9;&#9;c-0.08112,0.04053-0.1593,0.08252-0.23621,0.1265c-0.07968,0.04471-0.15652,0.09152-0.2334,0.1398&#10;&#9;&#9;&#9;&#9;&#9;c-0.07831,0.05032-0.15652,0.10269-0.23199,0.15652c-0.08112,0.05798-0.16208,0.1181-0.23764,0.1796&#10;&#9;&#9;&#9;&#9;&#9;c-0.08517,0.06778-0.16626,0.1377-0.246,0.20963c-0.01401,0.01331-0.02798,0.02798-0.04187,0.04187&#10;&#9;&#9;&#9;&#9;&#9;c-0.00839,0.00772-0.01541,0.01541-0.0238,0.02313c-0.0657,0.06149-0.13,0.12369-0.1915,0.18869&#10;&#9;&#9;&#9;&#9;&#9;c-0.1048,0.11041-0.20401,0.22574-0.29492,0.34384c-0.0545,0.07059-0.03632,0.16489-0.08517,0.23761&#10;&#9;&#9;&#9;&#9;&#9;c-0.41513,0.60718-0.71832,1.26401-0.71548,1.97189c0.0014,0.31583,0.05029,0.617,0.1398,0.89999l1.04532,3.2576&#10;&#9;&#9;&#9;&#9;&#9;c-0.08942-0.28302-0.13843-0.58417-0.13983-0.89999c-0.00278-0.70432,0.30331-1.36609,0.71548-1.97122&#10;&#9;&#9;&#9;&#9;&#9;c0.1803-0.2648,0.33261-0.54358,0.57443-0.77277L372.13229,373.46802z"/></g></g><g><path fill="#1c72a1" d="M1043.74036,237.5843c0.06152-0.50681,0.13391-1.0146,0.18652-1.521&#10;&#9;&#9;&#9;&#9;c0.05957-0.5645,0.09766-1.1265,0.14441-1.6899c0.04309-0.50591,0.0957-1.0137,0.12793-1.51859&#10;&#9;&#9;&#9;&#9;c0.03711-0.5674,0.05371-1.13181,0.0791-1.6973c0.02246-0.4985,0.05469-0.998,0.06848-1.49509&#10;&#9;&#9;&#9;&#9;c0-0.01419,0.00098-0.02832,0.00195-0.04201c0.02539-0.98779,0.0293-1.9722,0.01868-2.9541&#10;&#9;&#9;&#9;&#9;c-0.00293-0.3018-0.01672-0.60159-0.02344-0.90231c-0.01562-0.69629-0.03418-1.39209-0.06848-2.08589&#10;&#9;&#9;&#9;&#9;c-0.01758-0.375-0.04492-0.7485-0.06848-1.1226c-0.03906-0.61911-0.08203-1.2373-0.13574-1.8535&#10;&#9;&#9;&#9;&#9;c-0.03418-0.397-0.07422-0.79202-0.11511-1.1875c-0.03223-0.31639-0.05579-0.63431-0.0918-0.94971&#10;&#9;&#9;&#9;&#9;c-0.03418-0.29831-0.08008-0.59421-0.11816-0.89211c-0.04309-0.34032-0.08691-0.68121-0.13391-1.02051&#10;&#9;&#9;&#9;&#9;c-0.09558-0.67531-0.20203-1.3477-0.31445-2.01901c-0.04688-0.2798-0.08972-0.561-0.13965-0.8403&#10;&#9;&#9;&#9;&#9;c-0.16882-0.9424-0.35242-1.88089-0.55652-2.8149c-0.02637-0.1196-0.05762-0.23781-0.08496-0.3569&#10;&#9;&#9;&#9;&#9;c-0.1543-0.68851-0.31152-1.37601-0.48535-2.0591c-0.02441-0.09671-0.05579-0.19141-0.08118-0.2881&#10;&#9;&#9;&#9;&#9;c-0.29199-1.1328-0.60352-2.26071-0.9491-3.37991l-20.35846-66.00439c0.01263,0.0405,0.02148,0.0811,0.03418,0.12161&#10;&#9;&#9;&#9;&#9;c-5.82233-18.99121-19.25201-35.86771-40.2041-47.96441c-56.05756-32.3647-144.72943-18.2593-198.05463,31.5098&#10;&#9;&#9;&#9;&#9;c-33.56592,31.32669-45.11621,69.31299-35.09277,101.23579c-0.03766-0.12012-0.0835-0.23831-0.12067-0.3584l20.35889,66.00391&#10;&#9;&#9;&#9;&#9;c5.84186,18.94037,19.25983,35.7681,40.16461,47.83786c1.06201,0.61279,2.13916,1.20361,3.22406,1.78372&#10;&#9;&#9;&#9;&#9;c0.31598,0.16849,0.63434,0.33353,0.95209,0.49951c0.8208,0.42868,1.64844,0.8486,2.48193,1.25882&#10;&#9;&#9;&#9;&#9;c0.31152,0.15329,0.62158,0.30859,0.93457,0.45898c1.11041,0.5347,2.22852,1.05658,3.35938,1.55811&#10;&#9;&#9;&#9;&#9;c0.10693,0.04742,0.21631,0.09177,0.32373,0.13919c1.03119,0.45361,2.07178,0.8916,3.11914,1.31839&#10;&#9;&#9;&#9;&#9;c0.34619,0.14111,0.69427,0.27881,1.04248,0.41699c0.87793,0.34808,1.76117,0.68698,2.65039,1.01712&#10;&#9;&#9;&#9;&#9;c0.31396,0.11618,0.62598,0.23578,0.94135,0.3501c1.17377,0.4248,2.35498,0.83643,3.54694,1.22952&#10;&#9;&#9;&#9;&#9;c0.18848,0.0625,0.37939,0.1196,0.56836,0.18121c1.01807,0.33057,2.04199,0.6489,3.07184,0.95648&#10;&#9;&#9;&#9;&#9;c0.36774,0.10989,0.73633,0.2168,1.10602,0.32373c0.93597,0.271,1.87701,0.53168,2.82281,0.78369&#10;&#9;&#9;&#9;&#9;c0.30804,0.082,0.61469,0.16797,0.92432,0.24799c1.22803,0.3179,2.46234,0.62158,3.70502,0.9082&#10;&#9;&#9;&#9;&#9;c0.24854,0.0571,0.49951,0.10941,0.74854,0.16498c1.01416,0.22852,2.03217,0.44629,3.05518,0.65381&#10;&#9;&#9;&#9;&#9;c0.38623,0.07806,0.77344,0.15479,1.16064,0.22998c0.99896,0.19427,2.00146,0.37787,3.00781,0.5527&#10;&#9;&#9;&#9;&#9;c0.28607,0.04929,0.57025,0.10251,0.85693,0.15091c1.27338,0.21341,2.55316,0.41061,3.83789,0.5928&#10;&#9;&#9;&#9;&#9;c0.29688,0.04202,0.5957,0.07858,0.89362,0.11911c1.01459,0.13818,2.03265,0.2666,3.0542,0.38528&#10;&#9;&#9;&#9;&#9;c0.39551,0.04587,0.79199,0.09079,1.18848,0.13431c1.06451,0.11569,2.13184,0.2207,3.20258,0.3154&#10;&#9;&#9;&#9;&#9;c0.25439,0.02249,0.50732,0.04929,0.76172,0.07031c1.30713,0.10989,2.61877,0.20261,3.93359,0.28171&#10;&#9;&#9;&#9;&#9;c0.33789,0.02048,0.67682,0.03522,1.01508,0.05371c1.01318,0.05469,2.02826,0.10107,3.0459,0.1377&#10;&#9;&#9;&#9;&#9;c0.22272,0.00833,0.44434,0.02289,0.66705,0.0303c0.1709,0.0054,0.34277,0.00439,0.51318,0.00931&#10;&#9;&#9;&#9;&#9;c1.40283,0.0415,2.80762,0.07129,4.21735,0.07858c0.01898,0,0.03802-0.00049,0.05707-0.00049&#10;&#9;&#9;&#9;&#9;c1.39447,0.00677,2.79248-0.00882,4.19287-0.03522c0.38177-0.00729,0.76422-0.0166,1.14648-0.0264&#10;&#9;&#9;&#9;&#9;c1.20557-0.03027,2.41254-0.0723,3.62103-0.12698c0.23682-0.01068,0.47308-0.01761,0.71002-0.0293&#10;&#9;&#9;&#9;&#9;c1.41058-0.06931,2.82373-0.15771,4.23779-0.25983c0.13037-0.0098,0.25977-0.01419,0.39014-0.02393&#10;&#9;&#9;&#9;&#9;c0.29828-0.02249,0.59766-0.05267,0.896-0.0762c0.79242-0.06302,1.58496-0.12988,2.37793-0.20261&#10;&#9;&#9;&#9;&#9;c0.47168-0.04349,0.94287-0.0889,1.41498-0.13568c0.78857-0.07858,1.57709-0.1636,2.36572-0.25201&#10;&#9;&#9;&#9;&#9;c0.45648-0.0513,0.91309-0.10159,1.36963-0.15622c0.86475-0.10349,1.72955-0.21579,2.59424-0.33148&#10;&#9;&#9;&#9;&#9;c0.37207-0.04977,0.74408-0.0957,1.11615-0.14752c1.23145-0.17188,2.46295-0.35449,3.69342-0.55078&#10;&#9;&#9;&#9;&#9;c0.01764-0.00241,0.03516-0.00488,0.05219-0.00729c0.31445-0.05032,0.62842-0.10794,0.94293-0.1597&#10;&#9;&#9;&#9;&#9;c0.81543-0.13431,1.63129-0.26859,2.44684-0.41406c0.44629-0.07913,0.89209-0.16602,1.33838-0.24899&#10;&#9;&#9;&#9;&#9;c0.70264-0.12991,1.40533-0.2583,2.10791-0.39651c0.479-0.09369,0.95752-0.19531,1.43652-0.293&#10;&#9;&#9;&#9;&#9;c0.66797-0.13672,1.33588-0.27148,2.00281-0.41501c0.50208-0.10791,1.00244-0.22269,1.50342-0.3345&#10;&#9;&#9;&#9;&#9;c0.6416-0.1431,1.2832-0.28561,1.92328-0.43509c0.12994-0.0303,0.26031-0.05762,0.39008-0.08841&#10;&#9;&#9;&#9;&#9;c0.42682-0.10059,0.85217-0.2095,1.27777-0.31299c0.55225-0.13431,1.104-0.2666,1.65527-0.40579&#10;&#9;&#9;&#9;&#9;c0.55811-0.14062,1.11517-0.2876,1.67236-0.43311c0.55182-0.1445,1.10297-0.28708,1.65387-0.43597&#10;&#9;&#9;&#9;&#9;c0.55365-0.1499,1.10602-0.30573,1.65869-0.46039c0.55219-0.15482,1.10498-0.30811,1.65674-0.4678&#10;&#9;&#9;&#9;&#9;c0.55182-0.15918,1.10205-0.3252,1.65283-0.48969c0.54828-0.16412,1.09766-0.32669,1.64447-0.49512&#10;&#9;&#9;&#9;&#9;c0.1333-0.04102,0.26715-0.07913,0.39996-0.12057c0.13867-0.043,0.27588-0.09283,0.41455-0.1362&#10;&#9;&#9;&#9;&#9;c1.94531-0.60889,3.88385-1.24512,5.81201-1.91458c0.19824-0.06882,0.39551-0.14062,0.59332-0.21002&#10;&#9;&#9;&#9;&#9;c1.94635-0.68307,3.88385-1.39307,5.80859-2.13718c0.05859-0.02249,0.11816-0.04199,0.17578-0.06488&#10;&#9;&#9;&#9;&#9;c0.44818-0.17331,0.89252-0.3555,1.33887-0.5322c0.53131-0.21042,1.06244-0.418,1.59082-0.63278&#10;&#9;&#9;&#9;&#9;c0.53607-0.21777,1.06842-0.44238,1.60248-0.66501c0.52832-0.22018,1.05756-0.43799,1.58398-0.6626&#10;&#9;&#9;&#9;&#9;c0.53033-0.22662,1.05762-0.46002,1.58502-0.69092c0.52643-0.2305,1.05267-0.45801,1.57623-0.69241&#10;&#9;&#9;&#9;&#9;c0.52643-0.2363,1.0498-0.47952,1.57416-0.72021c0.52051-0.23929,1.04303-0.4761,1.56152-0.71973&#10;&#9;&#9;&#9;&#9;c0.08301-0.03909,0.16803-0.07672,0.25104-0.11569c0.36328-0.17139,0.72272-0.3511,1.08398-0.52441&#10;&#9;&#9;&#9;&#9;c0.63086-0.3027,1.26166-0.60452,1.88867-0.91357c0.46094-0.22751,0.91992-0.46091,1.37897-0.69193&#10;&#9;&#9;&#9;&#9;c0.60345-0.30417,1.20795-0.60791,1.80865-0.91849c0.46777-0.24219,0.93359-0.48883,1.39935-0.73492&#10;&#9;&#9;&#9;&#9;c0.58594-0.30908,1.17188-0.61908,1.75391-0.93457c0.46967-0.25391,0.9375-0.51221,1.4043-0.77051&#10;&#9;&#9;&#9;&#9;c0.57617-0.31842,1.15045-0.6377,1.72272-0.96143c0.19629-0.1113,0.39551-0.21832,0.5918-0.33057&#10;&#9;&#9;&#9;&#9;c0.23438-0.13379,0.46387-0.2739,0.69733-0.40872c0.71387-0.41208,1.42377-0.82907,2.13281-1.25049&#10;&#9;&#9;&#9;&#9;c0.40424-0.24121,0.80963-0.48239,1.21289-0.72659c0.74512-0.45169,1.48627-0.91058,2.22461-1.37299&#10;&#9;&#9;&#9;&#9;c0.34668-0.2168,0.69525-0.43073,1.03998-0.64941c1.07318-0.6821,2.14056-1.37259,3.19812-2.07709&#10;&#9;&#9;&#9;&#9;c0.00781-0.00488,0.01459-0.00983,0.02155-0.01462c1.05078-0.69968,2.09082-1.41257,3.125-2.13379&#10;&#9;&#9;&#9;&#9;c0.08301-0.05759,0.16699-0.1123,0.24902-0.16989c0.14935-0.10504,0.29388-0.21582,0.44342-0.32083&#10;&#9;&#9;&#9;&#9;c1.1875-0.8374,2.36426-1.68948,3.5293-2.55569c0.22168-0.16501,0.44629-0.32761,0.66797-0.49371&#10;&#9;&#9;&#9;&#9;c1.26868-0.95309,2.52155-1.92477,3.76172-2.91208c0.27045-0.2153,0.53906-0.43262,0.80756-0.64941&#10;&#9;&#9;&#9;&#9;c1.23047-0.99219,2.4502-1.99609,3.65045-3.02148c0.04095-0.0347,0.08203-0.0679,0.12207-0.10251&#10;&#9;&#9;&#9;&#9;c1.22656-1.0498,2.43073-2.1235,3.62396-3.2085c0.14258-0.12991,0.29095-0.25342,0.43353-0.38431&#10;&#9;&#9;&#9;&#9;c0.36334-0.33249,0.72461-0.66699,1.08502-1.0029c1.00482-0.9375,1.9873-1.88181,2.95209-2.83109&#10;&#9;&#9;&#9;&#9;c0.32227-0.31693,0.63184-0.63773,0.94922-0.9556c0.63562-0.63531,1.26953-1.27103,1.88666-1.91113&#10;&#9;&#9;&#9;&#9;c0.36719-0.38089,0.72272-0.76459,1.08295-1.147c0.55078-0.5835,1.10162-1.16647,1.63776-1.75388&#10;&#9;&#9;&#9;&#9;c0.37299-0.40872,0.7373-0.82031,1.10352-1.23102c0.50391-0.56491,1.00677-1.1304,1.49805-1.6987&#10;&#9;&#9;&#9;&#9;c0.36816-0.4263,0.72852-0.85352,1.08978-1.28171c0.4707-0.55859,0.93848-1.11819,1.39746-1.68021&#10;&#9;&#9;&#9;&#9;c0.35455-0.43408,0.7041-0.8696,1.05078-1.30569c0.44733-0.56149,0.88867-1.12399,1.32318-1.68799&#10;&#9;&#9;&#9;&#9;c0.33691-0.43851,0.67194-0.87741,1.00195-1.31741c0.4248-0.56589,0.84186-1.13382,1.25385-1.70261&#10;&#9;&#9;&#9;&#9;c0.31934-0.439,0.63672-0.87787,0.94727-1.31839c0.41028-0.58011,0.80859-1.1611,1.20508-1.74319&#10;&#9;&#9;&#9;&#9;c0.29297-0.43121,0.58899-0.8613,0.875-1.29391c0.39941-0.60208,0.78528-1.20609,1.16992-1.81049&#10;&#9;&#9;&#9;&#9;c0.26465-0.41501,0.53418-0.8291,0.79199-1.2446c0.40234-0.6489,0.78918-1.30029,1.17578-1.9512&#10;&#9;&#9;&#9;&#9;c0.22168-0.37259,0.4502-0.74411,0.66602-1.11719c0.46289-0.79831,0.90625-1.5986,1.34473-2.39941&#10;&#9;&#9;&#9;&#9;c0.12488-0.228,0.25769-0.4556,0.38086-0.68359c0.55371-1.02979,1.08789-2.061,1.60352-3.09421&#10;&#9;&#9;&#9;&#9;c0.13965-0.2803,0.26758-0.561,0.4043-0.84128c0.36816-0.75491,0.73438-1.51028,1.08105-2.2666&#10;&#9;&#9;&#9;&#9;c0.17871-0.38919,0.3457-0.77881,0.51855-1.16849c0.28809-0.64841,0.57715-1.29691,0.84961-1.94632&#10;&#9;&#9;&#9;&#9;c0.18066-0.42868,0.34961-0.85788,0.52344-1.28708c0.18066-0.44531,0.37-0.88962,0.54297-1.33499&#10;&#9;&#9;&#9;&#9;c0.0498-0.1279,0.08972-0.25632,0.13953-0.38431c0.49609-1.29489,0.9707-2.59079,1.40723-3.88768&#10;&#9;&#9;&#9;&#9;c0.04199-0.1255,0.07812-0.25101,0.11902-0.3765c0.39172-1.17821,0.755-2.35689,1.09583-3.5352&#10;&#9;&#9;&#9;&#9;c0.11426-0.39551,0.22168-0.78999,0.33105-1.18549c0.26562-0.9648,0.51465-1.9292,0.74609-2.8936&#10;&#9;&#9;&#9;&#9;c0.08984-0.373,0.18469-0.74561,0.26868-1.11821c0.2948-1.29489,0.56738-2.58939,0.80176-3.88129&#10;&#9;&#9;&#9;&#9;c0.00391-0.01901,0.00879-0.03812,0.01172-0.05711c0.09851-0.54489,0.17578-1.08841,0.26367-1.63231&#10;&#9;&#9;&#9;&#9;c0.08301-0.51028,0.17468-1.021,0.24707-1.5303c0.08203-0.56689,0.14258-1.13229,0.21191-1.6987L1043.74036,237.5843z&#10;&#9;&#9;&#9;&#9; M748.23901,226.5126c0.09033,0.25339,0.17963,0.5078,0.27289,0.76071&#10;&#9;&#9;&#9;&#9;C748.41858,227.02042,748.32935,226.76602,748.23901,226.5126z"/><path opacity="0.1" fill="#FFFFFF" d="M980.47253,91.0466&#10;&#9;&#9;&#9;&#9;c56.06396,32.3685,58.28345,98.95001,4.95789,148.7191c-53.32507,49.76878-141.99695,63.87419-198.06091,31.50569&#10;&#9;&#9;&#9;&#9;c-56.05725-32.36469-58.27679-98.94618-4.9516-148.715c53.3255-49.7691,141.99731-63.8745,198.05457-31.5098H980.47253z" enable-background="new"/></g><path opacity="0.3" d="M557.13953,397.85852&#10;&#9;&#9;&#9;c66.23871-11.92871,203.76251-49.12421,190.15979-145.98563c-0.13385-0.95369-1.4176-1.1609-1.85693-0.30399&#10;&#9;&#9;&#9;c-38.68146,75.42819-104.12744,120.6987-188.74072,144.3721C555.49432,396.27881,555.90576,398.08072,557.13953,397.85852&#10;&#9;&#9;&#9;L557.13953,397.85852z" enable-background="new"/><path opacity="0.3" d="M506.24619,424.2099c66.3613,11.22668,208.35214,22.84167,228.38242-72.8974&#10;&#9;&#9;&#9;c0.1972-0.94263-0.94019-1.57263-1.6441-0.91531c-61.95593,57.85431-138.87164,78.2648-226.50043,71.86032&#10;&#9;&#9;&#9;C505.23376,422.16611,505.01007,424.00082,506.24619,424.2099z" enable-background="new"/><g><path fill="#1c72a1" d="M648.49487,182.8396c0.42041-21.61328-13.65717-43.3262-42.22272-59.8184&#10;&#9;&#9;&#9;&#9;c-56.06396-32.3687-146.66061-32.3682-202.35986,0.001c-27.75592,16.1299-41.60211,37.2549-41.57281,58.397&#10;&#9;&#9;&#9;&#9;c0-0.0679-0.00391-0.13571-0.00339-0.20361l-0.23141,81.5161c-0.06006,21.34772,14.02982,42.72852,42.24271,59.01712&#10;&#9;&#9;&#9;&#9;c1.68701,0.97409,3.4082,1.91501,5.15622,2.8306c0.57959,0.30368,1.1777,0.58841,1.76367,0.88531&#10;&#9;&#9;&#9;&#9;c1.18118,0.59909,2.36279,1.19781,3.56931,1.77051c0.71481,0.33939,1.44681,0.66058,2.17041,0.99121&#10;&#9;&#9;&#9;&#9;c1.103,0.50339,2.2056,1.00681,3.32809,1.48929c0.78418,0.33691,1.58148,0.65817,2.37451,0.98492&#10;&#9;&#9;&#9;&#9;c0.76221,0.31348,1.51117,0.64209,2.28128,0.9458c0.39362,0.1553,0.79541,0.2998,1.19092,0.45261&#10;&#9;&#9;&#9;&#9;c0.49661,0.19193,0.99609,0.38043,1.49609,0.56842c1.46829,0.55219,2.94867,1.0874,4.4429,1.60498&#10;&#9;&#9;&#9;&#9;c0.3472,0.12057,0.68988,0.24658,1.03857,0.36469c1.80371,0.61328,3.62653,1.1987,5.46478,1.76221&#10;&#9;&#9;&#9;&#9;c0.45609,0.14011,0.9165,0.27246,1.375,0.40918c0.78912,0.23581,1.57373,0.47852,2.36871,0.70514&#10;&#9;&#9;&#9;&#9;c0.82959,0.23627,1.6665,0.46088,2.50198,0.68747c0.24658,0.06693,0.49069,0.13672,0.7373,0.20261&#10;&#9;&#9;&#9;&#9;c1.85742,0.49609,3.73099,0.96338,5.6152,1.41107c0.36227,0.08594,0.7236,0.17142,1.08688,0.25592&#10;&#9;&#9;&#9;&#9;c1.65329,0.3833,3.31247,0.75537,4.98441,1.10159c0.16107,0.03369,0.32568,0.06009,0.48679,0.0928&#10;&#9;&#9;&#9;&#9;c1.47018,0.3013,2.95309,0.57178,4.43549,0.84421c0.80133,0.14749,1.59518,0.3096,2.3999,0.44818&#10;&#9;&#9;&#9;&#9;c1.9346,0.33401,3.88229,0.63431,5.83499,0.91992c0.34473,0.05081,0.6846,0.1138,1.02985,0.16257&#10;&#9;&#9;&#9;&#9;c0.01709,0.00241,0.03519,0.00391,0.05219,0.00629c2.26898,0.32132,4.54877,0.60992,6.83688,0.86621&#10;&#9;&#9;&#9;&#9;c0.52438,0.05859,1.0527,0.09863,1.57761,0.15381c1.76761,0.186,3.53561,0.36819,5.31149,0.51511&#10;&#9;&#9;&#9;&#9;c0.0444,0.00388,0.0889,0.00931,0.1333,0.01321c0.78812,0.06488,1.58057,0.10349,2.37009,0.16058&#10;&#9;&#9;&#9;&#9;c1.47562,0.10739,2.94974,0.22018,4.42923,0.30078c0.94818,0.05182,1.8989,0.07761,2.84857,0.11823&#10;&#9;&#9;&#9;&#9;c1.3696,0.05908,2.7388,0.125,4.11081,0.1611c0.11182,0.0029,0.2236,0.01028,0.33539,0.01318&#10;&#9;&#9;&#9;&#9;c0.76511,0.01901,1.53171,0.01123,2.29739,0.02341c1.49319,0.02289,2.98538,0.04877,4.47897,0.04489&#10;&#9;&#9;&#9;&#9;c0.97614-0.00198,1.95123-0.0264,2.92682-0.04001c1.39307-0.02002,2.78558-0.03812,4.17719-0.08112&#10;&#9;&#9;&#9;&#9;c0.25781-0.0083,0.5166-0.00629,0.7749-0.01511c1.61041-0.05521,3.21832-0.13089,4.82471-0.21777&#10;&#9;&#9;&#9;&#9;c0.34723-0.01862,0.69293-0.04053,1.03961-0.06052c2.05133-0.11908,4.1001-0.25629,6.14264-0.42679&#10;&#9;&#9;&#9;&#9;c0.07275-0.00589,0.14496-0.0137,0.21777-0.01999c1.2168-0.10248,2.43158-0.21191,3.64398-0.33249&#10;&#9;&#9;&#9;&#9;c0.69238-0.06882,1.38177-0.15189,2.07281-0.22659c0.49896-0.0542,0.99756-0.10638,1.49554-0.1636&#10;&#9;&#9;&#9;&#9;c1.98242-0.22751,3.96002-0.47507,5.92719-0.7515c0.29053-0.04102,0.57861-0.08789,0.86871-0.12988&#10;&#9;&#9;&#9;&#9;c1.72662-0.24899,3.44476-0.5195,5.15668-0.80664c0.50592-0.08447,1.01074-0.16888,1.51514-0.25729&#10;&#9;&#9;&#9;&#9;c0.40375-0.07028,0.81097-0.13327,1.21436-0.20609c0.71393-0.12891,1.41656-0.28372,2.12744-0.41891&#10;&#9;&#9;&#9;&#9;c1.24951-0.23779,2.49713-0.47708,3.73682-0.73581c1.01709-0.21191,2.02588-0.43851,3.03613-0.66409&#10;&#9;&#9;&#9;&#9;c1.21967-0.27249,2.43597-0.54932,3.64496-0.8418c1.00781-0.24411,2.00781-0.5,3.00732-0.75778&#10;&#9;&#9;&#9;&#9;c1.19287-0.30811,2.38129-0.62262,3.5625-0.9502c0.99371-0.27594,1.98102-0.56052,2.96582-0.85062&#10;&#9;&#9;&#9;&#9;c1.16748-0.34372,2.32758-0.69681,3.48187-1.06049c0.50494-0.15918,1.02155-0.3013,1.52393-0.4639&#10;&#9;&#9;&#9;&#9;c0.70996-0.2305,1.40869-0.47562,2.11328-0.71289c0.43311-0.14648,0.86871-0.28961,1.2998-0.43851&#10;&#9;&#9;&#9;&#9;c1.78027-0.61618,3.54388-1.25339,5.28662-1.918c0.32416-0.12347,0.64307-0.25439,0.96625-0.37988&#10;&#9;&#9;&#9;&#9;c1.47412-0.57233,2.93262-1.16312,4.37744-1.77103c0.43945-0.18509,0.87988-0.36868,1.31689-0.5571&#10;&#9;&#9;&#9;&#9;c1.69733-0.73138,3.37744-1.48138,5.02979-2.26221c0.19482-0.09229,0.38483-0.18951,0.5791-0.28268&#10;&#9;&#9;&#9;&#9;c1.47998-0.70648,2.9375-1.43649,4.37842-2.18362c0.42328-0.21967,0.8457-0.43948,1.26611-0.6626&#10;&#9;&#9;&#9;&#9;c1.60248-0.85062,3.18896-1.71732,4.73877-2.61768c0.58844-0.3418,1.17041-0.686,1.74664-1.03223&#10;&#9;&#9;&#9;&#9;c0.13275-0.08011,0.25977-0.16211,0.39258-0.24271c0.44818-0.27148,0.88873-0.5459,1.3291-0.82028&#10;&#9;&#9;&#9;&#9;c0.39844-0.2485,0.79834-0.49609,1.19043-0.74658c0.43463-0.27692,0.86041-0.55661,1.28711-0.8364&#10;&#9;&#9;&#9;&#9;c0.38477-0.25241,0.771-0.50443,1.14941-0.75833c0.42139-0.2832,0.83398-0.56927,1.24762-0.85449&#10;&#9;&#9;&#9;&#9;c0.36957-0.25589,0.74164-0.51028,1.10547-0.76758c0.4082-0.2886,0.80713-0.5806,1.20752-0.87161&#10;&#9;&#9;&#9;&#9;c0.35547-0.25879,0.71387-0.5166,1.06299-0.77689c0.39453-0.29391,0.77881-0.59131,1.16504-0.8877&#10;&#9;&#9;&#9;&#9;c0.3418-0.26172,0.68695-0.52252,1.02246-0.78659c0.38379-0.30182,0.75677-0.60641,1.13281-0.91061&#10;&#9;&#9;&#9;&#9;c0.32373-0.26172,0.65094-0.52249,0.96869-0.78558c0.37305-0.30963,0.73492-0.62213,1.1001-0.93411&#10;&#9;&#9;&#9;&#9;c0.30762-0.2627,0.62012-0.52441,0.92188-0.7886c0.36285-0.3179,0.71393-0.6387,1.06842-0.95898&#10;&#9;&#9;&#9;&#9;c0.25537-0.2305,0.51862-0.45901,0.76947-0.6904c0.02832-0.0264,0.05475-0.05371,0.08301-0.08011&#10;&#9;&#9;&#9;&#9;c0.74713-0.69092,1.47223-1.38821,2.18024-2.08893c0.18848-0.18649,0.37012-0.37451,0.55566-0.56149&#10;&#9;&#9;&#9;&#9;c0.53033-0.53522,1.05035-1.0723,1.55865-1.61279c0.20746-0.22021,0.41406-0.4404,0.61768-0.66162&#10;&#9;&#9;&#9;&#9;c0.5542-0.60208,1.09473-1.20749,1.62158-1.81589c0.10352-0.11957,0.2124-0.23828,0.31494-0.3584&#10;&#9;&#9;&#9;&#9;c0.61816-0.72269,1.21338-1.4502,1.79297-2.18118c0.04828-0.061,0.10156-0.12109,0.1499-0.18259&#10;&#9;&#9;&#9;&#9;c0.14014-0.17773,0.26862-0.35742,0.40631-0.53561c0.32184-0.4165,0.64014-0.83301,0.94922-1.25201&#10;&#9;&#9;&#9;&#9;c0.1958-0.26459,0.38617-0.53079,0.57709-0.79639c0.29102-0.40622,0.57709-0.81351,0.85687-1.2222&#10;&#9;&#9;&#9;&#9;c0.18512-0.27048,0.36823-0.54099,0.54828-0.81198c0.2749-0.41461,0.5415-0.82962,0.80426-1.24612&#10;&#9;&#9;&#9;&#9;c0.16602-0.26318,0.33398-0.52588,0.49506-0.78958c0.27393-0.4473,0.53613-0.89651,0.79645-1.34622&#10;&#9;&#9;&#9;&#9;c0.10596-0.18359,0.22113-0.36569,0.32471-0.54929c0.0293-0.05182,0.05524-0.10349,0.08398-0.1553&#10;&#9;&#9;&#9;&#9;c0.22174-0.39499,0.43121-0.79199,0.64209-1.18851c0.13715-0.25778,0.28033-0.51511,0.41315-0.77341&#10;&#9;&#9;&#9;&#9;c0.23389-0.45508,0.45355-0.91208,0.67328-1.36868c0.09668-0.2012,0.2002-0.40091,0.29443-0.60208&#10;&#9;&#9;&#9;&#9;c0.30804-0.6597,0.60248-1.32031,0.88226-1.9834c0.0459-0.10941,0.08588-0.21921,0.13129-0.32861&#10;&#9;&#9;&#9;&#9;c0.22949-0.55368,0.45355-1.1084,0.6626-1.66458c0.00934-0.02341,0.01953-0.04691,0.02832-0.07031&#10;&#9;&#9;&#9;&#9;c0.09467-0.25198,0.17676-0.5054,0.26758-0.75781c0.13617-0.38089,0.27643-0.76169,0.40326-1.14362&#10;&#9;&#9;&#9;&#9;c0.09668-0.28958,0.18213-0.58008,0.27344-0.8696c0.11621-0.37057,0.23535-0.74069,0.34277-1.11179&#10;&#9;&#9;&#9;&#9;c0.08691-0.29831,0.1626-0.59769,0.24371-0.89648c0.09808-0.36279,0.19867-0.72559,0.28864-1.08942&#10;&#9;&#9;&#9;&#9;c0.07568-0.30569,0.1416-0.61279,0.21088-0.91888c0.08148-0.3584,0.16547-0.71631,0.23877-1.07471&#10;&#9;&#9;&#9;&#9;c0.01324-0.06451,0.02985-0.12891,0.04254-0.1929c0.04785-0.2388,0.08398-0.478,0.12836-0.71631&#10;&#9;&#9;&#9;&#9;c0.06793-0.36719,0.13721-0.73389,0.19678-1.10162c0.04926-0.30658,0.09076-0.61328,0.13483-0.92038&#10;&#9;&#9;&#9;&#9;c0.05176-0.36328,0.10449-0.72708,0.14795-1.09079c0.03705-0.311,0.06689-0.6221,0.09808-0.93311&#10;&#9;&#9;&#9;&#9;c0.03607-0.36038,0.07233-0.72067,0.10065-1.08109c0.02441-0.31403,0.04199-0.6279,0.06049-0.94241&#10;&#9;&#9;&#9;&#9;c0.02051-0.3584,0.04095-0.71631,0.05371-1.0752c0.00446-0.11618,0.01422-0.23239,0.01764-0.3486&#10;&#9;&#9;&#9;&#9;c0.01221-0.41888,0.01862-0.83789,0.01996-1.25681l0.23102-81.5166c-0.00049,0.26759-0.01373,0.53519-0.01862,0.8027&#10;&#9;&#9;&#9;&#9;L648.49487,182.8396z"/><path opacity="0.1" fill="#FFFFFF" d="M606.27203,123.0213&#10;&#9;&#9;&#9;&#9;c56.06348,32.36829,56.35889,84.84529,0.65967,117.21411c-55.69299,32.3652-146.28958,32.3656-202.35315-0.00272&#10;&#9;&#9;&#9;&#9;c-56.0639-32.3685-56.35928-84.8455-0.66632-117.2107c55.69922-32.3688,146.29584-32.36921,202.35968-0.00069H606.27203z" enable-background="new"/></g><path fill="#FFC444" d="M483.11749,446.88531c-10.36832-23.82361-28.58881-34.24191-54.49472-31.53992&#10;&#9;&#9;&#9;c-2.54919,0.26611-3.69208-3.91751-1.30878-4.85809c25.0853-9.89813,35.78201-28.2211,32.12027-54.95044&#10;&#9;&#9;&#9;c-0.34579-2.52838,4.20612-3.7215,4.8602-1.25549c7.66251,28.89859,25.96219,39.62271,54.8829,32.2027&#10;&#9;&#9;&#9;c2.48682-0.63849,3.604,3.87231,1.23779,4.87421c-25.36041,10.73889-35.73471,29.104-32.31412,54.39929&#10;&#9;&#9;&#9;c0.33932,2.50739-3.97388,3.44748-4.9837,1.12756L483.11749,446.88531z"/><path opacity="0.05" d="M983.08893,547.30811c37.15167,21.44958,37.34747,56.22455,0.43713,77.67444&#10;&#9;&#9;&#9;c-36.90619,21.44751-96.94196,21.44781-134.09375-0.00177c-37.15204-21.44971-37.34772-56.22473-0.44153-77.67218&#10;&#9;&#9;&#9;C885.90112,525.8587,945.93689,525.8584,983.08893,547.30811z" enable-background="new"/></g></g></svg>