<svg xmlns="http://www.w3.org/2000/svg" xmlns:xlink="http://www.w3.org/1999/xlink" version="1.1" id="_レイヤー_2" x="0px" y="0px" viewBox="0 0 640.54675 754.51892" enable-background="new 0 0 640.54675 754.51892" width="641px" height="755px" class="lg:!max-h-[405px] isometric rectangleModalImage"><title>折れ線グラフ(増加)</title><g id="_レイヤー_2-2"><g><path opacity="0.05" d="M628.92395,715.40948c-12.98004-7.49402-32.71173-8.70697-47.88544-3.64734&#10;&#9;&#9;&#9;l-86.09338-49.70605c8.7637-8.76056,6.6626-20.15259-6.31741-27.64655c-12.97998-7.49402-32.7117-8.70703-47.88538-3.64734&#10;&#9;&#9;&#9;l-86.09341-49.70599c8.7637-8.76062,6.6626-20.15259-6.31738-27.64661c-12.98001-7.49402-32.7117-8.70697-47.88541-3.64728&#10;&#9;&#9;&#9;l-86.0934-49.70602c8.7637-8.76059,6.6626-20.15256-6.3174-27.64658c-12.98001-7.49402-32.7117-8.707-47.88541-3.64731&#10;&#9;&#9;&#9;l-86.09338-49.70599c8.7637-8.76062,6.6626-20.15259-6.3174-27.64661c-15.4967-8.94699-40.6214-8.94717-56.1176-0.00049&#10;&#9;&#9;&#9;s-15.4959,23.45248,0.0008,32.39948c12.98,7.49402,32.71169,8.707,47.8854,3.64731l86.0934,49.70599&#10;&#9;&#9;&#9;c-8.7637,8.76059-6.6626,20.15259,6.31738,27.64661c12.98,7.49402,32.71172,8.70697,47.88541,3.64731l86.0934,49.70596&#10;&#9;&#9;&#9;c-8.7637,8.76062-6.6626,20.15259,6.31741,27.64661s32.7117,8.70703,47.88538,3.64734l86.09341,49.70599&#10;&#9;&#9;&#9;c-8.7637,8.76056-6.6626,20.15259,6.31741,27.64655c12.97998,7.49396,32.7117,8.70697,47.88538,3.64728l86.09341,49.70599&#10;&#9;&#9;&#9;c-8.76367,8.76062-6.6626,20.15259,6.31738,27.64661c15.4967,8.94702,40.6214,8.94727,56.11761,0.00055&#10;&#9;&#9;&#9;c15.49609-8.94666,15.49591-23.45251-0.00079-32.39954V715.40948z" enable-background="new"/><g><circle fill="#1B72A1" cx="39.6811" cy="248.38425" r="32.39999"/><circle opacity="0.2" fill="#FFFFFF" cx="39.6811" cy="248.38425" r="32.39999" enable-background="new"/><path fill="#1B72A1" d="M179.97328,316.18744c-1.09221,0-2.20311-0.21451-3.27191-0.66742L57.79829,265.17624&#10;&#9;&#9;&#9;&#9;c-4.2715-1.80881-6.2684-6.73831-4.4602-11.01041c1.8094-4.27209,6.7383-6.26949,11.0109-4.45958l118.90309,50.3438&#10;&#9;&#9;&#9;&#9;c4.2715,1.80878,6.2684,6.73828,4.46019,11.01041c-1.35699,3.2027-4.46719,5.12698-7.73911,5.12698H179.97328z"/><circle fill="#1B72A1" cx="179.97728" cy="307.78485" r="32.4"/><circle opacity="0.2" fill="#FFFFFF" cx="179.97728" cy="307.78485" r="32.4" enable-background="new"/><path fill="#1B72A1" d="M201.46777,315.35773c-4.4906,0-8.21368-3.55139-8.38831-8.07709&#10;&#9;&#9;&#9;&#9;c-0.1781-4.63593,3.4359-8.5383,8.07069-8.7164l118.8-4.57028c4.65936-0.1828,8.53949,3.43478,8.71759,8.07068&#10;&#9;&#9;&#9;&#9;c0.1781,4.63593-3.43588,8.5383-8.07071,8.7164l-118.8,4.57028c-0.1102,0.0047-0.22029,0.00641-0.3293,0.00641H201.46777z"/><ellipse transform="matrix(0.16018 -0.98709 0.98709 0.16018 -29.51147 570.08807)" fill="#1B72A1" cx="320.27338" cy="302.38733" rx="32.39999" ry="32.40001"/><ellipse transform="matrix(0.16018 -0.98709 0.98709 0.16018 -29.51147 570.08807)" opacity="0.2" fill="#FFFFFF" cx="320.27338" cy="302.38733" rx="32.39999" ry="32.40001" enable-background="new"/><path fill="#1B72A1" d="M331.08185,304.55365c-2.9039,0-5.72699-1.50641-7.2832-4.2012&#10;&#9;&#9;&#9;&#9;c-2.31912-4.01779-0.9422-9.1553,3.07498-11.47501l129.4957-74.75978c4.0184-2.3221,9.15469-0.94218,11.47498,3.0744&#10;&#9;&#9;&#9;&#9;c2.31912,4.01779,0.9422,9.15529-3.07498,11.4744l-129.4957,74.76088c-1.323,0.76349-2.76678,1.12619-4.1918,1.12619&#10;&#9;&#9;&#9;&#9;L331.08185,304.55365z"/><circle fill="#1B72A1" cx="460.56946" cy="221.39214" r="32.40001"/><circle opacity="0.2" fill="#FFFFFF" cx="460.56946" cy="221.39214" r="32.40001" enable-background="new"/><path fill="#1B72A1" d="M471.46655,215.10384c-1.74017,0-3.49448-0.5385-5.00037-1.6559&#10;&#9;&#9;&#9;&#9;c-3.72421-2.76501-4.50232-8.02679-1.73792-11.7516L594.11975,27.39296c2.76562-3.7254,8.0238-4.5053,11.75269-1.7379&#10;&#9;&#9;&#9;&#9;c3.72424,2.765,4.50232,8.0268,1.73792,11.7516L478.21896,211.71013c-1.6488,2.22009-4.18481,3.3938-6.75232,3.3938&#10;&#9;&#9;&#9;&#9;L471.46655,215.10384z"/><circle fill="#1B72A1" cx="600.86554" cy="32.40006" r="32.40001"/><circle opacity="0.2" fill="#FFFFFF" cx="600.86554" cy="32.40006" r="32.40001" enable-background="new"/></g></g></g></svg>