<svg xmlns="http://www.w3.org/2000/svg" xmlns:xlink="http://www.w3.org/1999/xlink" version="1.1" id="_レイヤー_2" x="0px" y="0px" viewBox="0 0 789.51691 1195.86829" enable-background="new 0 0 789.51691 1195.86829" width="790px" height="1196px" class="lg:!max-h-[405px] isometric rectangleModalImage"><title>説明する男性(上半身)</title><g id="_男性_上半身_"><g><g><path fill="#FFD3D4" d="M225.63049,477.2691c-26.6506,46.38617-90.12061,392.72528-23.40059,398.50165&#10;&#9;&#9;&#9;&#9;c45.4796,3.93738,99.82991-177.17456,120.16661-322.42633c20.8569-148.96698-70.11551-122.46152-96.7661-76.07529&#10;&#9;&#9;&#9;&#9;L225.63049,477.2691z"/><path fill="#1d71a2" d="M287.77719,861.19165c0,0-201.56821-118.03253-136.85609-192.70032&#10;&#9;&#9;&#9;&#9;c55.48228-64.01801,34.85429-283.60541,201.66551-295.79556c19.0705-1.39359-8.85425,448.647-64.80942,488.49594V861.19165z"/><path opacity="0.1" d="M244.7851,813.71552c-31.0714,4.4577-22.27969-267.62567,11.60431-259.01117&#10;&#9;&#9;&#9;&#9;c33.88388,8.61462-0.0675,257.35608-11.60432,259.01117H244.7851z" enable-background="new"/></g><g><polygon fill="#CDCDD5" points="324.77798,445.30127 324.77798,445.30127 327.0126,432.78448"/><path fill="#1d71a2" d="M356.54111,1107.04407c124.04288,71.61719,239.96475,98.43359,338.60355,85.8125&#10;&#9;&#9;&#9;&#9;c-4.63672-28.08984-20.50592-91.67969-31.17377-137.22839c-16.38483-69.97076-35.44922-148.4552-36.91992-175.61725&#10;&#9;&#9;&#9;&#9;c-9.24017-170.83008,5.96869-189.89838,6.36328-258.76953c0.09772-17.11328-1.5625-53.07233-3.89648-79.42969&#10;&#9;&#9;&#9;&#9;c-4.07227-45.99609-49.81439-119.8808-92.89838-138.20306c-43.08591-18.32233-49.73242-32.75189-169.03119-35.24411&#10;&#9;&#9;&#9;&#9;C272.2738,386.88214,240.53551,503.37622,242.70349,560.802c2.16602,57.42578,6.5,171.52734-13.1895,368.39844&#10;&#9;&#9;&#9;&#9;c-3.11331,31.12299-0.002,61.81641,1.1523,90.96484c40.73441,32.75781,82.79489,62.00574,125.875,86.87891L356.54111,1107.04407z"/><path opacity="0.1" d="M536.78186,845.35492&#10;&#9;&#9;&#9;&#9;c4.1875-145.12677,55.64044-201.91553,96.63263-224.11395c-0.39429,68.87103-15.60358,87.94092-6.36328,258.76953&#10;&#9;&#9;&#9;&#9;c1.4696,27.16333,20.53448,105.64697,36.92029,175.61792C602.73547,1036.19592,532.78717,983.80872,536.78186,845.35492z" enable-background="new"/><path fill="#FFC9CA" d="M358.5033,385.81958c8.42871-9.5452,18.1366-9.8432,18.1366-9.8432s6.14191-38.9938,6.30743-42.02069&#10;&#9;&#9;&#9;&#9;l108.95111-9.73203c0,0-3.63232,63.01709,4.52997,68.57312c15.5217,10.56488,42.68103,5.7973,34.68103,29.79727&#10;&#9;&#9;&#9;&#9;c-8,24.00003-104.1774,61.68051-148.17743,45.68051c-44-15.99997-32.85721-72.90939-24.42871-82.4548V385.81958z"/><g><path fill="#FFD3D4" d="M328.81659,93.1384c-29.83948,35.1824-8.72,125.3679-8.72,125.3679&#10;&#9;&#9;&#9;&#9;&#9;s-14.73972,105.64079,79.56119,142.56398c74.96683,29.353,144.15088-48.25989,144.15088-48.25989&#10;&#9;&#9;&#9;&#9;&#9;s112.42786-202.40433-16.58582-255.85181s-168.56686,0.9973-198.40637,36.1797L328.81659,93.1384z"/><path fill="#3C4358" d="M412.10461,6.1989C509.461-16.582,567.31348,28.82,570.48193,55.2232&#10;&#9;&#9;&#9;&#9;&#9;c25.87506,12.1455,48.68127,43.09451,47.04138,89.98339c-3.15851,90.30679-73.71448,167.60381-73.71448,167.60381&#10;&#9;&#9;&#9;&#9;&#9;s-15.16901-26.297-1.51581-23.39279c17.26849,3.67319,49.22662-79.8447,31.70502-102.20059&#10;&#9;&#9;&#9;&#9;&#9;c-17.5213-22.35541-42.44293,50.96889-42.44293,50.96889l-14.80896,19.50502l-3.19135-49.248&#10;&#9;&#9;&#9;&#9;&#9;c0,0-11.64227-5.26001-30.87054-37.5634c-17.14352-28.8009-84.7352-60.48041-103.7962-56.3289&#10;&#9;&#9;&#9;&#9;&#9;c-20.24762,4.41-66.3125,29.701-65.98981,34.6812l0.3302,19.09781c0,0-10.96002-8.7899-13.29129-31.97211&#10;&#9;&#9;&#9;&#9;&#9;c-2.36981-23.56479-2.48801-103.33,112.16748-130.15869L412.10461,6.1989z"/></g></g><g><path fill="#FFD3D4" d="M26.0368,483.31323c17.4256,15.65128,54.3082,42.53052,70.5581,16.06607&#10;&#9;&#9;&#9;&#9;c16.24989-26.46451,36.6691-106.50021-31.2205-109.15921c-66.8451-2.6181-86.80049,50.4632-39.33759,93.0932L26.0368,483.31323z"/><path fill="#FFD3D4" d="M206.13701,874.98163c42.1855-35.92975-90.374-381.57062-123.7458-406.36261&#10;&#9;&#9;&#9;&#9;c-6.4981-4.82739-34.1909,0.73648-37.6704,19.82828c-16.7718,92.02518,53.6056,326.65128,89.2078,371.43796&#10;&#9;&#9;&#9;&#9;c42.9883,54.07825,72.2084,15.09644,72.2084,15.09644V874.98163z"/><path fill="#FFD3D4" d="M92.26421,400.1019c2.3588-49.16132-4.86491-125.09991-34.5873-120.6586&#10;&#9;&#9;&#9;&#9;c-15.2616,2.28049-2.1251,105.28528,3.9444,120.23297C70.82301,422.33768,91.56101,414.7569,92.26421,400.1019z"/><path fill="#FFD3D4" d="M112.0467,446.87192c1.1581-24.32272,19.7086-72.78592,12.10789-76.7308&#10;&#9;&#9;&#9;&#9;c-15.1665-7.87152-37.02859,25.83649-41.66109,39.90179C77.86099,424.10825,111.16219,465.46179,112.0467,446.87192z"/></g><g><g><path fill="#FFD3D4" d="M693.07159,620.99927c26.65063,46.38623,19.60382,385.10291-47.11615,390.87909&#10;&#9;&#9;&#9;&#9;&#9;c-45.47961,3.93738-46.98914-171.14594-67.32593-316.39752C557.77264,546.51379,666.42102,574.6131,693.07159,620.99927z"/><path fill="#FFD3D4" d="M672.82416,1195.02649c16.84186-116.19336,20.46869-251.70117-9.17767-263.63861&#10;&#9;&#9;&#9;&#9;&#9;c0,0-33.60742-28.21869-53.73242,46.31049c-9.85162,36.47852-14.65619,129.47461-13.71094,215.06433&#10;&#9;&#9;&#9;&#9;&#9;c26.43365,3.16028,52.01953,3.89648,76.62109,2.26379H672.82416z"/></g><path fill="#1d71a2" d="M554.92841,414.65948c-1.95721-5.36899,116.81421,62.19031,140.2287,104.40631&#10;&#9;&#9;&#9;&#9;c20.25513,36.51959,65.52771,162.17297,72.11469,271.56415c3.09711,51.43365,24.73871,71.57831,22.00739,101.9823&#10;&#9;&#9;&#9;&#9;c0,0-105.88806,111.29468-221.72668,63.22888c0,0-7.97693-325.08649-31.1308-353.02069c0,0,21.7204-179.34509,18.50671-188.16101&#10;&#9;&#9;&#9;&#9;V414.65948z"/></g></g></g></svg>